<svg aria-hidden="true" width="25" height="25" viewBox="0 0 25 25" fill="none" xmlns="http://www.w3.org/2000/svg">
<path d="M15.8302 12.3955C15.8302 12.9889 15.6543 13.5689 15.3246 14.0622C14.995 14.5556 14.5264 14.9401 13.9783 15.1671C13.4301 15.3942 12.8269 15.4536 12.2449 15.3379C11.663 15.2221 11.1284 14.9364 10.7089 14.5168C10.2893 14.0973 10.0036 13.5627 9.88784 12.9808C9.77209 12.3988 9.8315 11.7956 10.0586 11.2475C10.2856 10.6993 10.6701 10.2307 11.1635 9.9011C11.6568 9.57146 12.2369 9.39551 12.8302 9.39551C13.6256 9.39642 14.3881 9.71278 14.9505 10.2752C15.5129 10.8376 15.8293 11.6001 15.8302 12.3955ZM22.2052 8.27051V16.5205C22.2036 17.9124 21.65 19.2469 20.6658 20.2311C19.6815 21.2153 18.3471 21.7689 16.9552 21.7705H8.7052C7.3133 21.7689 5.97886 21.2153 4.99463 20.2311C4.01041 19.2469 3.45678 17.9124 3.4552 16.5205V8.27051C3.45678 6.87861 4.01041 5.54416 4.99463 4.55994C5.97886 3.57571 7.3133 3.02208 8.7052 3.02051H16.9552C18.3471 3.02208 19.6815 3.57571 20.6658 4.55994C21.65 5.54416 22.2036 6.87861 22.2052 8.27051ZM17.3302 12.3955C17.3302 11.5055 17.0663 10.6355 16.5718 9.89544C16.0773 9.15542 15.3745 8.57864 14.5523 8.23805C13.73 7.89746 12.8252 7.80834 11.9523 7.98197C11.0794 8.15561 10.2776 8.58419 9.64822 9.21353C9.01888 9.84286 8.5903 10.6447 8.41667 11.5176C8.24303 12.3905 8.33215 13.2953 8.67274 14.1176C9.01334 14.9399 9.59011 15.6427 10.3301 16.1371C11.0702 16.6316 11.9402 16.8955 12.8302 16.8955C14.0233 16.8942 15.1671 16.4196 16.0107 15.576C16.8543 14.7324 17.3289 13.5886 17.3302 12.3955ZM18.8302 7.52051C18.8302 7.298 18.7642 7.0805 18.6406 6.89549C18.517 6.71049 18.3413 6.56629 18.1357 6.48114C17.9302 6.39599 17.704 6.37372 17.4857 6.41712C17.2675 6.46053 17.067 6.56768 16.9097 6.72501C16.7524 6.88235 16.6452 7.0828 16.6018 7.30103C16.5584 7.51926 16.5807 7.74546 16.6658 7.95103C16.751 8.15659 16.8952 8.33229 17.0802 8.45591C17.2652 8.57953 17.4827 8.64551 17.7052 8.64551C18.0036 8.64551 18.2897 8.52698 18.5007 8.316C18.7117 8.10502 18.8302 7.81888 18.8302 7.52051Z" fill="#1C2745"/>
</svg>
