<svg aria-hidden="true" width="24" height="25" viewBox="0 0 24 25" fill="none" xmlns="http://www.w3.org/2000/svg">
<path d="M22.962 7.04255C22.962 7.04255 22.707 5.42856 22.112 4.83355C21.262 3.98355 20.327 3.98355 19.903 3.89855C16.674 3.64355 12 3.64355 12 3.64355C12 3.64355 7.32596 3.64355 4.09696 3.89855C3.67196 3.89855 2.73696 3.89855 1.88796 4.83355C1.20796 5.51356 1.03796 7.04255 1.03796 7.04255C1.03796 7.04255 0.782959 8.99655 0.782959 10.7816V12.4806C0.782959 14.4346 1.03796 16.2196 1.03796 16.2196C1.03796 16.2196 1.29296 17.8336 1.88796 18.4286C2.73796 19.2786 3.84196 19.2786 4.35196 19.3636C6.13696 19.4486 12 19.6186 12 19.6186C12 19.6186 16.674 19.6186 19.903 19.3636C20.328 19.3636 21.263 19.3636 22.112 18.4286C22.792 17.7486 22.962 16.2196 22.962 16.2196C22.962 16.2196 23.217 14.4346 23.217 12.4806V10.7816C23.217 8.82755 22.962 7.04255 22.962 7.04255ZM8.68596 16.3046V7.04255L17.438 11.6316L8.68596 16.3056V16.3046Z" fill="#1C2745"/>
</svg>
