<svg aria-hidden="true" width="28" height="25" viewBox="0 0 28 25" fill="none" xmlns="http://www.w3.org/2000/svg">
<path d="M7.98163 3.74169C10.5857 5.69667 13.3867 9.66056 14.4151 11.7878C15.4435 9.66072 18.2444 5.69663 20.8485 3.74169C22.7275 2.33105 25.7719 1.23958 25.7719 4.7127C25.7719 5.40633 25.3742 10.5395 25.141 11.3729C24.3302 14.2702 21.3758 15.0092 18.7479 14.5619C23.3415 15.3438 24.5101 17.9334 21.9864 20.5231C17.1934 25.4414 15.0975 19.2891 14.5602 17.7126C14.4618 17.4236 14.4157 17.2884 14.415 17.4034C14.4143 17.2884 14.3683 17.4236 14.2698 17.7126C13.7328 19.2891 11.6369 25.4416 6.84362 20.5231C4.31989 17.9334 5.48843 15.3436 10.0822 14.5619C7.4541 15.0092 4.49968 14.2702 3.68904 11.3729C3.45578 10.5395 3.05811 5.40625 3.05811 4.7127C3.05811 1.23958 6.1026 2.33105 7.98149 3.74169H7.98163Z" fill="#1C2745"/>
</svg>
