<svg width="145" height="177" viewBox="0 0 145 177" fill="none" xmlns="http://www.w3.org/2000/svg">
<g clip-path="url(#clip0_1409_1182)">
<g filter="url(#filter0_d_1409_1182)">
<rect x="55.0513" y="66.9998" width="105.267" height="105.267" rx="52.6336" transform="rotate(2.47811 55.0513 66.9998)" fill="#5489A3"/>
<rect x="55.0513" y="66.9998" width="105.267" height="105.267" rx="52.6336" transform="rotate(2.47811 55.0513 66.9998)" fill="url(#paint0_linear_1409_1182)"/>
<path d="M125.339 134.741C126.59 132.516 127.278 130.018 127.342 127.466C127.405 124.914 126.843 122.386 125.703 120.101C124.563 117.817 122.881 115.847 120.804 114.363C118.727 112.879 116.318 111.927 113.787 111.589C113.097 109.594 112.011 107.759 110.592 106.195C109.173 104.631 107.453 103.371 105.534 102.491C103.615 101.611 101.537 101.129 99.4268 101.073C97.3162 101.018 95.2164 101.392 93.2541 102.17C91.2918 102.949 89.5077 104.118 88.0094 105.605C86.5112 107.093 85.33 108.869 84.5371 110.825C83.7442 112.782 83.356 114.879 83.396 116.99C83.4361 119.101 83.9034 121.182 84.77 123.107L82.9533 128.422C82.8098 128.842 82.782 129.292 82.8729 129.726C82.9637 130.16 83.1697 130.561 83.4694 130.888C83.769 131.215 84.1511 131.455 84.5756 131.583C85 131.711 85.4511 131.722 85.8814 131.615L91.3337 130.264C93.0642 131.238 94.9645 131.872 96.9327 132.133C97.6377 134.195 98.7665 136.087 100.246 137.687C101.726 139.287 103.525 140.56 105.526 141.424C107.527 142.288 109.686 142.724 111.866 142.703C114.045 142.682 116.197 142.206 118.181 141.304L123.496 143.121C123.916 143.265 124.366 143.292 124.8 143.202C125.234 143.111 125.635 142.905 125.962 142.605C126.289 142.305 126.529 141.923 126.657 141.499C126.785 141.074 126.796 140.623 126.689 140.193L125.339 134.741ZM91.2601 128.588L85.4853 130.02C85.3407 130.057 85.1885 130.055 85.0451 130.013C84.9016 129.971 84.7725 129.89 84.6714 129.78C84.5704 129.67 84.5013 129.534 84.4715 129.387C84.4418 129.241 84.4526 129.089 84.5028 128.948L86.4277 123.319C86.4951 123.115 86.4819 122.894 86.3907 122.7C84.9406 119.677 84.6248 116.234 85.5008 112.998C86.3769 109.763 88.3865 106.949 91.1634 105.071C93.9403 103.193 97.2996 102.375 100.629 102.767C103.958 103.159 107.036 104.733 109.302 107.205C111.567 109.676 112.869 112.879 112.97 116.229C113.072 119.58 111.965 122.856 109.854 125.459C107.742 128.063 104.765 129.821 101.465 130.413C98.1652 131.005 94.7627 130.392 91.8774 128.685C91.6919 128.574 91.4706 128.539 91.2601 128.588ZM124.851 141.393C124.741 141.495 124.606 141.564 124.459 141.594C124.313 141.624 124.161 141.613 124.02 141.563L118.391 139.638C118.188 139.571 117.966 139.584 117.772 139.675C116.046 140.505 114.168 140.972 112.255 141.046C110.341 141.12 108.432 140.8 106.648 140.106C104.863 139.412 103.239 138.359 101.878 137.012C100.517 135.665 99.4476 134.052 98.7355 132.274C101.091 132.314 103.424 131.821 105.562 130.831C107.699 129.842 109.585 128.382 111.079 126.561C112.573 124.74 113.636 122.605 114.188 120.315C114.741 118.026 114.768 115.641 114.269 113.339C116.481 113.749 118.561 114.686 120.333 116.071C122.105 117.456 123.516 119.249 124.448 121.296C125.379 123.343 125.803 125.585 125.683 127.831C125.563 130.077 124.903 132.261 123.759 134.197C123.651 134.382 123.619 134.602 123.669 134.81L125.1 140.585C125.136 140.73 125.131 140.881 125.087 141.024C125.043 141.166 124.962 141.294 124.851 141.393Z" fill="#FFF4EB"/>
</g>
<g filter="url(#filter1_d_1409_1182)">
<rect x="-9" y="21.1926" width="114.361" height="114.361" rx="57.1803" transform="rotate(-16.3498 -9 21.1926)" fill="#E79450"/>
<rect x="-9" y="21.1926" width="114.361" height="114.361" rx="57.1803" transform="rotate(-16.3498 -9 21.1926)" fill="url(#paint1_linear_1409_1182)"/>
<g clip-path="url(#clip1_1409_1182)">
<path d="M74.1264 44.2922L65.5747 46.801C65.0984 46.9151 53.6706 49.5064 40.363 43.6828C39.8959 43.4778 39.3801 43.4104 38.876 43.4884C38.372 43.5665 37.9007 43.7867 37.5174 44.1233C37.1342 44.4598 36.8549 44.8987 36.7124 45.3885C36.5699 45.8782 36.5701 46.3985 36.713 46.8881L46.7732 81.1806C46.9138 81.6714 47.193 82.1112 47.5773 82.4472C47.9616 82.7833 48.4347 83.0013 48.9398 83.0753C49.3275 83.1334 49.7232 83.107 50.0997 82.998C50.7031 82.8197 51.2239 82.4335 51.5699 81.908C58.4307 71.6039 67.4456 67.1831 70.2459 66.0008L72.5277 73.7788C72.6514 74.2029 72.8781 74.5898 73.1874 74.9052C73.4968 75.2205 73.8793 75.4545 74.301 75.5863L77.1195 76.4657C77.5281 76.5933 77.9613 76.6212 78.383 76.547C78.8046 76.4728 79.2023 76.2987 79.5428 76.0393C79.8834 75.7799 80.1568 75.4426 80.3402 75.0558C80.5237 74.669 80.6118 74.2439 80.5972 73.8161L80.3134 62.938C82.7077 62.0566 84.6655 60.2785 85.7726 57.9797C86.8797 55.681 87.0495 53.0418 86.2459 50.6201C85.4424 48.1985 83.7286 46.1843 81.4668 45.0034C79.2051 43.8225 76.5728 43.5674 74.1264 44.2922ZM69.7449 64.2693C66.9299 65.4094 57.4272 69.8894 50.0899 80.9176C49.996 81.0595 49.8636 81.1717 49.7081 81.2409C49.5527 81.3101 49.3807 81.3335 49.2124 81.3082C49.0441 81.283 48.8865 81.2103 48.7582 81.0986C48.6298 80.9869 48.536 80.8408 48.4879 80.6776L38.4277 46.3851C38.3799 46.2223 38.3795 46.0493 38.4265 45.8863C38.4735 45.7233 38.5659 45.577 38.693 45.4646C38.7954 45.377 38.915 45.3117 39.0442 45.2731C39.2459 45.2179 39.4609 45.2375 39.6493 45.3284C51.7791 50.6363 62.196 49.2726 65.1807 48.7112L69.7449 64.2693ZM78.8175 73.8749C78.8234 74.018 78.7947 74.1604 78.734 74.2902C78.6733 74.4199 78.5823 74.5331 78.4687 74.6203C78.3551 74.7075 78.2222 74.7661 78.0812 74.7911C77.9402 74.8162 77.7952 74.807 77.6585 74.7643L74.84 73.8849C74.6996 73.841 74.5722 73.7631 74.4691 73.6581C74.366 73.5531 74.2904 73.4243 74.2491 73.2831L71.9416 65.4173L78.5429 63.4807L78.8175 73.8749ZM79.1565 61.4385L71.4407 63.702L66.9136 48.2704L74.6294 46.0068C76.6758 45.4065 78.8768 45.6437 80.7483 46.6662C82.6198 47.6887 84.0084 49.4127 84.6088 51.4591C85.2091 53.5055 84.9719 55.7065 83.9494 57.578C82.9269 59.4495 81.2029 60.8381 79.1565 61.4385Z" fill="#1C2745"/>
</g>
</g>
<g filter="url(#filter2_d_1409_1182)">
<rect x="36.6378" y="75.821" width="69.6326" height="69.6326" rx="34.8163" transform="rotate(23.3852 36.6378 75.821)" fill="#FFF4EB"/>
<rect x="36.6378" y="75.821" width="69.6326" height="69.6326" rx="34.8163" transform="rotate(23.3852 36.6378 75.821)" fill="url(#paint2_linear_1409_1182)"/>
<g clip-path="url(#clip2_1409_1182)">
<path d="M52.4001 127.089C53.857 127.717 55.5035 127.741 56.9785 127.157C58.4534 126.573 59.6364 125.427 60.2677 123.972L63.7225 115.982C64.3524 114.526 64.3778 112.878 63.7932 111.403C63.2086 109.928 62.0618 108.745 60.6051 108.115C59.1484 107.485 57.5011 107.459 56.0256 108.044C54.5502 108.629 53.3674 109.776 52.7375 111.232L49.2827 119.221C48.6547 120.678 48.6301 122.325 49.2146 123.8C49.799 125.275 50.9446 126.458 52.4001 127.089ZM53.7361 111.664C54.2515 110.472 55.2192 109.534 56.4264 109.056C57.6336 108.577 58.9814 108.598 60.1732 109.113C61.3651 109.629 62.3034 110.597 62.7817 111.804C63.26 113.011 63.2392 114.359 62.7238 115.551L59.2691 123.54C58.7537 124.732 57.7859 125.67 56.5787 126.148C55.3715 126.627 54.0238 126.606 52.8319 126.09C51.6401 125.575 50.7018 124.607 50.2235 123.4C49.7451 122.193 49.766 120.845 50.2813 119.653L53.7361 111.664ZM51.178 131.286L49.2287 135.793C49.1715 135.926 49.0639 136.03 48.9298 136.083C48.7957 136.136 48.6459 136.134 48.5135 136.077C48.3811 136.019 48.2768 135.912 48.2237 135.778C48.1705 135.644 48.1728 135.494 48.2301 135.361L50.1793 130.854C47.8105 129.675 45.9835 127.633 45.0737 125.148C44.164 122.663 44.2408 119.924 45.2882 117.494C45.3454 117.361 45.453 117.257 45.5871 117.204C45.7212 117.151 45.871 117.153 46.0034 117.211C46.1358 117.268 46.2401 117.375 46.2932 117.509C46.3464 117.644 46.3441 117.793 46.2868 117.926C45.3133 120.177 45.2739 122.723 46.1774 125.003C47.0809 127.283 48.8533 129.111 51.1045 130.085C53.3558 131.058 55.9016 131.098 58.1819 130.194C60.4621 129.291 62.2901 127.518 63.2636 125.267C63.3209 125.135 63.4284 125.03 63.5626 124.977C63.6967 124.924 63.8464 124.926 63.9789 124.984C64.1113 125.041 64.2155 125.148 64.2687 125.283C64.3218 125.417 64.3195 125.567 64.2623 125.699C63.2091 128.126 61.266 130.058 58.8324 131.097C56.3989 132.137 53.6597 132.204 51.178 131.286Z" fill="#1C2745"/>
</g>
</g>
</g>
<defs>
<filter id="filter0_d_1409_1182" x="46.4998" y="66.9998" width="117.72" height="117.72" filterUnits="userSpaceOnUse" color-interpolation-filters="sRGB">
<feFlood flood-opacity="0" result="BackgroundImageFix"/>
<feColorMatrix in="SourceAlpha" type="matrix" values="0 0 0 0 0 0 0 0 0 0 0 0 0 0 0 0 0 0 127 0" result="hardAlpha"/>
<feOffset dy="4"/>
<feGaussianBlur stdDeviation="2"/>
<feComposite in2="hardAlpha" operator="out"/>
<feColorMatrix type="matrix" values="0 0 0 0 0 0 0 0 0 0 0 0 0 0 0 0 0 0 0.13 0"/>
<feBlend mode="normal" in2="BackgroundImageFix" result="effect1_dropShadow_1409_1182"/>
<feBlend mode="normal" in="SourceGraphic" in2="effect1_dropShadow_1409_1182" result="shape"/>
</filter>
<filter id="filter1_d_1409_1182" x="-13" y="-11" width="149.929" height="149.929" filterUnits="userSpaceOnUse" color-interpolation-filters="sRGB">
<feFlood flood-opacity="0" result="BackgroundImageFix"/>
<feColorMatrix in="SourceAlpha" type="matrix" values="0 0 0 0 0 0 0 0 0 0 0 0 0 0 0 0 0 0 127 0" result="hardAlpha"/>
<feOffset dy="4"/>
<feGaussianBlur stdDeviation="2"/>
<feComposite in2="hardAlpha" operator="out"/>
<feColorMatrix type="matrix" values="0 0 0 0 0 0 0 0 0 0 0 0 0 0 0 0 0 0 0.13 0"/>
<feBlend mode="normal" in2="BackgroundImageFix" result="effect1_dropShadow_1409_1182"/>
<feBlend mode="normal" in="SourceGraphic" in2="effect1_dropShadow_1409_1182" result="shape"/>
</filter>
<filter id="filter2_d_1409_1182" x="4.99988" y="75.821" width="99.5507" height="99.5507" filterUnits="userSpaceOnUse" color-interpolation-filters="sRGB">
<feFlood flood-opacity="0" result="BackgroundImageFix"/>
<feColorMatrix in="SourceAlpha" type="matrix" values="0 0 0 0 0 0 0 0 0 0 0 0 0 0 0 0 0 0 127 0" result="hardAlpha"/>
<feOffset dy="4"/>
<feGaussianBlur stdDeviation="2"/>
<feComposite in2="hardAlpha" operator="out"/>
<feColorMatrix type="matrix" values="0 0 0 0 0 0 0 0 0 0 0 0 0 0 0 0 0 0 0.13 0"/>
<feBlend mode="normal" in2="BackgroundImageFix" result="effect1_dropShadow_1409_1182"/>
<feBlend mode="normal" in="SourceGraphic" in2="effect1_dropShadow_1409_1182" result="shape"/>
</filter>
<linearGradient id="paint0_linear_1409_1182" x1="107.685" y1="66.9998" x2="107.685" y2="172.267" gradientUnits="userSpaceOnUse">
<stop stop-color="#53758B" stop-opacity="0"/>
<stop offset="1" stop-color="#53758B"/>
</linearGradient>
<linearGradient id="paint1_linear_1409_1182" x1="48.1803" y1="21.1926" x2="48.1803" y2="135.553" gradientUnits="userSpaceOnUse">
<stop stop-color="#C78A54" stop-opacity="0"/>
<stop offset="1" stop-color="#C78A54"/>
</linearGradient>
<linearGradient id="paint2_linear_1409_1182" x1="71.4541" y1="75.821" x2="71.4541" y2="145.454" gradientUnits="userSpaceOnUse">
<stop stop-color="#F9DED6" stop-opacity="0"/>
<stop offset="1" stop-color="#F9DED6"/>
</linearGradient>
<clipPath id="clip0_1409_1182">
<rect width="145" height="177" fill="white"/>
</clipPath>
<clipPath id="clip1_1409_1182">
<rect width="57.1804" height="57.1803" fill="white" transform="translate(26.4822 40.5785) rotate(-16.3498)"/>
</clipPath>
<clipPath id="clip2_1409_1182">
<rect width="34.8163" height="34.8163" fill="white" transform="translate(45.7065 98.7087) rotate(23.3852)"/>
</clipPath>
</defs>
</svg>
