<svg width="232" height="65" viewBox="0 0 232 65" fill="none" xmlns="http://www.w3.org/2000/svg">
<g clip-path="url(#clip0_635_4273)">
<mask id="mask0_635_4273" style="mask-type:luminance" maskUnits="userSpaceOnUse" x="0" y="0" width="232" height="65">
<path d="M0.736816 0.970703H231.137V64.9361H0.736816V0.970703Z" fill="white"/>
</mask>
<g mask="url(#mask0_635_4273)">
<path d="M47.0319 43.9173C46.2127 39.2785 43.4504 35.8904 39.5669 33.3432C38.3381 32.5368 37.0325 31.8417 35.5874 30.9957C36.0251 30.7678 36.3323 30.6027 36.6447 30.4491C38.4303 29.5966 40.0623 28.5329 41.4203 27.0955C44.0751 24.2808 44.9736 20.8581 44.8763 17.1064C44.7176 10.8753 41.9042 6.26479 36.3259 3.34767C32.8584 1.52879 29.0504 1.15887 25.2629 1.08591C23.4837 1.05263 21.9477 1.02447 20.3349 1.00655C16.4168 0.960467 12.6024 0.966867 1.59954 1.00015H0.736816V64.9246C0.764976 64.9246 13.7224 65.0155 28.0879 64.6853C31.5386 64.6113 34.9243 63.7316 37.9746 62.1163C45.2347 58.2891 48.4411 51.9224 47.0255 43.9121L47.0319 43.9173ZM25.5688 49.4776H16.9288V16.3665H25.5688V49.4776ZM63.5579 2.49391H74.1205C78.3957 2.49391 81.2783 4.96303 81.2783 8.64687C81.2783 10.8357 79.8511 12.8197 77.9759 13.6158C80.6523 14.3838 82.6312 16.7774 82.6312 19.5563C82.6312 23.9339 79.1919 26.8216 74.1883 26.8216H63.5515V2.49647L63.5579 2.49391ZM73.2565 11.8763C74.8539 11.8763 76.0021 10.9381 76.0021 9.51087C76.0021 8.08367 74.8539 7.14543 73.2565 7.14543H69.0837V11.8699H73.2565V11.8763ZM73.6379 22.1662C75.6898 22.1662 77.1106 20.9157 77.1106 19.1416C77.1106 17.3675 75.6847 16.2193 73.6379 16.2193H69.0837V22.1598H73.6379V22.1662ZM84.4514 18.0267C84.4514 12.7787 88.2043 9.02831 93.3487 9.02831C99.2904 9.02831 102.837 13.5467 102.001 19.2427H89.5304C89.9451 21.6773 91.5426 22.8933 93.5944 22.8933C95.3007 22.8933 96.4091 22.1253 96.7906 20.9835H101.902C101.208 24.7019 98.2165 27.1006 93.629 27.1006C87.9663 27.1006 84.4527 23.3144 84.4527 18.0331L84.4514 18.0267ZM96.6869 15.5947C96.6178 13.9627 95.3339 12.8478 93.3487 12.8478C91.3647 12.8478 90.2229 13.7515 89.6994 15.5934L96.6869 15.5947ZM104.82 9.30607H109.966V11.2849C110.938 9.93071 112.922 9.02703 114.935 9.02703C115.662 9.02703 116.288 9.09487 116.879 9.37391V14.2059C116.112 13.9182 115.298 13.7758 114.479 13.7861C112.149 13.7861 109.961 15.5934 109.961 20.3909V26.8216H104.815V9.30607H104.82ZM118.449 27.4821H123.521C123.868 28.8005 125.118 29.6017 126.823 29.6017C129.081 29.6017 130.718 28.4203 130.718 26.0894V24.003C129.644 25.2869 127.905 25.9128 126.131 25.9128C121.059 25.9128 117.824 22.6437 117.824 17.4648C117.824 12.2846 121.02 9.02191 126.131 9.02191C127.905 9.02191 129.638 9.61327 130.718 10.9317V9.29967H135.864V25.5313C135.864 30.6769 132.003 33.4161 126.688 33.4161C121.964 33.4161 118.871 30.7397 118.449 27.4769V27.4821ZM126.757 21.8539C129.121 21.8539 130.718 20.0798 130.718 17.4763C130.718 14.8715 129.121 13.0987 126.755 13.0987C124.391 13.0987 122.759 14.8382 122.759 17.4763C122.759 20.1144 124.393 21.8539 126.757 21.8539ZM139.2 27.4821H144.271C144.618 28.8005 145.868 29.6017 147.575 29.6017C149.831 29.6017 151.468 28.4203 151.468 26.0894V24.003C150.388 25.2869 148.654 25.9128 146.881 25.9128C141.809 25.9128 138.575 22.6437 138.575 17.4648C138.575 12.2846 141.77 9.02191 146.881 9.02191C148.654 9.02191 150.388 9.61327 151.468 10.9317V9.29967H156.614V25.5313C156.614 30.6769 152.753 33.4161 147.438 33.4161C142.713 33.4161 139.621 30.7397 139.2 27.4769V27.4821ZM147.505 21.8539C149.871 21.8539 151.468 20.0798 151.468 17.4763C151.468 14.8715 149.871 13.0987 147.505 13.0987C145.141 13.0987 143.509 14.8382 143.509 17.4763C143.509 20.1144 145.141 21.8539 147.505 21.8539ZM160.052 9.30607H165.198V11.2849C166.17 9.93071 168.154 9.02703 170.167 9.02703C170.894 9.02703 171.52 9.09487 172.111 9.37391V14.2059C171.344 13.9183 170.531 13.776 169.712 13.7861C167.381 13.7861 165.193 15.5934 165.193 20.3909V26.8216H160.047V9.30607H160.052ZM173.959 20.5675V9.30735H179.07V19.3131C179.07 21.3662 180.253 22.6155 182.095 22.6155C184.494 22.6155 185.881 20.5637 185.881 16.9144V9.30607H191.027V26.8216H185.881V24.8773C185.045 25.987 183.068 27.1006 180.458 27.1006C176.637 27.1006 173.959 24.5982 173.959 20.5675ZM193.67 18.0267C193.67 12.7787 197.422 9.02831 202.567 9.02831C208.508 9.02831 212.056 13.5467 211.22 19.2427H198.746C199.161 21.6773 200.765 22.8933 202.812 22.8933C204.512 22.8933 205.625 22.1253 206.007 20.9835H211.118C210.424 24.7019 207.434 27.1006 202.845 27.1006C197.182 27.1006 193.67 23.3144 193.67 18.0331V18.0267ZM205.904 15.5947C205.836 13.9627 204.551 12.8478 202.567 12.8478C200.583 12.8478 199.44 13.7515 198.917 15.5934L205.904 15.5947ZM214.035 9.30607H219.18V11.2158C220.016 10.1406 221.994 9.02703 224.604 9.02703C228.464 9.02703 231.137 11.5281 231.137 15.6677V26.8216H225.991V16.7416C225.991 14.7576 224.774 13.507 223.001 13.507C220.568 13.507 219.174 15.5256 219.174 19.1352V26.8152H214.03V9.30607H214.035ZM63.5567 38.8075H69.0824V63.1339H63.5567V38.8075ZM72.6319 45.6171H77.7775V47.5281C78.612 46.4529 80.5909 45.3393 83.2008 45.3393C87.0613 45.3393 89.7327 47.8405 89.7327 51.98V63.1339H84.5871V53.0539C84.5871 51.0699 83.3711 49.8193 81.597 49.8193C79.165 49.8193 77.7775 51.8379 77.7775 55.4475V63.1275H72.6319V45.6133V45.6171ZM92.1672 57.2267H96.7547C96.925 58.6885 97.8299 59.5243 99.5003 59.5243C100.888 59.5243 101.724 58.9329 101.724 57.9601C101.724 54.9752 92.4795 57.0897 92.4795 50.5233C92.4795 47.6421 94.9128 45.3445 98.8757 45.3445C103.151 45.3445 105.788 47.5333 106.243 51.0469H101.656C101.377 49.7617 100.337 48.995 98.8757 48.995C97.8351 48.995 97.0671 49.443 97.0671 50.211C97.0671 53.0257 106.414 50.7345 106.414 57.7886C106.414 61.0526 103.531 63.4181 99.5016 63.4181C95.0549 63.4181 92.3771 60.8145 92.1672 57.2331V57.2267ZM110.278 56.9835V49.7899H107.532V45.6171H110.278V41.4443H115.389V45.6171H119.385V49.7899H115.389V56.4997C115.389 58.1304 116.293 58.9662 117.646 58.9662C118.237 58.9662 118.999 58.8638 119.591 58.6539V62.9291C118.754 63.276 117.925 63.4181 116.952 63.4181C113.166 63.4181 110.278 61.1614 110.278 56.9886V56.9835ZM127.205 45.6171H122.059V63.1339H127.205V45.6171ZM132.07 56.9835V49.7899H129.324V45.6171H132.07V41.4443H137.181V45.6171H141.178V49.7899H137.181V56.4997C137.181 58.1304 138.085 58.9662 139.439 58.9662C140.03 58.9662 140.792 58.8638 141.383 58.6539V62.9291C140.547 63.276 139.717 63.4181 138.745 63.4181C134.959 63.4181 132.07 61.1614 132.07 56.9886V56.9835ZM143.68 56.8811V45.6235H148.791V55.6293C148.791 57.6811 149.973 58.9317 151.815 58.9317C154.214 58.9317 155.601 56.8798 155.601 53.2305V45.6171H160.746V63.1339H155.601V61.1883C154.766 62.2981 152.787 63.4129 150.178 63.4129C146.357 63.4129 143.68 60.9118 143.68 56.8811ZM165.612 56.9835V49.7899H162.867V45.6171H165.612V41.4443H170.723V45.6171H174.721V49.7899H170.723V56.4997C170.723 58.1304 171.628 58.9662 172.981 58.9662C173.573 58.9662 174.334 58.8638 174.926 58.6539V62.9291C174.09 63.276 173.259 63.4181 172.288 63.4181C168.501 63.4181 165.612 61.1614 165.612 56.9886V56.9835ZM176.285 54.339C176.285 49.091 180.037 45.3393 185.182 45.3393C191.124 45.3393 194.671 49.8577 193.835 55.555H181.356C181.771 57.9883 183.369 59.2056 185.422 59.2056C187.121 59.2056 188.235 58.4376 188.617 57.2945H193.728C193.034 61.0129 190.044 63.4129 185.455 63.4129C179.792 63.4129 176.28 59.6267 176.28 54.3441L176.285 54.339ZM188.519 51.9057C188.451 50.2737 187.166 49.1601 185.182 49.1601C183.198 49.1601 182.055 50.0638 181.533 51.9057H188.519ZM124.613 43.7931C126.298 43.7931 127.665 42.4721 127.665 40.8414C127.665 39.2107 126.298 37.891 124.613 37.891C122.927 37.891 121.56 39.212 121.56 40.8414C121.56 42.4709 122.926 43.7931 124.613 43.7931Z" fill="black"/>
</g>
</g>
<defs>
<clipPath id="clip0_635_4273">
<rect width="230.4" height="64" fill="white" transform="translate(0.736816 0.970703)"/>
</clipPath>
</defs>
</svg>
