<svg width="81" height="65" viewBox="0 0 81 65" fill="none" xmlns="http://www.w3.org/2000/svg">
<g clip-path="url(#clip0_635_4280)">
<path d="M1.35825 56.593V57.2585H2.85717V57.8851H1.35825V59.0967H0.666748V55.9665H3.05902V56.593H1.35825Z" fill="#656668"/>
<path d="M5.42269 59.1499C4.45249 59.1499 3.75708 58.43 3.75708 57.54V57.531C3.75698 57.3142 3.80056 57.0997 3.88524 56.9001C3.96991 56.7005 4.09395 56.5198 4.25001 56.3689C4.40607 56.2179 4.59096 56.0996 4.79374 56.0212C4.99652 55.9427 5.21305 55.9056 5.4305 55.912C6.40069 55.912 7.09611 56.632 7.09611 57.5219V57.531C7.09638 57.7477 7.05293 57.9623 6.96832 58.162C6.88371 58.3617 6.75967 58.5424 6.60358 58.6935C6.44748 58.8445 6.26251 58.9627 6.05965 59.0411C5.85679 59.1195 5.64018 59.1565 5.42269 59.1499ZM6.37335 57.531C6.3777 57.4036 6.35637 57.2768 6.31062 57.1578C6.26486 57.0389 6.19561 56.9303 6.10697 56.8385C6.01832 56.7466 5.91209 56.6735 5.79455 56.6233C5.67701 56.5731 5.55056 56.547 5.42269 56.5463C5.29564 56.5459 5.16981 56.5711 5.05281 56.6204C4.9358 56.6697 4.83005 56.7422 4.74193 56.8333C4.65381 56.9245 4.58516 57.0325 4.54011 57.1509C4.49506 57.2692 4.47456 57.3954 4.47984 57.5219V57.531C4.47548 57.6582 4.49682 57.785 4.54259 57.9039C4.58836 58.0228 4.65763 58.1313 4.74629 58.223C4.83495 58.3147 4.9412 58.3877 5.05873 58.4378C5.17627 58.4878 5.30269 58.5138 5.4305 58.5143C5.55755 58.5147 5.68338 58.4895 5.80038 58.4402C5.91739 58.3909 6.02314 58.3184 6.11126 58.2273C6.19938 58.1361 6.26803 58.0281 6.31308 57.9097C6.35812 57.7914 6.37863 57.6652 6.37335 57.5387V57.531Z" fill="#656668"/>
<path d="M9.99092 59.0967L9.31764 58.0953H8.77459V59.0967H8.0896V55.9665H9.5221C10.2618 55.9665 10.7072 56.3557 10.7072 57.0043V57.0121C10.7171 57.2249 10.6566 57.4352 10.535 57.6105C10.4134 57.7858 10.2373 57.9164 10.0339 57.9824L10.8009 59.1006L9.99092 59.0967ZM10.0039 57.0354C10.0039 56.7409 9.79688 56.5892 9.46089 56.5892H8.77459V57.4869H9.47392C9.8112 57.4869 10.0039 57.3078 10.0039 57.0445V57.0354Z" fill="#656668"/>
<path d="M13.3132 59.0967V55.9665H14.0034V59.0967H13.3132Z" fill="#656668"/>
<path d="M17.3697 59.0967L15.8487 57.1068V59.0967H15.1663V55.9665H15.8044L17.2759 57.8942V55.9665H17.9583V59.0967H17.3697Z" fill="#656668"/>
<path d="M20.4613 56.6021V59.0967H19.7698V56.6021H18.814V55.9665H21.4185V56.6021H20.4613Z" fill="#656668"/>
<path d="M22.2727 59.0967V55.9665H24.6415V56.5788H22.959V57.2144H24.4397V57.8267H22.959V58.4844H24.665V59.0967H22.2727Z" fill="#656668"/>
<path d="M27.6044 59.0967L26.9311 58.0953H26.388V59.0967H25.6965V55.9665H27.129C27.87 55.9665 28.3141 56.3557 28.3141 57.0043V57.0121C28.3243 57.225 28.2639 57.4353 28.1422 57.6107C28.0205 57.786 27.8444 57.9166 27.6408 57.9824L28.4079 59.1006L27.6044 59.0967ZM27.6174 57.0354C27.6174 56.7409 27.4116 56.5892 27.0743 56.5892H26.388V57.4869H27.0887C27.4246 57.4869 27.6174 57.3078 27.6174 57.0445V57.0354Z" fill="#656668"/>
<path d="M31.5384 59.0967L30.0174 57.1068V59.0967H29.335V55.9665H29.9679L31.4407 57.8942V55.9665H32.1218V59.0967H31.5384Z" fill="#656668"/>
<path d="M33.2795 59.0967V55.9665H35.6497V56.5788H33.9658V57.2144H35.4478V57.8267H33.9658V58.4844H35.6718V59.0967H33.2795Z" fill="#656668"/>
<path d="M38.0902 56.6021V59.0967H37.4V56.6021H36.4441V55.9665H39.0486V56.6021H38.0902Z" fill="#656668"/>
<path d="M43.6419 59.159L43.2772 58.7919C43.0226 59.0142 42.6964 59.138 42.3578 59.1408C41.7562 59.1408 41.303 58.7919 41.303 58.2328C41.303 57.8293 41.5179 57.5478 41.9137 57.3701C41.7737 57.1893 41.6965 56.968 41.6937 56.7396C41.6937 56.305 42.0388 55.912 42.6443 55.912C43.1796 55.912 43.5286 56.2557 43.5286 56.7033C43.5286 57.1275 43.2603 57.374 42.8696 57.5258L43.2863 57.9422C43.397 57.7684 43.4987 57.5892 43.5911 57.4051L44.099 57.6827C43.9762 57.9121 43.8383 58.1332 43.6861 58.3443L44.1484 58.8048L43.6419 59.159ZM42.2927 57.7904C42.209 57.8245 42.137 57.8819 42.0853 57.9558C42.0335 58.0297 42.0043 58.1168 42.001 58.2068C42.001 58.4299 42.1846 58.5778 42.4412 58.5778C42.6081 58.5704 42.7677 58.5073 42.8944 58.3988L42.2927 57.7904ZM42.6339 56.4503C42.592 56.4491 42.5502 56.4567 42.5115 56.4726C42.4727 56.4886 42.4378 56.5126 42.409 56.543C42.3802 56.5734 42.3582 56.6095 42.3444 56.649C42.3307 56.6885 42.3255 56.7304 42.3292 56.7721C42.3325 56.8458 42.3504 56.9181 42.3819 56.9849C42.4134 57.0517 42.4579 57.1116 42.5128 57.1612C42.7863 57.0587 42.9308 56.942 42.9308 56.7409C42.9332 56.7017 42.9271 56.6624 42.9129 56.6258C42.8987 56.5891 42.8768 56.5559 42.8487 56.5283C42.8206 56.5008 42.7868 56.4796 42.7498 56.4661C42.7127 56.4527 42.6732 56.4473 42.6339 56.4503Z" fill="#656668"/>
<path d="M47.7244 59.1408C47.2332 59.143 46.7584 58.9648 46.3909 58.6401L46.7998 58.1536C47.0559 58.3892 47.389 58.5242 47.7374 58.5337C48.02 58.5337 48.1906 58.4209 48.1906 58.238V58.2289C48.1906 58.055 48.0838 57.9694 47.5577 57.8306C46.9248 57.6698 46.5159 57.4959 46.5159 56.8745V56.8655C46.5159 56.2973 46.973 55.9224 47.615 55.9224C48.0405 55.9138 48.4555 56.0548 48.7871 56.3206L48.4276 56.8395C48.1933 56.6563 47.9085 56.5486 47.6111 56.5308C47.3506 56.5308 47.2074 56.6514 47.2074 56.8032V56.8123C47.2074 57.0172 47.3376 57.0847 47.8846 57.2235C48.5227 57.3883 48.8808 57.6127 48.8808 58.1627V58.1705C48.8769 58.7919 48.4016 59.1408 47.7244 59.1408Z" fill="#656668"/>
<path d="M51.3369 59.1499C51.1204 59.1573 50.9047 59.121 50.7026 59.0433C50.5005 58.9656 50.3163 58.8481 50.1609 58.6978C50.0055 58.5474 49.8821 58.3674 49.7982 58.1685C49.7144 57.9696 49.6716 57.7558 49.6726 57.54V57.531C49.6725 57.3142 49.7161 57.0997 49.8008 56.9001C49.8855 56.7005 50.0095 56.5198 50.1656 56.3689C50.3216 56.2179 50.5065 56.0996 50.7093 56.0212C50.9121 55.9427 51.1286 55.9056 51.346 55.912C52.3162 55.912 53.0117 56.632 53.0117 57.5219V57.531C53.0118 57.7478 52.9681 57.9624 52.8834 58.1621C52.7986 58.3618 52.6745 58.5425 52.5183 58.6935C52.3621 58.8445 52.177 58.9627 51.9741 59.0411C51.7712 59.1195 51.5545 59.1565 51.3369 59.1499ZM52.2889 57.531C52.2934 57.4035 52.2722 57.2764 52.2264 57.1573C52.1806 57.0382 52.1113 56.9295 52.0225 56.8376C51.9337 56.7457 51.8272 56.6726 51.7094 56.6226C51.5916 56.5725 51.465 56.5466 51.3369 56.5463C51.2099 56.5459 51.0842 56.5711 50.9672 56.6204C50.8503 56.6698 50.7446 56.7422 50.6566 56.8334C50.5686 56.9246 50.5001 57.0326 50.4552 57.151C50.4103 57.2693 50.3899 57.3955 50.3954 57.5219V57.531C50.391 57.6582 50.4124 57.785 50.4581 57.9039C50.5039 58.0228 50.5732 58.1313 50.6618 58.223C50.7505 58.3147 50.8567 58.3877 50.9743 58.4378C51.0918 58.4878 51.2182 58.5138 51.346 58.5143C51.4731 58.5147 51.5989 58.4895 51.7159 58.4402C51.8329 58.3909 51.9387 58.3184 52.0268 58.2273C52.1149 58.1361 52.1836 58.0281 52.2286 57.9097C52.2737 57.7914 52.2942 57.6652 52.2889 57.5387V57.531Z" fill="#656668"/>
<path d="M55.452 59.1499C55.2391 59.1533 55.0277 59.1139 54.8304 59.0341C54.6331 58.9543 54.4539 58.8358 54.3036 58.6855C54.1533 58.5353 54.0348 58.3564 53.9554 58.1596C53.8759 57.9628 53.8371 57.7521 53.8411 57.54V57.531C53.8372 57.3162 53.8769 57.1028 53.958 56.9038C54.0391 56.7047 54.1599 56.5241 54.313 56.3728C54.4661 56.2215 54.6484 56.1027 54.8488 56.0235C55.0493 55.9443 55.2638 55.9063 55.4794 55.912C55.7083 55.9009 55.937 55.9381 56.1504 56.0213C56.3639 56.1045 56.5572 56.2317 56.7178 56.3946L56.2777 56.9005C56.0668 56.6821 55.7782 56.5549 55.4742 56.5463C54.9454 56.5463 54.5626 56.9848 54.5626 57.5219V57.531C54.5626 58.0667 54.935 58.5143 55.4742 58.5143C55.8336 58.5143 56.0537 58.3703 56.2998 58.1471L56.74 58.5895C56.5821 58.7742 56.3841 58.9207 56.1609 59.0178C55.9378 59.1149 55.6953 59.1601 55.452 59.1499Z" fill="#656668"/>
<path d="M57.645 59.0967V55.9665H58.3365V59.0967H57.645Z" fill="#656668"/>
<path d="M59.4995 59.0967V55.9665H61.8736V56.5788H60.1806V57.2144H61.6613V57.8267H60.1806V58.4844H61.8853V59.0967H59.4995Z" fill="#656668"/>
<path d="M64.3114 56.6021V59.0967H63.6199V56.6021H62.6641V55.9665H65.2686V56.6021H64.3114Z" fill="#656668"/>
<path d="M67.8523 57.8488V59.0967H67.1608V57.8631L65.9536 55.9665H66.7623L67.5111 57.2235L68.2743 55.9665H69.0556L67.8523 57.8488Z" fill="#656668"/>
<path d="M3.27129 64.9253L2.98479 64.2235H1.65908L1.37128 64.9253H0.666748L2.0133 61.773H2.65011L3.99666 64.9253H3.27129ZM2.32063 62.6006L1.90261 63.6151H2.73736L2.32063 62.6006Z" fill="#656668"/>
<path d="M5.90055 62.4268V64.9253H5.21034V62.4268H4.25317V61.7911H6.85772V62.4268H5.90055Z" fill="#656668"/>
<path d="M11.305 64.9253V63.6683H10.03V64.9253H9.33984V61.7911H10.03V63.03H11.305V61.7911H11.9965V64.9253H11.305Z" fill="#656668"/>
<path d="M15.4358 64.9253L15.1493 64.2235H13.8196L13.5331 64.9253H12.8286L14.1752 61.773H14.812L16.1637 64.9253H15.4358ZM14.4851 62.6006L14.0671 63.6151H14.9018L14.4851 62.6006Z" fill="#656668"/>
<path d="M18.8986 64.9253L18.2253 63.9238H17.6822V64.9253H16.9907V61.7911H18.4232C19.1642 61.7911 19.6083 62.1803 19.6083 62.8289V62.8367C19.6182 63.0496 19.5577 63.2598 19.4361 63.4351C19.3145 63.6104 19.1384 63.7411 18.935 63.8071L19.706 64.9253H18.8986ZM18.9116 62.864C18.9116 62.5682 18.7045 62.4177 18.3685 62.4177H17.6822V63.3154H18.3776C18.7149 63.3154 18.9077 63.1364 18.9077 62.873L18.9116 62.864Z" fill="#656668"/>
<path d="M22.1191 64.9435H21.5031L20.2334 61.7911H20.9965L21.8183 63.9965L22.6387 61.7911H23.3836L22.1191 64.9435Z" fill="#656668"/>
<path d="M26.2668 64.9253L25.979 64.2235H24.6507L24.3681 64.9253H23.6636L25.0101 61.773H25.6469L26.9896 64.9253H26.2668ZM25.3149 62.6006L24.8981 63.6151H25.7329L25.3149 62.6006Z" fill="#656668"/>
<path d="M29.7309 64.9253L29.0563 63.9199H28.5133V64.9253H27.8218V61.7911H29.2543C29.994 61.7911 30.4393 62.1803 30.4393 62.8289V62.8367C30.4492 63.0498 30.3885 63.2601 30.2666 63.4354C30.1448 63.6108 29.9684 63.7413 29.7648 63.8071L30.5331 64.9253H29.7309ZM29.7439 62.864C29.7439 62.5682 29.5382 62.4177 29.2009 62.4177H28.5146V63.3154H29.2139C29.5512 63.3154 29.7439 63.1364 29.7439 62.873V62.864Z" fill="#656668"/>
<path d="M32.6871 64.9253H31.4617V61.7911H32.6871C33.6742 61.7911 34.3566 62.467 34.3566 63.3478V63.3569C34.3566 64.2378 33.6742 64.9253 32.6871 64.9253ZM33.6339 63.3608C33.6404 63.2352 33.6204 63.1097 33.5752 62.9923C33.5299 62.8749 33.4604 62.7683 33.3711 62.6794C33.2819 62.5905 33.1749 62.5213 33.057 62.4762C32.9392 62.4311 32.8132 62.4112 32.6871 62.4177H32.1519V64.3039H32.6871C32.8127 64.3112 32.9384 64.292 33.056 64.2477C33.1737 64.2034 33.2806 64.1348 33.3699 64.0466C33.4592 63.9584 33.5289 63.8524 33.5744 63.7356C33.6198 63.6188 33.6401 63.4937 33.6339 63.3686V63.3608Z" fill="#656668"/>
<path d="M38.2348 64.9707C37.3909 64.9707 36.8752 64.5011 36.8752 63.5801V61.7911H37.5654V63.5619C37.5654 64.0717 37.8259 64.3402 38.2439 64.3402C38.662 64.3402 38.9211 64.0808 38.9211 63.5891V61.7911H39.6126V63.558C39.6126 64.505 39.0839 64.9707 38.2348 64.9707Z" fill="#656668"/>
<path d="M42.932 64.9253L41.4109 62.9353V64.9253H40.7285V61.7911H41.3666L42.8382 63.7189V61.7911H43.5206V64.9253H42.932Z" fill="#656668"/>
<path d="M44.6836 64.9253V61.7911H45.3751V64.9253H44.6836Z" fill="#656668"/>
<path d="M48.1034 64.9435H47.4926L46.2229 61.7911H46.986L47.8078 63.9965L48.6282 61.7911H49.3718L48.1034 64.9435Z" fill="#656668"/>
<path d="M50.2078 64.9253V61.7911H52.5779V62.4034H50.8941V63.0391H52.376V63.6514H50.8941V64.3091H52.6V64.9253H50.2078Z" fill="#656668"/>
<path d="M55.5406 64.9253L54.866 63.9238H54.3203V64.9253H53.6301V61.7911H55.0626C55.8023 61.7911 56.2464 62.1803 56.2464 62.8289V62.8367C56.2566 63.0496 56.1961 63.26 56.0745 63.4353C55.9528 63.6107 55.7766 63.7413 55.5731 63.8071L56.3415 64.9253H55.5406ZM55.5536 62.864C55.5536 62.5682 55.3465 62.4177 55.0105 62.4177H54.3203V63.3154H55.021C55.3582 63.3154 55.551 63.1364 55.551 62.873L55.5536 62.864Z" fill="#656668"/>
<path d="M58.3574 64.9655C57.8666 64.9676 57.3922 64.7893 57.0251 64.4648L57.4328 63.977C57.6892 64.2128 58.0228 64.3479 58.3717 64.3571C58.6543 64.3571 58.8249 64.2455 58.8249 64.0626V64.0535C58.8249 63.8797 58.7168 63.7941 58.192 63.6553C57.5591 63.4944 57.1502 63.3206 57.1502 62.6992V62.6901C57.1502 62.1219 57.6086 61.747 58.2506 61.747C58.6759 61.7395 59.0906 61.8804 59.4226 62.1453L59.0632 62.6642C58.8284 62.482 58.5438 62.3748 58.2467 62.3567C57.9862 62.3567 57.843 62.4774 57.843 62.6292V62.6382C57.843 62.8432 57.9732 62.9107 58.5202 63.0495C59.157 63.2142 59.5164 63.4386 59.5164 63.9887V63.9965C59.5099 64.6165 59.0346 64.9655 58.3574 64.9655Z" fill="#656668"/>
<path d="M60.5115 64.9253V61.7911H61.203V64.9253H60.5115Z" fill="#656668"/>
<path d="M63.7149 62.4268V64.9253H63.0234V62.4268H62.0688V61.7911H64.6734V62.4268H63.7149Z" fill="#656668"/>
<path d="M67.2571 63.6735V64.9253H66.5617V63.6916L65.3545 61.795H66.171L66.9211 63.0521L67.6843 61.795H68.4656L67.2571 63.6735Z" fill="#656668"/>
<path d="M0.666748 35.1559H4.08C4.91606 35.1559 5.50599 35.3648 5.89668 35.754C6.03718 35.8938 6.14754 36.0607 6.22099 36.2445C6.29444 36.4283 6.32943 36.6251 6.32382 36.8229V36.8424C6.32382 37.609 5.88756 38.0644 5.29763 38.3199C6.10504 38.5794 6.61813 39.0399 6.61813 39.9402V39.9584C6.61813 41.0948 5.68701 41.7862 4.09954 41.7862H0.666748V35.1559ZM3.62421 37.7984C4.18419 37.7984 4.49803 37.609 4.49803 37.2212V37.203C4.49803 36.8424 4.21284 36.6335 3.66198 36.6335H2.46388V37.801L3.62421 37.7984ZM3.88466 40.3086C4.44594 40.3086 4.76891 40.0907 4.76891 39.7028V39.6833C4.76891 39.324 4.48371 39.0866 3.86513 39.0866H2.46388V40.3086H3.88466Z" fill="black"/>
<path d="M8.25635 35.1559H13.61V36.7191H10.0821V37.7232H13.2766V39.1722H10.0821V40.2243H13.6569V41.781H8.25635V35.1559Z" fill="black"/>
<path d="M15.4463 35.1559H18.5939C19.611 35.1559 20.3142 35.4219 20.7609 35.8759C21.1515 36.256 21.3508 36.7671 21.3508 37.4196V37.4391C21.3508 38.4523 20.809 39.1255 19.9821 39.4758L21.5696 41.7862H19.4404L18.099 39.778H17.2916V41.7862H15.4463V35.1559ZM18.5079 38.3394C19.1356 38.3394 19.4964 38.0358 19.4964 37.5533V37.5338C19.4964 37.0149 19.1161 36.7477 18.4988 36.7477H17.2916V38.3394H18.5079Z" fill="black"/>
<path d="M23.0386 35.1559H24.8891V37.8464L27.1811 35.1559H29.3676L26.8425 38.0073L29.4471 41.7862H27.2332L25.5611 39.3214L24.8891 40.0725V41.7862H23.0386V35.1559Z" fill="black"/>
<path d="M30.7036 35.1559H32.657L34.2445 37.7232L35.8281 35.1559H37.7815V41.7862H35.9427V37.9788L34.2393 40.5733H34.2015L32.5086 37.9969V41.7849H30.7036V35.1559Z" fill="black"/>
<path d="M41.9227 35.1092H43.7003L46.534 41.7862H44.5533L44.0675 40.6031H41.5047L41.0293 41.7862H39.0837L41.9227 35.1092ZM43.5388 39.1722L42.7978 37.2938L42.0464 39.1787L43.5388 39.1722Z" fill="black"/>
<path d="M47.8467 35.1559H49.5683L52.3031 38.6585V35.1559H54.1262V41.7862H52.5153L49.6725 38.1539V41.7862H47.8493L47.8467 35.1559Z" fill="black"/>
<path d="M0.666748 45.2525H2.51077V47.943L4.80277 45.2525H6.98928L4.47069 48.1064L7.07523 51.8853H4.86137L3.18795 49.4205L2.51207 50.1677V51.8827H0.666748V45.2525Z" fill="black"/>
<path d="M8.33203 45.2525H10.1734V50.2728H13.4005V51.8827H8.33203V45.2525Z" fill="black"/>
<path d="M14.7781 45.2525H20.1304V46.8092H16.6039V47.8132H19.7983V49.2623H16.6039V50.313H20.1786V51.8697H14.7781V45.2525Z" fill="black"/>
<path d="M21.9941 45.2525H23.8473V51.8827H21.9941V45.2525Z" fill="black"/>
<path d="M25.8241 45.2525H27.5457L30.2804 48.755V45.2525H32.1036V51.8827H30.4888L27.6459 48.2504V51.8827H25.8228L25.8241 45.2525Z" fill="black"/>
<path d="M36.9858 48.5864V48.5682C36.9858 46.6353 38.4795 45.1201 40.4941 45.1201C41.8537 45.1201 42.7288 45.6883 43.3187 46.503L41.9305 47.5732C41.5503 47.0997 41.1127 46.7949 40.4759 46.7949C39.5435 46.7949 38.8884 47.581 38.8884 48.5475V48.5669C38.8884 49.5606 39.5396 50.3377 40.4759 50.3377C41.17 50.3377 41.5789 50.0147 41.9774 49.5321L43.3656 50.518C42.7392 51.3794 41.8928 52.0137 40.4186 52.0137C39.9654 52.0201 39.5155 51.9357 39.0956 51.7655C38.6758 51.5954 38.2945 51.3431 37.9743 51.0235C37.6542 50.7038 37.4017 50.3234 37.2319 49.9048C37.0621 49.4862 36.9784 49.0378 36.9858 48.5864Z" fill="black"/>
<path d="M44.8293 45.2525H50.1817V46.8092H46.6538V47.8132H49.8496V49.2623H46.6538V50.313H50.2299V51.8697H44.8293V45.2525Z" fill="black"/>
<path d="M52.0193 45.2525H53.7396L56.4744 48.755V45.2525H58.2975V51.8827H56.6879L53.8438 48.2504V51.8827H52.0206L52.0193 45.2525Z" fill="black"/>
<path d="M61.6927 46.8623H59.6963V45.2525H65.5344V46.8623H63.5367V51.8827H61.6927V46.8623Z" fill="black"/>
<path d="M66.9211 45.2525H72.2748V46.8092H68.7469V47.8132H71.9414V49.2623H68.7469V50.313H72.3217V51.8697H66.9211V45.2525Z" fill="black"/>
<path d="M74.115 45.2525H77.2626C78.2797 45.2525 78.9829 45.5119 79.4309 45.9724C79.8216 46.3512 80.0195 46.8623 80.0195 47.5162V47.5421C80.0195 48.5553 79.4778 49.2285 78.6508 49.5775L80.2357 51.8827H78.1052L76.7651 49.8772H75.9564V51.8853H74.115V45.2525ZM77.1766 48.4346C77.8043 48.4346 78.1664 48.1324 78.1664 47.6485V47.6303C78.1664 47.1114 77.7861 46.8442 77.1675 46.8442H75.9603V48.4346H77.1766Z" fill="black"/>
<path d="M18.2605 0.970703H16.9583V23.1667H18.2605V0.970703Z" fill="#A51C30"/>
<path d="M39.3352 0.970703H38.033V23.1667H39.3352V0.970703Z" fill="#A51C30"/>
<path d="M24.9931 23.1914L24.0724 22.2742L30.2947 16.0759L24.0542 9.85948L24.9749 8.94232L32.1361 16.0759L24.9931 23.1914Z" fill="#A51C30"/>
<path d="M52.3736 23.1914L53.2943 22.2742L47.0733 16.0759L53.3138 9.85948L52.3918 8.94232L45.2319 16.0759L52.3736 23.1914Z" fill="#A51C30"/>
<path d="M0.789162 20.3608L3.59426 23.155L10.6617 16.1161L3.47184 8.9553L0.666748 11.7496L5.0502 16.1161L0.789162 20.3608Z" fill="#A51C30"/>
</g>
<defs>
<clipPath id="clip0_635_4280">
<rect width="79.5676" height="64" fill="white" transform="translate(0.666748 0.970703)"/>
</clipPath>
</defs>
</svg>
