<svg width="162" height="32" viewBox="0 0 162 32" fill="none" xmlns="http://www.w3.org/2000/svg">
<path d="M82.6915 22.4838V23.1493H84.1904V23.7759H82.6915V24.9875H82V21.8572H84.3923V22.4838H82.6915Z" fill="#656668"/>
<path d="M86.7559 25.0407C85.7857 25.0407 85.0903 24.3207 85.0903 23.4308V23.4217C85.0902 23.205 85.1338 22.9905 85.2185 22.7909C85.3031 22.5913 85.4272 22.4106 85.5832 22.2596C85.7393 22.1086 85.9242 21.9904 86.127 21.9119C86.3297 21.8334 86.5463 21.7963 86.7637 21.8027C87.7339 21.8027 88.4293 22.5227 88.4293 23.4126V23.4217C88.4296 23.6385 88.3861 23.8531 88.3015 24.0528C88.2169 24.2525 88.0929 24.4332 87.9368 24.5842C87.7807 24.7352 87.5957 24.8535 87.3929 24.9319C87.19 25.0103 86.9734 25.0473 86.7559 25.0407ZM87.7066 23.4217C87.7109 23.2944 87.6896 23.1675 87.6438 23.0486C87.5981 22.9296 87.5288 22.821 87.4402 22.7292C87.3515 22.6374 87.2453 22.5642 87.1278 22.5141C87.0102 22.4639 86.8838 22.4377 86.7559 22.4371C86.6289 22.4366 86.503 22.4618 86.386 22.5112C86.269 22.5605 86.1633 22.6329 86.0751 22.7241C85.987 22.8153 85.9184 22.9233 85.8733 23.0416C85.8283 23.16 85.8078 23.2862 85.8131 23.4126V23.4217C85.8087 23.549 85.83 23.6758 85.8758 23.7947C85.9216 23.9135 85.9908 24.0221 86.0795 24.1138C86.1682 24.2055 86.2744 24.2785 86.3919 24.3285C86.5095 24.3786 86.6359 24.4046 86.7637 24.405C86.8908 24.4055 87.0166 24.3803 87.1336 24.331C87.2506 24.2816 87.3564 24.2092 87.4445 24.118C87.5326 24.0269 87.6012 23.9188 87.6463 23.8005C87.6913 23.6822 87.7118 23.556 87.7066 23.4295V23.4217Z" fill="#656668"/>
<path d="M91.3243 24.9875L90.651 23.986H90.108V24.9875H89.423V21.8572H90.8555C91.5951 21.8572 92.0405 22.2464 92.0405 22.895V22.9028C92.0505 23.1157 91.99 23.3259 91.8683 23.5012C91.7467 23.6765 91.5707 23.8072 91.3673 23.8732L92.1343 24.9914L91.3243 24.9875ZM91.3373 22.9262C91.3373 22.6317 91.1302 22.4799 90.7943 22.4799H90.108V23.3776H90.8073C91.1446 23.3776 91.3373 23.1986 91.3373 22.9353V22.9262Z" fill="#656668"/>
<path d="M94.6464 24.9875V21.8572H95.3366V24.9875H94.6464Z" fill="#656668"/>
<path d="M98.7029 24.9875L97.1819 22.9975V24.9875H96.4995V21.8572H97.1376L98.6092 23.785V21.8572H99.2916V24.9875H98.7029Z" fill="#656668"/>
<path d="M101.795 22.4929V24.9875H101.103V22.4929H100.147V21.8572H102.752V22.4929H101.795Z" fill="#656668"/>
<path d="M103.606 24.9875V21.8572H105.975V22.4695H104.292V23.1052H105.773V23.7175H104.292V24.3752H105.998V24.9875H103.606Z" fill="#656668"/>
<path d="M108.938 24.9875L108.264 23.986H107.721V24.9875H107.03V21.8572H108.462C109.203 21.8572 109.647 22.2464 109.647 22.895V22.9028C109.657 23.1157 109.597 23.3261 109.475 23.5014C109.354 23.6768 109.178 23.8074 108.974 23.8732L109.741 24.9914L108.938 24.9875ZM108.951 22.9262C108.951 22.6317 108.745 22.4799 108.407 22.4799H107.721V23.3776H108.422C108.758 23.3776 108.951 23.1986 108.951 22.9353V22.9262Z" fill="#656668"/>
<path d="M112.872 24.9875L111.351 22.9975V24.9875H110.668V21.8572H111.301L112.774 23.785V21.8572H113.455V24.9875H112.872Z" fill="#656668"/>
<path d="M114.613 24.9875V21.8572H116.983V22.4695H115.299V23.1052H116.781V23.7175H115.299V24.3752H117.005V24.9875H114.613Z" fill="#656668"/>
<path d="M119.423 22.4929V24.9875H118.733V22.4929H117.777V21.8572H120.382V22.4929H119.423Z" fill="#656668"/>
<path d="M124.975 25.0498L124.61 24.6827C124.356 24.905 124.03 25.0288 123.691 25.0316C123.089 25.0316 122.636 24.6827 122.636 24.1236C122.636 23.7201 122.851 23.4386 123.247 23.2609C123.107 23.08 123.03 22.8588 123.027 22.6304C123.027 22.1958 123.372 21.8028 123.977 21.8028C124.513 21.8028 124.862 22.1465 124.862 22.5941C124.862 23.0183 124.593 23.2648 124.203 23.4165L124.619 23.833C124.73 23.6592 124.832 23.48 124.924 23.2959L125.432 23.5735C125.309 23.8029 125.171 24.0239 125.019 24.2351L125.482 24.6956L124.975 25.0498ZM123.626 23.6812C123.542 23.7153 123.47 23.7727 123.418 23.8466C123.367 23.9205 123.337 24.0076 123.334 24.0976C123.334 24.3207 123.518 24.4686 123.774 24.4686C123.941 24.4612 124.101 24.3981 124.228 24.2896L123.626 23.6812ZM123.967 22.3411C123.925 22.3399 123.883 22.3475 123.845 22.3634C123.806 22.3794 123.771 22.4034 123.742 22.4338C123.713 22.4642 123.691 22.5003 123.678 22.5398C123.664 22.5793 123.659 22.6212 123.662 22.6628C123.666 22.7366 123.684 22.8089 123.715 22.8757C123.747 22.9425 123.791 23.0024 123.846 23.052C124.119 22.9495 124.264 22.8328 124.264 22.6317C124.266 22.5925 124.26 22.5532 124.246 22.5166C124.232 22.4799 124.21 22.4467 124.182 22.4191C124.154 22.3916 124.12 22.3704 124.083 22.3569C124.046 22.3435 124.006 22.3381 123.967 22.3411Z" fill="#656668"/>
<path d="M129.058 25.0316C128.566 25.0338 128.092 24.8555 127.724 24.5309L128.133 24.0444C128.389 24.28 128.722 24.415 129.071 24.4245C129.353 24.4245 129.524 24.3117 129.524 24.1287V24.1197C129.524 23.9458 129.417 23.8602 128.891 23.7214C128.258 23.5605 127.849 23.3867 127.849 22.7653V22.7562C127.849 22.188 128.306 21.8131 128.948 21.8131C129.374 21.8046 129.789 21.9456 130.12 22.2114L129.761 22.7303C129.527 22.5471 129.242 22.4394 128.944 22.4216C128.684 22.4216 128.541 22.5422 128.541 22.694V22.7031C128.541 22.908 128.671 22.9755 129.218 23.1143C129.856 23.279 130.214 23.5035 130.214 24.0535V24.0613C130.21 24.6827 129.735 25.0316 129.058 25.0316Z" fill="#656668"/>
<path d="M132.67 25.0407C132.454 25.048 132.238 25.0118 132.036 24.9341C131.834 24.8564 131.649 24.7388 131.494 24.5885C131.339 24.4382 131.215 24.2582 131.131 24.0593C131.048 23.8603 131.005 23.6466 131.006 23.4308V23.4217C131.006 23.205 131.049 22.9905 131.134 22.7909C131.219 22.5913 131.343 22.4106 131.499 22.2596C131.655 22.1086 131.84 21.9904 132.042 21.9119C132.245 21.8334 132.462 21.7963 132.679 21.8027C133.649 21.8027 134.345 22.5227 134.345 23.4126V23.4217C134.345 23.6385 134.301 23.8532 134.217 24.0529C134.132 24.2526 134.008 24.4333 133.851 24.5843C133.695 24.7353 133.51 24.8535 133.307 24.9319C133.104 25.0103 132.888 25.0473 132.67 25.0407ZM133.622 23.4217C133.627 23.2943 133.605 23.1672 133.56 23.0481C133.514 22.929 133.444 22.8202 133.356 22.7284C133.267 22.6365 133.16 22.5634 133.043 22.5133C132.925 22.4633 132.798 22.4374 132.67 22.4371C132.543 22.4366 132.417 22.4618 132.3 22.5112C132.184 22.5605 132.078 22.633 131.99 22.7242C131.902 22.8154 131.833 22.9234 131.788 23.0417C131.743 23.1601 131.723 23.2862 131.729 23.4126V23.4217C131.724 23.549 131.746 23.6758 131.791 23.7947C131.837 23.9135 131.906 24.0221 131.995 24.1138C132.084 24.2055 132.19 24.2785 132.307 24.3285C132.425 24.3786 132.551 24.4046 132.679 24.405C132.806 24.4055 132.932 24.3803 133.049 24.331C133.166 24.2816 133.272 24.2092 133.36 24.118C133.448 24.0269 133.517 23.9188 133.562 23.8005C133.607 23.6822 133.627 23.556 133.622 23.4295V23.4217Z" fill="#656668"/>
<path d="M136.785 25.0407C136.572 25.0441 136.361 25.0047 136.164 24.9249C135.966 24.8451 135.787 24.7265 135.637 24.5763C135.487 24.4261 135.368 24.2472 135.289 24.0504C135.209 23.8536 135.17 23.6429 135.174 23.4308V23.4217C135.17 23.2069 135.21 22.9936 135.291 22.7945C135.372 22.5955 135.493 22.4149 135.646 22.2636C135.799 22.1123 135.982 21.9934 136.182 21.9142C136.383 21.835 136.597 21.7971 136.813 21.8028C137.042 21.7917 137.27 21.8289 137.484 21.9121C137.697 21.9953 137.891 22.1225 138.051 22.2853L137.611 22.7913C137.4 22.5729 137.112 22.4457 136.807 22.4371C136.279 22.4371 135.896 22.8756 135.896 23.4126V23.4217C135.896 23.9575 136.268 24.405 136.807 24.405C137.167 24.405 137.387 24.2611 137.633 24.0379L138.073 24.4803C137.915 24.665 137.717 24.8115 137.494 24.9086C137.271 25.0057 137.029 25.0509 136.785 25.0407Z" fill="#656668"/>
<path d="M138.978 24.9875V21.8572H139.67V24.9875H138.978Z" fill="#656668"/>
<path d="M140.833 24.9875V21.8572H143.207V22.4695H141.514V23.1052H142.995V23.7175H141.514V24.3752H143.219V24.9875H140.833Z" fill="#656668"/>
<path d="M145.645 22.4929V24.9875H144.953V22.4929H143.997V21.8572H146.602V22.4929H145.645Z" fill="#656668"/>
<path d="M149.186 23.7396V24.9875H148.494V23.7538L147.287 21.8572H148.096L148.844 23.1143L149.607 21.8572H150.389L149.186 23.7396Z" fill="#656668"/>
<path d="M84.6045 30.8161L84.318 30.1143H82.9923L82.7045 30.8161H82L83.3466 27.6638H83.9834L85.3299 30.8161H84.6045ZM83.6539 28.4914L83.2359 29.5059H84.0706L83.6539 28.4914Z" fill="#656668"/>
<path d="M87.2338 28.3176V30.8161H86.5436V28.3176H85.5865V27.6819H88.191V28.3176H87.2338Z" fill="#656668"/>
<path d="M92.6383 30.8161V29.559H91.3633V30.8161H90.6731V27.6819H91.3633V28.9208H92.6383V27.6819H93.3298V30.8161H92.6383Z" fill="#656668"/>
<path d="M96.7691 30.8161L96.4826 30.1143H95.153L94.8665 30.8161H94.1619L95.5085 27.6638H96.1453L97.497 30.8161H96.7691ZM95.8184 28.4914L95.4004 29.5059H96.2351L95.8184 28.4914Z" fill="#656668"/>
<path d="M100.232 30.8161L99.5585 29.8146H99.0155V30.8161H98.324V27.6819H99.7565C100.497 27.6819 100.942 28.0711 100.942 28.7197V28.7275C100.951 28.9404 100.891 29.1506 100.769 29.3259C100.648 29.5012 100.472 29.6319 100.268 29.6978L101.039 30.8161H100.232ZM100.245 28.7547C100.245 28.459 100.038 28.3085 99.7018 28.3085H99.0155V29.2062H99.7109C100.048 29.2062 100.241 29.0272 100.241 28.7638L100.245 28.7547Z" fill="#656668"/>
<path d="M103.452 30.8342H102.836L101.567 27.6819H102.33L103.152 29.8872L103.972 27.6819H104.717L103.452 30.8342Z" fill="#656668"/>
<path d="M107.6 30.8161L107.312 30.1143H105.984L105.701 30.8161H104.997L106.343 27.6638H106.98L108.323 30.8161H107.6ZM106.648 28.4914L106.231 29.5059H107.066L106.648 28.4914Z" fill="#656668"/>
<path d="M111.064 30.8161L110.39 29.8107H109.846V30.8161H109.155V27.6819H110.587C111.327 27.6819 111.773 28.0711 111.773 28.7197V28.7275C111.782 28.9405 111.722 29.1509 111.6 29.3262C111.478 29.5015 111.302 29.6321 111.098 29.6978L111.866 30.8161H111.064ZM111.077 28.7547C111.077 28.459 110.871 28.3085 110.534 28.3085H109.848V29.2062H110.547C110.884 29.2062 111.077 29.0272 111.077 28.7638V28.7547Z" fill="#656668"/>
<path d="M114.02 30.8161H112.795V27.6819H114.02C115.007 27.6819 115.69 28.3578 115.69 29.2386V29.2477C115.69 30.1285 115.007 30.8161 114.02 30.8161ZM114.967 29.2516C114.974 29.126 114.954 29.0005 114.908 28.8831C114.863 28.7657 114.794 28.6591 114.704 28.5702C114.615 28.4813 114.508 28.4121 114.39 28.367C114.272 28.3219 114.146 28.302 114.02 28.3085H113.485V30.1947H114.02C114.146 30.202 114.272 30.1828 114.389 30.1385C114.507 30.0941 114.614 30.0256 114.703 29.9374C114.792 29.8492 114.862 29.7432 114.908 29.6264C114.953 29.5096 114.973 29.3845 114.967 29.2594V29.2516Z" fill="#656668"/>
<path d="M119.568 30.8615C118.724 30.8615 118.208 30.3919 118.208 29.4708V27.6819H118.899V29.4527C118.899 29.9625 119.159 30.231 119.577 30.231C119.995 30.231 120.254 29.9716 120.254 29.4799V27.6819H120.946V29.4488C120.946 30.3958 120.417 30.8615 119.568 30.8615Z" fill="#656668"/>
<path d="M124.265 30.8161L122.744 28.8261V30.8161H122.062V27.6819H122.7L124.171 29.6096V27.6819H124.854V30.8161H124.265Z" fill="#656668"/>
<path d="M126.017 30.8161V27.6819H126.708V30.8161H126.017Z" fill="#656668"/>
<path d="M129.437 30.8342H128.826L127.556 27.6819H128.319L129.141 29.8872L129.961 27.6819H130.705L129.437 30.8342Z" fill="#656668"/>
<path d="M131.541 30.8161V27.6819H133.911V28.2942H132.227V28.9299H133.709V29.5422H132.227V30.1999H133.933V30.8161H131.541Z" fill="#656668"/>
<path d="M136.874 30.8161L136.199 29.8146H135.654V30.8161H134.963V27.6819H136.396C137.136 27.6819 137.58 28.0711 137.58 28.7197V28.7275C137.59 28.9404 137.529 29.1507 137.408 29.3261C137.286 29.5014 137.11 29.6321 136.906 29.6978L137.675 30.8161H136.874ZM136.887 28.7547C136.887 28.459 136.68 28.3085 136.344 28.3085H135.654V29.2062H136.354C136.692 29.2062 136.884 29.0272 136.884 28.7638L136.887 28.7547Z" fill="#656668"/>
<path d="M139.691 30.8563C139.2 30.8584 138.726 30.6801 138.358 30.3555L138.766 29.8678C139.022 30.1036 139.356 30.2387 139.705 30.2479C139.988 30.2479 140.158 30.1363 140.158 29.9534V29.9443C140.158 29.7705 140.05 29.6849 139.525 29.5461C138.892 29.3852 138.483 29.2114 138.483 28.59V28.5809C138.483 28.0127 138.942 27.6378 139.584 27.6378C140.009 27.6303 140.424 27.7712 140.756 28.0361L140.397 28.555C140.162 28.3728 139.877 28.2656 139.58 28.2475C139.32 28.2475 139.176 28.3682 139.176 28.5199V28.529C139.176 28.734 139.307 28.8014 139.853 28.9402C140.49 29.105 140.85 29.3294 140.85 29.8795V29.8872C140.843 30.5073 140.368 30.8563 139.691 30.8563Z" fill="#656668"/>
<path d="M141.845 30.8161V27.6819H142.536V30.8161H141.845Z" fill="#656668"/>
<path d="M145.048 28.3176V30.8161H144.357V28.3176H143.402V27.6819H146.007V28.3176H145.048Z" fill="#656668"/>
<path d="M148.59 29.5642V30.8161H147.895V29.5824L146.688 27.6858H147.504L148.254 28.9428L149.018 27.6858H149.799L148.59 29.5642Z" fill="#656668"/>
<path d="M82 1.04669H85.4133C86.2493 1.04669 86.8392 1.25555 87.2299 1.64473C87.3704 1.78455 87.4808 1.95147 87.5542 2.13528C87.6277 2.31909 87.6627 2.51591 87.6571 2.71366V2.73312C87.6571 3.4998 87.2208 3.95514 86.6309 4.21069C87.4383 4.47015 87.9514 4.93067 87.9514 5.83096V5.84913C87.9514 6.98552 87.0203 7.67696 85.4328 7.67696H82V1.04669ZM84.9575 3.6892C85.5174 3.6892 85.8313 3.4998 85.8313 3.11192V3.09376C85.8313 2.73312 85.5461 2.52427 84.9952 2.52427H83.7971V3.69179L84.9575 3.6892ZM85.2179 6.19938C85.7792 6.19938 86.1022 5.98145 86.1022 5.59357V5.57411C86.1022 5.21477 85.817 4.97737 85.1984 4.97737H83.7971V6.19938H85.2179Z" fill="black"/>
<path d="M89.5896 1.04669H94.9433V2.60988H91.4154V3.61396H94.6099V5.06299H91.4154V6.11506H94.9902V7.67177H89.5896V1.04669Z" fill="black"/>
<path d="M96.7795 1.04669H99.9271C100.944 1.04669 101.647 1.31263 102.094 1.76667C102.485 2.14677 102.684 2.65788 102.684 3.3104V3.32986C102.684 4.34301 102.142 5.01629 101.315 5.36655L102.903 7.67696H100.774L99.4322 5.66881H98.6248V7.67696H96.7795V1.04669ZM99.8411 4.23015C100.469 4.23015 100.83 3.9266 100.83 3.44402V3.42456C100.83 2.90566 100.449 2.63842 99.832 2.63842H98.6248V4.23015H99.8411Z" fill="black"/>
<path d="M104.372 1.04669H106.222V3.7372L108.514 1.04669H110.701L108.176 3.89806L110.78 7.67696H108.566L106.894 5.21217L106.222 5.96329V7.67696H104.372V1.04669Z" fill="black"/>
<path d="M112.037 1.04669H113.99L115.578 3.61396L117.161 1.04669H119.115V7.67696H117.276V3.86952L115.573 6.46402H115.535L113.842 3.88768V7.67566H112.037V1.04669Z" fill="black"/>
<path d="M123.256 1H125.034L127.867 7.67696H125.887L125.401 6.49387H122.838L122.363 7.67696H120.417L123.256 1ZM124.872 5.063L124.131 3.18457L123.38 5.06948L124.872 5.063Z" fill="black"/>
<path d="M129.18 1.04669H130.902L133.636 4.54928V1.04669H135.46V7.67696H133.849L131.006 4.04465V7.67696H129.183L129.18 1.04669Z" fill="black"/>
<path d="M82 11.1432H83.844V13.8337L86.136 11.1432H88.3225L85.8039 13.9972L88.4085 17.7761H86.1946L84.5212 15.3113L83.8453 16.0585V17.7735H82V11.1432Z" fill="black"/>
<path d="M89.6652 11.1432H91.5066V16.1636H94.7336V17.7735H89.6652V11.1432Z" fill="black"/>
<path d="M96.1114 11.1432H101.464V12.6999H97.9372V13.704H101.132V15.153H97.9372V16.2038H101.512V17.7605H96.1114V11.1432Z" fill="black"/>
<path d="M103.327 11.1432H105.18V17.7735H103.327V11.1432Z" fill="black"/>
<path d="M107.157 11.1432H108.879L111.614 14.6458V11.1432H113.437V17.7735H111.822L108.979 14.1412V17.7735H107.156L107.157 11.1432Z" fill="black"/>
<path d="M118.319 14.4772V14.459C118.319 12.5261 119.813 11.0109 121.827 11.0109C123.187 11.0109 124.062 11.5791 124.652 12.3938L123.264 13.464C122.884 12.9905 122.446 12.6856 121.809 12.6856C120.877 12.6856 120.222 13.4718 120.222 14.4382V14.4577C120.222 15.4514 120.873 16.2284 121.809 16.2284C122.503 16.2284 122.912 15.9054 123.311 15.4229L124.699 16.4088C124.073 17.2701 123.226 17.9045 121.752 17.9045C121.299 17.9108 120.849 17.8264 120.429 17.6563C120.009 17.4862 119.628 17.2339 119.308 16.9142C118.987 16.5946 118.735 16.2142 118.565 15.7956C118.395 15.3769 118.312 14.9286 118.319 14.4772Z" fill="black"/>
<path d="M126.163 11.1432H131.515V12.6999H127.987V13.704H131.183V15.153H127.987V16.2038H131.563V17.7605H126.163V11.1432Z" fill="black"/>
<path d="M133.353 11.1432H135.073L137.808 14.6458V11.1432H139.631V17.7735H138.021L135.177 14.1412V17.7735H133.354L133.353 11.1432Z" fill="black"/>
<path d="M143.026 12.7531H141.029V11.1432H146.868V12.7531H144.87V17.7735H143.026V12.7531Z" fill="black"/>
<path d="M148.254 11.1432H153.608V12.6999H150.08V13.704H153.275V15.153H150.08V16.2038H153.655V17.7605H148.254V11.1432Z" fill="black"/>
<path d="M155.448 11.1432H158.596C159.613 11.1432 160.316 11.4027 160.764 11.8632C161.155 12.242 161.353 12.7531 161.353 13.4069V13.4329C161.353 14.446 160.811 15.1193 159.984 15.4683L161.569 17.7735H159.438L158.098 15.7679H157.29V17.7761H155.448V11.1432ZM158.51 14.3254C159.138 14.3254 159.5 14.0231 159.5 13.5392V13.5211C159.5 13.0022 159.119 12.7349 158.501 12.7349H157.293V14.3254H158.51Z" fill="black"/>
<path d="M23.9279 0.861481H22.1568V31.0486H23.9279V0.861481Z" fill="#A51C30"/>
<path d="M52.59 0.861481H50.8189V31.0486H52.59V0.861481Z" fill="#A51C30"/>
<path d="M33.0846 31.0821L31.8324 29.8348L40.2948 21.405L31.8076 12.9505L33.0598 11.7031L42.7992 21.405L33.0846 31.0821Z" fill="#A51C30"/>
<path d="M70.3225 31.0821L71.5747 29.8348L63.114 21.405L71.6012 12.9505L70.3473 11.7031L60.6096 21.405L70.3225 31.0821Z" fill="#A51C30"/>
<path d="M0.166486 27.2324L3.98149 31.0327L13.5934 21.4597L3.815 11.7207L0 15.521L5.9616 21.4597L0.166486 27.2324Z" fill="#A51C30"/>
</svg>
