<svg xmlns="http://www.w3.org/2000/svg" width="162" height="32" fill="none"><path fill="#656668" d="M82.692 22.484v.665h1.498v.627h-1.498v1.212H82v-3.13h2.392v.626h-1.7ZM86.756 25.04c-.97 0-1.666-.72-1.666-1.61v-.008a1.613 1.613 0 0 1 .493-1.162 1.626 1.626 0 0 1 1.18-.457c.97 0 1.666.72 1.666 1.61v.009a1.612 1.612 0 0 1-1.036 1.51 1.63 1.63 0 0 1-.637.109Zm.95-1.618a.949.949 0 0 0-.578-.908.959.959 0 0 0-.742-.003.94.94 0 0 0-.573.902v.009a.946.946 0 0 0 .579.906.956.956 0 0 0 .742.003.941.941 0 0 0 .573-.901v-.008ZM91.324 24.988l-.673-1.002h-.543v1.002h-.685v-3.13h1.433c.74 0 1.184.388 1.184 1.037v.008a.97.97 0 0 1-.673.97l.767 1.118-.81-.003Zm.013-2.062c0-.294-.207-.446-.543-.446h-.686v.898h.7c.337 0 .53-.18.53-.443v-.009ZM94.646 24.988v-3.13h.69v3.13h-.69ZM98.703 24.988l-1.521-1.99v1.99h-.683v-3.13h.639l1.471 1.927v-1.928h.683v3.13h-.59ZM101.795 22.493v2.495h-.692v-2.495h-.956v-.636h2.605v.636h-.957ZM103.606 24.988v-3.13h2.369v.611h-1.683v.636h1.481v.613h-1.481v.657h1.706v.613h-2.392ZM108.938 24.988l-.674-1.002h-.543v1.002h-.691v-3.13h1.432c.741 0 1.185.388 1.185 1.037v.008a.968.968 0 0 1-.673.97l.767 1.118-.803-.003Zm.013-2.062c0-.294-.206-.446-.544-.446h-.686v.898h.701c.336 0 .529-.18.529-.443v-.009ZM112.872 24.988l-1.521-1.99v1.99h-.683v-3.13h.633l1.473 1.927v-1.928h.681v3.13h-.583ZM114.613 24.988v-3.13h2.37v.611h-1.684v.636h1.482v.613h-1.482v.657h1.706v.613h-2.392ZM119.423 22.493v2.495h-.69v-2.495h-.956v-.636h2.605v.636h-.959ZM124.975 25.05l-.365-.367c-.254.222-.58.346-.919.349-.602 0-1.055-.35-1.055-.908 0-.404.215-.685.611-.863a1.052 1.052 0 0 1-.22-.63c0-.435.345-.828.95-.828.536 0 .885.343.885.791 0 .424-.269.67-.659.822l.416.417a5.89 5.89 0 0 0 .305-.537l.508.277c-.123.23-.261.45-.413.662l.463.46-.507.355Zm-1.349-1.369a.47.47 0 0 0-.292.417c0 .223.184.37.44.37a.75.75 0 0 0 .454-.178l-.602-.609Zm.341-1.34a.296.296 0 0 0-.289.199.303.303 0 0 0-.016.123.565.565 0 0 0 .184.39c.273-.104.418-.22.418-.421a.282.282 0 0 0-.082-.213.277.277 0 0 0-.215-.078ZM129.058 25.032a2.002 2.002 0 0 1-1.334-.501l.409-.487c.256.236.589.371.938.38.282 0 .453-.112.453-.295v-.01c0-.173-.107-.259-.633-.398-.633-.16-1.042-.334-1.042-.956v-.009c0-.568.457-.943 1.099-.943.426-.008.841.133 1.172.398l-.359.52a1.467 1.467 0 0 0-.817-.31c-.26 0-.403.121-.403.273v.01c0 .204.13.271.677.41.638.165.996.39.996.94v.007c-.004.622-.479.97-1.156.97ZM132.67 25.04a1.615 1.615 0 0 1-1.539-.98 1.614 1.614 0 0 1-.125-.63v-.008a1.609 1.609 0 0 1 .493-1.162 1.63 1.63 0 0 1 1.18-.457c.97 0 1.666.72 1.666 1.61v.009a1.613 1.613 0 0 1-1.038 1.51 1.629 1.629 0 0 1-.637.109Zm.952-1.618a.953.953 0 0 0-1.322-.91.945.945 0 0 0-.512.53.92.92 0 0 0-.059.37v.01a.95.95 0 0 0 1.833.378.939.939 0 0 0 .06-.37v-.008ZM136.785 25.04a1.586 1.586 0 0 1-1.611-1.61v-.008a1.586 1.586 0 0 1 1.008-1.508c.201-.079.415-.117.631-.111a1.631 1.631 0 0 1 1.238.482l-.44.506a1.162 1.162 0 0 0-.804-.354c-.528 0-.911.439-.911.976v.009c0 .535.372.983.911.983.36 0 .58-.144.826-.367l.44.442a1.605 1.605 0 0 1-1.288.56ZM138.978 24.988v-3.13h.692v3.13h-.692ZM140.833 24.988v-3.13h2.374v.611h-1.693v.636h1.481v.613h-1.481v.657h1.705v.613h-2.386ZM145.645 22.493v2.495h-.692v-2.495h-.956v-.636h2.605v.636h-.957ZM149.186 23.74v1.248h-.692v-1.234l-1.207-1.897h.809l.748 1.257.763-1.257h.782l-1.203 1.883ZM84.605 30.816l-.287-.702h-1.326l-.288.702H82l1.347-3.152h.636l1.347 3.152h-.725Zm-.951-2.325-.418 1.015h.835l-.417-1.015ZM87.234 28.318v2.498h-.69v-2.498h-.957v-.636h2.604v.636h-.957ZM92.638 30.816V29.56h-1.275v1.257h-.69v-3.134h.69v1.239h1.275v-1.24h.692v3.135h-.692ZM96.77 30.816l-.287-.702h-1.33l-.287.702h-.704l1.346-3.152h.637l1.352 3.152h-.728Zm-.952-2.325-.418 1.015h.835l-.417-1.015ZM100.232 30.816l-.674-1.001h-.543v1.001h-.691v-3.134h1.433c.74 0 1.185.39 1.185 1.038v.008a.975.975 0 0 1-.674.97l.771 1.118h-.807Zm.013-2.061c0-.296-.207-.447-.543-.447h-.686v.898h.695c.337 0 .53-.179.53-.442l.004-.01ZM103.452 30.834h-.616l-1.269-3.152h.763l.822 2.205.82-2.205h.745l-1.265 3.152ZM107.6 30.816l-.288-.702h-1.328l-.283.702h-.704l1.346-3.152h.637l1.343 3.152h-.723Zm-.952-2.325-.417 1.015h.835l-.418-1.015ZM111.064 30.816l-.674-1.005h-.544v1.005h-.691v-3.134h1.432c.74 0 1.186.39 1.186 1.038v.008a.975.975 0 0 1-.675.97l.768 1.118h-.802Zm.013-2.061c0-.296-.206-.447-.543-.447h-.686v.898h.699c.337 0 .53-.179.53-.442v-.01ZM114.02 30.816h-1.225v-3.134h1.225c.987 0 1.67.676 1.67 1.557v.009c0 .88-.683 1.568-1.67 1.568Zm.947-1.564a.876.876 0 0 0-.059-.369.898.898 0 0 0-.888-.575h-.535v1.887h.535a.897.897 0 0 0 .947-.936v-.007ZM119.568 30.861c-.844 0-1.36-.47-1.36-1.39v-1.79h.691v1.772c0 .51.26.778.678.778.418 0 .677-.26.677-.751v-1.798h.692v1.767c0 .947-.529 1.412-1.378 1.412ZM124.265 30.816l-1.521-1.99v1.99h-.682v-3.134h.638l1.471 1.928v-1.928h.683v3.134h-.589ZM126.017 30.816v-3.134h.691v3.134h-.691ZM129.437 30.834h-.611l-1.27-3.152h.763l.822 2.205.82-2.205h.744l-1.268 3.152ZM131.541 30.816v-3.134h2.37v.612h-1.684v.636h1.482v.612h-1.482v.658h1.706v.616h-2.392ZM136.874 30.816l-.675-1.001h-.545v1.001h-.691v-3.134h1.433c.74 0 1.184.39 1.184 1.038v.008a.974.974 0 0 1-.674.97l.769 1.118h-.801Zm.013-2.061c0-.296-.207-.447-.543-.447h-.69v.898h.7c.338 0 .53-.179.53-.442l.003-.01ZM139.691 30.856a2.002 2.002 0 0 1-1.333-.5l.408-.488c.256.236.59.37.939.38.283 0 .453-.112.453-.295v-.009c0-.174-.108-.26-.633-.398-.633-.16-1.042-.335-1.042-.956v-.01c0-.567.459-.942 1.101-.942.425-.008.84.133 1.172.398l-.359.519a1.48 1.48 0 0 0-.817-.308c-.26 0-.404.121-.404.273v.009c0 .205.131.272.677.411.637.165.997.39.997.94v.007c-.007.62-.482.97-1.159.97ZM141.845 30.816v-3.134h.691v3.134h-.691ZM145.048 28.318v2.498h-.691v-2.498h-.955v-.636h2.605v.636h-.959ZM148.59 29.564v1.252h-.695v-1.234l-1.207-1.896h.816l.75 1.257.764-1.257h.781l-1.209 1.878Z"/><path fill="#000" d="M82 1.047h3.413c.836 0 1.426.209 1.817.598a1.452 1.452 0 0 1 .427 1.069v.02c0 .766-.436 1.221-1.026 1.477.807.26 1.32.72 1.32 1.62v.018c0 1.137-.93 1.828-2.518 1.828H82v-6.63Zm2.957 2.642c.56 0 .874-.19.874-.577v-.018c0-.36-.285-.57-.836-.57h-1.198v1.168l1.16-.003Zm.26 2.51c.562 0 .885-.218.885-.605v-.02c0-.36-.285-.597-.904-.597h-1.4V6.2h1.42ZM89.59 1.047h5.353V2.61h-3.528v1.004h3.195v1.449h-3.195v1.052h3.575v1.557h-5.4V1.047ZM96.78 1.047h3.147c1.017 0 1.72.266 2.167.72.391.38.59.89.59 1.543v.02c0 1.013-.542 1.686-1.369 2.037l1.588 2.31h-2.129l-1.342-2.008h-.807v2.008h-1.846v-6.63ZM99.84 4.23c.628 0 .989-.303.989-.786v-.02c0-.518-.381-.786-.998-.786h-1.207V4.23h1.216ZM104.372 1.047h1.85v2.69l2.292-2.69h2.187l-2.525 2.851 2.604 3.779h-2.214l-1.672-2.465-.672.751v1.714h-1.85v-6.63ZM112.037 1.047h1.953l1.588 2.567 1.583-2.567h1.954v6.63h-1.839V3.87l-1.703 2.594h-.038l-1.693-2.576v3.788h-1.805v-6.63ZM123.256 1h1.778l2.833 6.677h-1.98l-.486-1.183h-2.563l-.475 1.183h-1.946L123.256 1Zm1.616 4.063-.741-1.878-.751 1.884 1.492-.006ZM129.18 1.047h1.722l2.734 3.502V1.047h1.824v6.63h-1.611l-2.843-3.632v3.632h-1.823l-.003-6.63ZM82 11.143h1.844v2.69l2.292-2.69h2.187l-2.52 2.854 2.606 3.78h-2.214L84.52 15.31l-.676.747v1.715H82v-6.63ZM89.665 11.143h1.842v5.02h3.227v1.61h-5.069v-6.63ZM96.111 11.143h5.353V12.7h-3.527v1.004h3.195v1.449h-3.195v1.05h3.575v1.558h-5.4v-6.618ZM103.327 11.143h1.853v6.63h-1.853v-6.63ZM107.157 11.143h1.722l2.735 3.503v-3.503h1.823v6.63h-1.615l-2.843-3.632v3.632h-1.823l.001-6.63ZM118.319 14.477v-.018c0-1.933 1.494-3.448 3.508-3.448 1.36 0 2.235.568 2.825 1.383l-1.388 1.07c-.38-.473-.818-.778-1.455-.778-.932 0-1.587.786-1.587 1.752v.02c0 .993.651 1.77 1.587 1.77.694 0 1.103-.323 1.502-.805l1.388.986c-.626.861-1.473 1.495-2.947 1.495a3.4 3.4 0 0 1-2.444-.99 3.363 3.363 0 0 1-.989-2.437ZM126.163 11.143h5.352V12.7h-3.528v1.004h3.196v1.449h-3.196v1.05h3.576v1.558h-5.4v-6.618ZM133.353 11.143h1.72l2.735 3.503v-3.503h1.823v6.63h-1.61l-2.844-3.632v3.632h-1.823l-.001-6.63ZM143.026 12.753h-1.997v-1.61h5.839v1.61h-1.998v5.02h-1.844v-5.02ZM148.254 11.143h5.354V12.7h-3.528v1.004h3.195v1.449h-3.195v1.05h3.575v1.558h-5.401v-6.618ZM155.448 11.143h3.148c1.017 0 1.72.26 2.168.72.391.379.589.89.589 1.544v.026c0 1.013-.542 1.686-1.369 2.035l1.585 2.305h-2.131l-1.34-2.005h-.808v2.008h-1.842v-6.633Zm3.062 3.182c.628 0 .99-.302.99-.786v-.018c0-.519-.381-.786-.999-.786h-1.208v1.59h1.217Z"/><path fill="#A51C30" d="M23.928.861h-1.771V31.05h1.77V.86ZM52.59.861h-1.771V31.05h1.771V.86ZM33.085 31.082l-1.253-1.247 8.463-8.43-8.487-8.455 1.252-1.247 9.74 9.702-9.715 9.677ZM70.323 31.082l1.252-1.247-8.461-8.43 8.487-8.455-1.254-1.247-9.737 9.702 9.713 9.677ZM.166 27.232l3.815 3.8 9.612-9.572-9.778-9.74L0 15.522l5.962 5.939-5.796 5.772Z"/></svg>