<svg width="644" height="607" viewBox="0 0 644 607" fill="none" xmlns="http://www.w3.org/2000/svg">
<g filter="url(#filter0_d_687_4817)">
<rect x="341.592" width="235.998" height="235.998" rx="117.999" transform="rotate(25.0262 341.592 0)" fill="url(#paint0_linear_687_4817)" />
<g clip-path="url(#clip0_687_4817)">
<path d="M416.75 157.175C416.544 157.618 416.169 157.961 415.71 158.128C415.25 158.295 414.743 158.273 414.3 158.066L387.57 145.586C387.127 145.38 386.784 145.005 386.617 144.546C386.45 144.086 386.472 143.579 386.679 143.136C386.886 142.693 387.26 142.35 387.72 142.183C388.179 142.016 388.687 142.038 389.13 142.245L415.86 154.724C416.303 154.931 416.646 155.306 416.813 155.765C416.98 156.225 416.957 156.732 416.75 157.175ZM409.62 168.09L382.89 155.61C382.447 155.403 381.94 155.381 381.48 155.548C381.021 155.715 380.646 156.058 380.439 156.501C380.233 156.944 380.21 157.451 380.377 157.911C380.544 158.37 380.887 158.745 381.33 158.951L408.06 171.431C408.503 171.638 409.01 171.66 409.47 171.493C409.93 171.326 410.304 170.983 410.511 170.54C410.718 170.097 410.74 169.59 410.573 169.13C410.406 168.671 410.063 168.296 409.62 168.09ZM440.361 176.337C436.967 183.609 431.735 189.868 425.18 194.497C418.625 199.126 410.975 201.964 402.987 202.729C395 203.494 386.95 202.161 379.636 198.861C372.321 195.561 365.995 190.409 361.283 183.913L344.056 181.924C343.036 181.807 342.068 181.407 341.262 180.77C340.456 180.133 339.843 179.285 339.492 178.319C339.141 177.354 339.066 176.309 339.275 175.304C339.484 174.298 339.969 173.37 340.676 172.624L352.605 160.039C352.119 153.02 353.246 145.984 355.899 139.468C358.552 132.952 362.662 127.13 367.913 122.448C373.164 117.766 379.417 114.349 386.193 112.457C392.969 110.565 400.088 110.249 407.005 111.534C413.922 112.818 420.453 115.669 426.098 119.868C431.743 124.067 436.352 129.502 439.571 135.757C442.791 142.012 444.536 148.922 444.673 155.955C444.81 162.989 443.335 169.961 440.361 176.337ZM437.019 174.777C439.769 168.882 441.126 162.433 440.985 155.93C440.844 149.426 439.209 143.043 436.206 137.272C433.203 131.502 428.912 126.5 423.667 122.653C418.421 118.807 412.361 116.218 405.955 115.088C399.549 113.958 392.969 114.318 386.724 116.138C380.479 117.958 374.736 121.19 369.94 125.585C365.144 129.98 361.424 135.419 359.066 141.482C356.709 147.545 355.778 154.068 356.345 160.549C356.368 160.809 356.335 161.071 356.249 161.317C356.163 161.564 356.025 161.789 355.845 161.979L343.353 175.161C343.117 175.41 342.955 175.719 342.886 176.054C342.816 176.389 342.841 176.737 342.958 177.059C343.075 177.381 343.279 177.664 343.548 177.876C343.817 178.089 344.139 178.222 344.479 178.261L362.521 180.346C362.719 180.367 362.912 180.421 363.092 180.506C363.385 180.644 363.637 180.856 363.822 181.121C368.086 187.228 373.883 192.103 380.629 195.258C387.375 198.413 394.834 199.735 402.253 199.092C409.673 198.449 416.793 195.863 422.896 191.595C428.999 187.326 433.87 181.526 437.019 174.777Z" fill="#1C2745"/>
</g>
</g>
<g filter="url(#filter1_d_687_4817)">
<rect x="110.875" y="90.8867" width="372.518" height="372.518" rx="186.259" transform="rotate(17.3157 110.875 90.8867)" fill="#5489A3" />
<rect x="110.875" y="90.8867" width="372.518" height="372.518" rx="186.259" transform="rotate(17.3157 110.875 90.8867)" fill="url(#paint1_linear_687_4817)" />
<path d="M281.861 314.907C275.904 334.016 253.809 344.336 231.727 338.823L229.104 347.235C228.874 347.972 228.361 348.587 227.678 348.946C226.994 349.304 226.196 349.377 225.459 349.147C224.723 348.917 224.107 348.404 223.749 347.721C223.39 347.037 223.318 346.239 223.547 345.503L227.012 334.389C227.242 333.652 227.755 333.037 228.438 332.678C229.122 332.319 229.92 332.247 230.657 332.477C250.571 338.685 271.051 330.026 276.304 313.175C281.558 296.324 269.628 277.56 249.713 271.352C229.799 265.143 209.319 273.803 204.066 290.654C203.836 291.39 203.323 292.006 202.64 292.365C201.956 292.723 201.158 292.796 200.421 292.566C199.684 292.336 199.069 291.823 198.71 291.14C198.352 290.456 198.279 289.658 198.509 288.921C204.718 269.007 228.468 258.632 251.446 265.795C274.423 272.959 288.07 294.993 281.861 314.907ZM218.53 371.374C216.881 370.86 215.117 370.847 213.461 371.335C211.805 371.824 210.331 372.793 209.225 374.119C208.119 375.445 207.432 377.07 207.249 378.787C207.067 380.504 207.398 382.237 208.2 383.766C209.002 385.295 210.24 386.552 211.756 387.378C213.273 388.203 215 388.561 216.72 388.405C218.44 388.249 220.075 387.586 221.418 386.501C222.761 385.416 223.752 383.957 224.266 382.308C224.956 380.098 224.738 377.704 223.663 375.653C222.587 373.603 220.74 372.064 218.53 371.374Z" fill="#FFF4EB"/>
</g>
<g filter="url(#filter2_d_687_4817)">
<rect x="417.172" y="214" width="280.417" height="280.417" rx="140.208" transform="rotate(36.3409 417.172 214)" fill="#FFF4EB" />
<rect x="417.172" y="214" width="280.417" height="280.417" rx="140.208" transform="rotate(36.3409 417.172 214)" fill="url(#paint2_linear_687_4817)" />
<g clip-path="url(#clip1_687_4817)">
<path d="M488.909 445.237C489.013 444.816 488.989 444.373 488.841 443.966C488.693 443.558 488.428 443.203 488.078 442.946L468.667 428.666L495.929 391.608C496.962 390.204 497.395 388.447 497.133 386.724C496.87 385.001 495.934 383.452 494.53 382.419L459.237 356.455C457.833 355.422 456.076 354.989 454.353 355.252C452.629 355.514 451.081 356.45 450.048 357.854L422.786 394.912L403.374 380.632C403.025 380.375 402.608 380.227 402.175 380.207C401.742 380.187 401.312 380.296 400.941 380.521C400.57 380.745 400.274 381.074 400.09 381.467C399.907 381.86 399.844 382.298 399.909 382.727L411.104 456.236C411.147 456.52 411.246 456.794 411.395 457.04C411.544 457.287 411.74 457.501 411.972 457.672C412.203 457.842 412.467 457.966 412.746 458.035C413.026 458.103 413.316 458.116 413.601 458.073L487.11 446.878C487.539 446.813 487.938 446.623 488.258 446.33C488.579 446.038 488.805 445.658 488.909 445.237ZM415.108 453.409L405.039 387.296L421.954 399.74C422.422 400.084 423.007 400.228 423.582 400.141C424.156 400.054 424.672 399.741 425.017 399.273L453.577 360.451C453.922 359.983 454.438 359.671 455.012 359.583C455.587 359.496 456.172 359.64 456.64 359.984L491.934 385.949C492.402 386.293 492.714 386.809 492.801 387.383C492.889 387.958 492.744 388.544 492.4 389.012L463.839 427.834C463.495 428.302 463.351 428.888 463.438 429.462C463.526 430.037 463.838 430.553 464.306 430.897L481.22 443.341L415.108 453.409Z" fill="#5489A3"/>
</g>
</g>
<defs>
<filter id="filter0_d_687_4817" x="237.757" y="0" width="321.676" height="321.676" filterUnits="userSpaceOnUse" color-interpolation-filters="sRGB">
<feFlood flood-opacity="0" result="BackgroundImageFix"/>
<feColorMatrix in="SourceAlpha" type="matrix" values="0 0 0 0 0 0 0 0 0 0 0 0 0 0 0 0 0 0 127 0" result="hardAlpha"/>
<feOffset dy="4"/>
<feGaussianBlur stdDeviation="2"/>
<feComposite in2="hardAlpha" operator="out"/>
<feColorMatrix type="matrix" values="0 0 0 0 0 0 0 0 0 0 0 0 0 0 0 0 0 0 0.13 0"/>
<feBlend mode="normal" in2="BackgroundImageFix" result="effect1_dropShadow_687_4817"/>
<feBlend mode="normal" in="SourceGraphic" in2="effect1_dropShadow_687_4817" result="shape"/>
</filter>
<filter id="filter1_d_687_4817" x="-3.99976" y="90.8867" width="474.51" height="474.51" filterUnits="userSpaceOnUse" color-interpolation-filters="sRGB">
<feFlood flood-opacity="0" result="BackgroundImageFix"/>
<feColorMatrix in="SourceAlpha" type="matrix" values="0 0 0 0 0 0 0 0 0 0 0 0 0 0 0 0 0 0 127 0" result="hardAlpha"/>
<feOffset dy="4"/>
<feGaussianBlur stdDeviation="2"/>
<feComposite in2="hardAlpha" operator="out"/>
<feColorMatrix type="matrix" values="0 0 0 0 0 0 0 0 0 0 0 0 0 0 0 0 0 0 0.13 0"/>
<feBlend mode="normal" in2="BackgroundImageFix" result="effect1_dropShadow_687_4817"/>
<feBlend mode="normal" in="SourceGraphic" in2="effect1_dropShadow_687_4817" result="shape"/>
</filter>
<filter id="filter2_d_687_4817" x="247" y="214" width="400.049" height="400.049" filterUnits="userSpaceOnUse" color-interpolation-filters="sRGB">
<feFlood flood-opacity="0" result="BackgroundImageFix"/>
<feColorMatrix in="SourceAlpha" type="matrix" values="0 0 0 0 0 0 0 0 0 0 0 0 0 0 0 0 0 0 127 0" result="hardAlpha"/>
<feOffset dy="4"/>
<feGaussianBlur stdDeviation="2"/>
<feComposite in2="hardAlpha" operator="out"/>
<feColorMatrix type="matrix" values="0 0 0 0 0 0 0 0 0 0 0 0 0 0 0 0 0 0 0.13 0"/>
<feBlend mode="normal" in2="BackgroundImageFix" result="effect1_dropShadow_687_4817"/>
<feBlend mode="normal" in="SourceGraphic" in2="effect1_dropShadow_687_4817" result="shape"/>
</filter>
<linearGradient id="paint0_linear_687_4817" x1="459.591" y1="0" x2="459.591" y2="235.998" gradientUnits="userSpaceOnUse">
<stop stop-color="#E79450"/>
<stop offset="1" stop-color="#C58853"/>
</linearGradient>
<linearGradient id="paint1_linear_687_4817" x1="297.134" y1="90.8867" x2="297.134" y2="463.405" gradientUnits="userSpaceOnUse">
<stop stop-color="#53758B" stop-opacity="0"/>
<stop offset="1" stop-color="#53758B"/>
</linearGradient>
<linearGradient id="paint2_linear_687_4817" x1="557.38" y1="214" x2="557.38" y2="494.417" gradientUnits="userSpaceOnUse">
<stop stop-color="#F9DED6" stop-opacity="0"/>
<stop offset="1" stop-color="#F9DED6"/>
</linearGradient>
<clipPath id="clip0_687_4817">
<rect width="117.999" height="117.999" fill="white" transform="translate(370.093 78.4189) rotate(25.0262)"/>
</clipPath>
<clipPath id="clip1_687_4817">
<rect width="140.208" height="140.208" fill="white" transform="translate(432.098 312.012) rotate(36.3409)"/>
</clipPath>
</defs>
</svg>
