<svg width="276" height="266" viewBox="0 0 276 266" fill="none" xmlns="http://www.w3.org/2000/svg">
<g filter="url(#filter0_d_7783_8301)">
<rect x="136.93" width="149.594" height="149.594" rx="74.7972" transform="rotate(22 136.93 0)" fill="url(#paint0_linear_7783_8301)" shape-rendering="crispEdges"/>
<g clip-path="url(#clip0_7783_8301)">
<path d="M214.792 92.9056C214.68 92.7504 214.529 92.6265 214.355 92.5456C214.182 92.4647 213.99 92.4295 213.799 92.4432C199.901 93.425 192.748 87.4802 185.181 81.185C177.613 74.8898 169.759 68.3605 154.948 69.4025C154.738 69.4177 154.535 69.4918 154.364 69.6164C154.193 69.7411 154.061 69.9112 153.982 70.1075L141.3 101.497C141.228 101.675 141.202 101.868 141.225 102.059C141.248 102.249 141.319 102.43 141.432 102.585C141.545 102.741 141.695 102.864 141.869 102.945C142.043 103.026 142.235 103.062 142.426 103.048C156.324 102.066 163.476 108.011 171.044 114.306C175.343 117.869 179.717 121.519 185.398 123.815C189.743 125.57 194.853 126.539 201.271 126.086C201.482 126.071 201.684 125.997 201.855 125.872C202.026 125.748 202.159 125.578 202.237 125.381L214.92 93.9915C214.992 93.8146 215.019 93.6221 214.996 93.4321C214.974 93.2422 214.904 93.061 214.792 92.9056ZM200.416 123.879C186.976 124.617 179.936 118.763 172.493 112.573C168.194 109.01 163.819 105.362 158.138 103.067C154.214 101.481 149.638 100.546 144.054 100.705L155.808 71.6122C169.248 70.8745 176.289 76.7283 183.732 82.9183C191.004 88.9573 198.512 95.2067 212.171 94.7857L200.416 123.879ZM181.072 90.4212C179.623 89.8359 178.033 89.6934 176.504 90.0115C174.974 90.3297 173.573 91.0943 172.478 92.2087C171.383 93.323 170.643 94.7371 170.351 96.2721C170.06 97.807 170.23 99.3939 170.841 100.832C171.451 102.27 172.474 103.495 173.781 104.352C175.088 105.208 176.619 105.658 178.181 105.645C179.744 105.631 181.267 105.154 182.558 104.275C183.85 103.396 184.851 102.153 185.437 100.705C186.221 98.7622 186.202 96.5875 185.384 94.6589C184.565 92.7304 183.014 91.206 181.072 90.4212ZM175.999 102.977C174.964 102.559 174.076 101.844 173.448 100.921C172.82 99.9987 172.48 98.9107 172.47 97.7947C172.46 96.6788 172.782 95.585 173.394 94.6518C174.005 93.7185 174.88 92.9876 175.908 92.5515C176.935 92.1155 178.068 91.9939 179.165 92.202C180.261 92.4102 181.271 92.9388 182.067 93.721C182.863 94.5032 183.409 95.5039 183.637 96.5965C183.864 97.6891 183.762 98.8245 183.344 99.8592C182.783 101.247 181.695 102.355 180.317 102.939C178.94 103.524 177.386 103.538 175.999 102.977ZM161.614 81.3427L156.541 93.8987C156.429 94.1762 156.211 94.3978 155.936 94.5147C155.66 94.6317 155.35 94.6344 155.072 94.5223C154.795 94.4101 154.573 94.1924 154.456 93.9169C154.339 93.6414 154.336 93.3307 154.448 93.0532L159.521 80.4972C159.633 80.2197 159.851 79.9981 160.127 79.8812C160.402 79.7642 160.713 79.7615 160.99 79.8736C161.268 79.9858 161.49 80.2035 161.606 80.479C161.723 80.7545 161.726 81.0652 161.614 81.3427ZM194.611 114.148L199.684 101.592C199.796 101.315 200.013 101.093 200.289 100.976C200.564 100.859 200.875 100.857 201.153 100.969C201.43 101.081 201.652 101.299 201.769 101.574C201.886 101.85 201.888 102.16 201.776 102.438L196.703 114.994C196.591 115.271 196.373 115.493 196.098 115.61C195.822 115.727 195.512 115.729 195.234 115.617C194.957 115.505 194.735 115.287 194.618 115.012C194.501 114.736 194.499 114.426 194.611 114.148Z" fill="#1C2745"/>
</g>
</g>
<g filter="url(#filter1_d_7783_8301)">
<rect x="120.48" y="153.558" width="105.118" height="105.118" rx="52.5591" fill="#FFF4EB" shape-rendering="crispEdges"/>
<rect x="120.48" y="153.558" width="105.118" height="105.118" rx="52.5591" fill="url(#paint1_linear_7783_8301)" shape-rendering="crispEdges"/>
<path d="M190.045 197.324L178.548 185.827C178.472 185.75 178.381 185.69 178.281 185.649C178.182 185.607 178.075 185.586 177.967 185.586H158.257C157.604 185.586 156.977 185.846 156.515 186.308C156.053 186.77 155.794 187.397 155.794 188.05V224.184C155.794 224.838 156.053 225.464 156.515 225.926C156.977 226.389 157.604 226.648 158.257 226.648H187.822C188.475 226.648 189.102 226.389 189.564 225.926C190.026 225.464 190.285 224.838 190.285 224.184V197.905C190.286 197.797 190.264 197.69 190.223 197.59C190.182 197.491 190.122 197.4 190.045 197.324ZM178.788 188.389L187.481 197.084H178.788V188.389ZM187.822 225.006H158.257C158.039 225.006 157.831 224.919 157.677 224.765C157.523 224.611 157.436 224.402 157.436 224.184V188.05C157.436 187.832 157.523 187.623 157.677 187.469C157.831 187.315 158.039 187.229 158.257 187.229H177.146V197.905C177.146 198.123 177.232 198.332 177.386 198.486C177.54 198.64 177.749 198.726 177.967 198.726H188.643V224.184C188.643 224.402 188.556 224.611 188.402 224.765C188.248 224.919 188.04 225.006 187.822 225.006Z" fill="#1C2745"/>
</g>
<g filter="url(#filter2_d_7783_8301)">
<rect y="135.584" width="129.429" height="129.429" rx="64.7147" transform="rotate(-22 0 135.584)" fill="url(#paint2_linear_7783_8301)" shape-rendering="crispEdges"/>
<path d="M93.8758 187.083C94.1006 187.64 94.1553 188.25 94.0331 188.838C93.911 189.425 93.6173 189.963 93.1894 190.383C92.7615 190.804 92.2185 191.088 91.629 191.2C91.0396 191.312 90.4302 191.247 89.8779 191.012C89.3256 190.778 88.8553 190.385 88.5263 189.883C88.1974 189.381 88.0246 188.793 88.0298 188.193C88.0351 187.593 88.2181 187.009 88.5557 186.513C88.8934 186.017 89.3706 185.632 89.9268 185.407C90.6728 185.106 91.5079 185.113 92.2485 185.427C92.9891 185.742 93.5744 186.338 93.8758 187.083ZM86.8965 177.907C87.1452 177.806 87.3437 177.611 87.4485 177.364C87.5533 177.118 87.5557 176.839 87.4553 176.591L77.6067 152.215C77.5063 151.966 77.3111 151.767 77.0643 151.663C76.8174 151.558 76.539 151.555 76.2904 151.656C76.0417 151.756 75.8432 151.951 75.7384 152.198C75.6336 152.445 75.6312 152.724 75.7317 152.972L85.5802 177.348C85.6807 177.597 85.8758 177.795 86.1226 177.9C86.3695 178.005 86.6479 178.007 86.8965 177.907Z" fill="#FFF4EB"/>
</g>
<defs>
<filter id="filter0_d_7783_8301" x="76.7155" y="0" width="203.091" height="203.091" filterUnits="userSpaceOnUse" color-interpolation-filters="sRGB">
<feFlood flood-opacity="0" result="BackgroundImageFix"/>
<feColorMatrix in="SourceAlpha" type="matrix" values="0 0 0 0 0 0 0 0 0 0 0 0 0 0 0 0 0 0 127 0" result="hardAlpha"/>
<feOffset dy="4.17517"/>
<feGaussianBlur stdDeviation="2.08759"/>
<feComposite in2="hardAlpha" operator="out"/>
<feColorMatrix type="matrix" values="0 0 0 0 0 0 0 0 0 0 0 0 0 0 0 0 0 0 0.13 0"/>
<feBlend mode="normal" in2="BackgroundImageFix" result="effect1_dropShadow_7783_8301"/>
<feBlend mode="normal" in="SourceGraphic" in2="effect1_dropShadow_7783_8301" result="shape"/>
</filter>
<filter id="filter1_d_7783_8301" x="116.918" y="153.558" width="112.244" height="112.244" filterUnits="userSpaceOnUse" color-interpolation-filters="sRGB">
<feFlood flood-opacity="0" result="BackgroundImageFix"/>
<feColorMatrix in="SourceAlpha" type="matrix" values="0 0 0 0 0 0 0 0 0 0 0 0 0 0 0 0 0 0 127 0" result="hardAlpha"/>
<feOffset dy="3.56279"/>
<feGaussianBlur stdDeviation="1.7814"/>
<feComposite in2="hardAlpha" operator="out"/>
<feColorMatrix type="matrix" values="0 0 0 0 0 0 0 0 0 0 0 0 0 0 0 0 0 0 0.13 0"/>
<feBlend mode="normal" in2="BackgroundImageFix" result="effect1_dropShadow_7783_8301"/>
<feBlend mode="normal" in="SourceGraphic" in2="effect1_dropShadow_7783_8301" result="shape"/>
</filter>
<filter id="filter2_d_7783_8301" x="-3.61237" y="87.0992" width="175.715" height="175.715" filterUnits="userSpaceOnUse" color-interpolation-filters="sRGB">
<feFlood flood-opacity="0" result="BackgroundImageFix"/>
<feColorMatrix in="SourceAlpha" type="matrix" values="0 0 0 0 0 0 0 0 0 0 0 0 0 0 0 0 0 0 127 0" result="hardAlpha"/>
<feOffset dy="3.61237"/>
<feGaussianBlur stdDeviation="1.80618"/>
<feComposite in2="hardAlpha" operator="out"/>
<feColorMatrix type="matrix" values="0 0 0 0 0 0 0 0 0 0 0 0 0 0 0 0 0 0 0.08 0"/>
<feBlend mode="normal" in2="BackgroundImageFix" result="effect1_dropShadow_7783_8301"/>
<feBlend mode="normal" in="SourceGraphic" in2="effect1_dropShadow_7783_8301" result="shape"/>
</filter>
<linearGradient id="paint0_linear_7783_8301" x1="211.727" y1="0" x2="211.727" y2="149.594" gradientUnits="userSpaceOnUse">
<stop stop-color="#E79450"/>
<stop offset="1" stop-color="#C58853"/>
</linearGradient>
<linearGradient id="paint1_linear_7783_8301" x1="173.04" y1="153.558" x2="173.04" y2="258.676" gradientUnits="userSpaceOnUse">
<stop stop-color="#F9DED6" stop-opacity="0"/>
<stop offset="1" stop-color="#F9DED6"/>
</linearGradient>
<linearGradient id="paint2_linear_7783_8301" x1="64.7147" y1="135.584" x2="64.7147" y2="265.014" gradientUnits="userSpaceOnUse">
<stop stop-color="#5489A3"/>
<stop offset="1" stop-color="#577B91"/>
</linearGradient>
<clipPath id="clip0_7783_8301">
<rect width="74.7972" height="74.7972" fill="white" transform="translate(157.595 48.6852) rotate(22)"/>
</clipPath>
</defs>
</svg>
