<svg width="562" height="551" viewBox="0 0 562 551" fill="none" xmlns="http://www.w3.org/2000/svg">
<g filter="url(#filter0_d_687_4822)">
<rect x="250.98" y="0.253906" width="324.844" height="324.844" rx="162.422" transform="rotate(17.3157 250.98 0.253906)" fill="#5489A3" />
<rect x="250.98" y="0.253906" width="324.844" height="324.844" rx="162.422" transform="rotate(17.3157 250.98 0.253906)" fill="url(#paint0_linear_687_4822)" />
<g clip-path="url(#clip0_687_4822)">
<path d="M382.526 200.764C382.326 201.407 381.878 201.944 381.282 202.256C380.686 202.569 379.99 202.632 379.348 202.432L340.582 190.346C339.94 190.146 339.403 189.699 339.091 189.103C338.778 188.507 338.715 187.811 338.915 187.168C339.115 186.526 339.563 185.989 340.159 185.676C340.755 185.363 341.451 185.3 342.093 185.501L380.858 197.586C381.501 197.787 382.038 198.234 382.35 198.83C382.663 199.426 382.726 200.122 382.526 200.764ZM374.816 216.969L336.05 204.883C335.408 204.683 334.712 204.746 334.116 205.059C333.52 205.371 333.072 205.908 332.872 206.551C332.672 207.193 332.735 207.889 333.048 208.485C333.36 209.081 333.897 209.529 334.54 209.729L373.305 221.815C373.947 222.015 374.643 221.952 375.239 221.639C375.835 221.326 376.283 220.79 376.483 220.147C376.683 219.505 376.62 218.809 376.308 218.213C375.995 217.617 375.458 217.169 374.816 216.969ZM418.27 222.541C414.984 233.087 409.002 242.592 400.916 250.116C392.83 257.641 382.92 262.924 372.166 265.443C361.411 267.962 350.186 267.63 339.599 264.479C329.012 261.329 319.432 255.469 311.805 247.48L287.94 247.948C286.526 247.976 285.132 247.61 283.915 246.89C282.698 246.17 281.705 245.126 281.048 243.874C280.391 242.621 280.096 241.211 280.195 239.8C280.295 238.39 280.785 237.035 281.612 235.887L295.559 216.517C293.6 207.033 293.837 197.227 296.253 187.85C298.669 178.472 303.199 169.772 309.497 162.416C315.795 155.06 323.693 149.243 332.586 145.411C341.479 141.579 351.132 139.833 360.804 140.308C370.476 140.783 379.911 143.466 388.386 148.15C396.861 152.835 404.152 159.398 409.699 167.335C415.246 175.273 418.902 184.375 420.388 193.944C421.873 203.513 421.149 213.296 418.27 222.541ZM413.424 221.031C416.086 212.482 416.746 203.435 415.353 194.59C413.959 185.746 410.55 177.34 405.388 170.024C400.226 162.708 393.45 156.677 385.585 152.399C377.719 148.12 368.975 145.709 360.028 145.351C351.081 144.993 342.172 146.698 333.99 150.334C325.808 153.97 318.571 159.44 312.841 166.32C307.111 173.2 303.041 181.306 300.945 190.012C298.849 198.717 298.784 207.787 300.755 216.522C300.834 216.872 300.837 217.236 300.765 217.588C300.693 217.94 300.547 218.273 300.337 218.565L285.731 238.853C285.456 239.235 285.292 239.687 285.259 240.157C285.226 240.627 285.324 241.098 285.543 241.515C285.762 241.932 286.093 242.281 286.499 242.521C286.905 242.76 287.369 242.883 287.841 242.873L312.835 242.385C313.109 242.378 313.382 242.416 313.644 242.498C314.068 242.632 314.451 242.875 314.753 243.202C321.697 250.744 330.504 256.325 340.289 259.382C350.073 262.439 360.491 262.865 370.493 260.618C380.495 258.37 389.729 253.528 397.265 246.579C404.801 239.63 410.375 230.818 413.424 221.031Z" fill="#FFF4EB"/>
</g>
</g>
<g filter="url(#filter1_d_687_4822)">
<rect x="154.295" y="301.975" width="251.662" height="251.662" rx="125.831" transform="rotate(-8.30105 154.295 301.975)" fill="#FFF4EB" />
<rect x="154.295" y="301.975" width="251.662" height="251.662" rx="125.831" transform="rotate(-8.30105 154.295 301.975)" fill="url(#paint1_linear_687_4822)" />
<path d="M307.92 442.488C308.089 443.642 307.911 444.821 307.41 445.874C306.908 446.927 306.106 447.808 305.104 448.406C304.102 449.003 302.945 449.29 301.78 449.23C300.615 449.17 299.494 448.766 298.559 448.069C297.623 447.371 296.916 446.413 296.525 445.313C296.135 444.214 296.079 443.024 296.366 441.893C296.652 440.762 297.267 439.741 298.133 438.96C298.999 438.178 300.078 437.671 301.232 437.503C302.78 437.277 304.354 437.675 305.609 438.61C306.863 439.545 307.694 440.94 307.92 442.488ZM298.961 421.939C299.477 421.864 299.942 421.586 300.254 421.168C300.565 420.75 300.698 420.225 300.623 419.709L293.243 369.126C293.167 368.61 292.89 368.145 292.472 367.834C292.054 367.522 291.529 367.389 291.013 367.465C290.497 367.54 290.032 367.817 289.721 368.235C289.409 368.653 289.276 369.178 289.352 369.694L296.732 420.277C296.807 420.793 297.084 421.258 297.502 421.57C297.92 421.881 298.445 422.014 298.961 421.939Z" fill="#1C2745"/>
</g>
<g filter="url(#filter2_d_687_4822)">
<rect y="294.898" width="232.985" height="232.985" rx="116.492" transform="rotate(-34.5133 0 294.898)" fill="url(#paint2_linear_687_4822)" />
<g clip-path="url(#clip1_687_4822)">
<path d="M196.258 295.341L135.51 284.097C135.275 284.053 135.034 284.056 134.8 284.106C134.566 284.156 134.344 284.251 134.147 284.387C133.95 284.522 133.781 284.695 133.651 284.896C133.521 285.097 133.432 285.321 133.388 285.556L122.144 346.304C122.078 346.658 122.119 347.024 122.261 347.355C122.403 347.686 122.641 347.967 122.943 348.163C123.245 348.359 123.598 348.461 123.959 348.456C124.319 348.451 124.669 348.339 124.966 348.135L141.464 336.791L163.122 368.287C163.942 369.48 165.203 370.299 166.627 370.562C168.051 370.826 169.522 370.513 170.715 369.693L200.712 349.066C201.905 348.246 202.724 346.985 202.987 345.561C203.251 344.136 202.938 342.666 202.117 341.473L180.46 309.976L196.958 298.632C197.255 298.428 197.485 298.141 197.618 297.806C197.752 297.471 197.783 297.105 197.708 296.752C197.633 296.4 197.455 296.078 197.197 295.827C196.939 295.576 196.612 295.407 196.258 295.341ZM176.897 308.008C176.499 308.281 176.227 308.702 176.139 309.176C176.051 309.651 176.155 310.141 176.429 310.539L199.118 343.535C199.391 343.933 199.496 344.423 199.408 344.898C199.32 345.373 199.047 345.793 198.649 346.066L168.653 366.693C168.255 366.966 167.765 367.071 167.29 366.983C166.815 366.895 166.395 366.622 166.121 366.224L143.432 333.228C143.159 332.83 142.739 332.557 142.264 332.47C141.789 332.382 141.299 332.486 140.901 332.76L126.525 342.645L136.638 288.01L191.273 298.123L176.897 308.008Z" fill="#1C2745"/>
</g>
</g>
<defs>
<filter id="filter0_d_687_4822" x="150.295" y="0.253906" width="414.808" height="414.807" filterUnits="userSpaceOnUse" color-interpolation-filters="sRGB">
<feFlood flood-opacity="0" result="BackgroundImageFix"/>
<feColorMatrix in="SourceAlpha" type="matrix" values="0 0 0 0 0 0 0 0 0 0 0 0 0 0 0 0 0 0 127 0" result="hardAlpha"/>
<feOffset dy="4"/>
<feGaussianBlur stdDeviation="2"/>
<feComposite in2="hardAlpha" operator="out"/>
<feColorMatrix type="matrix" values="0 0 0 0 0 0 0 0 0 0 0 0 0 0 0 0 0 0 0.13 0"/>
<feBlend mode="normal" in2="BackgroundImageFix" result="effect1_dropShadow_687_4822"/>
<feBlend mode="normal" in="SourceGraphic" in2="effect1_dropShadow_687_4822" result="shape"/>
</filter>
<filter id="filter1_d_687_4822" x="150.295" y="265.641" width="293.358" height="293.358" filterUnits="userSpaceOnUse" color-interpolation-filters="sRGB">
<feFlood flood-opacity="0" result="BackgroundImageFix"/>
<feColorMatrix in="SourceAlpha" type="matrix" values="0 0 0 0 0 0 0 0 0 0 0 0 0 0 0 0 0 0 127 0" result="hardAlpha"/>
<feOffset dy="4"/>
<feGaussianBlur stdDeviation="2"/>
<feComposite in2="hardAlpha" operator="out"/>
<feColorMatrix type="matrix" values="0 0 0 0 0 0 0 0 0 0 0 0 0 0 0 0 0 0 0.13 0"/>
<feBlend mode="normal" in2="BackgroundImageFix" result="effect1_dropShadow_687_4822"/>
<feBlend mode="normal" in="SourceGraphic" in2="effect1_dropShadow_687_4822" result="shape"/>
</filter>
<filter id="filter2_d_687_4822" x="-4" y="162.89" width="331.987" height="331.987" filterUnits="userSpaceOnUse" color-interpolation-filters="sRGB">
<feFlood flood-opacity="0" result="BackgroundImageFix"/>
<feColorMatrix in="SourceAlpha" type="matrix" values="0 0 0 0 0 0 0 0 0 0 0 0 0 0 0 0 0 0 127 0" result="hardAlpha"/>
<feOffset dy="4"/>
<feGaussianBlur stdDeviation="2"/>
<feComposite in2="hardAlpha" operator="out"/>
<feColorMatrix type="matrix" values="0 0 0 0 0 0 0 0 0 0 0 0 0 0 0 0 0 0 0.13 0"/>
<feBlend mode="normal" in2="BackgroundImageFix" result="effect1_dropShadow_687_4822"/>
<feBlend mode="normal" in="SourceGraphic" in2="effect1_dropShadow_687_4822" result="shape"/>
</filter>
<linearGradient id="paint0_linear_687_4822" x1="413.402" y1="0.253906" x2="413.402" y2="325.098" gradientUnits="userSpaceOnUse">
<stop stop-color="#53758B" stop-opacity="0"/>
<stop offset="1" stop-color="#53758B"/>
</linearGradient>
<linearGradient id="paint1_linear_687_4822" x1="280.126" y1="301.975" x2="280.126" y2="553.636" gradientUnits="userSpaceOnUse">
<stop stop-color="#F9DED6" stop-opacity="0"/>
<stop offset="1" stop-color="#F9DED6"/>
</linearGradient>
<linearGradient id="paint2_linear_687_4822" x1="116.492" y1="294.898" x2="116.492" y2="527.883" gradientUnits="userSpaceOnUse">
<stop stop-color="#E79450"/>
<stop offset="1" stop-color="#C58853"/>
</linearGradient>
<clipPath id="clip0_687_4822">
<rect width="162.422" height="162.422" fill="white" transform="translate(304.34 101.956) rotate(17.3157)"/>
</clipPath>
<clipPath id="clip1_687_4822">
<rect width="116.492" height="116.492" fill="white" transform="translate(80.9966 309.891) rotate(-34.5133)"/>
</clipPath>
</defs>
</svg>
