<svg width="359" height="65" viewBox="0 0 359 65" fill="none" xmlns="http://www.w3.org/2000/svg">
<g clip-path="url(#clip0_635_4264)">
<mask id="mask0_635_4264" style="mask-type:luminance" maskUnits="userSpaceOnUse" x="0" y="0" width="358" height="65">
<path d="M0 0.970703H357.999V64.9707H0V0.970703Z" fill="white"/>
</mask>
<g mask="url(#mask0_635_4264)">
<path d="M89.8627 20.0191C84.8051 20.0191 81.7331 16.6894 81.7331 11.4094C81.7331 6.12944 84.9549 2.75765 90.0699 2.75765C91.8619 2.75765 93.3086 3.13828 94.5465 3.84228L93.9503 7.56776C92.9347 6.78965 91.7575 6.2187 90.2787 6.2187C87.6244 6.2187 85.9234 8.19765 85.9234 11.396C85.9234 14.5943 87.7137 16.5715 90.3697 16.5715C91.7423 16.5715 92.9802 16.0595 94.2333 15.2966L94.7705 18.7577C93.4131 19.5341 91.8467 20.0326 89.8476 20.0326L89.8627 20.0191ZM103.81 2.97997H108.435L114.341 19.2158L110.09 19.8894L108.837 16.2684H102.989L101.856 19.7278H97.7229L103.825 2.97997H103.81ZM103.988 13.0414H107.793L105.898 7.2326L103.973 13.0414H103.988ZM126.961 19.9046L123.247 14.0099H122.186V19.7429H118.009V3.05239H123.933C128.035 3.05239 130.451 4.88649 130.451 8.31891C130.451 10.6347 129.273 12.2044 127.259 13.0549L131.421 19.2006L126.976 19.9046H126.961ZM123.515 6.17828H122.157V11.0305H123.454C125.275 11.0305 126.304 10.1665 126.304 8.56818C126.304 6.96818 125.32 6.1766 123.5 6.1766L123.515 6.17828ZM145.578 19.7278L138.895 9.74039V19.7278H134.988V3.05407H139.074L145.324 12.3812V3.05407H149.233V19.7278H145.578ZM154.156 19.7278V3.05407H164.731V6.39723H158.287V9.53491H163.208L163.747 12.8494H158.287V16.3846H164.955V19.7429H154.169L154.156 19.7278ZM176.904 20.0511C171.52 20.0511 168.551 16.5749 168.551 11.428C168.551 6.28102 171.774 2.74586 177.009 2.74586C179.097 2.74586 180.844 3.22923 182.201 3.97702L181.634 7.5846C180.35 6.79302 178.86 6.16312 177.113 6.16312C174.189 6.16312 172.758 8.2886 172.758 11.4128C172.758 14.537 174.235 16.7518 177.159 16.7518C178.099 16.7518 178.755 16.5598 179.441 16.2229V13.2452H176.487L175.995 10.18H183.096V18.3063C181.32 19.4347 179.232 20.0663 176.904 20.0663V20.0511ZM187.869 19.7278V3.05407H192.076V19.7278H187.869ZM197.101 19.7278V3.05407H207.678V6.39723H201.233V9.53491H206.156L206.693 12.8494H201.233V16.3846H207.902V19.7429H197.117L197.101 19.7278ZM82.656 42.5202V27.3118H90.9928V29.2031H84.7579V33.6158H89.6084L89.92 35.5088H84.7579V40.6271H91.2185V42.5185L82.656 42.5202ZM106.688 42.5202L98.1844 30.6835V42.5185H96.2307V27.3101H98.1103L106.314 38.7054V27.3118H108.268V42.5202H106.673H106.688ZM118.636 42.5202H114.235V27.3118H118.725C124.111 27.3118 126.87 30.4343 126.87 34.8924C126.87 39.3505 123.961 42.5202 118.636 42.5202ZM118.801 29.1863H116.354V40.6558H118.725C122.44 40.6558 124.692 38.8065 124.692 34.921C124.692 31.0339 122.334 29.1863 118.801 29.1863ZM138.715 42.8115C134.36 42.8115 131.614 39.6452 131.614 34.9362C131.614 30.2288 134.419 27.017 138.76 27.017C143.101 27.017 145.861 30.1833 145.861 34.8924C145.861 39.5998 143.085 42.8115 138.715 42.8115ZM138.745 28.9235C135.672 28.9235 133.794 31.2562 133.794 34.921C133.794 38.5859 135.702 40.9202 138.745 40.9202C141.789 40.9202 143.697 38.5875 143.697 34.9227C143.697 31.2579 141.789 28.9235 138.745 28.9235ZM166.7 42.5926H164.925L160.733 30.2002L156.541 42.5926H154.796L150.215 27.6031L152.32 27.1652L155.766 39.2629L159.719 27.3101H161.822L165.76 39.2629L169.145 27.3101H171.338L166.669 42.5926H166.7ZM191.089 42.5202L190.119 30.2423L185.272 42.5926H183.586L178.737 30.244L177.797 42.5185H175.828L177.066 27.3101H179.661L184.48 39.7901L189.299 27.3101H191.879L193.088 42.5185H191.074L191.089 42.5202ZM198.636 42.5202V27.3118H206.976V29.2031H200.739V33.6158H205.588L205.901 35.5088H200.739V40.6271H207.198V42.5185L198.636 42.5202ZM222.669 42.5202L214.166 30.6835V42.5185H212.212V27.3101H214.092L222.296 38.7054V27.3118H224.249V42.5202H222.654H222.669ZM236.14 29.2166V42.5336H234.036V29.2149H229.098V27.3235H240.898L241.211 29.2149L236.14 29.2166ZM255.188 29.2166V33.865H259.857L260.17 35.7581H255.188V42.5185H253.085V27.3101H261.14V29.2031H255.203L255.188 29.2166ZM272.522 42.8115C268.18 42.8115 265.421 39.6452 265.421 34.9362C265.421 30.2288 268.226 27.017 272.566 27.017C276.906 27.017 279.667 30.1833 279.667 34.8924C279.667 39.5998 276.893 42.8115 272.522 42.8115ZM272.551 28.9235C269.479 28.9235 267.599 31.2562 267.599 34.921C267.599 38.5859 269.509 40.9202 272.551 40.9202C275.592 40.9202 277.504 38.5875 277.504 34.9227C277.504 31.2579 275.594 28.9235 272.551 28.9235ZM293.349 42.6802L288.679 36.1101H287.112V42.5185H285.009V27.3101H289.231C292.394 27.3101 294.363 28.8511 294.363 31.6368C294.363 33.9543 292.99 35.3185 290.976 35.8473L295.571 42.2103L293.349 42.665V42.6802ZM289.127 29.1442H287.112V34.3652H288.903C290.947 34.3652 292.244 33.4558 292.244 31.7395C292.244 30.0233 291.185 29.1442 289.127 29.1442ZM82.7907 64.2819V49.0734H84.896V64.2819H82.7907ZM101.438 64.2819L92.9347 52.4469V64.2819H90.9811V49.0734H92.8606L101.064 60.4688V49.0734H103.018V64.2819H101.423H101.438ZM114.909 50.9665V64.2819H112.803V50.9665H107.869V49.0718H119.667L119.98 50.9648L114.909 50.9665ZM124.679 64.2819V49.0734H133.017V50.9665H126.782V55.3791H131.631L131.943 57.2722H126.782V62.3905H133.241V64.2819H124.679ZM146.607 64.4284L141.939 57.86H140.372V64.2684H138.267V49.06H142.489C145.652 49.06 147.621 50.5993 147.621 53.3867C147.621 55.7025 146.248 57.0667 144.236 57.5955L148.83 63.9602L146.607 64.4149V64.4284ZM142.385 50.8924H140.372V56.1134H142.163C144.205 56.1134 145.504 55.204 145.504 53.4894C145.504 51.7715 144.443 50.8924 142.385 50.8924ZM163.732 64.2819L155.229 52.4469V64.2819H153.275V49.0734H155.155L163.358 60.4688V49.0734H165.312V64.2819H163.717H163.732ZM176.128 49.001H178.232L184.199 63.9888L182.11 64.4284L180.29 59.7059H173.994L172.264 64.2667H170.072L176.128 48.9859V49.001ZM174.666 57.8869H179.604L177.142 51.4364L174.681 57.8869H174.666ZM194.865 50.9665V64.2819H192.761V50.9665H187.825V49.0718H199.624L199.938 50.9648L194.865 50.9665ZM204.785 64.2819V49.0734H206.888V64.2819H204.785ZM219.464 64.5614C215.124 64.5614 212.364 61.3934 212.364 56.6861C212.364 51.9787 215.168 48.7804 219.51 48.7804C223.85 48.7804 226.611 51.9484 226.611 56.6558C226.611 61.3631 223.835 64.5749 219.464 64.5749V64.5614ZM219.495 50.6734C216.421 50.6734 214.541 53.0044 214.541 56.6692C214.541 60.3374 216.451 62.6684 219.495 62.6684C222.538 62.6684 224.446 60.3374 224.446 56.6709C224.446 53.0044 222.538 50.6734 219.495 50.6734ZM242.393 64.2819L233.89 52.4469V64.2819H231.936V49.0734H233.816L242.019 60.4688V49.0734H243.975V64.2819H242.378H242.393ZM254.787 49.001H256.891L262.858 63.9888L260.77 64.4284L258.949 59.7059H252.653L250.924 64.2667H248.731L254.787 48.9859V49.001ZM253.325 57.8869H258.264L255.801 51.4364L253.341 57.8869H253.325ZM267.616 64.2819V49.0734H269.72V62.345H275.298L275.597 64.2819H267.616ZM291.261 58.1075H289.619V64.2819H287.515V49.0734H291.618C294.885 49.0734 296.869 50.6431 296.869 53.4591C296.869 56.5682 294.631 58.1075 291.261 58.1075ZM291.498 50.8924H289.619V56.2751H291.365C293.467 56.2751 294.72 55.4094 294.72 53.5181C294.72 51.7732 293.602 50.8924 291.498 50.8924ZM301.777 64.2819V49.0734H310.115V50.9665H303.88V55.3791H308.729L309.043 57.2722H303.88V62.3905H310.339V64.2819H301.777ZM320.2 49.001H322.304L328.271 63.9888L326.183 64.4284L324.362 59.7059H318.067L316.337 64.2667H314.144L320.2 48.9859V49.001ZM318.739 57.8869H323.677L321.214 51.4364L318.754 57.8869H318.739ZM339.547 64.5614C335.192 64.5614 332.387 61.3934 332.387 56.6861C332.387 51.9787 335.235 48.7804 339.592 48.7804C341.427 48.7804 342.799 49.2351 343.993 50.0435L343.68 52.1539C342.56 51.3185 341.233 50.6718 339.577 50.6718C336.445 50.6718 334.58 53.0044 334.58 56.6709C334.58 60.3374 336.46 62.6398 339.577 62.6398C341.233 62.6398 342.695 61.9947 343.933 61.1139L344.246 63.0793C343.053 63.945 341.337 64.5614 339.562 64.5614H339.547ZM349.438 64.2819V49.0734H357.777V50.9665H351.542V55.3791H356.389L356.702 57.2722H351.542V62.3905H358.001V64.2819H349.438ZM0 32.8983V33.0448C0.0892632 50.6718 14.6493 64.9707 32.6232 64.9707V0.970703C14.6509 0.970703 0.0909474 15.2545 0 32.8983Z" fill="#004070"/>
<path d="M32.5188 64.9555H65.083V0.970703H32.534V1.0886C50.3596 1.0886 64.8001 15.4448 64.8001 32.9555C64.8001 50.4663 50.3596 64.7804 32.534 64.7804V64.9555H32.5188Z" fill="#004070"/>
</g>
</g>
<defs>
<clipPath id="clip0_635_4264">
<rect width="358.737" height="64" fill="white" transform="translate(0 0.970703)"/>
</clipPath>
</defs>
</svg>
