<svg width="38" height="40" viewBox="0 0 38 40" fill="none" xmlns="http://www.w3.org/2000/svg">
<g filter="url(#filter0_d_10411_4254)">
<rect y="0.059082" width="35" height="35" rx="17.5" fill="url(#paint0_linear_10411_4254)" shape-rendering="crispEdges"/>
<path d="M22.8373 22.3991H20.8573V25.5591H18.7973V22.3991H12.1773V20.7191L18.7573 11.2191H20.8573V20.5991H22.8373V22.3991ZM18.7973 16.7191C18.7973 16.3991 18.7973 16.0924 18.7973 15.7991C18.8107 15.5057 18.824 15.2257 18.8373 14.9591C18.8507 14.6791 18.8573 14.4257 18.8573 14.1991C18.8707 13.9591 18.884 13.7457 18.8973 13.5591H18.8173C18.7107 13.8257 18.5773 14.0991 18.4173 14.3791C18.2707 14.6591 18.1173 14.9057 17.9573 15.1191L14.1773 20.5991H18.7973V16.7191Z" fill="#FFF4EB"/>
</g>
<defs>
<filter id="filter0_d_10411_4254" x="-2.14286" y="0.059082" width="39.2857" height="39.2857" filterUnits="userSpaceOnUse" color-interpolation-filters="sRGB">
<feFlood flood-opacity="0" result="BackgroundImageFix"/>
<feColorMatrix in="SourceAlpha" type="matrix" values="0 0 0 0 0 0 0 0 0 0 0 0 0 0 0 0 0 0 127 0" result="hardAlpha"/>
<feOffset dy="2.14286"/>
<feGaussianBlur stdDeviation="1.07143"/>
<feComposite in2="hardAlpha" operator="out"/>
<feColorMatrix type="matrix" values="0 0 0 0 0 0 0 0 0 0 0 0 0 0 0 0 0 0 0.08 0"/>
<feBlend mode="normal" in2="BackgroundImageFix" result="effect1_dropShadow_10411_4254"/>
<feBlend mode="normal" in="SourceGraphic" in2="effect1_dropShadow_10411_4254" result="shape"/>
</filter>
<linearGradient id="paint0_linear_10411_4254" x1="17.5" y1="0.059082" x2="17.5" y2="35.0591" gradientUnits="userSpaceOnUse">
<stop stop-color="#5489A3"/>
<stop offset="1" stop-color="#577B91"/>
</linearGradient>
</defs>
</svg>
