<svg width="38" height="40" viewBox="0 0 38 40" fill="none" xmlns="http://www.w3.org/2000/svg">
<g filter="url(#filter0_d_10411_4239)">
<rect y="0.059082" width="35" height="35" rx="17.5" fill="url(#paint0_linear_10411_4239)" shape-rendering="crispEdges"/>
<path d="M21.7373 14.5791C21.7373 15.2191 21.6107 15.7791 21.3573 16.2591C21.1173 16.7257 20.7707 17.1057 20.3173 17.3991C19.864 17.6924 19.344 17.9057 18.7573 18.0391V18.1191C19.904 18.2524 20.7573 18.6124 21.3173 19.1991C21.8907 19.7724 22.1773 20.5324 22.1773 21.4791C22.1773 22.3057 21.9773 23.0457 21.5773 23.6991C21.1907 24.3391 20.584 24.8457 19.7573 25.2191C18.944 25.5791 17.8973 25.7591 16.6173 25.7591C15.8573 25.7591 15.1507 25.6991 14.4973 25.5791C13.844 25.4591 13.224 25.2591 12.6373 24.9791V23.0591C13.2373 23.3657 13.8773 23.5991 14.5573 23.7591C15.2507 23.9191 15.9107 23.9991 16.5373 23.9991C17.7507 23.9991 18.624 23.7724 19.1573 23.3191C19.6907 22.8524 19.9573 22.2057 19.9573 21.3791C19.9573 20.8457 19.8173 20.4124 19.5373 20.0791C19.2573 19.7324 18.8307 19.4791 18.2573 19.3191C17.684 19.1457 16.9707 19.0591 16.1173 19.0591H14.8173V17.3191H16.1373C16.9507 17.3191 17.6107 17.2191 18.1173 17.0191C18.624 16.8057 18.9973 16.5124 19.2373 16.1391C19.4773 15.7657 19.5973 15.3391 19.5973 14.8591C19.5973 14.2191 19.384 13.7257 18.9573 13.3791C18.544 13.0191 17.944 12.8391 17.1573 12.8391C16.6773 12.8391 16.2307 12.8924 15.8173 12.9991C15.4173 13.1057 15.0507 13.2457 14.7173 13.4191C14.384 13.5924 14.0573 13.7857 13.7373 13.9991L12.6973 12.5391C13.0573 12.2724 13.4573 12.0257 13.8973 11.7991C14.3507 11.5724 14.8507 11.3991 15.3973 11.2791C15.9573 11.1457 16.564 11.0791 17.2173 11.0791C18.6973 11.0791 19.8173 11.4057 20.5773 12.0591C21.3507 12.6991 21.7373 13.5391 21.7373 14.5791Z" fill="#FFF4EB"/>
</g>
<defs>
<filter id="filter0_d_10411_4239" x="-2.14286" y="0.059082" width="39.2857" height="39.2857" filterUnits="userSpaceOnUse" color-interpolation-filters="sRGB">
<feFlood flood-opacity="0" result="BackgroundImageFix"/>
<feColorMatrix in="SourceAlpha" type="matrix" values="0 0 0 0 0 0 0 0 0 0 0 0 0 0 0 0 0 0 127 0" result="hardAlpha"/>
<feOffset dy="2.14286"/>
<feGaussianBlur stdDeviation="1.07143"/>
<feComposite in2="hardAlpha" operator="out"/>
<feColorMatrix type="matrix" values="0 0 0 0 0 0 0 0 0 0 0 0 0 0 0 0 0 0 0.08 0"/>
<feBlend mode="normal" in2="BackgroundImageFix" result="effect1_dropShadow_10411_4239"/>
<feBlend mode="normal" in="SourceGraphic" in2="effect1_dropShadow_10411_4239" result="shape"/>
</filter>
<linearGradient id="paint0_linear_10411_4239" x1="17.5" y1="0.059082" x2="17.5" y2="35.0591" gradientUnits="userSpaceOnUse">
<stop stop-color="#5489A3"/>
<stop offset="1" stop-color="#577B91"/>
</linearGradient>
</defs>
</svg>
