<svg width="63" height="65" viewBox="0 0 63 65" fill="none" xmlns="http://www.w3.org/2000/svg">
<g filter="url(#filter0_d_10917_23625)">
<rect y="0.25293" width="60" height="60" rx="30" fill="url(#paint0_linear_10917_23625)" shape-rendering="crispEdges"/>
<path d="M30.9375 29.3157C30.9375 29.5011 30.8825 29.6824 30.7795 29.8365C30.6765 29.9907 30.5301 30.1109 30.3588 30.1818C30.1875 30.2528 29.999 30.2713 29.8171 30.2352C29.6352 30.199 29.4682 30.1097 29.3371 29.9786C29.206 29.8475 29.1167 29.6804 29.0805 29.4986C29.0443 29.3167 29.0629 29.1282 29.1339 28.9569C29.2048 28.7856 29.325 28.6392 29.4792 28.5362C29.6333 28.4332 29.8146 28.3782 30 28.3782C30.2486 28.3782 30.4871 28.4769 30.6629 28.6528C30.8387 28.8286 30.9375 29.067 30.9375 29.3157ZM24.8438 28.3782C24.6583 28.3782 24.4771 28.4332 24.3229 28.5362C24.1687 28.6392 24.0486 28.7856 23.9776 28.9569C23.9067 29.1282 23.8881 29.3167 23.9243 29.4986C23.9604 29.6804 24.0497 29.8475 24.1808 29.9786C24.312 30.1097 24.479 30.199 24.6609 30.2352C24.8427 30.2713 25.0312 30.2528 25.2025 30.1818C25.3738 30.1109 25.5202 29.9907 25.6233 29.8365C25.7263 29.6824 25.7813 29.5011 25.7813 29.3157C25.7813 29.067 25.6825 28.8286 25.5067 28.6528C25.3308 28.4769 25.0924 28.3782 24.8438 28.3782ZM35.1563 28.3782C34.9708 28.3782 34.7896 28.4332 34.6354 28.5362C34.4812 28.6392 34.3611 28.7856 34.2901 28.9569C34.2192 29.1282 34.2006 29.3167 34.2368 29.4986C34.2729 29.6804 34.3622 29.8475 34.4933 29.9786C34.6245 30.1097 34.7915 30.199 34.9734 30.2352C35.1552 30.2713 35.3437 30.2528 35.515 30.1818C35.6863 30.1109 35.8327 29.9907 35.9358 29.8365C36.0388 29.6824 36.0938 29.5011 36.0938 29.3157C36.0938 29.067 35.995 28.8286 35.8192 28.6528C35.6434 28.4769 35.4049 28.3782 35.1563 28.3782ZM41.7188 21.8157V36.8157C41.7188 37.1886 41.5706 37.5463 41.3069 37.81C41.0431 38.0738 40.6855 38.2219 40.3125 38.2219H32.959L31.2211 41.2688C31.0981 41.4841 30.9204 41.6631 30.7059 41.7875C30.4915 41.912 30.248 41.9776 30 41.9776C29.752 41.9776 29.5085 41.912 29.2941 41.7875C29.0796 41.6631 28.9019 41.4841 28.7789 41.2688L27.041 38.2219H19.6875C19.3145 38.2219 18.9569 38.0738 18.6931 37.81C18.4294 37.5463 18.2812 37.1886 18.2812 36.8157V21.8157C18.2812 21.4427 18.4294 21.085 18.6931 20.8213C18.9569 20.5576 19.3145 20.4094 19.6875 20.4094H40.3125C40.6855 20.4094 41.0431 20.5576 41.3069 20.8213C41.5706 21.085 41.7188 21.4427 41.7188 21.8157ZM40.7813 21.8157C40.7813 21.6914 40.7319 21.5721 40.644 21.4842C40.5561 21.3963 40.4368 21.3469 40.3125 21.3469H19.6875C19.5632 21.3469 19.444 21.3963 19.356 21.4842C19.2681 21.5721 19.2188 21.6914 19.2188 21.8157V36.8157C19.2188 36.94 19.2681 37.0592 19.356 37.1471C19.444 37.235 19.5632 37.2844 19.6875 37.2844H27.3129C27.3953 37.2843 27.4763 37.3059 27.5477 37.3471C27.6191 37.3882 27.6783 37.4474 27.7195 37.5188L29.5945 40.8001C29.6356 40.8716 29.6948 40.9311 29.7662 40.9725C29.8376 41.0138 29.9187 41.0356 30.0012 41.0356C30.0837 41.0356 30.1647 41.0138 30.2361 40.9725C30.3076 40.9311 30.3668 40.8716 30.4078 40.8001L32.2828 37.5188C32.324 37.4474 32.3833 37.3882 32.4547 37.3471C32.5261 37.3059 32.6071 37.2843 32.6895 37.2844H40.3125C40.4368 37.2844 40.5561 37.235 40.644 37.1471C40.7319 37.0592 40.7813 36.94 40.7813 36.8157V21.8157Z" fill="#1C2745"/>
</g>
<defs>
<filter id="filter0_d_10917_23625" x="-2.23814" y="0.25293" width="64.4763" height="64.4763" filterUnits="userSpaceOnUse" color-interpolation-filters="sRGB">
<feFlood flood-opacity="0" result="BackgroundImageFix"/>
<feColorMatrix in="SourceAlpha" type="matrix" values="0 0 0 0 0 0 0 0 0 0 0 0 0 0 0 0 0 0 127 0" result="hardAlpha"/>
<feOffset dy="2.23814"/>
<feGaussianBlur stdDeviation="1.11907"/>
<feComposite in2="hardAlpha" operator="out"/>
<feColorMatrix type="matrix" values="0 0 0 0 0 0 0 0 0 0 0 0 0 0 0 0 0 0 0.13 0"/>
<feBlend mode="normal" in2="BackgroundImageFix" result="effect1_dropShadow_10917_23625"/>
<feBlend mode="normal" in="SourceGraphic" in2="effect1_dropShadow_10917_23625" result="shape"/>
</filter>
<linearGradient id="paint0_linear_10917_23625" x1="30" y1="0.25293" x2="30" y2="60.2529" gradientUnits="userSpaceOnUse">
<stop stop-color="#E79450"/>
<stop offset="1" stop-color="#C58853"/>
</linearGradient>
</defs>
</svg>
