<svg width="80" height="81" viewBox="0 0 80 81" fill="none" xmlns="http://www.w3.org/2000/svg">
<path d="M51.25 35.8357C51.25 36.1672 51.1183 36.4852 50.8839 36.7196C50.6495 36.954 50.3315 37.0857 50 37.0857H30C29.6685 37.0857 29.3505 36.954 29.1161 36.7196C28.8817 36.4852 28.75 36.1672 28.75 35.8357C28.75 35.5042 28.8817 35.1862 29.1161 34.9518C29.3505 34.7174 29.6685 34.5857 30 34.5857H50C50.3315 34.5857 50.6495 34.7174 50.8839 34.9518C51.1183 35.1862 51.25 35.5042 51.25 35.8357ZM50 44.5857H30C29.6685 44.5857 29.3505 44.7174 29.1161 44.9518C28.8817 45.1862 28.75 45.5042 28.75 45.8357C28.75 46.1672 28.8817 46.4852 29.1161 46.7196C29.3505 46.954 29.6685 47.0857 30 47.0857H50C50.3315 47.0857 50.6495 46.954 50.8839 46.7196C51.1183 46.4852 51.25 46.1672 51.25 45.8357C51.25 45.5042 51.1183 45.1862 50.8839 44.9518C50.6495 44.7174 50.3315 44.5857 50 44.5857ZM71.25 40.8357C71.251 46.2761 69.8317 51.6224 67.1325 56.346C64.4333 61.0695 60.5478 65.0066 55.8601 67.7677C51.1725 70.5288 45.8453 72.0183 40.4054 72.0889C34.9655 72.1595 29.6014 70.8087 24.8438 68.1701L13.6906 71.8888C13.0299 72.1092 12.3208 72.1412 11.643 71.9812C10.9651 71.8212 10.3451 71.4756 9.85262 70.9831C9.36012 70.4906 9.01451 69.8706 8.85453 69.1928C8.69455 68.5149 8.72653 67.8058 8.94688 67.1451L12.6656 55.992C10.3539 51.8199 9.02792 47.1741 8.78917 42.4104C8.55043 37.6467 9.4053 32.8915 11.2883 28.5093C13.1713 24.127 16.0324 20.2339 19.6524 17.1283C23.2725 14.0226 27.5554 11.7869 32.1731 10.5922C36.7907 9.39762 41.6206 9.27586 46.2925 10.2363C50.9645 11.1967 55.3547 13.2138 59.1266 16.1331C62.8985 19.0524 65.9522 22.7964 68.0536 27.0782C70.155 31.36 71.2484 36.066 71.25 40.8357ZM68.75 40.8357C68.7487 36.4255 67.7328 32.0748 65.7809 28.1201C63.829 24.1654 60.9935 20.7127 57.4937 18.0292C53.9939 15.3457 49.9237 13.5034 45.5979 12.6447C41.2722 11.786 36.8068 11.9339 32.5474 13.0772C28.288 14.2204 24.3487 16.3282 21.0342 19.2374C17.7198 22.1467 15.119 25.7796 13.4333 29.8548C11.7475 33.9301 11.0219 38.3385 11.3125 42.7391C11.6031 47.1397 12.9023 51.4144 15.1094 55.2326C15.198 55.3859 15.253 55.5563 15.2707 55.7324C15.2885 55.9086 15.2687 56.0865 15.2125 56.2545L11.3188 67.9357C11.2453 68.156 11.2346 68.3923 11.288 68.6183C11.3413 68.8442 11.4565 69.0509 11.6207 69.215C11.7848 69.3792 11.9915 69.4944 12.2174 69.5477C12.4434 69.6011 12.6798 69.5904 12.9 69.517L24.5813 65.6232C24.709 65.5797 24.8431 65.5575 24.9781 65.5576C25.1976 65.5587 25.4129 65.6169 25.6031 65.7263C29.9737 68.2548 34.9331 69.5876 39.9823 69.5907C45.0316 69.5938 49.9926 68.2671 54.3662 65.744C58.7399 63.2209 62.3719 59.5905 64.897 55.2179C67.422 50.8454 68.7509 45.885 68.75 40.8357Z" fill="black"/>
</svg>
