<svg width="80" height="80" viewBox="0 0 80 80" fill="none" xmlns="http://www.w3.org/2000/svg">
<path d="M42.5 37.5C42.5 37.9945 42.3534 38.4778 42.0787 38.8889C41.804 39.3 41.4135 39.6205 40.9567 39.8097C40.4999 39.9989 39.9972 40.0484 39.5123 39.952C39.0273 39.8555 38.5819 39.6174 38.2322 39.2678C37.8826 38.9181 37.6445 38.4727 37.548 37.9877C37.4516 37.5028 37.5011 37.0001 37.6903 36.5433C37.8795 36.0865 38.2 35.696 38.6111 35.4213C39.0222 35.1466 39.5055 35 40 35C40.663 35 41.2989 35.2634 41.7678 35.7322C42.2366 36.2011 42.5 36.837 42.5 37.5ZM26.25 35C25.7555 35 25.2722 35.1466 24.8611 35.4213C24.45 35.696 24.1295 36.0865 23.9403 36.5433C23.7511 37.0001 23.7016 37.5028 23.798 37.9877C23.8945 38.4727 24.1326 38.9181 24.4822 39.2678C24.8319 39.6174 25.2773 39.8555 25.7623 39.952C26.2472 40.0484 26.7499 39.9989 27.2067 39.8097C27.6635 39.6205 28.054 39.3 28.3287 38.8889C28.6034 38.4778 28.75 37.9945 28.75 37.5C28.75 36.837 28.4866 36.2011 28.0178 35.7322C27.5489 35.2634 26.913 35 26.25 35ZM53.75 35C53.2555 35 52.7722 35.1466 52.3611 35.4213C51.95 35.696 51.6295 36.0865 51.4403 36.5433C51.2511 37.0001 51.2016 37.5028 51.298 37.9877C51.3945 38.4727 51.6326 38.9181 51.9822 39.2678C52.3319 39.6174 52.7773 39.8555 53.2623 39.952C53.7472 40.0484 54.2499 39.9989 54.7067 39.8097C55.1635 39.6205 55.554 39.3 55.8287 38.8889C56.1034 38.4778 56.25 37.9945 56.25 37.5C56.25 36.837 55.9866 36.2011 55.5178 35.7322C55.0489 35.2634 54.413 35 53.75 35ZM71.25 17.5V57.5C71.25 58.4946 70.8549 59.4484 70.1516 60.1516C69.4484 60.8549 68.4946 61.25 67.5 61.25H47.8906L43.2562 69.375C42.9283 69.9492 42.4544 70.4264 41.8825 70.7583C41.3107 71.0902 40.6612 71.2651 40 71.2651C39.3388 71.2651 38.6893 71.0902 38.1175 70.7583C37.5456 70.4264 37.0717 69.9492 36.7438 69.375L32.1094 61.25H12.5C11.5054 61.25 10.5516 60.8549 9.84835 60.1516C9.14509 59.4484 8.75 58.4946 8.75 57.5V17.5C8.75 16.5054 9.14509 15.5516 9.84835 14.8483C10.5516 14.1451 11.5054 13.75 12.5 13.75H67.5C68.4946 13.75 69.4484 14.1451 70.1516 14.8483C70.8549 15.5516 71.25 16.5054 71.25 17.5ZM68.75 17.5C68.75 17.1685 68.6183 16.8505 68.3839 16.6161C68.1495 16.3817 67.8315 16.25 67.5 16.25H12.5C12.1685 16.25 11.8505 16.3817 11.6161 16.6161C11.3817 16.8505 11.25 17.1685 11.25 17.5V57.5C11.25 57.8315 11.3817 58.1495 11.6161 58.3839C11.8505 58.6183 12.1685 58.75 12.5 58.75H32.8344C33.0541 58.7497 33.27 58.8073 33.4604 58.917C33.6508 59.0267 33.8089 59.1847 33.9188 59.375L38.9188 68.125C39.0282 68.3159 39.1861 68.4745 39.3765 68.5848C39.5669 68.6951 39.7831 68.7532 40.0031 68.7532C40.2232 68.7532 40.4393 68.6951 40.6297 68.5848C40.8201 68.4745 40.978 68.3159 41.0875 68.125L46.0875 59.375C46.1974 59.1847 46.3555 59.0267 46.5458 58.917C46.7362 58.8073 46.9521 58.7497 47.1719 58.75H67.5C67.8315 58.75 68.1495 58.6183 68.3839 58.3839C68.6183 58.1495 68.75 57.8315 68.75 57.5V17.5Z" fill="#1C2745"/>
</svg>
