<svg width="99" height="99" viewBox="0 0 99 99" fill="none" xmlns="http://www.w3.org/2000/svg">
<g filter="url(#filter0_d_7231_2218)">
<rect x="4.5" y="0.835938" width="90" height="90" rx="45" fill="#E79450" shape-rendering="crispEdges"/>
<rect x="4.5" y="0.835938" width="90" height="90" rx="45" fill="url(#paint0_linear_7231_2218)" shape-rendering="crispEdges"/>
<path d="M66.375 35.2891H32.625C32.0656 35.2891 31.529 35.5113 31.1334 35.9069C30.7379 36.3025 30.5156 36.839 30.5156 37.3984V50.0547C30.5156 50.6141 30.7379 51.1507 31.1334 51.5462C31.529 51.9418 32.0656 52.1641 32.625 52.1641H37.5469V58.4922C37.5469 58.6787 37.621 58.8575 37.7528 58.9894C37.8847 59.1212 38.0635 59.1953 38.25 59.1953C38.4365 59.1953 38.6153 59.1212 38.7472 58.9894C38.879 58.8575 38.9531 58.6787 38.9531 58.4922V52.1641H60.0469V58.4922C60.0469 58.6787 60.121 58.8575 60.2528 58.9894C60.3847 59.1212 60.5635 59.1953 60.75 59.1953C60.9365 59.1953 61.1153 59.1212 61.2472 58.9894C61.379 58.8575 61.4531 58.6787 61.4531 58.4922V52.1641H66.375C66.9344 52.1641 67.471 51.9418 67.8666 51.5462C68.2621 51.1507 68.4844 50.6141 68.4844 50.0547V37.3984C68.4844 36.839 68.2621 36.3025 67.8666 35.9069C67.471 35.5113 66.9344 35.2891 66.375 35.2891ZM67.0781 37.3984V47.6535L56.1199 36.6953H66.375C66.5615 36.6953 66.7403 36.7694 66.8722 36.9013C67.004 37.0331 67.0781 37.212 67.0781 37.3984ZM32.625 36.6953H41.4738L55.5363 50.7578H44.8699L31.9219 37.8098V37.3984C31.9219 37.212 31.996 37.0331 32.1278 36.9013C32.2597 36.7694 32.4385 36.6953 32.625 36.6953ZM31.9219 50.0547V39.7996L42.8801 50.7578H32.625C32.4385 50.7578 32.2597 50.6837 32.1278 50.5519C31.996 50.42 31.9219 50.2412 31.9219 50.0547ZM66.375 50.7578H57.5262L43.4637 36.6953H54.1301L67.0781 49.6434V50.0547C67.0781 50.2412 67.004 50.42 66.8722 50.5519C66.7403 50.6837 66.5615 50.7578 66.375 50.7578Z" fill="#1C2745"/>
</g>
<defs>
<filter id="filter0_d_7231_2218" x="0.5" y="0.835938" width="98" height="98" filterUnits="userSpaceOnUse" color-interpolation-filters="sRGB">
<feFlood flood-opacity="0" result="BackgroundImageFix"/>
<feColorMatrix in="SourceAlpha" type="matrix" values="0 0 0 0 0 0 0 0 0 0 0 0 0 0 0 0 0 0 127 0" result="hardAlpha"/>
<feOffset dy="4"/>
<feGaussianBlur stdDeviation="2"/>
<feComposite in2="hardAlpha" operator="out"/>
<feColorMatrix type="matrix" values="0 0 0 0 0 0 0 0 0 0 0 0 0 0 0 0 0 0 0.13 0"/>
<feBlend mode="normal" in2="BackgroundImageFix" result="effect1_dropShadow_7231_2218"/>
<feBlend mode="normal" in="SourceGraphic" in2="effect1_dropShadow_7231_2218" result="shape"/>
</filter>
<linearGradient id="paint0_linear_7231_2218" x1="49.5" y1="0.835937" x2="49.5" y2="90.8359" gradientUnits="userSpaceOnUse">
<stop stop-color="#C78A54" stop-opacity="0"/>
<stop offset="1" stop-color="#C78A54"/>
</linearGradient>
</defs>
</svg>
