<svg width="99" height="99" viewBox="0 0 99 99" fill="none" xmlns="http://www.w3.org/2000/svg">
<g filter="url(#filter0_d_7231_2230)">
<rect x="4.5" y="0.335938" width="90" height="90" rx="45" fill="#E79450" shape-rendering="crispEdges"/>
<rect x="4.5" y="0.335938" width="90" height="90" rx="45" fill="url(#paint0_linear_7231_2230)" shape-rendering="crispEdges"/>
<path d="M66.7371 26.4518C66.633 26.3893 66.5145 26.3549 66.3931 26.3518C66.2718 26.3487 66.1517 26.3771 66.0445 26.4342L45.1055 37.6016H32.625C32.0656 37.6016 31.529 37.8238 31.1334 38.2194C30.7379 38.615 30.5156 39.1515 30.5156 39.711V57.9922C30.5156 58.5517 30.7379 59.0882 31.1334 59.4838C31.529 59.8794 32.0656 60.1016 32.625 60.1016H48.0938C48.6532 60.1016 49.1897 59.8794 49.5853 59.4838C49.9809 59.0882 50.2031 58.5517 50.2031 57.9922V52.3672C50.2029 52.2988 50.1929 52.2307 50.1732 52.1651L46.1197 38.6563L65.6719 28.2272V50.961C65.6719 51.1475 65.5978 51.3263 65.4659 51.4582C65.3341 51.59 65.1552 51.6641 64.9688 51.6641H62.1562C61.9698 51.6641 61.7909 51.59 61.6591 51.4582C61.5272 51.3263 61.4531 51.1475 61.4531 50.961V49.5547C61.4531 49.3682 61.379 49.1894 61.2472 49.0575C61.1153 48.9257 60.9365 48.8516 60.75 48.8516C60.5635 48.8516 60.3847 48.9257 60.2528 49.0575C60.121 49.1894 60.0469 49.3682 60.0469 49.5547V50.961C60.0469 51.5204 60.2691 52.0569 60.6647 52.4525C61.0603 52.8481 61.5968 53.0704 62.1562 53.0704H64.9688C65.5282 53.0704 66.0647 52.8481 66.4603 52.4525C66.8559 52.0569 67.0781 51.5204 67.0781 50.961V27.0547C67.0782 26.9333 67.0468 26.814 66.987 26.7084C66.9273 26.6027 66.8412 26.5143 66.7371 26.4518ZM44.7539 39.0079L48.5508 51.6641H37.5469V39.0079H44.7539ZM32.625 39.0079H36.1406V51.6641H31.9219V39.711C31.9219 39.5245 31.996 39.3457 32.1278 39.2138C32.2597 39.0819 32.4385 39.0079 32.625 39.0079ZM48.0938 58.6954H32.625C32.4385 58.6954 32.2597 58.6213 32.1278 58.4894C31.996 58.3576 31.9219 58.1787 31.9219 57.9922V53.0704H48.7969V57.9922C48.7969 58.1787 48.7228 58.3576 48.5909 58.4894C48.4591 58.6213 48.2802 58.6954 48.0938 58.6954Z" fill="#1C2745"/>
</g>
<defs>
<filter id="filter0_d_7231_2230" x="0.5" y="0.335938" width="98" height="98" filterUnits="userSpaceOnUse" color-interpolation-filters="sRGB">
<feFlood flood-opacity="0" result="BackgroundImageFix"/>
<feColorMatrix in="SourceAlpha" type="matrix" values="0 0 0 0 0 0 0 0 0 0 0 0 0 0 0 0 0 0 127 0" result="hardAlpha"/>
<feOffset dy="4"/>
<feGaussianBlur stdDeviation="2"/>
<feComposite in2="hardAlpha" operator="out"/>
<feColorMatrix type="matrix" values="0 0 0 0 0 0 0 0 0 0 0 0 0 0 0 0 0 0 0.13 0"/>
<feBlend mode="normal" in2="BackgroundImageFix" result="effect1_dropShadow_7231_2230"/>
<feBlend mode="normal" in="SourceGraphic" in2="effect1_dropShadow_7231_2230" result="shape"/>
</filter>
<linearGradient id="paint0_linear_7231_2230" x1="49.5" y1="0.335937" x2="49.5" y2="90.3359" gradientUnits="userSpaceOnUse">
<stop stop-color="#C78A54" stop-opacity="0"/>
<stop offset="1" stop-color="#C78A54"/>
</linearGradient>
</defs>
</svg>
