<svg width="96" height="96" viewBox="0 0 96 96" fill="none" xmlns="http://www.w3.org/2000/svg">
<g filter="url(#filter0_d_8219_2130)">
<rect x="3" y="0.836426" width="90" height="90" rx="45" fill="url(#paint0_linear_8219_2130)" shape-rendering="crispEdges"/>
<path d="M65.2371 26.9522C65.133 26.8898 65.0145 26.8553 64.8931 26.8522C64.7718 26.8491 64.6517 26.8775 64.5445 26.9346L43.6055 38.102H31.125C30.5656 38.102 30.029 38.3243 29.6334 38.7199C29.2379 39.1154 29.0156 39.652 29.0156 40.2114V58.4927C29.0156 59.0521 29.2379 59.5886 29.6334 59.9842C30.029 60.3798 30.5656 60.602 31.125 60.602H46.5938C47.1532 60.602 47.6897 60.3798 48.0853 59.9842C48.4809 59.5886 48.7031 59.0521 48.7031 58.4927V52.8677C48.7029 52.7992 48.6929 52.7311 48.6732 52.6655L44.6197 39.1567L64.1719 28.7276V51.4614C64.1719 51.6479 64.0978 51.8267 63.9659 51.9586C63.8341 52.0905 63.6552 52.1645 63.4688 52.1645H60.6562C60.4698 52.1645 60.2909 52.0905 60.1591 51.9586C60.0272 51.8267 59.9531 51.6479 59.9531 51.4614V50.0552C59.9531 49.8687 59.879 49.6898 59.7472 49.558C59.6153 49.4261 59.4365 49.352 59.25 49.352C59.0635 49.352 58.8847 49.4261 58.7528 49.558C58.621 49.6898 58.5469 49.8687 58.5469 50.0552V51.4614C58.5469 52.0208 58.7691 52.5574 59.1647 52.953C59.5603 53.3485 60.0968 53.5708 60.6562 53.5708H63.4688C64.0282 53.5708 64.5647 53.3485 64.9603 52.953C65.3559 52.5574 65.5781 52.0208 65.5781 51.4614V27.5552C65.5782 27.4338 65.5468 27.3144 65.487 27.2088C65.4273 27.1031 65.3412 27.0147 65.2371 26.9522ZM43.2539 39.5083L47.0508 52.1645H36.0469V39.5083H43.2539ZM31.125 39.5083H34.6406V52.1645H30.4219V40.2114C30.4219 40.0249 30.496 39.8461 30.6278 39.7142C30.7597 39.5824 30.9385 39.5083 31.125 39.5083ZM46.5938 59.1958H31.125C30.9385 59.1958 30.7597 59.1217 30.6278 58.9898C30.496 58.858 30.4219 58.6791 30.4219 58.4927V53.5708H47.2969V58.4927C47.2969 58.6791 47.2228 58.858 47.0909 58.9898C46.9591 59.1217 46.7802 59.1958 46.5938 59.1958Z" fill="#FFF4EB"/>
</g>
<defs>
<filter id="filter0_d_8219_2130" x="0.857143" y="0.836426" width="94.2857" height="94.2857" filterUnits="userSpaceOnUse" color-interpolation-filters="sRGB">
<feFlood flood-opacity="0" result="BackgroundImageFix"/>
<feColorMatrix in="SourceAlpha" type="matrix" values="0 0 0 0 0 0 0 0 0 0 0 0 0 0 0 0 0 0 127 0" result="hardAlpha"/>
<feOffset dy="2.14286"/>
<feGaussianBlur stdDeviation="1.07143"/>
<feComposite in2="hardAlpha" operator="out"/>
<feColorMatrix type="matrix" values="0 0 0 0 0 0 0 0 0 0 0 0 0 0 0 0 0 0 0.08 0"/>
<feBlend mode="normal" in2="BackgroundImageFix" result="effect1_dropShadow_8219_2130"/>
<feBlend mode="normal" in="SourceGraphic" in2="effect1_dropShadow_8219_2130" result="shape"/>
</filter>
<linearGradient id="paint0_linear_8219_2130" x1="48" y1="0.836426" x2="48" y2="90.8364" gradientUnits="userSpaceOnUse">
<stop stop-color="#5489A3"/>
<stop offset="1" stop-color="#577B91"/>
</linearGradient>
</defs>
</svg>
