<svg width="99" height="99" viewBox="0 0 99 99" fill="none" xmlns="http://www.w3.org/2000/svg">
<g filter="url(#filter0_d_7231_2236)">
<rect x="4.5" y="0.835938" width="90" height="90" rx="45" fill="#E79450" shape-rendering="crispEdges"/>
<rect x="4.5" y="0.835938" width="90" height="90" rx="45" fill="url(#paint0_linear_7231_2236)" shape-rendering="crispEdges"/>
<path d="M68.8718 35.112C68.7739 35.0508 68.6621 35.0156 68.5469 35.0097C68.4317 35.0037 68.3168 35.0273 68.2132 35.078C60.6821 38.7579 55.3524 37.0537 49.7122 35.2478C44.0719 33.4418 38.2194 31.5696 30.1927 35.4888C30.0784 35.5448 29.9822 35.6317 29.915 35.7398C29.8478 35.8478 29.8122 35.9726 29.8125 36.0998V56.468C29.8123 56.5833 29.8414 56.6969 29.8973 56.7978C29.9531 56.8988 30.0338 56.9839 30.1316 57.045C30.2294 57.1062 30.3413 57.1414 30.4565 57.1474C30.5717 57.1533 30.6866 57.1298 30.7902 57.079C38.3213 53.3992 43.6509 55.1033 49.2912 56.9093C52.4924 57.9277 55.7547 58.9783 59.4413 58.9783C62.2606 58.9783 65.3294 58.3673 68.8073 56.6682C68.9216 56.6123 69.0178 56.5253 69.085 56.4172C69.1522 56.3092 69.1877 56.1844 69.1875 56.0572V35.6891C69.1881 35.574 69.1594 35.4607 69.1042 35.3597C69.049 35.2588 68.969 35.1735 68.8718 35.112ZM67.833 55.6295C60.5022 59.07 55.2557 57.3913 49.7088 55.6159C46.5076 54.5975 43.2453 53.5485 39.5587 53.5485C37.0126 53.5485 34.2494 54.0577 31.1704 55.4054V36.5276C38.5012 33.087 43.7477 34.7657 49.2946 36.5411C54.7125 38.2707 60.3087 40.0648 67.833 36.7516V55.6295ZM49.5017 41.3259C48.5617 41.3259 47.6429 41.6047 46.8613 42.1269C46.0798 42.6491 45.4706 43.3914 45.1109 44.2598C44.7512 45.1282 44.6571 46.0838 44.8404 47.0057C45.0238 47.9276 45.4765 48.7744 46.1411 49.4391C46.8058 50.1037 47.6526 50.5564 48.5745 50.7398C49.4964 50.9231 50.452 50.829 51.3204 50.4693C52.1888 50.1096 52.9311 49.5004 53.4533 48.7189C53.9755 47.9373 54.2543 47.0185 54.2543 46.0785C54.2543 44.8181 53.7535 43.6092 52.8623 42.7179C51.971 41.8267 50.7622 41.3259 49.5017 41.3259ZM49.5017 49.4732C48.8303 49.4732 48.174 49.2741 47.6157 48.9011C47.0575 48.5281 46.6223 47.9979 46.3654 47.3776C46.1085 46.7573 46.0412 46.0747 46.1722 45.4162C46.3032 44.7577 46.6265 44.1529 47.1013 43.6781C47.576 43.2033 48.1809 42.88 48.8394 42.7491C49.4979 42.6181 50.1805 42.6853 50.8008 42.9422C51.4211 43.1992 51.9513 43.6343 52.3243 44.1925C52.6973 44.7508 52.8964 45.4071 52.8964 46.0785C52.8964 46.9788 52.5387 47.8423 51.9021 48.4789C51.2655 49.1155 50.402 49.4732 49.5017 49.4732ZM36.6019 40.647V48.7943C36.6019 48.9743 36.5303 49.147 36.403 49.2743C36.2757 49.4017 36.103 49.4732 35.9229 49.4732C35.7429 49.4732 35.5702 49.4017 35.4429 49.2743C35.3155 49.147 35.244 48.9743 35.244 48.7943V40.647C35.244 40.4669 35.3155 40.2943 35.4429 40.1669C35.5702 40.0396 35.7429 39.9681 35.9229 39.9681C36.103 39.9681 36.2757 40.0396 36.403 40.1669C36.5303 40.2943 36.6019 40.4669 36.6019 40.647ZM62.4015 51.51V43.3628C62.4015 43.1827 62.473 43.01 62.6004 42.8827C62.7277 42.7554 62.9004 42.6838 63.0804 42.6838C63.2605 42.6838 63.4332 42.7554 63.5605 42.8827C63.6879 43.01 63.7594 43.1827 63.7594 43.3628V51.51C63.7594 51.6901 63.6879 51.8628 63.5605 51.9901C63.4332 52.1174 63.2605 52.1889 63.0804 52.1889C62.9004 52.1889 62.7277 52.1174 62.6004 51.9901C62.473 51.8628 62.4015 51.6901 62.4015 51.51Z" fill="black"/>
</g>
<defs>
<filter id="filter0_d_7231_2236" x="0.5" y="0.835938" width="98" height="98" filterUnits="userSpaceOnUse" color-interpolation-filters="sRGB">
<feFlood flood-opacity="0" result="BackgroundImageFix"/>
<feColorMatrix in="SourceAlpha" type="matrix" values="0 0 0 0 0 0 0 0 0 0 0 0 0 0 0 0 0 0 127 0" result="hardAlpha"/>
<feOffset dy="4"/>
<feGaussianBlur stdDeviation="2"/>
<feComposite in2="hardAlpha" operator="out"/>
<feColorMatrix type="matrix" values="0 0 0 0 0 0 0 0 0 0 0 0 0 0 0 0 0 0 0.13 0"/>
<feBlend mode="normal" in2="BackgroundImageFix" result="effect1_dropShadow_7231_2236"/>
<feBlend mode="normal" in="SourceGraphic" in2="effect1_dropShadow_7231_2236" result="shape"/>
</filter>
<linearGradient id="paint0_linear_7231_2236" x1="49.5" y1="0.835937" x2="49.5" y2="90.8359" gradientUnits="userSpaceOnUse">
<stop stop-color="#C78A54" stop-opacity="0"/>
<stop offset="1" stop-color="#C78A54"/>
</linearGradient>
</defs>
</svg>
