<svg width="247" height="241" viewBox="0 0 247 241" fill="none" xmlns="http://www.w3.org/2000/svg">
<rect width="247" height="241" fill="#fff4eb"/>
<g filter="url(#filter0_d_8150_1903)">
<rect x="122.695" width="134.04" height="134.04" rx="67.0198" transform="rotate(22 122.695 0)" fill="url(#paint0_linear_8150_1903)" shape-rendering="crispEdges"/>
<g clip-path="url(#clip0_8150_1903)">
<path d="M182.385 100.985C181.967 100.272 181.39 99.6664 180.699 99.2142C180.007 98.7621 179.221 98.476 178.401 98.3783L175.23 97.8738C183.452 95.1021 188.633 91.1813 190.651 86.1859C193.03 80.2972 190.233 73.5933 184.417 71.2435C182.668 70.5207 180.767 70.2459 178.885 70.4441C177.003 70.6424 175.201 71.3074 173.641 72.3787C173.263 70.5246 172.429 68.7941 171.213 67.3443C169.997 65.8945 168.438 64.7713 166.678 64.0765C160.862 61.7267 154.193 64.6059 151.814 70.4946C150.652 73.371 150.513 76.5873 151.393 80.4893C149.66 79.8631 147.754 79.9175 146.06 80.6414L137.946 84.0917L130.581 81.1162C129.809 80.8041 128.944 80.8117 128.177 81.1372C127.41 81.4628 126.804 82.0797 126.491 82.8522L122.569 92.5615C122.257 93.334 122.264 94.1989 122.59 94.9658C122.915 95.7328 123.532 96.339 124.305 96.6511L149.549 106.85C149.63 106.884 149.716 106.907 149.803 106.919L166.907 109.312C166.962 109.319 167.017 109.323 167.073 109.322L178.118 109.115L178.181 109.112C179.093 109.039 179.972 108.736 180.735 108.229C181.498 107.723 182.119 107.031 182.54 106.218C182.961 105.405 183.169 104.499 183.143 103.584C183.117 102.669 182.859 101.775 182.392 100.988L182.385 100.985ZM165.894 66.0184C167.6 66.683 169.069 67.8416 170.113 69.3459C171.157 70.8502 171.729 72.6317 171.754 74.4626C171.756 74.6702 171.819 74.8728 171.935 75.0446C172.052 75.2164 172.217 75.3497 172.409 75.4275C172.602 75.5053 172.813 75.5241 173.016 75.4815C173.22 75.4389 173.406 75.3369 173.551 75.1883C174.841 73.8893 176.49 73.0048 178.286 72.648C180.082 72.2912 181.943 72.4783 183.633 73.1854C188.298 75.0703 190.623 80.6656 188.709 85.4013C186.623 90.5643 180.479 94.4997 170.442 97.111L165.324 96.2829C166.198 95.608 166.877 94.7126 167.29 93.6888C167.914 92.1438 167.899 90.414 167.248 88.8801C166.597 87.3462 165.363 86.1337 163.818 85.5095L153.791 81.4582C152.639 77.322 152.628 74.0706 153.756 71.2792C155.669 66.5434 161.228 64.1334 165.894 66.0184ZM124.511 93.3461L128.433 83.6367C128.537 83.3792 128.739 83.1736 128.995 83.0651C129.251 82.9566 129.539 82.954 129.797 83.0581L136.593 85.8041L131.886 97.4553L125.089 94.7093C124.832 94.6052 124.626 94.4032 124.517 94.1475C124.409 93.8919 124.406 93.6036 124.511 93.3461ZM178.036 107.018L167.107 107.224L150.214 104.861L133.828 98.2398L138.764 86.0206L146.876 82.5777C147.508 82.307 148.188 82.1644 148.875 82.1583C149.563 82.1522 150.245 82.2826 150.882 82.542L163.034 87.4514C164.064 87.8675 164.886 88.6758 165.32 89.6984C165.754 90.721 165.764 91.8742 165.348 92.9042C164.932 93.9343 164.124 94.7568 163.101 95.1909C162.079 95.6249 160.925 95.635 159.895 95.2188L153.099 92.4729C152.841 92.3688 152.553 92.3713 152.297 92.4799C152.042 92.5884 151.84 92.794 151.736 93.0515C151.632 93.309 151.634 93.5973 151.743 93.853C151.851 94.1086 152.057 94.3107 152.314 94.4147L160.082 97.553C160.155 97.583 160.232 97.6045 160.31 97.617L178.084 100.447L178.123 100.463C178.93 100.564 179.671 100.96 180.204 101.574C180.737 102.188 181.024 102.977 181.011 103.79C180.998 104.603 180.684 105.383 180.131 105.979C179.578 106.575 178.825 106.946 178.015 107.021L178.036 107.018Z" fill="#1C2745"/>
</g>
</g>
<g filter="url(#filter1_d_8150_1903)">
<rect x="107.953" y="137.591" width="94.188" height="94.188" rx="47.094" fill="#FFF4EB" shape-rendering="crispEdges"/>
<rect x="107.953" y="137.591" width="94.188" height="94.188" rx="47.094" fill="url(#paint1_linear_8150_1903)" shape-rendering="crispEdges"/>
<path d="M175.65 200.138H171.971V184.379L173.658 186.066C173.796 186.204 173.983 186.282 174.178 186.282C174.374 186.282 174.561 186.204 174.699 186.066C174.837 185.928 174.915 185.741 174.915 185.546C174.915 185.35 174.837 185.163 174.699 185.025L156.608 166.934C156.403 166.729 156.16 166.565 155.891 166.454C155.623 166.343 155.335 166.285 155.045 166.285C154.754 166.285 154.466 166.343 154.198 166.454C153.93 166.565 153.686 166.729 153.481 166.934L135.394 185.025C135.326 185.094 135.271 185.175 135.234 185.264C135.197 185.353 135.178 185.449 135.178 185.546C135.178 185.642 135.197 185.738 135.234 185.828C135.271 185.917 135.326 185.998 135.394 186.066C135.462 186.135 135.543 186.189 135.633 186.226C135.722 186.263 135.818 186.282 135.915 186.282C136.011 186.282 136.107 186.263 136.196 186.226C136.286 186.189 136.367 186.135 136.435 186.066L138.122 184.379V200.138H134.443C134.248 200.138 134.061 200.215 133.923 200.353C133.785 200.491 133.707 200.678 133.707 200.873C133.707 201.069 133.785 201.256 133.923 201.394C134.061 201.532 134.248 201.609 134.443 201.609H175.65C175.845 201.609 176.032 201.532 176.17 201.394C176.308 201.256 176.386 201.069 176.386 200.873C176.386 200.678 176.308 200.491 176.17 200.353C176.032 200.215 175.845 200.138 175.65 200.138ZM139.594 182.908L154.526 167.976C154.594 167.907 154.675 167.853 154.765 167.816C154.854 167.779 154.95 167.76 155.046 167.76C155.143 167.76 155.239 167.779 155.328 167.816C155.418 167.853 155.499 167.907 155.567 167.976L170.499 182.908V200.138H160.197V189.1C160.197 188.905 160.12 188.718 159.982 188.58C159.844 188.442 159.657 188.364 159.462 188.364H150.631C150.436 188.364 150.249 188.442 150.111 188.58C149.973 188.718 149.896 188.905 149.896 189.1V200.138H139.594V182.908ZM158.726 200.138H151.367V189.836H158.726V200.138Z" fill="#1C2745"/>
</g>
<g filter="url(#filter2_d_8150_1903)">
<rect y="121.486" width="115.971" height="115.971" rx="57.9857" transform="rotate(-22 0 121.486)" fill="url(#paint2_linear_8150_1903)" shape-rendering="crispEdges"/>
<g clip-path="url(#clip1_8150_1903)">
<path d="M99.673 140.533L79.7454 131.994C74.6543 129.842 68.9172 129.799 63.794 131.873C58.6708 133.948 54.5803 137.971 52.4207 143.059L50.7299 147.206C50.6825 147.317 50.6578 147.436 50.657 147.556C50.6562 147.677 50.6795 147.796 50.7254 147.907C50.7713 148.019 50.839 148.12 50.9244 148.205C51.0099 148.29 51.1114 148.357 51.223 148.402C51.3347 148.447 51.4542 148.47 51.5747 148.468C51.6951 148.466 51.8141 148.441 51.9245 148.393C52.035 148.345 52.1347 148.275 52.2179 148.188C52.3012 148.101 52.3662 147.998 52.4092 147.886L54.0895 143.743C54.9039 141.819 56.0305 140.043 57.4236 138.487L72.583 144.929L60.2124 174.068C60.072 174.397 59.998 174.751 59.9946 175.108C59.9911 175.466 60.0584 175.821 60.1924 176.153C60.3264 176.484 60.5246 176.786 60.7755 177.041C61.0265 177.296 61.3253 177.499 61.6548 177.638L67.753 180.222C68.0821 180.362 68.4356 180.436 68.7933 180.439C69.1511 180.443 69.5059 180.376 69.8376 180.242C70.1693 180.108 70.4713 179.909 70.7262 179.658C70.9812 179.407 71.1841 179.109 71.3233 178.779L83.6851 149.636L88.7487 151.787L93.956 153.998C94.2851 154.138 94.6386 154.212 94.9963 154.215C95.354 154.219 95.7089 154.152 96.0406 154.018C96.3723 153.884 96.6743 153.685 96.9292 153.434C97.1842 153.183 97.387 152.885 97.5262 152.555L101.117 144.095C101.398 143.432 101.404 142.683 101.133 142.015C100.862 141.347 100.337 140.814 99.673 140.533ZM69.6451 178.072C69.5986 178.182 69.531 178.281 69.4461 178.364C69.3612 178.448 69.2607 178.514 69.1503 178.558C69.0399 178.603 68.9218 178.625 68.8027 178.624C68.6837 178.623 68.566 178.599 68.4564 178.552L62.3616 175.965C62.2519 175.919 62.1525 175.851 62.0691 175.766C61.9856 175.681 61.9197 175.581 61.8751 175.47C61.8305 175.36 61.8081 175.242 61.8091 175.123C61.8102 175.004 61.8347 174.886 61.8813 174.776L70.7449 153.887L78.5141 157.19L69.6451 178.072ZM82.3712 148.095L79.2209 155.517L71.4537 152.225L74.6036 144.796C74.6502 144.687 74.6747 144.569 74.6758 144.45C74.6769 144.331 74.6545 144.213 74.6099 144.102C74.5653 143.992 74.4993 143.892 74.4159 143.807C74.3324 143.722 74.233 143.654 74.1234 143.608L58.7904 137.099C61.4829 134.654 64.8191 133.031 68.4048 132.421C71.9905 131.811 75.6758 132.24 79.0252 133.658L92.9135 139.614L88.6227 149.764L83.5599 147.615C83.4503 147.568 83.3326 147.544 83.2135 147.543C83.0945 147.542 82.9764 147.564 82.866 147.609C82.7556 147.653 82.6551 147.719 82.5702 147.803C82.4853 147.886 82.4176 147.986 82.3712 148.095ZM99.4445 143.396L95.8557 151.855C95.8092 151.964 95.7416 152.064 95.6567 152.147C95.5718 152.231 95.4713 152.297 95.3609 152.341C95.2505 152.386 95.1324 152.408 95.0133 152.407C94.8942 152.406 94.7766 152.381 94.667 152.335L90.2933 150.477L94.5968 140.334L98.9634 142.205C99.1834 142.299 99.3573 142.477 99.4469 142.699C99.5366 142.921 99.5348 143.169 99.4419 143.39L99.4445 143.396Z" fill="#FFF4EB"/>
</g>
</g>
<defs>
<filter id="filter0_d_8150_1903" x="67.4834" y="0" width="184.491" height="184.491" filterUnits="userSpaceOnUse" color-interpolation-filters="sRGB">
<feFlood flood-opacity="0" result="BackgroundImageFix"/>
<feColorMatrix in="SourceAlpha" type="matrix" values="0 0 0 0 0 0 0 0 0 0 0 0 0 0 0 0 0 0 127 0" result="hardAlpha"/>
<feOffset dy="5"/>
<feGaussianBlur stdDeviation="2.5"/>
<feComposite in2="hardAlpha" operator="out"/>
<feColorMatrix type="matrix" values="0 0 0 0 0 0 0 0 0 0 0 0 0 0 0 0 0 0 0.13 0"/>
<feBlend mode="normal" in2="BackgroundImageFix" result="effect1_dropShadow_8150_1903"/>
<feBlend mode="normal" in="SourceGraphic" in2="effect1_dropShadow_8150_1903" result="shape"/>
</filter>
<filter id="filter1_d_8150_1903" x="103.686" y="137.591" width="102.721" height="102.721" filterUnits="userSpaceOnUse" color-interpolation-filters="sRGB">
<feFlood flood-opacity="0" result="BackgroundImageFix"/>
<feColorMatrix in="SourceAlpha" type="matrix" values="0 0 0 0 0 0 0 0 0 0 0 0 0 0 0 0 0 0 127 0" result="hardAlpha"/>
<feOffset dy="4.26664"/>
<feGaussianBlur stdDeviation="2.13332"/>
<feComposite in2="hardAlpha" operator="out"/>
<feColorMatrix type="matrix" values="0 0 0 0 0 0 0 0 0 0 0 0 0 0 0 0 0 0 0.13 0"/>
<feBlend mode="normal" in2="BackgroundImageFix" result="effect1_dropShadow_8150_1903"/>
<feBlend mode="normal" in="SourceGraphic" in2="effect1_dropShadow_8150_1903" result="shape"/>
</filter>
<filter id="filter2_d_8150_1903" x="-4.32601" y="78.0425" width="159.623" height="159.622" filterUnits="userSpaceOnUse" color-interpolation-filters="sRGB">
<feFlood flood-opacity="0" result="BackgroundImageFix"/>
<feColorMatrix in="SourceAlpha" type="matrix" values="0 0 0 0 0 0 0 0 0 0 0 0 0 0 0 0 0 0 127 0" result="hardAlpha"/>
<feOffset dy="4.32601"/>
<feGaussianBlur stdDeviation="2.16301"/>
<feComposite in2="hardAlpha" operator="out"/>
<feColorMatrix type="matrix" values="0 0 0 0 0 0 0 0 0 0 0 0 0 0 0 0 0 0 0.08 0"/>
<feBlend mode="normal" in2="BackgroundImageFix" result="effect1_dropShadow_8150_1903"/>
<feBlend mode="normal" in="SourceGraphic" in2="effect1_dropShadow_8150_1903" result="shape"/>
</filter>
<linearGradient id="paint0_linear_8150_1903" x1="189.715" y1="0" x2="189.715" y2="134.04" gradientUnits="userSpaceOnUse">
<stop stop-color="#E79450"/>
<stop offset="1" stop-color="#C58853"/>
</linearGradient>
<linearGradient id="paint1_linear_8150_1903" x1="155.047" y1="137.591" x2="155.047" y2="231.779" gradientUnits="userSpaceOnUse">
<stop stop-color="#F9DED6" stop-opacity="0"/>
<stop offset="1" stop-color="#F9DED6"/>
</linearGradient>
<linearGradient id="paint2_linear_8150_1903" x1="57.9857" y1="121.486" x2="57.9857" y2="237.457" gradientUnits="userSpaceOnUse">
<stop stop-color="#5489A3"/>
<stop offset="1" stop-color="#577B91"/>
</linearGradient>
<clipPath id="clip0_8150_1903">
<rect width="67.0198" height="67.0198" fill="white" transform="translate(141.212 43.6228) rotate(22)"/>
</clipPath>
<clipPath id="clip1_8150_1903">
<rect width="57.9857" height="57.9857" fill="white" transform="translate(37.7432 137.507) rotate(-22)"/>
</clipPath>
</defs>
</svg>
