<svg width="273" height="273" viewBox="0 0 273 273" fill="none" xmlns="http://www.w3.org/2000/svg">
<g filter="url(#filter0_d_8077_15868)">
<rect x="154.1" y="-63.4331" width="210.672" height="210.672" rx="105.336" transform="rotate(17.3157 154.1 -63.4331)" fill="#5489A3" shape-rendering="crispEdges"/>
<rect x="154.1" y="-63.4331" width="210.672" height="210.672" rx="105.336" transform="rotate(17.3157 154.1 -63.4331)" fill="url(#paint0_linear_8077_15868)" fill-opacity="0.1" style="mix-blend-mode:color-burn" shape-rendering="crispEdges"/>
<g clip-path="url(#clip0_8077_15868)">
<path d="M249.511 78.7224L230.956 64.4686L229.772 41.1012C229.72 40.0994 229.363 39.1375 228.747 38.3451C228.132 37.5527 227.289 36.9679 226.331 36.6693C225.374 36.3707 224.347 36.3727 223.391 36.6751C222.434 36.9774 221.593 37.5656 220.981 38.3604L206.727 56.9148L183.36 58.0988C182.358 58.1508 181.396 58.5085 180.604 59.1238C179.811 59.739 179.227 60.5823 178.928 61.54C178.629 62.4977 178.631 63.524 178.934 64.4805C179.236 65.4371 179.824 66.278 180.619 66.8901L199.174 81.1439L200.358 104.511C200.41 105.513 200.767 106.475 201.382 107.267C201.998 108.06 202.841 108.645 203.799 108.943C204.756 109.242 205.783 109.24 206.739 108.937C207.696 108.635 208.537 108.047 209.149 107.252L223.403 88.6977L246.77 87.5137C247.772 87.4617 248.734 87.104 249.526 86.4888C250.319 85.8735 250.903 85.0303 251.202 84.0725C251.501 83.1148 251.499 82.0886 251.196 81.132C250.894 80.1755 250.306 79.3345 249.511 78.7224ZM246.602 84.2244L222.477 85.461C222.239 85.4731 222.006 85.5366 221.796 85.6473C221.585 85.7579 221.4 85.9129 221.255 86.1017L206.536 105.252C206.335 105.514 206.058 105.708 205.743 105.808C205.428 105.908 205.091 105.909 204.775 105.811C204.46 105.712 204.182 105.52 203.98 105.259C203.778 104.998 203.661 104.681 203.644 104.351L202.41 80.2178C202.397 79.9823 202.334 79.7522 202.224 79.5433C202.115 79.3344 201.961 79.1514 201.775 79.0069L182.625 64.2872C182.362 64.0862 182.168 63.8097 182.068 63.4949C181.968 63.1801 181.968 62.8422 182.066 62.5269C182.164 62.2116 182.357 61.9341 182.618 61.7318C182.879 61.5296 183.196 61.4123 183.526 61.396L207.653 60.1516C207.889 60.1386 208.119 60.0752 208.328 59.9656C208.537 59.856 208.72 59.7027 208.864 59.5162L223.584 40.3658C223.785 40.1037 224.062 39.9095 224.376 39.8096C224.691 39.7097 225.029 39.7088 225.344 39.8071C225.66 39.9054 225.937 40.0982 226.139 40.3593C226.342 40.6204 226.459 40.9373 226.475 41.2672L227.72 65.3947C227.732 65.6325 227.795 65.8648 227.906 66.0756C228.017 66.2865 228.172 66.4708 228.36 66.6159L247.511 81.3357C247.773 81.5366 247.967 81.8131 248.067 82.1279C248.167 82.4428 248.168 82.7806 248.07 83.0959C247.971 83.4112 247.778 83.6888 247.517 83.891C247.256 84.0933 246.939 84.2105 246.61 84.2268L246.602 84.2244ZM241.943 36.3618C242.073 35.9451 242.363 35.597 242.75 35.3942C243.136 35.1914 243.588 35.1505 244.004 35.2804L251.861 37.7298L254.31 29.8734C254.44 29.4566 254.73 29.1086 255.117 28.9058C255.503 28.703 255.954 28.662 256.371 28.7919C256.788 28.9219 257.136 29.212 257.339 29.5986C257.542 29.9851 257.583 30.4364 257.453 30.8531L255.003 38.7095L262.86 41.1589C263.276 41.2888 263.624 41.5789 263.827 41.9655C264.03 42.352 264.071 42.8033 263.941 43.22C263.811 43.6367 263.521 43.9848 263.134 44.1876C262.748 44.3904 262.297 44.4313 261.88 44.3014L254.024 41.8521L251.574 49.7085C251.444 50.1252 251.154 50.4732 250.768 50.676C250.381 50.8789 249.93 50.9198 249.513 50.7899C249.096 50.6599 248.748 50.3698 248.545 49.9833C248.343 49.5967 248.302 49.1454 248.432 48.7287L250.881 40.8723L243.025 38.423C242.608 38.293 242.26 38.0029 242.057 37.6164C241.854 37.2298 241.813 36.7785 241.943 36.3618ZM273.775 66.9741C273.646 67.3908 273.355 67.7389 272.969 67.9417C272.582 68.1445 272.131 68.1854 271.714 68.0555L267 66.5859L265.531 71.2997C265.401 71.7164 265.111 72.0645 264.724 72.2673C264.338 72.4701 263.886 72.5111 263.47 72.3811C263.053 72.2512 262.705 71.9611 262.502 71.5745C262.299 71.188 262.258 70.7367 262.388 70.32L263.858 65.6061L259.144 64.1365C258.727 64.0066 258.379 63.7165 258.176 63.3299C257.974 62.9434 257.933 62.4921 258.063 62.0754C258.193 61.6586 258.483 61.3106 258.869 61.1078C259.256 60.905 259.707 60.864 260.124 60.994L264.838 62.4636L266.307 57.7497C266.437 57.333 266.727 56.985 267.114 56.7821C267.5 56.5793 267.952 56.5384 268.368 56.6683C268.785 56.7982 269.133 57.0884 269.336 57.4749C269.539 57.8615 269.58 58.3127 269.45 58.7295L267.98 63.4433L272.694 64.9129C273.111 65.0429 273.459 65.333 273.662 65.7195C273.864 66.1061 273.905 66.5574 273.775 66.9741Z" fill="#FFF4EB"/>
</g>
</g>
<g filter="url(#filter1_d_8077_15868)">
<rect x="8.82031" y="24.4871" width="163.21" height="163.21" rx="81.6052" transform="rotate(3.09822 8.82031 24.4871)" fill="#FFF4EB" shape-rendering="crispEdges"/>
<rect x="8.82031" y="24.4871" width="163.21" height="163.21" rx="81.6052" transform="rotate(3.09822 8.82031 24.4871)" fill="url(#paint1_linear_8077_15868)" fill-opacity="0.1" style="mix-blend-mode:color-burn" shape-rendering="crispEdges"/>
<path d="M117.52 114.161C117.436 113.923 117.284 113.715 117.082 113.563C116.88 113.412 116.637 113.324 116.385 113.311L102.38 112.553L103.827 85.8152C103.882 84.8022 103.532 83.8088 102.854 83.0537C102.177 82.2986 101.227 81.8436 100.214 81.7888L74.7497 80.4105C73.7366 80.3557 72.7433 80.7055 71.9882 81.3831C71.2331 82.0606 70.7781 83.0104 70.7233 84.0234L69.276 110.761L55.2706 110.003C55.0187 109.989 54.7683 110.05 54.5512 110.179C54.334 110.307 54.1599 110.497 54.0509 110.725C53.9418 110.953 53.9027 111.207 53.9386 111.457C53.9744 111.707 54.0835 111.94 54.2522 112.128L83.1554 144.339C83.2673 144.464 83.4026 144.566 83.5537 144.638C83.7048 144.711 83.8687 144.752 84.036 144.762C84.2033 144.771 84.3708 144.747 84.5288 144.691C84.6869 144.635 84.8324 144.549 84.957 144.437L117.168 115.534C117.356 115.365 117.49 115.145 117.553 114.901C117.615 114.656 117.604 114.399 117.52 114.161ZM84.2025 141.686L58.2076 112.716L70.4114 113.376C70.7491 113.395 71.0802 113.278 71.3319 113.052C71.5836 112.826 71.7353 112.51 71.7536 112.172L73.2697 84.1612C73.288 83.8236 73.4396 83.507 73.6913 83.2811C73.943 83.0553 74.2742 82.9387 74.6118 82.9569L100.076 84.3352C100.414 84.3535 100.73 84.5052 100.956 84.7569C101.182 85.0086 101.299 85.3397 101.28 85.6774L99.7644 113.688C99.7461 114.026 99.8627 114.357 100.089 114.609C100.314 114.86 100.631 115.012 100.969 115.03L113.172 115.691L84.2025 141.686Z" fill="#1C2745"/>
</g>
<g filter="url(#filter2_d_8077_15868)">
<rect x="85.7227" y="147.315" width="132.657" height="132.657" rx="66.3284" transform="rotate(-18.7315 85.7227 147.315)" fill="#E79450" shape-rendering="crispEdges"/>
<rect x="85.7227" y="147.315" width="132.657" height="132.657" rx="66.3284" transform="rotate(-18.7315 85.7227 147.315)" fill="url(#paint2_linear_8077_15868)" fill-opacity="0.1" style="mix-blend-mode:color-burn" shape-rendering="crispEdges"/>
<g clip-path="url(#clip1_8077_15868)">
<path d="M199.182 194.854C199.638 191.67 199.308 188.422 198.219 185.395C197.13 182.368 195.316 179.653 192.935 177.489C190.555 175.325 187.681 173.778 184.564 172.981C181.447 172.185 178.182 172.165 175.056 172.922C173.336 170.892 171.222 169.232 168.843 168.041C166.463 166.851 163.867 166.155 161.211 165.996C158.556 165.836 155.895 166.217 153.39 167.114C150.886 168.012 148.589 169.408 146.639 171.217C144.688 173.027 143.125 175.213 142.043 177.644C140.961 180.075 140.383 182.699 140.344 185.36C140.304 188.02 140.804 190.661 141.814 193.122C142.823 195.584 144.321 197.816 146.216 199.682L146.505 206.755C146.528 207.313 146.701 207.855 147.005 208.323C147.31 208.792 147.735 209.169 148.236 209.417C148.737 209.664 149.295 209.772 149.852 209.728C150.409 209.685 150.944 209.493 151.401 209.171L157.191 205.099C159.668 205.453 162.189 205.331 164.621 204.741C166.389 206.842 168.578 208.551 171.046 209.756C173.514 210.961 176.207 211.637 178.952 211.739C181.697 211.842 184.433 211.369 186.984 210.351C189.535 209.333 191.845 207.793 193.765 205.829L200.838 205.54C201.396 205.517 201.938 205.344 202.406 205.04C202.875 204.735 203.252 204.31 203.5 203.809C203.747 203.308 203.855 202.75 203.811 202.193C203.768 201.636 203.576 201.101 203.254 200.644L199.182 194.854ZM156.34 203.163L150.209 207.477C150.056 207.588 149.876 207.654 149.688 207.67C149.5 207.686 149.312 207.65 149.143 207.567C148.974 207.483 148.831 207.355 148.729 207.197C148.628 207.038 148.571 206.855 148.566 206.666L148.261 199.175C148.247 198.905 148.13 198.651 147.935 198.465C144.853 195.575 142.913 191.674 142.466 187.473C142.02 183.272 143.099 179.051 145.505 175.578C147.911 172.106 151.485 169.614 155.575 168.556C159.665 167.498 163.999 167.945 167.787 169.815C171.575 171.686 174.565 174.855 176.211 178.746C177.858 182.636 178.052 186.989 176.758 191.01C175.464 195.032 172.768 198.454 169.161 200.654C165.555 202.854 161.277 203.685 157.11 202.995C156.841 202.949 156.565 203.009 156.34 203.163ZM201.642 202.892C201.559 203.061 201.431 203.204 201.273 203.306C201.115 203.408 200.932 203.465 200.744 203.471L193.252 203.776C192.983 203.789 192.728 203.906 192.542 204.101C190.893 205.863 188.899 207.267 186.685 208.227C184.47 209.186 182.082 209.681 179.669 209.679C177.256 209.678 174.869 209.18 172.655 208.218C170.442 207.256 168.45 205.849 166.803 204.085C169.588 203.058 172.105 201.415 174.165 199.278C176.225 197.141 177.776 194.566 178.7 191.746C179.625 188.925 179.9 185.932 179.506 182.99C179.111 180.048 178.056 177.234 176.42 174.757C179.204 174.23 182.075 174.383 184.789 175.203C187.502 176.022 189.978 177.484 192.005 179.465C194.033 181.445 195.553 183.886 196.436 186.579C197.319 189.272 197.539 192.139 197.078 194.936C197.036 195.202 197.098 195.475 197.252 195.697L201.566 201.829C201.674 201.983 201.738 202.163 201.751 202.35C201.764 202.538 201.727 202.725 201.642 202.892Z" fill="#1C2745"/>
</g>
</g>
<defs>
<filter id="filter0_d_8077_15868" x="87.3965" y="-63.4331" width="271.826" height="271.827" filterUnits="userSpaceOnUse" color-interpolation-filters="sRGB">
<feFlood flood-opacity="0" result="BackgroundImageFix"/>
<feColorMatrix in="SourceAlpha" type="matrix" values="0 0 0 0 0 0 0 0 0 0 0 0 0 0 0 0 0 0 127 0" result="hardAlpha"/>
<feOffset dy="4"/>
<feGaussianBlur stdDeviation="2"/>
<feComposite in2="hardAlpha" operator="out"/>
<feColorMatrix type="matrix" values="0 0 0 0 0 0 0 0 0 0 0 0 0 0 0 0 0 0 0.13 0"/>
<feBlend mode="normal" in2="BackgroundImageFix" result="effect1_dropShadow_8077_15868"/>
<feBlend mode="normal" in="SourceGraphic" in2="effect1_dropShadow_8077_15868" result="shape"/>
</filter>
<filter id="filter1_d_8077_15868" x="-4.00098" y="24.4871" width="179.794" height="179.793" filterUnits="userSpaceOnUse" color-interpolation-filters="sRGB">
<feFlood flood-opacity="0" result="BackgroundImageFix"/>
<feColorMatrix in="SourceAlpha" type="matrix" values="0 0 0 0 0 0 0 0 0 0 0 0 0 0 0 0 0 0 127 0" result="hardAlpha"/>
<feOffset dy="4"/>
<feGaussianBlur stdDeviation="2"/>
<feComposite in2="hardAlpha" operator="out"/>
<feColorMatrix type="matrix" values="0 0 0 0 0 0 0 0 0 0 0 0 0 0 0 0 0 0 0.25 0"/>
<feBlend mode="normal" in2="BackgroundImageFix" result="effect1_dropShadow_8077_15868"/>
<feBlend mode="normal" in="SourceGraphic" in2="effect1_dropShadow_8077_15868" result="shape"/>
</filter>
<filter id="filter2_d_8077_15868" x="81.7227" y="104.714" width="176.23" height="176.231" filterUnits="userSpaceOnUse" color-interpolation-filters="sRGB">
<feFlood flood-opacity="0" result="BackgroundImageFix"/>
<feColorMatrix in="SourceAlpha" type="matrix" values="0 0 0 0 0 0 0 0 0 0 0 0 0 0 0 0 0 0 127 0" result="hardAlpha"/>
<feOffset dy="4"/>
<feGaussianBlur stdDeviation="2"/>
<feComposite in2="hardAlpha" operator="out"/>
<feColorMatrix type="matrix" values="0 0 0 0 0 0 0 0 0 0 0 0 0 0 0 0 0 0 0.13 0"/>
<feBlend mode="normal" in2="BackgroundImageFix" result="effect1_dropShadow_8077_15868"/>
<feBlend mode="normal" in="SourceGraphic" in2="effect1_dropShadow_8077_15868" result="shape"/>
</filter>
<linearGradient id="paint0_linear_8077_15868" x1="259.435" y1="-63.4331" x2="259.435" y2="147.239" gradientUnits="userSpaceOnUse">
<stop stop-opacity="0"/>
<stop offset="1"/>
</linearGradient>
<linearGradient id="paint1_linear_8077_15868" x1="90.4256" y1="24.4871" x2="90.4256" y2="187.698" gradientUnits="userSpaceOnUse">
<stop stop-opacity="0"/>
<stop offset="1"/>
</linearGradient>
<linearGradient id="paint2_linear_8077_15868" x1="152.051" y1="147.315" x2="152.051" y2="279.972" gradientUnits="userSpaceOnUse">
<stop stop-opacity="0"/>
<stop offset="1"/>
</linearGradient>
<clipPath id="clip0_8077_15868">
<rect width="105.336" height="105.336" fill="white" transform="translate(188.705 2.52368) rotate(17.3157)"/>
</clipPath>
<clipPath id="clip1_8077_15868">
<rect width="66.3284" height="66.3284" fill="white" transform="translate(127.78 168.073) rotate(-18.7315)"/>
</clipPath>
</defs>
</svg>
