<svg width="1464" height="388" viewBox="0 0 1464 388" fill="none" xmlns="http://www.w3.org/2000/svg">
<path d="M87.1655 325.751C123.845 346.98 166.993 354.145 208.565 345.91C250.137 337.675 287.296 314.602 313.113 280.993C338.93 247.385 351.643 205.534 348.883 163.244C346.122 120.955 328.076 81.112 298.109 51.1449C268.142 21.1778 228.299 3.13169 186.009 0.371079C143.719 -2.38954 101.869 10.3238 68.2602 36.1407C34.6516 61.9577 11.579 99.1162 3.34402 140.688C-4.89097 182.26 2.27376 225.408 23.5024 262.088L0.747387 330.026C-0.107658 332.59 -0.231743 335.341 0.389036 337.972C1.00982 340.602 2.35093 343.008 4.26206 344.919C6.17319 346.83 8.57882 348.171 11.2093 348.792C13.8398 349.413 16.5912 349.289 19.1551 348.434L87.1655 325.751Z" fill="#5489A3"/>
<path d="M370.476 364.083C333.796 385.312 290.648 392.476 249.076 384.241C207.504 376.006 170.345 352.934 144.528 319.325C118.712 285.717 105.998 243.866 108.759 201.576C111.519 159.286 129.566 119.444 159.533 89.4767C189.5 59.5096 229.342 41.4635 271.632 38.7029C313.922 35.9423 355.773 48.6556 389.381 74.4725C422.99 100.289 446.062 137.448 454.297 179.02C462.532 220.592 455.368 263.74 434.139 300.42L456.894 368.358C457.749 370.922 457.873 373.673 457.252 376.303C456.632 378.934 455.29 381.34 453.379 383.251C451.468 385.162 449.063 386.503 446.432 387.124C443.802 387.744 441.05 387.62 438.486 386.765L370.476 364.083Z" fill="#E79450"/>
<path fill-rule="evenodd" clip-rule="evenodd" d="M283.804 38.3332C279.756 38.3149 275.697 38.4372 271.633 38.7025C229.344 41.4631 189.501 59.5092 159.534 89.4763C129.567 119.443 111.521 159.286 108.76 201.576C105.999 243.866 118.713 285.716 144.53 319.325C153.127 330.517 162.982 340.54 173.838 349.236C185.421 349.289 197.053 348.19 208.565 345.909C250.137 337.674 287.296 314.602 313.113 280.993C338.929 247.385 351.643 205.534 348.882 163.244C346.122 120.954 328.075 81.1116 298.108 51.1445C293.559 46.5955 288.783 42.3211 283.804 38.3332Z" fill="#1C2745"/>
<path d="M1379.68 188.921C1368.35 188.921 1358.94 183.551 1351.44 172.812C1343.93 162.072 1340.18 146.404 1340.18 125.807C1340.18 104.917 1344.01 89.1752 1351.66 78.5827C1359.45 67.8431 1369.46 62.4733 1381.67 62.4733C1386.52 62.4733 1390.72 63.2824 1394.25 64.9007C1397.78 66.3719 1400.79 68.5051 1403.29 71.3004C1405.94 73.9485 1408.22 76.9644 1410.14 80.3481H1410.8C1410.21 77.2586 1409.77 72.9922 1409.47 67.5489C1409.33 62.1055 1409.25 56.8093 1409.25 51.6601V19H1454.05V186.714H1420.73L1410.8 171.267H1409.25C1407.49 174.503 1405.28 177.446 1402.63 180.094C1399.98 182.742 1396.75 184.875 1392.92 186.494C1389.24 188.112 1384.83 188.921 1379.68 188.921ZM1398.88 155.599C1404.03 155.599 1407.71 153.466 1409.91 149.199C1412.12 144.933 1413.22 138.386 1413.22 129.559V126.249C1413.22 116.686 1412.19 109.33 1410.14 104.181C1408.08 99.0321 1404.18 96.4575 1398.44 96.4575C1394.76 96.4575 1391.6 98.8849 1388.95 103.74C1386.45 108.595 1385.2 116.171 1385.2 126.47C1385.2 136.621 1386.52 144.05 1389.17 148.758C1391.82 153.319 1395.06 155.599 1398.88 155.599Z" fill="#1C2745"/>
<path d="M1271.84 62.4733C1283.31 62.4733 1293.24 64.5329 1301.63 68.6522C1310.01 72.7715 1316.41 78.9504 1320.83 87.189C1325.39 95.4276 1327.67 105.799 1327.67 118.304V137.062H1258.37C1258.67 143.388 1260.65 148.611 1264.33 152.73C1268.16 156.849 1273.9 158.909 1281.55 158.909C1288.75 158.909 1295.3 158.173 1301.19 156.702C1307.22 155.231 1313.4 152.877 1319.72 149.641V179.873C1314.28 182.963 1308.1 185.243 1301.19 186.714C1294.42 188.185 1285.66 188.921 1274.92 188.921C1263.3 188.921 1252.86 186.788 1243.59 182.521C1234.32 178.108 1226.96 171.267 1221.52 161.998C1216.08 152.73 1213.36 140.887 1213.36 126.469C1213.36 111.758 1215.78 99.6941 1220.64 90.2785C1225.64 80.863 1232.48 73.8749 1241.16 69.3142C1249.99 64.7536 1260.21 62.4733 1271.84 62.4733ZM1273.82 91.1612C1269.85 91.1612 1266.54 92.706 1263.89 95.7954C1261.24 98.8849 1259.7 103.813 1259.26 110.581H1287.94C1287.94 106.903 1287.36 103.666 1286.18 100.871C1285 97.9286 1283.38 95.5748 1281.32 93.8093C1279.26 92.0439 1276.76 91.1612 1273.82 91.1612Z" fill="#1C2745"/>
<path d="M1123.68 62.4733C1132.36 62.4733 1138.98 64.1651 1143.54 67.5488C1148.25 70.7854 1151.78 74.8312 1154.14 79.686H1155.02L1158.11 64.68H1196.95V186.935C1196.95 198.41 1194.67 208.046 1190.11 215.844C1185.55 223.641 1178.56 229.525 1169.14 233.498C1159.87 237.617 1147.88 239.677 1133.17 239.677C1123.32 239.677 1114.78 239.162 1107.57 238.132C1100.37 237.102 1093.52 235.263 1087.05 232.615V197.527C1091.76 199.587 1096.03 201.279 1099.85 202.603C1103.68 204.074 1107.79 205.104 1112.21 205.692C1116.62 206.428 1122.07 206.796 1128.54 206.796C1136.63 206.796 1142.59 205.251 1146.41 202.162C1150.39 199.072 1152.37 194.585 1152.37 188.7V186.494C1152.37 184.581 1152.45 182.301 1152.59 179.653C1152.89 177.004 1153.33 174.209 1153.92 171.267H1152.37C1150.46 176.122 1147.22 180.315 1142.66 183.845C1138.25 187.229 1131.78 188.921 1123.24 188.921C1111.62 188.921 1101.98 183.551 1094.33 172.812C1086.83 162.072 1083.08 146.404 1083.08 125.807C1083.08 111.978 1084.84 100.43 1088.38 91.1612C1091.91 81.7457 1096.76 74.6105 1102.94 69.7556C1109.12 64.9007 1116.03 62.4733 1123.68 62.4733ZM1141.56 95.1334C1138.62 95.1334 1136.12 96.3104 1134.06 98.6642C1132.14 101.018 1130.67 104.549 1129.64 109.257C1128.76 113.817 1128.32 119.555 1128.32 126.469C1128.32 137.062 1129.42 144.712 1131.63 149.42C1133.98 153.981 1137.51 156.261 1142.22 156.261C1145.02 156.261 1147.3 155.746 1149.06 154.716C1150.97 153.539 1152.45 151.921 1153.47 149.861C1154.5 147.654 1155.17 144.933 1155.46 141.696C1155.9 138.46 1156.12 134.635 1156.12 130.221V125.145C1156.12 118.819 1155.76 113.45 1155.02 109.036C1154.43 104.475 1153.11 101.018 1151.05 98.6642C1148.99 96.3104 1145.82 95.1334 1141.56 95.1334Z" fill="#1C2745"/>
<path d="M1021.35 62.4733C1035.62 62.4733 1046.8 66.2983 1054.9 73.9484C1063.13 81.5986 1067.25 92.4853 1067.25 106.609V186.714H1036.58L1027.97 170.605H1027.09C1023.85 174.871 1020.54 178.402 1017.16 181.197C1013.78 183.845 1009.88 185.758 1005.46 186.935C1001.05 188.259 995.681 188.921 989.355 188.921C982.734 188.921 976.776 187.523 971.48 184.728C966.184 181.786 961.991 177.446 958.901 171.708C955.959 165.823 954.488 158.394 954.488 149.42C954.488 136.326 958.754 126.617 967.287 120.291C975.82 113.817 987.957 110.287 1003.7 109.698L1022.46 109.036V107.271C1022.46 101.827 1021.35 98.0022 1019.15 95.7954C1017.09 93.4416 1014.22 92.2646 1010.54 92.2646C1006.57 92.2646 1001.71 93.1473 995.975 94.9127C990.237 96.531 984.5 98.6642 978.762 101.312L966.625 73.5071C973.687 69.8292 981.631 67.1075 990.458 65.3421C999.432 63.4295 1009.73 62.4733 1021.35 62.4733ZM1015.39 132.648C1009.66 132.943 1005.54 134.34 1003.04 136.841C1000.68 139.195 999.506 142.579 999.506 146.992C999.506 151.112 1000.39 154.201 1002.15 156.261C1003.92 158.173 1006.2 159.13 1008.99 159.13C1012.67 159.13 1015.91 157.511 1018.7 154.275C1021.5 151.038 1022.9 146.845 1022.9 141.696V132.207L1015.39 132.648Z" fill="#1C2745"/>
<path d="M866.363 62.4733C875.043 62.4733 881.663 64.1651 886.223 67.5488C890.931 70.7854 894.462 74.8312 896.816 79.686H897.699L900.788 64.68H939.627V186.935C939.627 198.41 937.347 208.046 932.786 215.844C928.226 223.641 921.238 229.525 911.822 233.498C902.554 237.617 890.563 239.677 875.852 239.677C865.995 239.677 857.462 239.162 850.253 238.132C843.044 237.102 836.203 235.263 829.73 232.615V197.527C834.438 199.587 838.704 201.279 842.529 202.603C846.355 204.074 850.474 205.104 854.887 205.692C859.301 206.428 864.744 206.796 871.217 206.796C879.309 206.796 885.267 205.251 889.092 202.162C893.064 199.072 895.051 194.585 895.051 188.7V186.494C895.051 184.581 895.124 182.301 895.271 179.653C895.565 177.004 896.007 174.209 896.595 171.267H895.051C893.138 176.122 889.901 180.315 885.341 183.845C880.927 187.229 874.454 188.921 865.921 188.921C854.299 188.921 844.663 183.551 837.013 172.812C829.51 162.072 825.758 146.404 825.758 125.807C825.758 111.978 827.523 100.43 831.054 91.1612C834.585 81.7457 839.44 74.6105 845.619 69.7556C851.798 64.9007 858.712 62.4733 866.363 62.4733ZM884.237 95.1334C881.295 95.1334 878.794 96.3104 876.734 98.6642C874.822 101.018 873.351 104.549 872.321 109.257C871.438 113.817 870.997 119.555 870.997 126.469C870.997 137.062 872.1 144.712 874.307 149.42C876.661 153.981 880.192 156.261 884.899 156.261C887.695 156.261 889.975 155.746 891.74 154.716C893.653 153.539 895.124 151.921 896.154 149.861C897.184 147.654 897.846 144.933 898.14 141.696C898.581 138.46 898.802 134.635 898.802 130.221V125.145C898.802 118.819 898.434 113.45 897.699 109.036C897.11 104.475 895.786 101.018 893.726 98.6642C891.667 96.3104 888.504 95.1334 884.237 95.1334Z" fill="#1C2745"/>
<path d="M769.547 62.4733C781.317 62.4733 790.953 66.0041 798.456 73.0657C806.106 80.1274 809.931 91.529 809.931 107.271V186.714H765.354V120.07C765.354 111.978 764.472 105.873 762.706 101.754C760.941 97.6344 757.999 95.5748 753.879 95.5748C747.553 95.5748 743.36 98.8114 741.301 105.285C739.241 111.758 738.211 121.1 738.211 133.31V186.714H693.635V64.68H726.957L733.136 80.7894H734.46C736.961 76.9644 739.829 73.7278 743.066 71.0797C746.303 68.2844 750.054 66.1512 754.321 64.68C758.734 63.2089 763.81 62.4733 769.547 62.4733Z" fill="#1C2745"/>
<path d="M677.137 186.714H587.763V29.1511H677.137V63.356H632.781V88.0718H673.827V122.277H632.781V152.068H677.137V186.714Z" fill="#1C2745"/>
<path d="M1365.46 367.744L1393.7 282.301H1425.85L1454.24 367.744H1427.59L1423.25 351.814H1396.45L1392.11 367.744H1365.46ZM1414.12 316.623C1413.64 314.789 1413.11 312.858 1412.53 310.83C1412.05 308.803 1411.56 306.776 1411.08 304.748C1410.6 302.721 1410.16 300.79 1409.78 298.955C1409.49 300.79 1409.1 302.721 1408.62 304.748C1408.14 306.776 1407.65 308.803 1407.17 310.83C1406.69 312.858 1406.16 314.837 1405.58 316.768L1401.23 332.119H1418.61L1414.12 316.623Z" fill="#1C2745"/>
<path d="M1304.78 367.744V353.986L1315.65 349.497V300.838L1304.78 296.349V282.736H1351.56V296.349L1340.7 300.838V349.497L1351.56 353.986V367.744H1304.78Z" fill="#1C2745"/>
<path d="M1281.74 282.736V367.744H1248.87L1219.61 308.948H1219.03C1219.03 309.045 1219.08 309.865 1219.18 311.41C1219.28 312.858 1219.42 314.692 1219.61 316.913C1219.81 319.133 1219.95 321.499 1220.05 324.009C1220.14 326.519 1220.19 328.933 1220.19 331.25V367.744H1198.04V282.736H1230.91L1260.16 340.663H1260.45C1260.45 340.373 1260.4 339.504 1260.31 338.056C1260.21 336.608 1260.11 334.822 1260.02 332.698C1259.92 330.477 1259.82 328.209 1259.73 325.892C1259.63 323.575 1259.58 321.402 1259.58 319.375V282.736H1281.74Z" fill="#1C2745"/>
<path d="M1135.71 282.736C1147.49 282.736 1156.37 284.908 1162.36 289.253C1168.44 293.501 1171.48 299.969 1171.48 308.658C1171.48 313.968 1170.08 318.602 1167.28 322.561C1164.48 326.519 1160.53 329.56 1155.41 331.684L1179.74 367.744H1152.37L1135.13 338.056H1130.5V367.744H1105.45V282.736H1135.71ZM1134.56 319.664C1138.03 319.664 1140.88 318.989 1143.1 317.637C1145.32 316.189 1146.43 313.727 1146.43 310.251C1146.43 307.258 1145.51 304.99 1143.68 303.445C1141.94 301.9 1139.14 301.128 1135.28 301.128H1130.5V319.664H1134.56Z" fill="#1C2745"/>
<path d="M1080.11 325.167C1080.11 333.953 1078.66 341.628 1075.76 348.193C1072.96 354.758 1068.47 359.875 1062.29 363.544C1056.12 367.116 1048.05 368.902 1038.11 368.902C1028.36 368.902 1020.39 367.116 1014.21 363.544C1008.04 359.875 1003.45 354.758 1000.46 348.193C997.561 341.532 996.113 333.808 996.113 325.022C996.113 316.237 997.561 308.562 1000.46 301.996C1003.45 295.431 1008.04 290.363 1014.21 286.791C1020.49 283.122 1028.5 281.288 1038.25 281.288C1048.1 281.288 1056.12 283.122 1062.29 286.791C1068.47 290.363 1072.96 295.431 1075.76 301.996C1078.66 308.562 1080.11 316.285 1080.11 325.167ZM1022.32 325.167C1022.32 330.091 1022.86 334.339 1023.92 337.911C1024.98 341.387 1026.67 344.09 1028.99 346.021C1031.3 347.855 1034.34 348.772 1038.11 348.772C1041.97 348.772 1045.06 347.855 1047.38 346.021C1049.7 344.09 1051.34 341.338 1052.3 337.766C1053.36 334.194 1053.89 329.994 1053.89 325.167C1053.89 317.733 1052.74 311.892 1050.42 307.644C1048.2 303.3 1044.14 301.128 1038.25 301.128C1034.39 301.128 1031.3 302.093 1028.99 304.024C1026.67 305.955 1024.98 308.706 1023.92 312.278C1022.86 315.754 1022.32 320.05 1022.32 325.167Z" fill="#1C2745"/>
<path d="M923.248 282.736H974.223V301.707H947.867V317.347H972.051V336.318H947.867V367.744H923.248V282.736Z" fill="#1C2745"/>
<path d="M853.588 367.744V353.986L864.449 349.497V300.838L853.588 296.349V282.736H900.364V296.349L889.502 300.838V349.497L900.364 353.986V367.744H853.588Z" fill="#1C2745"/>
<path d="M803.005 282.736V348.193H835.01V367.744H777.952V282.736H803.005Z" fill="#1C2745"/>
<path d="M670.026 367.744L698.265 282.301H730.414L758.799 367.744H732.152L727.808 351.814H701.017L696.672 367.744H670.026ZM718.684 316.623C718.202 314.789 717.671 312.858 717.091 310.83C716.609 308.803 716.126 306.776 715.643 304.748C715.16 302.721 714.726 300.79 714.34 298.955C714.05 300.79 713.664 302.721 713.181 304.748C712.698 306.776 712.216 308.803 711.733 310.83C711.25 312.858 710.719 314.837 710.14 316.768L705.795 332.119H723.174L718.684 316.623Z" fill="#1C2745"/>
<path d="M630.629 301.272C626.961 301.272 623.823 302.238 621.216 304.169C618.61 306.003 616.63 308.755 615.279 312.423C614.024 315.995 613.396 320.388 613.396 325.602C613.396 333.422 614.844 339.311 617.741 343.269C620.637 347.228 625.319 349.207 631.788 349.207C635.457 349.207 639.029 348.724 642.504 347.759C646.076 346.793 649.745 345.442 653.51 343.704V364.123C649.552 365.764 645.594 366.971 641.635 367.743C637.677 368.516 633.477 368.902 629.036 368.902C619.285 368.902 611.369 367.068 605.286 363.399C599.204 359.73 594.763 354.662 591.963 348.193C589.163 341.628 587.763 334.049 587.763 325.457C587.763 316.864 589.356 309.286 592.542 302.721C595.728 296.059 600.459 290.845 606.734 287.08C613.106 283.315 621.023 281.432 630.485 281.432C635.022 281.432 639.463 281.963 643.808 283.025C648.249 283.991 652.738 285.439 657.276 287.37L649.6 306.341C646.511 304.893 643.422 303.686 640.332 302.721C637.339 301.755 634.105 301.272 630.629 301.272Z" fill="#1C2745"/>
</svg>
