<svg width="247" height="241" viewBox="0 0 247 241" fill="none" xmlns="http://www.w3.org/2000/svg">
<rect width="247" height="241" fill="#1c2745"/>
<g filter="url(#filter0_d_8053_11926)">
<rect x="122.694" width="134.04" height="134.04" rx="67.0198" transform="rotate(22 122.694 0)" fill="url(#paint0_linear_8053_11926)" shape-rendering="crispEdges"/>
<g clip-path="url(#clip0_8053_11926)">
<path d="M182.384 100.985C181.966 100.272 181.389 99.6664 180.698 99.2142C180.006 98.7621 179.22 98.476 178.4 98.3783L175.229 97.8738C183.451 95.1021 188.632 91.1813 190.65 86.1859C193.029 80.2972 190.232 73.5933 184.416 71.2435C182.667 70.5207 180.766 70.2459 178.884 70.4441C177.002 70.6424 175.2 71.3074 173.64 72.3787C173.262 70.5246 172.428 68.7941 171.212 67.3443C169.996 65.8945 168.437 64.7713 166.677 64.0765C160.861 61.7267 154.192 64.6059 151.813 70.4946C150.651 73.371 150.512 76.5873 151.392 80.4893C149.659 79.8631 147.753 79.9175 146.059 80.6414L137.945 84.0917L130.58 81.1162C129.808 80.8041 128.943 80.8117 128.176 81.1372C127.409 81.4628 126.803 82.0797 126.49 82.8522L122.568 92.5615C122.256 93.334 122.263 94.1989 122.589 94.9658C122.914 95.7328 123.531 96.339 124.304 96.6511L149.548 106.85C149.629 106.884 149.715 106.907 149.802 106.919L166.906 109.312C166.961 109.319 167.016 109.323 167.072 109.322L178.117 109.115L178.18 109.112C179.092 109.039 179.971 108.736 180.734 108.229C181.497 107.723 182.118 107.031 182.539 106.218C182.96 105.405 183.168 104.499 183.142 103.584C183.116 102.669 182.858 101.775 182.391 100.988L182.384 100.985ZM165.893 66.0184C167.599 66.683 169.068 67.8416 170.112 69.3459C171.156 70.8502 171.728 72.6317 171.754 74.4626C171.755 74.6702 171.818 74.8728 171.934 75.0446C172.051 75.2164 172.216 75.3497 172.408 75.4275C172.601 75.5053 172.812 75.5241 173.015 75.4815C173.219 75.4389 173.405 75.3369 173.55 75.1883C174.84 73.8893 176.489 73.0048 178.285 72.648C180.081 72.2912 181.943 72.4783 183.632 73.1854C188.297 75.0703 190.622 80.6656 188.708 85.4013C186.622 90.5643 180.478 94.4997 170.441 97.111L165.323 96.2829C166.197 95.608 166.876 94.7126 167.289 93.6888C167.913 92.1438 167.898 90.414 167.247 88.8801C166.596 87.3462 165.362 86.1337 163.817 85.5095L153.79 81.4582C152.638 77.322 152.627 74.0706 153.755 71.2792C155.668 66.5434 161.227 64.1334 165.893 66.0184ZM124.51 93.3461L128.432 83.6367C128.536 83.3792 128.738 83.1736 128.994 83.0651C129.25 82.9566 129.538 82.954 129.796 83.0581L136.592 85.8041L131.885 97.4553L125.088 94.7093C124.831 94.6052 124.625 94.4032 124.517 94.1475C124.408 93.8919 124.405 93.6036 124.51 93.3461ZM178.035 107.018L167.106 107.224L150.213 104.861L133.827 98.2398L138.763 86.0206L146.875 82.5777C147.507 82.307 148.187 82.1644 148.874 82.1583C149.562 82.1522 150.244 82.2826 150.882 82.542L163.033 87.4514C164.063 87.8675 164.885 88.6758 165.319 89.6984C165.753 90.721 165.763 91.8742 165.347 92.9042C164.931 93.9343 164.123 94.7568 163.1 95.1909C162.078 95.6249 160.925 95.635 159.894 95.2188L153.098 92.4729C152.84 92.3688 152.552 92.3713 152.296 92.4799C152.041 92.5884 151.839 92.794 151.735 93.0515C151.631 93.309 151.633 93.5973 151.742 93.853C151.85 94.1086 152.056 94.3107 152.313 94.4147L160.081 97.553C160.154 97.583 160.231 97.6045 160.309 97.617L178.083 100.447L178.122 100.463C178.929 100.564 179.67 100.96 180.203 101.574C180.736 102.188 181.023 102.977 181.01 103.79C180.997 104.603 180.683 105.383 180.13 105.979C179.577 106.575 178.824 106.946 178.014 107.021L178.035 107.018Z" fill="#1C2745"/>
</g>
</g>
<g filter="url(#filter1_d_8053_11926)">
<rect x="107.952" y="137.591" width="94.188" height="94.188" rx="47.094" fill="#FFF4EB" shape-rendering="crispEdges"/>
<rect x="107.952" y="137.591" width="94.188" height="94.188" rx="47.094" fill="url(#paint1_linear_8053_11926)" shape-rendering="crispEdges"/>
<path d="M175.649 200.138H171.97V184.379L173.657 186.066C173.795 186.204 173.982 186.282 174.177 186.282C174.373 186.282 174.56 186.204 174.698 186.066C174.836 185.928 174.914 185.741 174.914 185.546C174.914 185.35 174.836 185.163 174.698 185.025L156.607 166.934C156.402 166.729 156.159 166.565 155.89 166.454C155.622 166.343 155.334 166.285 155.044 166.285C154.753 166.285 154.465 166.343 154.197 166.454C153.929 166.565 153.685 166.729 153.48 166.934L135.393 185.025C135.325 185.094 135.27 185.175 135.233 185.264C135.196 185.353 135.177 185.449 135.177 185.546C135.177 185.642 135.196 185.738 135.233 185.828C135.27 185.917 135.325 185.998 135.393 186.066C135.461 186.135 135.543 186.189 135.632 186.226C135.721 186.263 135.817 186.282 135.914 186.282C136.01 186.282 136.106 186.263 136.195 186.226C136.285 186.189 136.366 186.135 136.434 186.066L138.121 184.379V200.138H134.442C134.247 200.138 134.06 200.215 133.922 200.353C133.784 200.491 133.706 200.678 133.706 200.873C133.706 201.069 133.784 201.256 133.922 201.394C134.06 201.532 134.247 201.609 134.442 201.609H175.649C175.844 201.609 176.031 201.532 176.169 201.394C176.307 201.256 176.385 201.069 176.385 200.873C176.385 200.678 176.307 200.491 176.169 200.353C176.031 200.215 175.844 200.138 175.649 200.138ZM139.593 182.908L154.525 167.976C154.593 167.907 154.674 167.853 154.764 167.816C154.853 167.779 154.949 167.76 155.046 167.76C155.142 167.76 155.238 167.779 155.327 167.816C155.417 167.853 155.498 167.907 155.566 167.976L170.498 182.908V200.138H160.196V189.1C160.196 188.905 160.119 188.718 159.981 188.58C159.843 188.442 159.656 188.364 159.461 188.364H150.63C150.435 188.364 150.248 188.442 150.11 188.58C149.972 188.718 149.895 188.905 149.895 189.1V200.138H139.593V182.908ZM158.725 200.138H151.366V189.836H158.725V200.138Z" fill="#1C2745"/>
</g>
<g filter="url(#filter2_d_8053_11926)">
<rect y="121.486" width="115.971" height="115.971" rx="57.9857" transform="rotate(-22 0 121.486)" fill="url(#paint2_linear_8053_11926)" shape-rendering="crispEdges"/>
<g clip-path="url(#clip1_8053_11926)">
<path d="M99.673 140.533L79.7454 131.994C74.6543 129.842 68.9172 129.799 63.794 131.873C58.6708 133.948 54.5803 137.971 52.4207 143.059L50.7299 147.206C50.6825 147.317 50.6578 147.436 50.657 147.556C50.6562 147.677 50.6795 147.796 50.7254 147.907C50.7713 148.019 50.839 148.12 50.9244 148.205C51.0099 148.29 51.1114 148.357 51.223 148.402C51.3347 148.447 51.4542 148.47 51.5747 148.468C51.6951 148.466 51.8141 148.441 51.9245 148.393C52.035 148.345 52.1347 148.275 52.2179 148.188C52.3012 148.101 52.3662 147.998 52.4092 147.886L54.0895 143.743C54.9039 141.819 56.0305 140.043 57.4236 138.487L72.583 144.929L60.2124 174.068C60.072 174.397 59.998 174.751 59.9946 175.108C59.9911 175.466 60.0584 175.821 60.1924 176.153C60.3264 176.484 60.5246 176.786 60.7755 177.041C61.0265 177.296 61.3253 177.499 61.6548 177.638L67.753 180.222C68.0821 180.362 68.4356 180.436 68.7933 180.439C69.1511 180.443 69.5059 180.376 69.8376 180.242C70.1693 180.108 70.4713 179.909 70.7262 179.658C70.9812 179.407 71.1841 179.109 71.3233 178.779L83.6851 149.636L88.7487 151.787L93.956 153.998C94.2851 154.138 94.6386 154.212 94.9963 154.215C95.354 154.219 95.7089 154.152 96.0406 154.018C96.3723 153.884 96.6743 153.685 96.9292 153.434C97.1842 153.183 97.387 152.885 97.5262 152.555L101.117 144.095C101.398 143.432 101.404 142.683 101.133 142.015C100.862 141.347 100.337 140.814 99.673 140.533ZM69.6451 178.072C69.5986 178.182 69.531 178.281 69.4461 178.364C69.3612 178.448 69.2607 178.514 69.1503 178.558C69.0399 178.603 68.9218 178.625 68.8027 178.624C68.6837 178.623 68.566 178.599 68.4564 178.552L62.3616 175.965C62.2519 175.919 62.1525 175.851 62.0691 175.766C61.9856 175.681 61.9197 175.581 61.8751 175.47C61.8305 175.36 61.8081 175.242 61.8091 175.123C61.8102 175.004 61.8347 174.886 61.8813 174.776L70.7449 153.887L78.5141 157.19L69.6451 178.072ZM82.3712 148.095L79.2209 155.517L71.4537 152.225L74.6036 144.796C74.6502 144.687 74.6747 144.569 74.6758 144.45C74.6769 144.331 74.6545 144.213 74.6099 144.102C74.5653 143.992 74.4993 143.892 74.4159 143.807C74.3324 143.722 74.233 143.654 74.1234 143.608L58.7904 137.099C61.4829 134.654 64.8191 133.031 68.4048 132.421C71.9905 131.811 75.6758 132.24 79.0252 133.658L92.9135 139.614L88.6227 149.764L83.5599 147.615C83.4503 147.568 83.3326 147.544 83.2135 147.543C83.0945 147.542 82.9764 147.564 82.866 147.609C82.7556 147.653 82.6551 147.719 82.5702 147.803C82.4853 147.886 82.4176 147.986 82.3712 148.095ZM99.4445 143.396L95.8557 151.855C95.8092 151.964 95.7416 152.064 95.6567 152.147C95.5718 152.231 95.4713 152.297 95.3609 152.341C95.2505 152.386 95.1324 152.408 95.0133 152.407C94.8942 152.406 94.7766 152.381 94.667 152.335L90.2933 150.477L94.5968 140.334L98.9634 142.205C99.1834 142.299 99.3573 142.477 99.4469 142.699C99.5366 142.921 99.5348 143.169 99.4419 143.39L99.4445 143.396Z" fill="#FFF4EB"/>
</g>
</g>
<defs>
<filter id="filter0_d_8053_11926" x="67.4824" y="0" width="184.491" height="184.491" filterUnits="userSpaceOnUse" color-interpolation-filters="sRGB">
<feFlood flood-opacity="0" result="BackgroundImageFix"/>
<feColorMatrix in="SourceAlpha" type="matrix" values="0 0 0 0 0 0 0 0 0 0 0 0 0 0 0 0 0 0 127 0" result="hardAlpha"/>
<feOffset dy="5"/>
<feGaussianBlur stdDeviation="2.5"/>
<feComposite in2="hardAlpha" operator="out"/>
<feColorMatrix type="matrix" values="0 0 0 0 0 0 0 0 0 0 0 0 0 0 0 0 0 0 0.13 0"/>
<feBlend mode="normal" in2="BackgroundImageFix" result="effect1_dropShadow_8053_11926"/>
<feBlend mode="normal" in="SourceGraphic" in2="effect1_dropShadow_8053_11926" result="shape"/>
</filter>
<filter id="filter1_d_8053_11926" x="103.686" y="137.591" width="102.721" height="102.721" filterUnits="userSpaceOnUse" color-interpolation-filters="sRGB">
<feFlood flood-opacity="0" result="BackgroundImageFix"/>
<feColorMatrix in="SourceAlpha" type="matrix" values="0 0 0 0 0 0 0 0 0 0 0 0 0 0 0 0 0 0 127 0" result="hardAlpha"/>
<feOffset dy="4.26664"/>
<feGaussianBlur stdDeviation="2.13332"/>
<feComposite in2="hardAlpha" operator="out"/>
<feColorMatrix type="matrix" values="0 0 0 0 0 0 0 0 0 0 0 0 0 0 0 0 0 0 0.13 0"/>
<feBlend mode="normal" in2="BackgroundImageFix" result="effect1_dropShadow_8053_11926"/>
<feBlend mode="normal" in="SourceGraphic" in2="effect1_dropShadow_8053_11926" result="shape"/>
</filter>
<filter id="filter2_d_8053_11926" x="-4.32601" y="78.0425" width="159.623" height="159.622" filterUnits="userSpaceOnUse" color-interpolation-filters="sRGB">
<feFlood flood-opacity="0" result="BackgroundImageFix"/>
<feColorMatrix in="SourceAlpha" type="matrix" values="0 0 0 0 0 0 0 0 0 0 0 0 0 0 0 0 0 0 127 0" result="hardAlpha"/>
<feOffset dy="4.32601"/>
<feGaussianBlur stdDeviation="2.16301"/>
<feComposite in2="hardAlpha" operator="out"/>
<feColorMatrix type="matrix" values="0 0 0 0 0 0 0 0 0 0 0 0 0 0 0 0 0 0 0.08 0"/>
<feBlend mode="normal" in2="BackgroundImageFix" result="effect1_dropShadow_8053_11926"/>
<feBlend mode="normal" in="SourceGraphic" in2="effect1_dropShadow_8053_11926" result="shape"/>
</filter>
<linearGradient id="paint0_linear_8053_11926" x1="189.714" y1="0" x2="189.714" y2="134.04" gradientUnits="userSpaceOnUse">
<stop stop-color="#E79450"/>
<stop offset="1" stop-color="#C58853"/>
</linearGradient>
<linearGradient id="paint1_linear_8053_11926" x1="155.046" y1="137.591" x2="155.046" y2="231.779" gradientUnits="userSpaceOnUse">
<stop stop-color="#F9DED6" stop-opacity="0"/>
<stop offset="1" stop-color="#F9DED6"/>
</linearGradient>
<linearGradient id="paint2_linear_8053_11926" x1="57.9857" y1="121.486" x2="57.9857" y2="237.457" gradientUnits="userSpaceOnUse">
<stop stop-color="#5489A3"/>
<stop offset="1" stop-color="#577B91"/>
</linearGradient>
<clipPath id="clip0_8053_11926">
<rect width="67.0198" height="67.0198" fill="white" transform="translate(141.211 43.6228) rotate(22)"/>
</clipPath>
<clipPath id="clip1_8053_11926">
<rect width="57.9857" height="57.9857" fill="white" transform="translate(37.7432 137.507) rotate(-22)"/>
</clipPath>
</defs>
</svg>
