<svg width="223" height="210" viewBox="0 0 223 210" fill="none" xmlns="http://www.w3.org/2000/svg">
<g filter="url(#filter0_d_7297_3268)">
<rect width="113.565" height="113.564" rx="56.7819" transform="matrix(0.927185 0.374604 -0.37461 0.927183 117.703 0.0947266)" fill="url(#paint0_linear_7297_3268)" shape-rendering="crispEdges"/>
<g clip-path="url(#clip0_7297_3268)">
<path d="M168.275 85.6529C167.921 85.0494 167.432 84.536 166.846 84.1529C166.261 83.7698 165.594 83.5274 164.899 83.4447L162.213 83.0173C169.179 80.669 173.569 77.3471 175.279 73.1148C177.294 68.1256 174.924 62.4458 169.997 60.455C168.515 59.8426 166.904 59.6098 165.31 59.7778C163.715 59.9457 162.188 60.5091 160.867 61.4168C160.547 59.8459 159.84 58.3798 158.809 57.1515C157.779 55.9231 156.459 54.9715 154.967 54.3828C150.04 52.392 144.39 54.8314 142.374 59.8205C141.389 62.2575 141.271 64.9825 142.017 68.2884C140.549 67.7579 138.934 67.8039 137.499 68.4173L130.624 71.3405L124.384 68.8196C123.73 68.5551 122.997 68.5615 122.347 68.8373C121.697 69.1132 121.184 69.6358 120.919 70.2903L117.596 78.5165C117.331 79.171 117.338 79.9037 117.614 80.5535C117.889 81.2033 118.412 81.7169 119.067 81.9814L140.455 90.6226C140.524 90.6511 140.596 90.6708 140.67 90.6811L155.162 92.7083C155.208 92.7144 155.255 92.7173 155.302 92.717L164.66 92.5411L164.713 92.5388C165.486 92.4771 166.231 92.2197 166.877 91.7908C167.523 91.3618 168.05 90.7754 168.407 90.0868C168.763 89.3983 168.939 88.6302 168.917 87.8549C168.895 87.0796 168.676 86.3227 168.281 85.6554L168.275 85.6529ZM154.303 56.0281C155.748 56.5912 156.993 57.5728 157.878 58.8473C158.762 60.1217 159.246 61.6311 159.268 63.1824C159.269 63.3583 159.323 63.5299 159.421 63.6755C159.52 63.821 159.66 63.9339 159.823 63.9998C159.986 64.0657 160.165 64.0817 160.338 64.0456C160.51 64.0095 160.667 63.9231 160.79 63.7972C161.884 62.6966 163.28 61.9472 164.802 61.6449C166.324 61.3426 167.901 61.5011 169.332 62.1002C173.285 63.6972 175.254 68.4378 173.633 72.4501C171.866 76.8243 166.66 80.1586 158.156 82.371L153.821 81.6693C154.561 81.0975 155.136 80.339 155.486 79.4716C156.015 78.1625 156.002 76.697 155.45 75.3974C154.899 74.0978 153.853 73.0706 152.544 72.5417L144.049 69.1093C143.072 65.6049 143.063 62.8502 144.019 60.4852C145.64 56.4729 150.35 54.4311 154.303 56.0281ZM119.241 79.1812L122.565 70.955C122.653 70.7369 122.824 70.5627 123.041 70.4707C123.257 70.3788 123.501 70.3766 123.72 70.4648L129.478 72.7913L125.49 82.6626L119.731 80.3361C119.513 80.248 119.339 80.0768 119.247 79.8602C119.155 79.6436 119.153 79.3993 119.241 79.1812ZM164.59 90.7644L155.331 90.9395L141.019 88.9367L127.135 83.3274L131.318 72.9748L138.19 70.0578C138.725 69.8284 139.301 69.7076 139.884 69.7024C140.467 69.6973 141.045 69.8077 141.585 70.0275L151.88 74.187C152.752 74.5395 153.449 75.2244 153.817 76.0908C154.185 76.9572 154.193 77.9342 153.841 78.8068C153.488 79.6795 152.803 80.3764 151.937 80.7442C151.071 81.1119 150.094 81.1204 149.221 80.7679L143.462 78.4414C143.244 78.3532 143 78.3553 142.783 78.4473C142.567 78.5392 142.396 78.7134 142.307 78.9316C142.219 79.1498 142.221 79.394 142.313 79.6106C142.405 79.8272 142.58 79.9984 142.798 80.0866L149.379 82.7454C149.441 82.7709 149.506 82.7891 149.572 82.7997L164.631 85.1975L164.664 85.2108C165.348 85.2966 165.976 85.6318 166.427 86.1521C166.879 86.6724 167.122 87.3411 167.111 88.03C167.099 88.7188 166.834 89.3791 166.366 89.8843C165.897 90.3894 165.259 90.7037 164.573 90.7668L164.59 90.7644Z" fill="#1C2745"/>
</g>
</g>
<g filter="url(#filter1_d_7297_3268)">
<rect width="113.565" height="113.564" rx="56.7819" transform="matrix(0.927185 -0.374604 0.37461 0.927183 0.847656 104.15)" fill="url(#paint1_linear_7297_3268)" shape-rendering="crispEdges"/>
<g clip-path="url(#clip1_7297_3268)">
<path d="M86.7998 112.525L70.5809 114.03L76.982 106.782C77.0592 106.694 77.1183 106.593 77.1562 106.482C77.194 106.372 77.2097 106.255 77.2025 106.139C77.1952 106.023 77.1651 105.909 77.1139 105.804C77.0627 105.699 76.9913 105.606 76.9039 105.529C76.8165 105.451 76.7148 105.392 76.6045 105.354C76.4942 105.317 76.3776 105.301 76.2612 105.308C76.1448 105.315 76.0311 105.345 75.9263 105.397C75.8216 105.448 75.728 105.519 75.6508 105.607L67.897 114.38C63.812 116.098 60.5667 119.354 58.8623 123.444C57.1578 127.535 57.1311 132.132 58.7877 136.242L67.4291 157.63C67.5172 157.848 67.6884 158.022 67.905 158.114C68.1216 158.206 68.3659 158.208 68.5841 158.12C68.8022 158.032 68.9765 157.86 69.0684 157.644C69.1603 157.427 69.1625 157.183 69.0743 156.965L66.0831 149.561L71.0188 147.567L76.0042 159.906C76.2686 160.561 76.7823 161.084 77.4321 161.359C78.0819 161.635 78.8146 161.642 79.4691 161.377L92.6311 156.059C93.2856 155.795 93.8082 155.281 94.0841 154.632C94.3599 153.982 94.3663 153.249 94.1018 152.595L83.4663 126.271C82.5515 124.016 80.8281 122.183 78.6335 121.132C76.4388 120.08 73.9308 119.885 71.6 120.585L69.7047 115.894L86.9633 114.292C87.0495 114.284 87.134 114.264 87.2139 114.231C87.4112 114.151 87.5732 114.003 87.6703 113.814C87.7674 113.624 87.7932 113.406 87.743 113.199C87.6928 112.993 87.5699 112.811 87.3968 112.687C87.2236 112.563 87.0118 112.506 86.7998 112.525ZM65.4184 147.916L60.433 135.577C58.9972 132.01 58.9761 128.03 60.374 124.448C61.7718 120.867 64.4834 117.953 67.9556 116.302L69.9547 121.25C67.7919 122.365 66.1232 124.248 65.275 126.529C64.4268 128.81 64.4602 131.325 65.3687 133.583L70.3541 145.922L65.4184 147.916ZM91.9663 154.414L78.8044 159.732C78.5863 159.82 78.342 159.818 78.1254 159.726C77.9088 159.634 77.7376 159.46 77.6494 159.242L72.664 146.902L87.4712 140.92L92.4566 153.259C92.5447 153.477 92.5426 153.722 92.4507 153.938C92.3587 154.155 92.1845 154.326 91.9663 154.414ZM81.8211 126.936L86.8065 139.275L71.9993 145.257L67.0139 132.918C66.2206 130.955 66.2398 128.756 67.0673 126.807C67.8947 124.857 69.4627 123.317 71.4263 122.523C73.3898 121.73 75.5881 121.749 77.5375 122.577C79.4869 123.404 81.0278 124.972 81.8211 126.936Z" fill="#FFF4EB"/>
</g>
</g>
<defs>
<filter id="filter0_d_7297_3268" x="71.1602" y="0.0947266" width="155.838" height="155.836" filterUnits="userSpaceOnUse" color-interpolation-filters="sRGB">
<feFlood flood-opacity="0" result="BackgroundImageFix"/>
<feColorMatrix in="SourceAlpha" type="matrix" values="0 0 0 0 0 0 0 0 0 0 0 0 0 0 0 0 0 0 127 0" result="hardAlpha"/>
<feOffset dy="4"/>
<feGaussianBlur stdDeviation="2"/>
<feComposite in2="hardAlpha" operator="out"/>
<feColorMatrix type="matrix" values="0 0 0 0 0 0 0 0 0 0 0 0 0 0 0 0 0 0 0.13 0"/>
<feBlend mode="normal" in2="BackgroundImageFix" result="effect1_dropShadow_7297_3268"/>
<feBlend mode="normal" in="SourceGraphic" in2="effect1_dropShadow_7297_3268" result="shape"/>
</filter>
<filter id="filter1_d_7297_3268" x="-3.15234" y="61.6084" width="155.838" height="155.836" filterUnits="userSpaceOnUse" color-interpolation-filters="sRGB">
<feFlood flood-opacity="0" result="BackgroundImageFix"/>
<feColorMatrix in="SourceAlpha" type="matrix" values="0 0 0 0 0 0 0 0 0 0 0 0 0 0 0 0 0 0 127 0" result="hardAlpha"/>
<feOffset dy="4"/>
<feGaussianBlur stdDeviation="2"/>
<feComposite in2="hardAlpha" operator="out"/>
<feColorMatrix type="matrix" values="0 0 0 0 0 0 0 0 0 0 0 0 0 0 0 0 0 0 0.08 0"/>
<feBlend mode="normal" in2="BackgroundImageFix" result="effect1_dropShadow_7297_3268"/>
<feBlend mode="normal" in="SourceGraphic" in2="effect1_dropShadow_7297_3268" result="shape"/>
</filter>
<linearGradient id="paint0_linear_7297_3268" x1="56.7823" y1="0" x2="56.7823" y2="113.564" gradientUnits="userSpaceOnUse">
<stop stop-color="#E79450"/>
<stop offset="1" stop-color="#C58853"/>
</linearGradient>
<linearGradient id="paint1_linear_7297_3268" x1="56.7823" y1="0" x2="56.7823" y2="113.564" gradientUnits="userSpaceOnUse">
<stop stop-color="#5489A3"/>
<stop offset="1" stop-color="#577B91"/>
</linearGradient>
<clipPath id="clip0_7297_3268">
<rect width="56.7823" height="56.7819" fill="white" transform="matrix(0.927185 0.374604 -0.37461 0.927183 133.391 37.0537)"/>
</clipPath>
<clipPath id="clip1_7297_3268">
<rect width="56.7823" height="56.7819" fill="white" transform="matrix(0.927185 -0.374604 0.37461 0.927183 37.8066 119.839)"/>
</clipPath>
</defs>
</svg>
