<svg width="143" height="158" viewBox="0 0 143 158" fill="none" xmlns="http://www.w3.org/2000/svg">
<g filter="url(#filter0_d_7231_1968)">
<rect x="87.7266" y="0.505859" width="84.9416" height="84.9416" rx="42.4708" transform="rotate(22 87.7266 0.505859)" fill="url(#paint0_linear_7231_1968)" shape-rendering="crispEdges"/>
<g clip-path="url(#clip0_7231_1968)">
<path d="M125.553 64.5003C125.289 64.0488 124.923 63.6649 124.485 63.3783C124.047 63.0918 123.548 62.9105 123.029 62.8486L121.02 62.5289C126.229 60.7725 129.513 58.2878 130.792 55.1222C132.299 51.3905 130.527 47.1422 126.841 45.6531C125.733 45.195 124.528 45.0209 123.336 45.1466C122.143 45.2722 121.001 45.6936 120.012 46.3725C119.773 45.1975 119.244 44.1009 118.474 43.1822C117.703 42.2634 116.715 41.5516 115.6 41.1113C111.914 39.6223 107.688 41.4468 106.18 45.1785C105.444 47.0013 105.356 49.0395 105.914 51.5122C104.815 51.1154 103.608 51.1499 102.534 51.6086L97.392 53.7951L92.7251 51.9095C92.2355 51.7117 91.6874 51.7165 91.2014 51.9228C90.7154 52.1291 90.3312 52.52 90.1334 53.0096L87.6475 59.1624C87.4497 59.652 87.4545 60.2001 87.6608 60.6861C87.8671 61.1721 88.258 61.5563 88.7476 61.7541L104.745 68.2174C104.797 68.2387 104.851 68.2534 104.906 68.2611L115.745 69.7774C115.78 69.782 115.815 69.7842 115.85 69.784L122.849 69.6523L122.889 69.6506C123.468 69.6045 124.025 69.412 124.508 69.0911C124.991 68.7703 125.385 68.3317 125.652 67.8167C125.919 67.3017 126.05 66.7271 126.034 66.1473C126.017 65.5674 125.854 65.0012 125.558 64.5021L125.553 64.5003ZM115.103 42.3419C116.184 42.7631 117.115 43.4973 117.777 44.4506C118.438 45.4039 118.8 46.5328 118.817 47.6931C118.818 47.8247 118.857 47.953 118.931 48.0619C119.005 48.1708 119.11 48.2552 119.232 48.3045C119.354 48.3538 119.488 48.3657 119.617 48.3387C119.745 48.3118 119.863 48.2471 119.955 48.153C120.773 47.3298 121.818 46.7692 122.956 46.5431C124.094 46.317 125.274 46.4356 126.344 46.8837C129.3 48.0782 130.774 51.624 129.561 54.625C128.239 57.8968 124.346 60.3907 117.985 62.0455L114.742 61.5207C115.296 61.093 115.726 60.5256 115.988 59.8768C116.383 58.8977 116.374 57.8016 115.961 56.8295C115.549 55.8575 114.767 55.0891 113.788 54.6936L107.433 52.1262C106.703 49.5051 106.696 47.4447 107.411 45.6757C108.623 42.6747 112.146 41.1474 115.103 42.3419ZM88.8781 59.6596L91.364 53.5068C91.4299 53.3436 91.558 53.2133 91.72 53.1445C91.882 53.0757 92.0647 53.0741 92.2279 53.1401L96.5349 54.8802L93.5518 62.2636L89.2448 60.5235C89.0816 60.4576 88.9513 60.3295 88.8825 60.1675C88.8138 60.0055 88.8122 59.8228 88.8781 59.6596ZM122.797 68.3234L115.872 68.4544L105.167 66.9564L94.7823 62.7608L97.9109 55.0175L103.051 52.8356C103.452 52.6641 103.882 52.5738 104.318 52.5699C104.754 52.566 105.186 52.6486 105.59 52.813L113.29 55.9241C113.943 56.1878 114.464 56.7001 114.739 57.3481C115.015 57.9961 115.021 58.7269 114.757 59.3796C114.493 60.0324 113.981 60.5536 113.333 60.8287C112.685 61.1037 111.954 61.1101 111.302 60.8464L106.995 59.1063C106.832 59.0403 106.649 59.0419 106.487 59.1107C106.325 59.1795 106.197 59.3098 106.131 59.473C106.065 59.6361 106.066 59.8188 106.135 59.9808C106.204 60.1429 106.334 60.2709 106.498 60.3368L111.42 62.3256C111.466 62.3446 111.515 62.3582 111.564 62.3661L122.828 64.1596L122.853 64.1696C123.364 64.2337 123.834 64.4844 124.171 64.8736C124.509 65.2628 124.691 65.763 124.683 66.2782C124.674 66.7934 124.476 67.2873 124.125 67.6651C123.775 68.043 123.297 68.278 122.784 68.3252L122.797 68.3234Z" fill="#1C2745"/>
</g>
</g>
<g filter="url(#filter1_d_7231_1968)">
<rect x="0.324219" y="78.3359" width="84.9416" height="84.9416" rx="42.4708" transform="rotate(-22 0.324219 78.3359)" fill="url(#paint1_linear_7231_1968)" shape-rendering="crispEdges"/>
<g clip-path="url(#clip1_7231_1968)">
<path d="M64.6141 84.5995L52.483 85.7253L57.2708 80.3036C57.3285 80.2382 57.3727 80.1621 57.401 80.0796C57.4293 79.9972 57.4411 79.9099 57.4357 79.8229C57.4302 79.7358 57.4077 79.6507 57.3694 79.5724C57.3311 79.4941 57.2777 79.424 57.2124 79.3663C57.147 79.3086 57.0709 79.2644 56.9884 79.2361C56.9059 79.2078 56.8187 79.196 56.7316 79.2014C56.6446 79.2068 56.5595 79.2294 56.4812 79.2677C56.4028 79.306 56.3328 79.3594 56.2751 79.4247L50.4756 85.9871C47.4202 87.2718 44.9928 89.707 43.718 92.7666C42.4431 95.8261 42.4231 99.2644 43.6622 102.339L50.1256 118.336C50.1915 118.499 50.3196 118.629 50.4816 118.698C50.6436 118.767 50.8263 118.769 50.9895 118.703C51.1526 118.637 51.2829 118.509 51.3517 118.347C51.4205 118.185 51.4221 118.002 51.3561 117.839L49.1188 112.301L52.8105 110.81L56.5394 120.039C56.7372 120.529 57.1214 120.919 57.6074 121.126C58.0934 121.332 58.6415 121.337 59.131 121.139L68.9756 117.162C69.4651 116.964 69.8561 116.58 70.0624 116.094C70.2687 115.608 70.2735 115.059 70.0757 114.57L62.1208 94.8808C61.4365 93.1941 60.1475 91.8234 58.506 91.0368C56.8645 90.2502 54.9886 90.1044 53.2452 90.6278L51.8276 87.1192L64.7364 85.9207C64.8008 85.9152 64.864 85.9 64.9238 85.8754C65.0713 85.8156 65.1925 85.7048 65.2651 85.5632C65.3378 85.4215 65.3571 85.2585 65.3195 85.1038C65.282 84.9491 65.1901 84.8131 65.0606 84.7205C64.9311 84.6279 64.7726 84.585 64.6141 84.5995ZM48.6216 111.071L44.8928 101.841C43.8189 99.1736 43.8031 96.1966 44.8487 93.5176C45.8942 90.8386 47.9223 88.6592 50.5194 87.4241L52.0146 91.125C50.397 91.9595 49.1488 93.3675 48.5144 95.0736C47.88 96.7798 47.905 98.6612 48.5845 100.35L52.3134 109.579L48.6216 111.071ZM68.4784 115.931L58.6338 119.908C58.4707 119.974 58.288 119.973 58.126 119.904C57.964 119.835 57.8359 119.705 57.77 119.542L54.0411 110.312L65.1162 105.838L68.8451 115.067C68.911 115.23 68.9094 115.413 68.8407 115.575C68.7719 115.737 68.6416 115.865 68.4784 115.931ZM60.8902 95.378L64.619 104.607L53.5439 109.082L49.8151 99.8527C49.2217 98.384 49.236 96.7398 49.8549 95.2817C50.4739 93.8236 51.6466 92.6711 53.1153 92.0778C54.5839 91.4844 56.2282 91.4987 57.6862 92.1177C59.1443 92.7366 60.2968 93.9094 60.8902 95.378Z" fill="#FFF4EB"/>
</g>
</g>
<defs>
<filter id="filter0_d_7231_1968" x="51.9062" y="0.505859" width="118.576" height="118.576" filterUnits="userSpaceOnUse" color-interpolation-filters="sRGB">
<feFlood flood-opacity="0" result="BackgroundImageFix"/>
<feColorMatrix in="SourceAlpha" type="matrix" values="0 0 0 0 0 0 0 0 0 0 0 0 0 0 0 0 0 0 127 0" result="hardAlpha"/>
<feOffset dy="4"/>
<feGaussianBlur stdDeviation="2"/>
<feComposite in2="hardAlpha" operator="out"/>
<feColorMatrix type="matrix" values="0 0 0 0 0 0 0 0 0 0 0 0 0 0 0 0 0 0 0.13 0"/>
<feBlend mode="normal" in2="BackgroundImageFix" result="effect1_dropShadow_7231_1968"/>
<feBlend mode="normal" in="SourceGraphic" in2="effect1_dropShadow_7231_1968" result="shape"/>
</filter>
<filter id="filter1_d_7231_1968" x="-3.67578" y="46.5166" width="118.576" height="118.576" filterUnits="userSpaceOnUse" color-interpolation-filters="sRGB">
<feFlood flood-opacity="0" result="BackgroundImageFix"/>
<feColorMatrix in="SourceAlpha" type="matrix" values="0 0 0 0 0 0 0 0 0 0 0 0 0 0 0 0 0 0 127 0" result="hardAlpha"/>
<feOffset dy="4"/>
<feGaussianBlur stdDeviation="2"/>
<feComposite in2="hardAlpha" operator="out"/>
<feColorMatrix type="matrix" values="0 0 0 0 0 0 0 0 0 0 0 0 0 0 0 0 0 0 0.08 0"/>
<feBlend mode="normal" in2="BackgroundImageFix" result="effect1_dropShadow_7231_1968"/>
<feBlend mode="normal" in="SourceGraphic" in2="effect1_dropShadow_7231_1968" result="shape"/>
</filter>
<linearGradient id="paint0_linear_7231_1968" x1="130.197" y1="0.505859" x2="130.197" y2="85.4474" gradientUnits="userSpaceOnUse">
<stop stop-color="#E79450"/>
<stop offset="1" stop-color="#C58853"/>
</linearGradient>
<linearGradient id="paint1_linear_7231_1968" x1="42.795" y1="78.3359" x2="42.795" y2="163.278" gradientUnits="userSpaceOnUse">
<stop stop-color="#5489A3"/>
<stop offset="1" stop-color="#577B91"/>
</linearGradient>
<clipPath id="clip0_7231_1968">
<rect width="42.4708" height="42.4708" fill="white" transform="translate(99.4609 28.1494) rotate(22)"/>
</clipPath>
<clipPath id="clip1_7231_1968">
<rect width="42.4708" height="42.4708" fill="white" transform="translate(27.9688 90.0703) rotate(-22)"/>
</clipPath>
</defs>
</svg>
