<svg width="247" height="241" viewBox="0 0 247 241" fill="none" xmlns="http://www.w3.org/2000/svg">
<g filter="url(#filter0_d_8053_11926)">
<rect x="122.694" width="134.04" height="134.04" rx="67.0198" transform="rotate(22 122.694 0)" fill="url(#paint0_linear_8053_11926)" shape-rendering="crispEdges"/>
<g clip-path="url(#clip0_8053_11926)">
<path d="M182.384 100.985C181.966 100.272 181.389 99.6664 180.698 99.2142C180.006 98.7621 179.22 98.476 178.4 98.3783L175.229 97.8738C183.451 95.1021 188.632 91.1813 190.65 86.1859C193.029 80.2972 190.232 73.5933 184.416 71.2435C182.667 70.5207 180.766 70.2459 178.884 70.4441C177.002 70.6424 175.2 71.3074 173.64 72.3787C173.262 70.5246 172.428 68.7941 171.212 67.3443C169.996 65.8945 168.437 64.7713 166.677 64.0765C160.861 61.7267 154.192 64.6059 151.813 70.4946C150.651 73.371 150.512 76.5873 151.392 80.4893C149.659 79.8631 147.753 79.9175 146.059 80.6414L137.945 84.0917L130.58 81.1162C129.808 80.8041 128.943 80.8117 128.176 81.1372C127.409 81.4628 126.803 82.0797 126.49 82.8522L122.568 92.5615C122.256 93.334 122.263 94.1989 122.589 94.9658C122.914 95.7328 123.531 96.339 124.304 96.6511L149.548 106.85C149.629 106.884 149.715 106.907 149.802 106.919L166.906 109.312C166.961 109.319 167.016 109.323 167.072 109.322L178.117 109.115L178.18 109.112C179.092 109.039 179.971 108.736 180.734 108.229C181.497 107.723 182.118 107.031 182.539 106.218C182.96 105.405 183.168 104.499 183.142 103.584C183.116 102.669 182.858 101.775 182.391 100.988L182.384 100.985ZM165.893 66.0184C167.599 66.683 169.068 67.8416 170.112 69.3459C171.156 70.8502 171.728 72.6317 171.754 74.4626C171.755 74.6702 171.818 74.8728 171.934 75.0446C172.051 75.2164 172.216 75.3497 172.408 75.4275C172.601 75.5053 172.812 75.5241 173.015 75.4815C173.219 75.4389 173.405 75.3369 173.55 75.1883C174.84 73.8893 176.489 73.0048 178.285 72.648C180.081 72.2912 181.943 72.4783 183.632 73.1854C188.297 75.0703 190.622 80.6656 188.708 85.4013C186.622 90.5643 180.478 94.4997 170.441 97.111L165.323 96.2829C166.197 95.608 166.876 94.7126 167.289 93.6888C167.913 92.1438 167.898 90.414 167.247 88.8801C166.596 87.3462 165.362 86.1337 163.817 85.5095L153.79 81.4582C152.638 77.322 152.627 74.0706 153.755 71.2792C155.668 66.5434 161.227 64.1334 165.893 66.0184ZM124.51 93.3461L128.432 83.6367C128.536 83.3792 128.738 83.1736 128.994 83.0651C129.25 82.9566 129.538 82.954 129.796 83.0581L136.592 85.8041L131.885 97.4553L125.088 94.7093C124.831 94.6052 124.625 94.4032 124.517 94.1475C124.408 93.8919 124.405 93.6036 124.51 93.3461ZM178.035 107.018L167.106 107.224L150.213 104.861L133.827 98.2398L138.763 86.0206L146.875 82.5777C147.507 82.307 148.187 82.1644 148.874 82.1583C149.562 82.1522 150.244 82.2826 150.882 82.542L163.033 87.4514C164.063 87.8675 164.885 88.6758 165.319 89.6984C165.753 90.721 165.763 91.8742 165.347 92.9042C164.931 93.9343 164.123 94.7568 163.1 95.1909C162.078 95.6249 160.925 95.635 159.894 95.2188L153.098 92.4729C152.84 92.3688 152.552 92.3713 152.296 92.4799C152.041 92.5884 151.839 92.794 151.735 93.0515C151.631 93.309 151.633 93.5973 151.742 93.853C151.85 94.1086 152.056 94.3107 152.313 94.4147L160.081 97.553C160.154 97.583 160.231 97.6045 160.309 97.617L178.083 100.447L178.122 100.463C178.929 100.564 179.67 100.96 180.203 101.574C180.736 102.188 181.023 102.977 181.01 103.79C180.997 104.603 180.683 105.383 180.13 105.979C179.577 106.575 178.824 106.946 178.014 107.021L178.035 107.018Z" fill="#1C2745"/>
</g>
</g>
<g filter="url(#filter1_d_8053_11926)">
<rect x="107.952" y="137.591" width="94.188" height="94.188" rx="47.094" fill="#FFF4EB" shape-rendering="crispEdges"/>
<rect x="107.952" y="137.591" width="94.188" height="94.188" rx="47.094" fill="url(#paint1_linear_8053_11926)" shape-rendering="crispEdges"/>
<path d="M171.234 172.176H163.14V169.968C163.14 168.992 162.752 168.056 162.062 167.366C161.372 166.676 160.436 166.289 159.461 166.289H150.63C149.655 166.289 148.719 166.676 148.029 167.366C147.339 168.056 146.951 168.992 146.951 169.968V172.176H138.857C138.271 172.176 137.71 172.408 137.296 172.822C136.882 173.236 136.649 173.798 136.649 174.383V197.93C136.649 198.516 136.882 199.077 137.296 199.491C137.71 199.905 138.271 200.138 138.857 200.138H171.234C171.82 200.138 172.381 199.905 172.795 199.491C173.209 199.077 173.442 198.516 173.442 197.93V174.383C173.442 173.798 173.209 173.236 172.795 172.822C172.381 172.408 171.82 172.176 171.234 172.176ZM148.423 169.968C148.423 169.383 148.655 168.821 149.069 168.407C149.483 167.993 150.045 167.761 150.63 167.761H159.461C160.046 167.761 160.608 167.993 161.022 168.407C161.436 168.821 161.668 169.383 161.668 169.968V172.176H148.423V169.968ZM171.97 197.93C171.97 198.125 171.892 198.312 171.754 198.45C171.616 198.588 171.429 198.666 171.234 198.666H138.857C138.662 198.666 138.475 198.588 138.337 198.45C138.199 198.312 138.121 198.125 138.121 197.93V174.383C138.121 174.188 138.199 174.001 138.337 173.863C138.475 173.725 138.662 173.647 138.857 173.647H171.234C171.429 173.647 171.616 173.725 171.754 173.863C171.892 174.001 171.97 174.188 171.97 174.383V197.93ZM160.196 186.157C160.196 186.352 160.119 186.539 159.981 186.677C159.843 186.815 159.656 186.892 159.461 186.892H155.781V190.572C155.781 190.767 155.704 190.954 155.566 191.092C155.428 191.23 155.241 191.308 155.046 191.308C154.85 191.308 154.663 191.23 154.525 191.092C154.387 190.954 154.31 190.767 154.31 190.572V186.892H150.63C150.435 186.892 150.248 186.815 150.11 186.677C149.972 186.539 149.895 186.352 149.895 186.157C149.895 185.961 149.972 185.774 150.11 185.636C150.248 185.498 150.435 185.421 150.63 185.421H154.31V181.742C154.31 181.546 154.387 181.359 154.525 181.221C154.663 181.083 154.85 181.006 155.046 181.006C155.241 181.006 155.428 181.083 155.566 181.221C155.704 181.359 155.781 181.546 155.781 181.742V185.421H159.461C159.656 185.421 159.843 185.498 159.981 185.636C160.119 185.774 160.196 185.961 160.196 186.157Z" fill="#1C2745"/>
</g>
<g filter="url(#filter2_d_8053_11926)">
<rect y="121.486" width="115.971" height="115.971" rx="57.9857" transform="rotate(-22 0 121.486)" fill="url(#paint2_linear_8053_11926)" shape-rendering="crispEdges"/>
<g clip-path="url(#clip1_8053_11926)">
<path d="M87.7737 130.038L71.211 131.575L77.7478 124.173C77.8266 124.083 77.887 123.98 77.9256 123.867C77.9643 123.754 77.9803 123.635 77.9729 123.516C77.9655 123.398 77.9348 123.281 77.8825 123.174C77.8302 123.067 77.7573 122.972 77.668 122.893C77.5788 122.814 77.4749 122.754 77.3623 122.715C77.2497 122.677 77.1305 122.661 77.0117 122.668C76.8929 122.675 76.7767 122.706 76.6697 122.758C76.5628 122.811 76.4672 122.884 76.3884 122.973L68.4703 131.932C64.2987 133.686 60.9846 137.011 59.2441 141.188C57.5035 145.366 57.4761 150.06 59.1679 154.257L67.9924 176.099C68.0824 176.321 68.2573 176.499 68.4784 176.593C68.6996 176.687 68.9491 176.689 69.1719 176.599C69.3947 176.509 69.5726 176.334 69.6665 176.113C69.7604 175.892 69.7625 175.643 69.6725 175.42L66.6179 167.859L71.6582 165.823L76.7493 178.424C77.0193 179.092 77.5438 179.626 78.2074 179.907C78.8709 180.189 79.6192 180.196 80.2876 179.926L93.7285 174.495C94.3969 174.225 94.9306 173.701 95.2123 173.037C95.4939 172.373 95.5005 171.625 95.2304 170.957L84.3695 144.075C83.4353 141.772 81.6754 139.901 79.4343 138.827C77.1931 137.753 74.6319 137.554 72.2517 138.268L70.3162 133.478L87.9406 131.842C88.0286 131.834 88.1149 131.813 88.1966 131.78C88.398 131.698 88.5634 131.547 88.6626 131.354C88.7617 131.16 88.7881 130.938 88.7368 130.726C88.6855 130.515 88.5601 130.33 88.3833 130.203C88.2065 130.077 87.9901 130.018 87.7737 130.038ZM65.9391 166.179L60.848 153.578C59.3819 149.936 59.3603 145.872 60.7878 142.214C62.2153 138.556 64.9843 135.581 68.53 133.894L70.5716 138.947C68.3629 140.087 66.6588 142.009 65.7927 144.338C64.9265 146.668 64.9606 149.236 65.8883 151.542L70.9794 164.143L65.9391 166.179ZM93.0497 172.815L79.6088 178.246C79.386 178.336 79.1366 178.333 78.9154 178.239C78.6942 178.146 78.5194 177.968 78.4294 177.745L73.3383 165.144L88.4593 159.035L93.5503 171.636C93.6403 171.858 93.6382 172.108 93.5443 172.329C93.4504 172.55 93.2725 172.725 93.0497 172.815ZM82.6894 144.754L87.7805 157.355L72.6595 163.464L67.5685 150.863C66.7583 148.858 66.7779 146.613 67.6229 144.622C68.4679 142.632 70.0691 141.058 72.0743 140.248C74.0795 139.438 76.3243 139.458 78.315 140.303C80.3058 141.148 81.8793 142.749 82.6894 144.754Z" fill="#FFF4EB"/>
</g>
</g>
<defs>
<filter id="filter0_d_8053_11926" x="67.4824" y="0" width="184.491" height="184.491" filterUnits="userSpaceOnUse" color-interpolation-filters="sRGB">
<feFlood flood-opacity="0" result="BackgroundImageFix"/>
<feColorMatrix in="SourceAlpha" type="matrix" values="0 0 0 0 0 0 0 0 0 0 0 0 0 0 0 0 0 0 127 0" result="hardAlpha"/>
<feOffset dy="5"/>
<feGaussianBlur stdDeviation="2.5"/>
<feComposite in2="hardAlpha" operator="out"/>
<feColorMatrix type="matrix" values="0 0 0 0 0 0 0 0 0 0 0 0 0 0 0 0 0 0 0.13 0"/>
<feBlend mode="normal" in2="BackgroundImageFix" result="effect1_dropShadow_8053_11926"/>
<feBlend mode="normal" in="SourceGraphic" in2="effect1_dropShadow_8053_11926" result="shape"/>
</filter>
<filter id="filter1_d_8053_11926" x="103.686" y="137.591" width="102.721" height="102.721" filterUnits="userSpaceOnUse" color-interpolation-filters="sRGB">
<feFlood flood-opacity="0" result="BackgroundImageFix"/>
<feColorMatrix in="SourceAlpha" type="matrix" values="0 0 0 0 0 0 0 0 0 0 0 0 0 0 0 0 0 0 127 0" result="hardAlpha"/>
<feOffset dy="4.26664"/>
<feGaussianBlur stdDeviation="2.13332"/>
<feComposite in2="hardAlpha" operator="out"/>
<feColorMatrix type="matrix" values="0 0 0 0 0 0 0 0 0 0 0 0 0 0 0 0 0 0 0.13 0"/>
<feBlend mode="normal" in2="BackgroundImageFix" result="effect1_dropShadow_8053_11926"/>
<feBlend mode="normal" in="SourceGraphic" in2="effect1_dropShadow_8053_11926" result="shape"/>
</filter>
<filter id="filter2_d_8053_11926" x="-4.32601" y="78.0425" width="159.623" height="159.622" filterUnits="userSpaceOnUse" color-interpolation-filters="sRGB">
<feFlood flood-opacity="0" result="BackgroundImageFix"/>
<feColorMatrix in="SourceAlpha" type="matrix" values="0 0 0 0 0 0 0 0 0 0 0 0 0 0 0 0 0 0 127 0" result="hardAlpha"/>
<feOffset dy="4.32601"/>
<feGaussianBlur stdDeviation="2.16301"/>
<feComposite in2="hardAlpha" operator="out"/>
<feColorMatrix type="matrix" values="0 0 0 0 0 0 0 0 0 0 0 0 0 0 0 0 0 0 0.08 0"/>
<feBlend mode="normal" in2="BackgroundImageFix" result="effect1_dropShadow_8053_11926"/>
<feBlend mode="normal" in="SourceGraphic" in2="effect1_dropShadow_8053_11926" result="shape"/>
</filter>
<linearGradient id="paint0_linear_8053_11926" x1="189.714" y1="0" x2="189.714" y2="134.04" gradientUnits="userSpaceOnUse">
<stop stop-color="#E79450"/>
<stop offset="1" stop-color="#C58853"/>
</linearGradient>
<linearGradient id="paint1_linear_8053_11926" x1="155.046" y1="137.591" x2="155.046" y2="231.779" gradientUnits="userSpaceOnUse">
<stop stop-color="#F9DED6" stop-opacity="0"/>
<stop offset="1" stop-color="#F9DED6"/>
</linearGradient>
<linearGradient id="paint2_linear_8053_11926" x1="57.9857" y1="121.486" x2="57.9857" y2="237.457" gradientUnits="userSpaceOnUse">
<stop stop-color="#5489A3"/>
<stop offset="1" stop-color="#577B91"/>
</linearGradient>
<clipPath id="clip0_8053_11926">
<rect width="67.0198" height="67.0198" fill="white" transform="translate(141.211 43.6228) rotate(22)"/>
</clipPath>
<clipPath id="clip1_8053_11926">
<rect width="57.9857" height="57.9857" fill="white" transform="translate(37.7432 137.507) rotate(-22)"/>
</clipPath>
</defs>
</svg>
