<svg width="331" height="318" viewBox="0 0 331 318" fill="none" xmlns="http://www.w3.org/2000/svg">
  <g filter="url(#filter0_d_3080_2781)">
    <rect x="164.758" width="179.148" height="179.148" rx="89.5738" transform="rotate(22 164.758 0)"
      fill="url(#paint0_linear_3080_2781)" shape-rendering="crispEdges" />
    <g clip-path="url(#clip0_3080_2781)">
      <path
        d="M244.535 134.969C243.976 134.017 243.205 133.207 242.281 132.603C241.357 131.998 240.306 131.616 239.21 131.486L234.973 130.811C245.96 127.107 252.885 121.867 255.583 115.19C258.763 107.32 255.024 98.3596 247.251 95.2191C244.914 94.253 242.372 93.8858 239.857 94.1508C237.342 94.4157 234.933 95.3045 232.848 96.7364C232.344 94.2583 231.228 91.9455 229.603 90.0078C227.978 88.0701 225.895 86.5688 223.542 85.6402C215.769 82.4997 206.856 86.3478 203.676 94.2182C202.122 98.0626 201.937 102.361 203.113 107.576C200.797 106.739 198.25 106.812 195.985 107.78L185.14 112.391L175.298 108.414C174.265 107.997 173.109 108.007 172.084 108.442C171.059 108.877 170.249 109.702 169.832 110.734L164.589 123.711C164.171 124.744 164.182 125.9 164.617 126.925C165.052 127.95 165.876 128.76 166.909 129.177L200.648 142.809C200.757 142.854 200.872 142.885 200.989 142.901L223.849 146.099C223.922 146.109 223.996 146.113 224.069 146.113L238.831 145.835L238.916 145.832C240.135 145.734 241.31 145.328 242.33 144.652C243.349 143.975 244.179 143.05 244.742 141.964C245.305 140.877 245.583 139.666 245.548 138.443C245.513 137.22 245.168 136.026 244.545 134.973L244.535 134.969ZM222.494 88.2356C224.774 89.1239 226.738 90.6724 228.133 92.6829C229.528 94.6934 230.292 97.0745 230.327 99.5216C230.328 99.7991 230.413 100.07 230.568 100.299C230.724 100.529 230.945 100.707 231.202 100.811C231.459 100.915 231.742 100.94 232.013 100.883C232.285 100.826 232.534 100.69 232.728 100.492C234.452 98.7553 236.656 97.5731 239.056 97.0962C241.457 96.6194 243.945 96.8694 246.202 97.8145C252.438 100.334 255.545 107.812 252.987 114.141C250.2 121.042 241.987 126.302 228.573 129.792L221.733 128.685C222.901 127.783 223.808 126.586 224.36 125.218C225.195 123.153 225.174 120.841 224.304 118.791C223.434 116.741 221.785 115.12 219.72 114.286L206.318 108.871C204.778 103.343 204.764 98.9976 206.271 95.2668C208.828 88.9374 216.258 85.7163 222.494 88.2356ZM167.184 124.76L172.427 111.783C172.566 111.439 172.836 111.164 173.178 111.019C173.519 110.874 173.905 110.871 174.249 111.01L183.333 114.68L177.041 130.252L167.957 126.582C167.613 126.443 167.338 126.173 167.193 125.831C167.048 125.489 167.045 125.104 167.184 124.76ZM238.722 143.032L224.116 143.309L201.538 140.149L179.636 131.3L186.235 114.969L197.075 110.368C197.921 110.006 198.829 109.815 199.748 109.807C200.668 109.799 201.579 109.973 202.431 110.32L218.671 116.881C220.048 117.438 221.147 118.518 221.727 119.885C222.308 121.251 222.321 122.793 221.765 124.169C221.209 125.546 220.128 126.645 218.762 127.225C217.395 127.806 215.854 127.819 214.477 127.263L205.393 123.593C205.049 123.454 204.664 123.457 204.322 123.602C203.98 123.747 203.71 124.022 203.571 124.366C203.432 124.71 203.436 125.096 203.581 125.437C203.726 125.779 204 126.049 204.345 126.188L214.726 130.382C214.824 130.423 214.926 130.451 215.031 130.468L238.787 134.251L238.839 134.272C239.917 134.407 240.908 134.936 241.62 135.756C242.332 136.577 242.716 137.632 242.698 138.719C242.68 139.805 242.262 140.847 241.523 141.644C240.784 142.441 239.776 142.937 238.694 143.036L238.722 143.032Z"
        fill="#1C2745" />
    </g>
  </g>
  <g filter="url(#filter1_d_3080_2781)">
    <rect x="145.055" y="183.894" width="125.885" height="125.885" rx="62.9424" fill="#FFF4EB"
      shape-rendering="crispEdges" />
    <rect x="145.055" y="183.894" width="125.885" height="125.885" rx="62.9424"
      fill="url(#paint1_linear_3080_2781)" shape-rendering="crispEdges" />
    <path
      d="M229.634 230.117H218.815V227.167C218.815 225.863 218.297 224.612 217.375 223.69C216.453 222.768 215.202 222.249 213.898 222.249H202.096C200.792 222.249 199.541 222.768 198.619 223.69C197.697 224.612 197.179 225.863 197.179 227.167V230.117H186.361C185.578 230.117 184.828 230.428 184.274 230.981C183.721 231.535 183.41 232.285 183.41 233.068V264.539C183.41 265.321 183.721 266.072 184.274 266.625C184.828 267.178 185.578 267.489 186.361 267.489H229.634C230.416 267.489 231.166 267.178 231.72 266.625C232.273 266.072 232.584 265.321 232.584 264.539V233.068C232.584 232.285 232.273 231.535 231.72 230.981C231.166 230.428 230.416 230.117 229.634 230.117ZM199.146 227.167C199.146 226.384 199.457 225.634 200.01 225.081C200.563 224.527 201.314 224.216 202.096 224.216H213.898C214.68 224.216 215.431 224.527 215.984 225.081C216.537 225.634 216.848 226.384 216.848 227.167V230.117H199.146V227.167ZM230.617 264.539C230.617 264.8 230.513 265.05 230.329 265.234C230.144 265.419 229.894 265.522 229.634 265.522H186.361C186.1 265.522 185.85 265.419 185.665 265.234C185.481 265.05 185.377 264.8 185.377 264.539V233.068C185.377 232.807 185.481 232.557 185.665 232.372C185.85 232.188 186.1 232.084 186.361 232.084H229.634C229.894 232.084 230.144 232.188 230.329 232.372C230.513 232.557 230.617 232.807 230.617 233.068V264.539ZM214.881 248.803C214.881 249.064 214.778 249.314 214.593 249.499C214.409 249.683 214.159 249.787 213.898 249.787H208.981V254.704C208.981 254.965 208.877 255.215 208.692 255.4C208.508 255.584 208.258 255.688 207.997 255.688C207.736 255.688 207.486 255.584 207.302 255.4C207.117 255.215 207.014 254.965 207.014 254.704V249.787H202.096C201.835 249.787 201.585 249.683 201.401 249.499C201.216 249.314 201.113 249.064 201.113 248.803C201.113 248.542 201.216 248.292 201.401 248.108C201.585 247.923 201.835 247.82 202.096 247.82H207.014V242.902C207.014 242.642 207.117 242.391 207.302 242.207C207.486 242.023 207.736 241.919 207.997 241.919C208.258 241.919 208.508 242.023 208.692 242.207C208.877 242.391 208.981 242.642 208.981 242.902V247.82H213.898C214.159 247.82 214.409 247.923 214.593 248.108C214.778 248.292 214.881 248.542 214.881 248.803Z"
      fill="#1C2745" />
  </g>
  <g filter="url(#filter2_d_3080_2781)">
    <rect x="0.773438" y="162.37" width="154.999" height="154.999" rx="77.4995"
      transform="rotate(-22 0.773438 162.37)" fill="url(#paint2_linear_3080_2781)"
      shape-rendering="crispEdges" />
    <g clip-path="url(#clip1_3080_2781)">
      <path
        d="M118.086 173.799L95.9494 175.854L104.686 165.96C104.791 165.841 104.872 165.702 104.924 165.552C104.975 165.401 104.997 165.242 104.987 165.083C104.977 164.924 104.936 164.769 104.866 164.626C104.796 164.483 104.699 164.355 104.579 164.25C104.46 164.145 104.321 164.064 104.171 164.012C104.02 163.961 103.861 163.939 103.702 163.949C103.543 163.959 103.388 164 103.245 164.07C103.102 164.14 102.974 164.237 102.869 164.357L92.2864 176.331C86.7109 178.676 82.2816 183.119 79.9553 188.702C77.629 194.285 77.5924 200.559 79.8535 206.169L91.6477 235.361C91.768 235.658 92.0017 235.896 92.2973 236.022C92.5929 236.147 92.9263 236.15 93.2241 236.03C93.5219 235.91 93.7596 235.676 93.8851 235.38C94.0106 235.085 94.0135 234.751 93.8932 234.453L89.8106 224.349L96.5471 221.627L103.351 238.468C103.712 239.362 104.413 240.075 105.3 240.451C106.187 240.828 107.187 240.837 108.081 240.476L126.045 233.218C126.938 232.857 127.651 232.156 128.028 231.269C128.404 230.382 128.413 229.382 128.052 228.489L113.536 192.56C112.288 189.483 109.935 186.981 106.94 185.546C103.945 184.111 100.522 183.844 97.3403 184.8L94.7535 178.397L118.309 176.21C118.427 176.2 118.542 176.172 118.651 176.128C118.92 176.018 119.141 175.816 119.274 175.558C119.406 175.299 119.442 175.002 119.373 174.72C119.305 174.437 119.137 174.189 118.901 174.02C118.664 173.851 118.375 173.773 118.086 173.799ZM88.9034 222.103L82.099 205.262C80.1395 200.394 80.1107 194.961 82.0186 190.073C83.9264 185.184 87.6272 181.207 92.3663 178.954L95.0948 185.707C92.1429 187.23 89.8654 189.799 88.7077 192.912C87.5501 196.026 87.5957 199.459 88.8356 202.54L95.6399 219.381L88.9034 222.103ZM125.137 230.972L107.173 238.23C106.876 238.35 106.542 238.348 106.247 238.222C105.951 238.097 105.717 237.859 105.597 237.561L98.7927 220.72L119.002 212.554L125.807 229.396C125.927 229.694 125.924 230.027 125.798 230.323C125.673 230.618 125.435 230.852 125.137 230.972ZM111.291 193.468L118.095 210.309L97.8854 218.474L91.0811 201.633C89.9983 198.953 90.0245 195.953 91.1539 193.292C92.2833 190.631 94.4233 188.528 97.1033 187.445C99.7832 186.363 102.784 186.389 105.444 187.518C108.105 188.648 110.208 190.788 111.291 193.468Z"
        fill="#FFF4EB" />
    </g>
  </g>
  <defs>
    <filter id="filter0_d_3080_2781" x="93.6475" y="0" width="241.213" height="241.213"
      filterUnits="userSpaceOnUse" color-interpolation-filters="sRGB">
      <feFlood flood-opacity="0" result="BackgroundImageFix" />
      <feColorMatrix in="SourceAlpha" type="matrix"
        values="0 0 0 0 0 0 0 0 0 0 0 0 0 0 0 0 0 0 127 0" result="hardAlpha" />
      <feOffset dy="4" />
      <feGaussianBlur stdDeviation="2" />
      <feComposite in2="hardAlpha" operator="out" />
      <feColorMatrix type="matrix" values="0 0 0 0 0 0 0 0 0 0 0 0 0 0 0 0 0 0 0.13 0" />
      <feBlend mode="normal" in2="BackgroundImageFix" result="effect1_dropShadow_3080_2781" />
      <feBlend mode="normal" in="SourceGraphic" in2="effect1_dropShadow_3080_2781" result="shape" />
    </filter>
    <filter id="filter1_d_3080_2781" x="141.055" y="183.894" width="133.885" height="133.885"
      filterUnits="userSpaceOnUse" color-interpolation-filters="sRGB">
      <feFlood flood-opacity="0" result="BackgroundImageFix" />
      <feColorMatrix in="SourceAlpha" type="matrix"
        values="0 0 0 0 0 0 0 0 0 0 0 0 0 0 0 0 0 0 127 0" result="hardAlpha" />
      <feOffset dy="4" />
      <feGaussianBlur stdDeviation="2" />
      <feComposite in2="hardAlpha" operator="out" />
      <feColorMatrix type="matrix" values="0 0 0 0 0 0 0 0 0 0 0 0 0 0 0 0 0 0 0.13 0" />
      <feBlend mode="normal" in2="BackgroundImageFix" result="effect1_dropShadow_3080_2781" />
      <feBlend mode="normal" in="SourceGraphic" in2="effect1_dropShadow_3080_2781" result="shape" />
    </filter>
    <filter id="filter2_d_3080_2781" x="-3.22656" y="104.306" width="209.776" height="209.776"
      filterUnits="userSpaceOnUse" color-interpolation-filters="sRGB">
      <feFlood flood-opacity="0" result="BackgroundImageFix" />
      <feColorMatrix in="SourceAlpha" type="matrix"
        values="0 0 0 0 0 0 0 0 0 0 0 0 0 0 0 0 0 0 127 0" result="hardAlpha" />
      <feOffset dy="4" />
      <feGaussianBlur stdDeviation="2" />
      <feComposite in2="hardAlpha" operator="out" />
      <feColorMatrix type="matrix" values="0 0 0 0 0 0 0 0 0 0 0 0 0 0 0 0 0 0 0.08 0" />
      <feBlend mode="normal" in2="BackgroundImageFix" result="effect1_dropShadow_3080_2781" />
      <feBlend mode="normal" in="SourceGraphic" in2="effect1_dropShadow_3080_2781" result="shape" />
    </filter>
    <linearGradient id="paint0_linear_3080_2781" x1="254.332" y1="0" x2="254.332" y2="179.148"
      gradientUnits="userSpaceOnUse">
      <stop stop-color="#E79450" />
      <stop offset="1" stop-color="#C58853" />
    </linearGradient>
    <linearGradient id="paint1_linear_3080_2781" x1="207.997" y1="183.894" x2="207.997" y2="309.779"
      gradientUnits="userSpaceOnUse">
      <stop stop-color="#F9DED6" stop-opacity="0" />
      <stop offset="1" stop-color="#F9DED6" />
    </linearGradient>
    <linearGradient id="paint2_linear_3080_2781" x1="78.2729" y1="162.37" x2="78.2729" y2="317.369"
      gradientUnits="userSpaceOnUse">
      <stop stop-color="#5489A3" />
      <stop offset="1" stop-color="#577B91" />
    </linearGradient>
    <clipPath id="clip0_3080_2781">
      <rect width="89.5738" height="89.5738" fill="white"
        transform="translate(189.506 58.3032) rotate(22)" />
    </clipPath>
    <clipPath id="clip1_3080_2781">
      <rect width="77.4995" height="77.4995" fill="white"
        transform="translate(51.2178 183.782) rotate(-22)" />
    </clipPath>
  </defs>
</svg>