<svg width="99" height="99" viewBox="0 0 99 99" fill="none" xmlns="http://www.w3.org/2000/svg">
<g filter="url(#filter0_d_7231_2224)">
<rect x="4.5" y="0.335938" width="90" height="90" rx="45" fill="#E79450" shape-rendering="crispEdges"/>
<rect x="4.5" y="0.335938" width="90" height="90" rx="45" fill="url(#paint0_linear_7231_2224)" shape-rendering="crispEdges"/>
<path d="M65.1709 32.0069L52.8064 28.2979L59.6619 24.8719C59.7446 24.8306 59.8182 24.7734 59.8788 24.7036C59.9393 24.6338 59.9855 24.5528 60.0147 24.4651C60.044 24.3775 60.0556 24.2849 60.0491 24.1928C60.0425 24.1006 60.0179 24.0106 59.9766 23.928C59.9352 23.8453 59.878 23.7717 59.8082 23.7111C59.7384 23.6506 59.6574 23.6044 59.5698 23.5752C59.4821 23.5459 59.3896 23.5343 59.2974 23.5408C59.2052 23.5474 59.1153 23.572 59.0326 23.6133L50.7305 27.7583C47.2189 27.8077 43.8677 29.2366 41.4009 31.7362C38.9341 34.2359 37.5498 37.6057 37.5469 41.1176V59.3989C37.5469 59.5854 37.621 59.7642 37.7528 59.8961C37.8847 60.0279 38.0635 60.102 38.25 60.102C38.4365 60.102 38.6153 60.0279 38.7472 59.8961C38.879 59.7642 38.9531 59.5854 38.9531 59.3989V53.0708H43.1719V63.6176C43.1719 64.1771 43.3941 64.7136 43.7897 65.1092C44.1853 65.5048 44.7218 65.727 45.2812 65.727H56.5312C57.0907 65.727 57.6272 65.5048 58.0228 65.1092C58.4184 64.7136 58.6406 64.1771 58.6406 63.6176V41.1176C58.6379 39.189 57.9157 37.3308 56.6152 35.9065C55.3148 34.4822 53.5298 33.5944 51.6094 33.4167V29.4071L64.7666 33.3534C64.8321 33.3736 64.9002 33.3837 64.9687 33.3833C65.1374 33.3831 65.3004 33.3223 65.428 33.212C65.5556 33.1017 65.6392 32.9492 65.6638 32.7823C65.6883 32.6154 65.652 32.4453 65.5615 32.303C65.471 32.1606 65.3324 32.0555 65.1709 32.0069ZM38.9531 51.6645V41.1176C38.957 38.0706 40.1232 35.1397 42.2136 32.9228C44.3041 30.7059 47.1615 29.37 50.2031 29.1874V33.4167C48.2827 33.5944 46.4977 34.4822 45.1972 35.9065C43.8968 37.3308 43.1746 39.189 43.1719 41.1176V51.6645H38.9531ZM56.5312 64.3208H45.2812C45.0948 64.3208 44.9159 64.2467 44.7841 64.1148C44.6522 63.983 44.5781 63.8041 44.5781 63.6176V53.0708H57.2344V63.6176C57.2344 63.8041 57.1603 63.983 57.0284 64.1148C56.8966 64.2467 56.7177 64.3208 56.5312 64.3208ZM57.2344 41.1176V51.6645H44.5781V41.1176C44.5781 39.4393 45.2448 37.8297 46.4316 36.643C47.6183 35.4562 49.2279 34.7895 50.9062 34.7895C52.5846 34.7895 54.1942 35.4562 55.3809 36.643C56.5677 37.8297 57.2344 39.4393 57.2344 41.1176Z" fill="#1C2745"/>
</g>
<defs>
<filter id="filter0_d_7231_2224" x="0.5" y="0.335938" width="98" height="98" filterUnits="userSpaceOnUse" color-interpolation-filters="sRGB">
<feFlood flood-opacity="0" result="BackgroundImageFix"/>
<feColorMatrix in="SourceAlpha" type="matrix" values="0 0 0 0 0 0 0 0 0 0 0 0 0 0 0 0 0 0 127 0" result="hardAlpha"/>
<feOffset dy="4"/>
<feGaussianBlur stdDeviation="2"/>
<feComposite in2="hardAlpha" operator="out"/>
<feColorMatrix type="matrix" values="0 0 0 0 0 0 0 0 0 0 0 0 0 0 0 0 0 0 0.13 0"/>
<feBlend mode="normal" in2="BackgroundImageFix" result="effect1_dropShadow_7231_2224"/>
<feBlend mode="normal" in="SourceGraphic" in2="effect1_dropShadow_7231_2224" result="shape"/>
</filter>
<linearGradient id="paint0_linear_7231_2224" x1="49.5" y1="0.335937" x2="49.5" y2="90.3359" gradientUnits="userSpaceOnUse">
<stop stop-color="#C78A54" stop-opacity="0"/>
<stop offset="1" stop-color="#C78A54"/>
</linearGradient>
</defs>
</svg>
