<svg width="144" height="158" viewBox="0 0 144 158" fill="none" xmlns="http://www.w3.org/2000/svg">
  <g filter="url(#filter0_d_3209_29509)">
    <rect x="91.5107" y="0.0356445" width="99.678" height="99.678" rx="49.839"
      transform="rotate(22 91.5107 0.0356445)" fill="url(#paint0_linear_3209_29509)"
      shape-rendering="crispEdges" />
    <g clip-path="url(#clip0_3209_29509)">
      <path
        d="M135.9 75.133C135.589 74.6033 135.159 74.1527 134.645 73.8164C134.131 73.4801 133.547 73.2674 132.937 73.1947L130.579 72.8196C136.693 70.7585 140.546 67.8428 142.047 64.1279C143.816 59.7488 141.736 54.7635 137.411 53.0161C136.11 52.4785 134.696 52.2742 133.297 52.4216C131.897 52.5691 130.557 53.0636 129.397 53.8603C129.116 52.4815 128.496 51.1946 127.591 50.1165C126.687 49.0383 125.528 48.203 124.219 47.6863C119.894 45.939 114.935 48.08 113.165 52.4592C112.301 54.5982 112.198 56.99 112.852 59.8917C111.564 59.426 110.146 59.4664 108.886 60.0048L102.852 62.5706L97.3758 60.3579C96.8013 60.1258 96.1581 60.1314 95.5878 60.3735C95.0175 60.6156 94.5666 61.0743 94.3345 61.6488L91.4173 68.8691C91.1852 69.4436 91.1908 70.0868 91.4329 70.6571C91.675 71.2274 92.1338 71.6783 92.7083 71.9104L111.481 79.4951C111.542 79.5201 111.605 79.5373 111.67 79.5463L124.39 81.3257C124.43 81.331 124.471 81.3336 124.513 81.3334L132.726 81.1789L132.773 81.1769C133.452 81.1228 134.105 80.8969 134.673 80.5203C135.24 80.1438 135.702 79.6292 136.015 79.0248C136.328 78.4204 136.483 77.7462 136.463 77.0657C136.444 76.3853 136.252 75.7209 135.905 75.1352L135.9 75.133ZM123.636 49.1304C124.905 49.6247 125.997 50.4863 126.774 51.6049C127.55 52.7236 127.975 54.0484 127.994 55.4099C127.995 55.5644 128.042 55.715 128.129 55.8428C128.215 55.9705 128.338 56.0696 128.481 56.1275C128.624 56.1853 128.782 56.1993 128.933 56.1676C129.084 56.136 129.222 56.0601 129.33 55.9496C130.29 54.9836 131.516 54.3258 132.851 54.0605C134.187 53.7952 135.571 53.9343 136.827 54.4601C140.297 55.8618 142.025 60.0228 140.603 63.5445C139.051 67.3839 134.482 70.3105 127.018 72.2523L123.213 71.6365C123.862 71.1346 124.367 70.4688 124.674 69.7074C125.139 68.5585 125.127 67.2721 124.643 66.1315C124.159 64.9908 123.241 64.0891 122.092 63.6249L114.636 60.6122C113.779 57.5363 113.771 55.1184 114.61 53.0426C116.032 49.5209 120.166 47.7287 123.636 49.1304ZM92.8614 69.4526L95.7786 62.2323C95.856 62.0408 96.0062 61.8878 96.1963 61.8071C96.3865 61.7264 96.6008 61.7246 96.7923 61.8019L101.847 63.844L98.3459 72.5083L93.2917 70.4663C93.1002 70.3889 92.9473 70.2387 92.8666 70.0486C92.7859 69.8584 92.784 69.6441 92.8614 69.4526ZM132.665 79.6195L124.538 79.7731L111.976 78.0153L99.79 73.0918L103.461 64.005L109.493 61.4447C109.963 61.2434 110.469 61.1374 110.98 61.1328C111.492 61.1283 111.999 61.2252 112.473 61.4181L121.509 65.069C122.275 65.3785 122.887 65.9796 123.209 66.74C123.532 67.5005 123.54 68.358 123.23 69.124C122.921 69.89 122.32 70.5016 121.559 70.8244C120.799 71.1472 119.941 71.1547 119.175 70.8452L114.121 68.8032C113.93 68.7258 113.715 68.7277 113.525 68.8084C113.335 68.8891 113.185 69.042 113.107 69.2335C113.03 69.425 113.032 69.6394 113.113 69.8295C113.193 70.0196 113.346 70.1699 113.538 70.2473L119.314 72.581C119.368 72.6033 119.425 72.6193 119.484 72.6286L132.701 74.7333L132.73 74.7449C133.33 74.8202 133.881 75.1144 134.278 75.5711C134.674 76.0278 134.888 76.6148 134.878 77.2194C134.868 77.824 134.635 78.4036 134.224 78.847C133.812 79.2903 133.252 79.5662 132.65 79.6216L132.665 79.6195Z"
        fill="#1C2745" />
    </g>
  </g>
  <g filter="url(#filter1_d_3209_29509)">
    <rect x="81.1436" y="102.354" width="70.0426" height="70.0426" rx="35.0213" fill="#FFF4EB"
      shape-rendering="crispEdges" />
    <rect x="81.1436" y="102.354" width="70.0426" height="70.0426" rx="35.0213"
      fill="url(#paint1_linear_3209_29509)" shape-rendering="crispEdges" />
    <path
      d="M128.204 128.073H122.185V126.432C122.185 125.706 121.897 125.01 121.383 124.497C120.87 123.984 120.174 123.695 119.449 123.695H112.882C112.157 123.695 111.461 123.984 110.948 124.497C110.435 125.01 110.146 125.706 110.146 126.432V128.073H104.127C103.692 128.073 103.274 128.246 102.966 128.554C102.658 128.862 102.485 129.279 102.485 129.715V147.225C102.485 147.661 102.658 148.078 102.966 148.386C103.274 148.694 103.692 148.867 104.127 148.867H128.204C128.639 148.867 129.057 148.694 129.365 148.386C129.673 148.078 129.846 147.661 129.846 147.225V129.715C129.846 129.279 129.673 128.862 129.365 128.554C129.057 128.246 128.639 128.073 128.204 128.073ZM111.241 126.432C111.241 125.996 111.414 125.579 111.721 125.271C112.029 124.963 112.447 124.79 112.882 124.79H119.449C119.884 124.79 120.302 124.963 120.61 125.271C120.917 125.579 121.09 125.996 121.09 126.432V128.073H111.241V126.432ZM128.751 147.225C128.751 147.371 128.694 147.51 128.591 147.612C128.488 147.715 128.349 147.773 128.204 147.773H104.127C103.982 147.773 103.843 147.715 103.74 147.612C103.637 147.51 103.58 147.371 103.58 147.225V129.715C103.58 129.57 103.637 129.43 103.74 129.328C103.843 129.225 103.982 129.168 104.127 129.168H128.204C128.349 129.168 128.488 129.225 128.591 129.328C128.694 129.43 128.751 129.57 128.751 129.715V147.225ZM119.996 138.47C119.996 138.615 119.938 138.754 119.836 138.857C119.733 138.96 119.594 139.017 119.449 139.017H116.713V141.753C116.713 141.898 116.655 142.038 116.552 142.14C116.45 142.243 116.311 142.301 116.166 142.301C116.02 142.301 115.881 142.243 115.779 142.14C115.676 142.038 115.618 141.898 115.618 141.753V139.017H112.882C112.737 139.017 112.598 138.96 112.495 138.857C112.393 138.754 112.335 138.615 112.335 138.47C112.335 138.325 112.393 138.186 112.495 138.083C112.598 137.981 112.737 137.923 112.882 137.923H115.618V135.187C115.618 135.042 115.676 134.903 115.779 134.8C115.881 134.697 116.02 134.64 116.166 134.64C116.311 134.64 116.45 134.697 116.552 134.8C116.655 134.903 116.713 135.042 116.713 135.187V137.923H119.449C119.594 137.923 119.733 137.981 119.836 138.083C119.938 138.186 119.996 138.325 119.996 138.47Z"
      fill="#1C2745" />
  </g>
  <g filter="url(#filter2_d_3209_29509)">
    <rect x="0.865234" y="90.7585" width="86.2417" height="86.2417" rx="43.1208"
      transform="rotate(-22 0.865234 90.7585)" fill="url(#paint2_linear_3209_29509)"
      shape-rendering="crispEdges" />
    <g clip-path="url(#clip1_3209_29509)">
      <path
        d="M66.1373 97.1181L53.8205 98.2612L58.6816 92.7565C58.7402 92.6901 58.7851 92.6128 58.8139 92.5291C58.8426 92.4453 58.8545 92.3567 58.849 92.2684C58.8435 92.18 58.8207 92.0936 58.7818 92.0141C58.7429 91.9345 58.6887 91.8634 58.6223 91.8049C58.5559 91.7463 58.4787 91.7013 58.3949 91.6726C58.3112 91.6439 58.2226 91.6319 58.1342 91.6374C58.0459 91.6429 57.9594 91.6658 57.8799 91.7047C57.8004 91.7436 57.7293 91.7978 57.6707 91.8641L51.7824 98.5269C48.6802 99.8313 46.2157 102.304 44.9214 105.41C43.627 108.517 43.6067 112.007 44.8648 115.129L51.4271 131.371C51.494 131.537 51.624 131.669 51.7885 131.739C51.953 131.809 52.1385 131.81 52.3042 131.743C52.4698 131.676 52.6021 131.546 52.672 131.382C52.7418 131.217 52.7434 131.032 52.6765 130.866L50.4049 125.244L54.1531 123.729L57.939 133.1C58.1399 133.597 58.5299 133.994 59.0234 134.203C59.5168 134.413 60.0733 134.418 60.5703 134.217L70.5656 130.179C71.0626 129.978 71.4595 129.588 71.669 129.094C71.8785 128.601 71.8833 128.044 71.6825 127.547L63.6058 107.557C62.9111 105.844 61.6024 104.453 59.9357 103.654C58.2691 102.855 56.3645 102.707 54.5944 103.239L53.1551 99.6764L66.2615 98.4595C66.3269 98.454 66.3911 98.4385 66.4518 98.4135C66.6016 98.3528 66.7246 98.2403 66.7983 98.0965C66.8721 97.9527 66.8917 97.7872 66.8536 97.6301C66.8154 97.4731 66.7221 97.3349 66.5906 97.2409C66.4592 97.147 66.2983 97.1034 66.1373 97.1181ZM49.9001 123.994L46.1142 114.624C45.0239 111.915 45.0078 108.893 46.0694 106.173C47.1309 103.453 49.19 101.24 51.8269 99.9859L53.345 103.744C51.7026 104.591 50.4353 106.02 49.7912 107.753C49.1471 109.485 49.1725 111.395 49.8624 113.11L53.6483 122.48L49.9001 123.994ZM70.0608 128.929L60.0655 132.968C59.8999 133.034 59.7144 133.033 59.5499 132.963C59.3854 132.893 59.2554 132.761 59.1885 132.595L55.4025 123.225L66.6472 118.682L70.4331 128.052C70.5 128.218 70.4984 128.403 70.4286 128.568C70.3588 128.732 70.2265 128.862 70.0608 128.929ZM62.3564 108.062L66.1424 117.432L54.8977 121.975L51.1118 112.605C50.5093 111.114 50.5239 109.444 51.1523 107.964C51.7807 106.483 52.9714 105.313 54.4625 104.711C55.9537 104.108 57.623 104.123 59.1034 104.751C60.5838 105.38 61.754 106.57 62.3564 108.062Z"
        fill="#FFF4EB" />
    </g>
  </g>
  <defs>
    <filter id="filter0_d_3209_29509" x="50.1709" y="0.0356445" width="137.76" height="137.76"
      filterUnits="userSpaceOnUse" color-interpolation-filters="sRGB">
      <feFlood flood-opacity="0" result="BackgroundImageFix" />
      <feColorMatrix in="SourceAlpha" type="matrix"
        values="0 0 0 0 0 0 0 0 0 0 0 0 0 0 0 0 0 0 127 0" result="hardAlpha" />
      <feOffset dy="4" />
      <feGaussianBlur stdDeviation="2" />
      <feComposite in2="hardAlpha" operator="out" />
      <feColorMatrix type="matrix" values="0 0 0 0 0 0 0 0 0 0 0 0 0 0 0 0 0 0 0.13 0" />
      <feBlend mode="normal" in2="BackgroundImageFix" result="effect1_dropShadow_3209_29509" />
      <feBlend mode="normal" in="SourceGraphic" in2="effect1_dropShadow_3209_29509" result="shape" />
    </filter>
    <filter id="filter1_d_3209_29509" x="77.1436" y="102.354" width="78.043" height="78.0425"
      filterUnits="userSpaceOnUse" color-interpolation-filters="sRGB">
      <feFlood flood-opacity="0" result="BackgroundImageFix" />
      <feColorMatrix in="SourceAlpha" type="matrix"
        values="0 0 0 0 0 0 0 0 0 0 0 0 0 0 0 0 0 0 127 0" result="hardAlpha" />
      <feOffset dy="4" />
      <feGaussianBlur stdDeviation="2" />
      <feComposite in2="hardAlpha" operator="out" />
      <feColorMatrix type="matrix" values="0 0 0 0 0 0 0 0 0 0 0 0 0 0 0 0 0 0 0.13 0" />
      <feBlend mode="normal" in2="BackgroundImageFix" result="effect1_dropShadow_3209_29509" />
      <feBlend mode="normal" in="SourceGraphic" in2="effect1_dropShadow_3209_29509" result="shape" />
    </filter>
    <filter id="filter2_d_3209_29509" x="-3.13477" y="58.4518" width="120.269" height="120.269"
      filterUnits="userSpaceOnUse" color-interpolation-filters="sRGB">
      <feFlood flood-opacity="0" result="BackgroundImageFix" />
      <feColorMatrix in="SourceAlpha" type="matrix"
        values="0 0 0 0 0 0 0 0 0 0 0 0 0 0 0 0 0 0 127 0" result="hardAlpha" />
      <feOffset dy="4" />
      <feGaussianBlur stdDeviation="2" />
      <feComposite in2="hardAlpha" operator="out" />
      <feColorMatrix type="matrix" values="0 0 0 0 0 0 0 0 0 0 0 0 0 0 0 0 0 0 0.08 0" />
      <feBlend mode="normal" in2="BackgroundImageFix" result="effect1_dropShadow_3209_29509" />
      <feBlend mode="normal" in="SourceGraphic" in2="effect1_dropShadow_3209_29509" result="shape" />
    </filter>
    <linearGradient id="paint0_linear_3209_29509" x1="141.35" y1="0.0356445" x2="141.35"
      y2="99.7137" gradientUnits="userSpaceOnUse">
      <stop stop-color="#E79450" />
      <stop offset="1" stop-color="#C58853" />
    </linearGradient>
    <linearGradient id="paint1_linear_3209_29509" x1="116.165" y1="102.354" x2="116.165"
      y2="172.396" gradientUnits="userSpaceOnUse">
      <stop stop-color="#F9DED6" stop-opacity="0" />
      <stop offset="1" stop-color="#F9DED6" />
    </linearGradient>
    <linearGradient id="paint2_linear_3209_29509" x1="43.9861" y1="90.7585" x2="43.9861" y2="177"
      gradientUnits="userSpaceOnUse">
      <stop stop-color="#5489A3" />
      <stop offset="1" stop-color="#577B91" />
    </linearGradient>
    <clipPath id="clip0_3209_29509">
      <rect width="49.839" height="49.839" fill="white"
        transform="translate(105.281 32.4761) rotate(22)" />
    </clipPath>
    <clipPath id="clip1_3209_29509">
      <rect width="43.1208" height="43.1208" fill="white"
        transform="translate(28.9326 102.672) rotate(-22)" />
    </clipPath>
  </defs>
</svg>