<svg width="96" height="96" viewBox="0 0 96 96" fill="none" xmlns="http://www.w3.org/2000/svg">
<g filter="url(#filter0_d_8219_2143)">
<rect x="3" y="0.836426" width="90" height="90" rx="45" fill="url(#paint0_linear_8219_2143)" shape-rendering="crispEdges"/>
<path d="M63.6709 32.5069L51.3064 28.7979L58.1619 25.3719C58.2446 25.3306 58.3182 25.2734 58.3788 25.2036C58.4393 25.1338 58.4855 25.0528 58.5147 24.9651C58.544 24.8775 58.5556 24.7849 58.5491 24.6928C58.5425 24.6006 58.5179 24.5106 58.4766 24.428C58.4352 24.3453 58.378 24.2717 58.3083 24.2111C58.2384 24.1506 58.1574 24.1044 58.0698 24.0752C57.9821 24.0459 57.8896 24.0343 57.7974 24.0408C57.7052 24.0474 57.6153 24.072 57.5326 24.1133L49.2305 28.2583C45.7189 28.3077 42.3677 29.7366 39.9009 32.2362C37.4341 34.7359 36.0498 38.1057 36.0469 41.6176V59.8989C36.0469 60.0854 36.121 60.2642 36.2528 60.3961C36.3847 60.5279 36.5635 60.602 36.75 60.602C36.9365 60.602 37.1153 60.5279 37.2472 60.3961C37.379 60.2642 37.4531 60.0854 37.4531 59.8989V53.5708H41.6719V64.1176C41.6719 64.6771 41.8941 65.2136 42.2897 65.6092C42.6853 66.0048 43.2218 66.227 43.7812 66.227H55.0312C55.5907 66.227 56.1272 66.0048 56.5228 65.6092C56.9184 65.2136 57.1406 64.6771 57.1406 64.1176V41.6176C57.1379 39.689 56.4157 37.8308 55.1153 36.4065C53.8148 34.9822 52.0298 34.0944 50.1094 33.9167V29.9071L63.2666 33.8534C63.3321 33.8736 63.4002 33.8837 63.4688 33.8833C63.6374 33.8831 63.8004 33.8223 63.928 33.712C64.0556 33.6017 64.1392 33.4492 64.1638 33.2823C64.1883 33.1154 64.152 32.9453 64.0615 32.803C63.971 32.6606 63.8324 32.5555 63.6709 32.5069ZM37.4531 52.1645V41.6176C37.457 38.5706 38.6232 35.6397 40.7136 33.4228C42.8041 31.2059 45.6615 29.87 48.7031 29.6874V33.9167C46.7827 34.0944 44.9977 34.9822 43.6972 36.4065C42.3968 37.8308 41.6746 39.689 41.6719 41.6176V52.1645H37.4531ZM55.0312 64.8208H43.7812C43.5948 64.8208 43.4159 64.7467 43.2841 64.6148C43.1522 64.483 43.0781 64.3041 43.0781 64.1176V53.5708H55.7344V64.1176C55.7344 64.3041 55.6603 64.483 55.5284 64.6148C55.3966 64.7467 55.2177 64.8208 55.0312 64.8208ZM55.7344 41.6176V52.1645H43.0781V41.6176C43.0781 39.9393 43.7448 38.3297 44.9316 37.143C46.1183 35.9562 47.7279 35.2895 49.4062 35.2895C51.0846 35.2895 52.6942 35.9562 53.8809 37.143C55.0677 38.3297 55.7344 39.9393 55.7344 41.6176Z" fill="#FFF4EB"/>
</g>
<defs>
<filter id="filter0_d_8219_2143" x="0.857143" y="0.836426" width="94.2857" height="94.2857" filterUnits="userSpaceOnUse" color-interpolation-filters="sRGB">
<feFlood flood-opacity="0" result="BackgroundImageFix"/>
<feColorMatrix in="SourceAlpha" type="matrix" values="0 0 0 0 0 0 0 0 0 0 0 0 0 0 0 0 0 0 127 0" result="hardAlpha"/>
<feOffset dy="2.14286"/>
<feGaussianBlur stdDeviation="1.07143"/>
<feComposite in2="hardAlpha" operator="out"/>
<feColorMatrix type="matrix" values="0 0 0 0 0 0 0 0 0 0 0 0 0 0 0 0 0 0 0.08 0"/>
<feBlend mode="normal" in2="BackgroundImageFix" result="effect1_dropShadow_8219_2143"/>
<feBlend mode="normal" in="SourceGraphic" in2="effect1_dropShadow_8219_2143" result="shape"/>
</filter>
<linearGradient id="paint0_linear_8219_2143" x1="48" y1="0.836426" x2="48" y2="90.8364" gradientUnits="userSpaceOnUse">
<stop stop-color="#5489A3"/>
<stop offset="1" stop-color="#577B91"/>
</linearGradient>
</defs>
</svg>
