<svg width="309" height="65" viewBox="0 0 309 65" fill="none" xmlns="http://www.w3.org/2000/svg">
<path d="M72.9647 31.5286C71.7174 31.5286 70.3143 29.5018 68.9111 27.9427C66.1048 24.5127 65.4811 23.7332 65.4811 23.4214C65.4811 23.1096 67.9756 21.2387 70.0024 19.3678C71.2497 18.1205 72.497 16.4055 72.497 15.9378L72.0292 15.7819L68.7552 15.9378L67.0402 15.7819C66.5725 15.7819 66.4166 15.9378 66.4166 16.2496C66.4166 16.5614 66.5725 16.7174 67.1961 16.7174C68.9111 16.7174 69.067 16.7174 69.067 17.4969C69.067 18.2764 68.7552 18.9001 67.1961 20.4591C65.7929 21.7064 61.5834 25.4482 60.648 25.4482L60.4921 25.1364L60.648 7.83063L60.8039 4.24476L60.4921 3.93295C60.1803 3.93295 57.6858 4.86839 54.8794 4.86839C54.4117 4.86839 54.2558 5.0243 54.2558 5.33611C54.2558 5.64793 54.4117 5.80383 56.1267 5.80383C57.218 5.80383 57.5299 6.11565 57.5299 9.07789L57.3739 30.749C57.3739 31.3727 57.0621 31.3727 55.659 31.3727C54.7235 31.3727 54.5676 31.5286 54.5676 31.8404C54.5676 32.1522 54.7235 32.3081 55.659 32.3081L59.0889 32.1522L62.8307 32.3081C63.7661 32.3081 63.9221 32.3081 63.9221 31.8404C63.9221 31.5286 63.7661 31.3727 62.8307 31.3727C60.3362 31.3727 60.4921 31.3727 60.4921 29.3459V26.8513C60.4921 26.5395 60.9598 26.2277 61.7394 25.76L63.1425 24.9804L66.7284 29.5018C68.4434 31.3727 68.7552 32.464 69.5347 32.464L71.7174 32.3081L73.1206 32.464C74.056 32.464 74.3679 32.3081 74.3679 31.9963C74.3679 31.6845 74.056 31.5286 72.9647 31.5286ZM89.0232 31.3727C87.9318 31.3727 87.9318 31.5286 87.9318 31.8404C87.9318 32.1522 88.0877 32.3081 89.0232 32.3081L93.0767 32.1522L95.2595 32.3081C96.6626 32.3081 96.9744 32.3081 96.9744 31.8404C96.9744 31.5286 97.1303 31.2167 95.1035 31.2167C94.324 31.3727 94.0122 30.9049 94.0122 27.475C94.0122 26.3836 94.324 23.1096 94.324 7.67472L94.4799 4.55658C94.4799 4.08885 94.1681 3.93295 94.0122 3.93295C93.8563 3.93295 92.2972 4.55658 89.1791 4.86839C88.3995 4.86839 88.0877 4.86839 88.0877 5.33611C88.0877 5.80383 88.5554 5.80383 89.1791 5.80383C91.0499 5.80383 91.3618 5.80383 91.3618 8.29835V30.5931C91.3618 31.3727 90.5822 31.3727 89.0232 31.3727ZM103.523 16.2496C105.393 16.2496 107.732 19.2119 107.732 20.3032C107.732 20.615 107.732 20.615 107.264 20.7709C104.146 21.2387 101.963 21.7064 99.9367 21.7064L99.469 21.5505C99.469 20.9269 100.404 16.2496 103.523 16.2496ZM104.614 32.9317C107.888 32.9317 111.318 30.4372 111.318 30.1254L111.006 29.8136C110.694 29.8136 109.291 30.749 106.641 30.749C103.523 30.749 99.1571 29.3459 99.1571 23.7332C99.1571 22.7977 99.313 22.6418 99.9367 22.4859C103.781 22.2225 107.592 21.5961 111.318 20.615L110.071 18.4323C108.512 16.7174 106.017 15.4701 103.834 15.4701C100.248 15.4701 96.3508 18.9001 96.3508 24.5127C96.3508 31.2167 101.34 32.9317 104.614 32.9317ZM80.1364 16.2496C82.0073 16.2496 84.3459 19.2119 84.3459 20.3032C84.3459 20.615 84.3459 20.615 83.8782 20.7709C80.916 21.2387 78.7333 21.7064 76.5506 21.7064L76.0828 21.5505C76.0828 20.9269 77.0183 16.2496 80.1364 16.2496ZM81.2278 32.9317C84.5018 32.9317 87.9318 30.4372 87.9318 30.1254C87.9318 30.1254 87.9318 29.8136 87.62 29.8136C87.4641 29.8136 85.905 30.749 83.2546 30.749C80.2923 30.749 75.9269 29.3459 75.9269 23.7332C75.9269 22.7977 76.0828 22.6418 76.7065 22.4859C80.5505 22.2206 84.361 21.5942 88.0877 20.615C87.4182 19.1638 86.3698 17.9199 85.0528 17.0144C83.7357 16.109 82.1989 15.5755 80.6042 15.4701C76.8624 15.4701 72.9647 18.9001 72.9647 24.5127C72.9647 31.2167 77.9537 32.9317 81.2278 32.9317ZM51.9172 31.8404C51.9172 31.5286 51.9172 31.3727 50.8258 31.3727C47.8636 31.3727 47.7077 31.3727 47.7077 29.3459V21.0828C47.7077 19.3678 48.6431 18.4323 50.9817 18.4323C53.0085 18.4323 53.4763 19.9914 53.944 19.9914C54.2558 19.9914 54.8794 18.2764 54.8794 17.8087C54.8794 16.8733 53.0085 15.9378 52.229 15.9378C50.3581 15.9378 48.4872 18.1205 47.8636 18.1205L47.7077 17.341V16.2496C47.7077 15.9378 47.5518 15.7819 47.3959 15.7819L45.3691 15.9378H42.4068C41.7832 15.9378 41.7832 15.9378 41.7832 16.4055C41.7832 16.8733 41.7832 16.8733 42.5627 16.8733C44.7454 16.8733 44.7454 17.0292 44.7454 19.6796V30.749C44.7454 31.3727 44.5895 31.3727 42.8746 31.3727C41.9391 31.3727 41.9391 31.5286 41.9391 31.8404C41.9391 32.1522 41.9391 32.3081 42.8746 32.3081L46.3045 32.1522L50.8258 32.3081C51.9172 32.3081 51.9172 32.3081 51.9172 31.8404ZM33.0524 16.2496C34.7674 16.2496 37.2619 19.2119 37.2619 20.3032C37.2619 20.615 37.2619 20.615 36.7942 20.7709C33.676 21.2387 31.4933 21.7064 29.4665 21.7064L28.9988 21.5505C28.9988 20.9269 29.9342 16.2496 33.0524 16.2496ZM34.1437 32.9317C37.4178 32.9317 40.8478 30.4372 40.8478 30.1254L40.5359 29.8136C40.2241 29.8136 38.821 30.749 36.1705 30.749C33.0524 30.749 28.687 29.3459 28.687 23.7332C28.687 22.7977 28.8429 22.6418 29.4665 22.4859C33.3108 22.2225 37.1215 21.5961 40.8478 20.615L39.6005 18.4323C38.0414 16.7174 35.5469 15.4701 33.3642 15.4701C29.7783 15.4701 25.8806 18.9001 25.8806 24.5127C25.8806 31.2167 30.8697 32.9317 34.1437 32.9317ZM13.8758 31.8404C12.3167 31.8404 10.9135 31.5286 10.2899 30.9049C9.97808 30.4372 9.82218 27.9427 9.82218 27.475V19.2119C9.82218 18.1205 10.134 17.9646 11.3813 17.9646C16.5262 17.9646 19.9562 21.2387 19.9562 25.2923C19.9562 29.5018 17.4616 31.8404 13.8758 31.8404ZM9.82218 6.27156C9.82218 5.33611 9.97808 5.0243 13.0962 5.0243C17.3057 5.0243 19.1766 9.38971 19.1766 11.7283C19.1766 15.4701 17.6175 16.2496 16.3703 17.341C16.3703 17.341 14.3435 17.0292 11.5372 17.0292C10.4458 17.0292 9.82218 17.1851 9.82218 16.4055V6.27156ZM19.4884 18.2764L17.6175 17.4969L19.6443 16.2496C21.0475 15.1583 23.0743 13.5992 23.0743 10.3252C23.0743 7.05109 20.4239 3.93295 14.3435 3.93295L7.01584 4.08885H2.49453C1.71499 4.08885 1.55908 4.08885 1.55908 4.40067C1.55908 5.0243 1.71499 5.0243 3.89769 5.0243C5.14495 5.0243 5.92449 5.49202 5.92449 9.2338V30.5931C5.92449 31.2167 5.76858 31.3727 3.74179 31.3727C2.65043 31.3727 2.49453 31.3727 2.49453 31.8404C2.49453 32.3081 2.80634 32.464 3.27406 32.464L7.63947 32.1522C9.66627 32.1522 11.6931 32.6199 13.564 32.6199C20.1121 32.6199 24.4775 30.2813 24.4775 24.9804C24.4775 20.9269 21.6711 19.3678 19.4884 18.2764ZM128.156 15.7819L125.973 15.9378L123.011 15.7819C122.231 15.7819 122.231 15.7819 122.231 16.4055C122.231 16.7174 122.387 16.7174 123.635 16.7174C124.882 16.7174 124.882 17.0292 124.882 18.2764L122.543 25.9159C121.92 27.7868 121.608 28.4104 121.296 28.4104L120.361 26.8513C118.022 20.615 116.931 19.2119 116.931 17.9646C116.931 17.0292 117.086 16.8733 118.178 16.8733C118.957 16.8733 119.113 16.8733 119.113 16.4055C119.113 16.0937 118.957 15.7819 118.178 15.7819L114.28 15.9378H111.942C111.162 15.9378 111.006 16.0937 111.006 16.4055C111.006 16.8733 111.006 16.8733 111.942 16.8733C112.565 16.8733 112.877 17.0292 113.968 19.5237C116.151 24.6686 119.425 32.1522 119.425 32.6199C119.425 33.8672 115.839 38.7003 114.436 40.4153C113.033 42.2862 111.162 42.4421 111.162 42.7539C111.162 42.9098 111.63 43.0657 112.253 43.0657C113.189 43.0657 113.501 42.7539 114.592 42.598C115.527 42.4421 115.995 42.4421 116.463 41.5066C117.71 38.8562 119.581 35.5822 122.076 29.5018C125.35 21.7064 127.065 16.8733 128 16.8733C128.468 16.8733 129.091 16.5614 129.091 16.2496C129.091 15.7819 128.935 15.7819 128.156 15.7819Z" fill="#003262"/>
<path d="M146.241 24.9804H143.123V32.9317H140.94V10.4811H146.553C152.478 10.4811 155.284 13.2874 155.284 17.4969C155.284 22.33 151.698 24.9804 146.241 24.9804ZM146.397 12.6638H143.123V22.9537L146.397 22.7977C150.607 22.7977 152.945 21.0828 152.945 17.4969C152.945 14.3787 150.607 12.6638 146.397 12.6638ZM160.117 16.5614V27.1632C160.117 29.9695 161.364 31.2167 163.703 31.2167C165.574 31.2167 167.445 30.2813 168.692 28.8781V16.5614H171.031V32.9317L168.692 33.3995V30.749C167.237 32.3283 165.224 33.2789 163.079 33.3995C159.961 33.3995 157.934 31.3727 157.934 27.7868V16.5614H160.117ZM181.476 33.3995C180.229 33.3995 178.514 32.9317 177.423 32.464L175.24 33.3995V8.76608L177.423 8.29836V18.2764C178.514 17.1851 180.229 16.0937 182.412 16.0937C186.777 16.0937 189.584 19.5237 189.584 24.5127C189.584 29.6577 186.154 33.3995 181.476 33.3995ZM181.944 18.1205C180.229 18.1205 178.67 18.9001 177.423 19.9914V30.1254C178.514 30.9049 180.073 31.3727 181.632 31.3727C185.062 31.3727 187.245 28.5663 187.245 24.5127C187.245 20.9269 185.218 18.1205 181.944 18.1205ZM192.858 32.9317V8.76608L195.04 8.29836V32.9317H192.858ZM200.497 12.6638C199.406 12.6638 198.938 11.8842 198.938 11.1047C198.938 10.1692 199.406 9.54561 200.497 9.54561C201.433 9.54561 201.9 10.1692 201.9 11.1047C201.9 11.8842 201.433 12.6638 200.497 12.6638ZM199.25 32.9317V16.5614L201.588 16.0937V32.9317H199.25ZM212.814 33.3995C207.825 33.3995 204.707 29.8136 204.707 24.6686C204.707 19.6796 208.137 16.0937 212.814 16.0937C214.841 16.0937 216.556 16.5614 217.959 17.4969L217.335 19.3678C216.088 18.5882 214.529 18.1205 212.814 18.1205C209.228 18.1205 207.045 20.7709 207.045 24.6686C207.045 28.7222 209.384 31.3727 212.814 31.3727C214.529 31.3727 216.088 30.749 217.335 29.9695L217.803 31.9963C216.4 32.7758 214.685 33.3995 212.814 33.3995ZM233.861 24.9804H230.899V32.9317H228.56V10.4811H234.173C240.098 10.4811 242.904 13.2874 242.904 17.4969C242.904 22.33 239.474 24.9804 233.861 24.9804ZM234.173 12.6638H230.899V22.9537L234.017 22.7977C238.227 22.7977 240.565 21.0828 240.565 17.4969C240.565 14.3787 238.383 12.6638 234.173 12.6638ZM252.414 33.3995C247.737 33.3995 244.463 29.9695 244.463 24.6686C244.463 19.5237 247.893 16.0937 252.57 16.0937C257.247 16.0937 260.366 19.3678 260.366 24.6686C260.366 29.9695 256.936 33.3995 252.414 33.3995ZM252.414 17.9646C248.984 17.9646 246.646 20.7709 246.646 24.6686C246.646 28.7222 248.984 31.3727 252.414 31.3727C255.844 31.3727 258.183 28.5663 258.183 24.6686C258.183 20.7709 255.844 17.9646 252.414 17.9646ZM263.795 32.9317V8.76608L265.978 8.29836V32.9317H263.795ZM271.279 12.6638C270.344 12.6638 269.876 11.8842 269.876 11.1047C269.876 10.1692 270.344 9.54561 271.279 9.54561C272.37 9.54561 272.838 10.1692 272.838 11.1047C272.838 11.8842 272.37 12.6638 271.279 12.6638ZM270.188 32.9317V16.5614L272.526 16.0937V32.9317H270.188ZM283.752 33.3995C278.763 33.3995 275.644 29.8136 275.644 24.6686C275.644 19.6796 279.074 16.0937 283.752 16.0937C285.778 16.0937 287.493 16.5614 288.897 17.4969L288.273 19.3678C287.026 18.5882 285.467 18.1205 283.752 18.1205C280.166 18.1205 277.983 20.7709 277.983 24.6686C277.983 28.7222 280.322 31.3727 283.752 31.3727C285.467 31.3727 287.026 30.749 288.273 29.9695L288.741 31.9963C287.338 32.7758 285.623 33.3995 283.752 33.3995ZM299.031 32.7758L297.783 36.2058C296.224 40.2594 294.665 41.5066 292.482 41.5066C291.235 41.5066 290.3 41.1948 289.208 40.7271L289.988 38.7003C290.767 39.168 291.547 39.3239 292.482 39.3239C293.73 39.3239 294.665 38.7003 295.757 35.5822L296.848 32.6199L290.456 16.5614H292.95L298.095 29.9695L303.084 16.5614H305.423L299.031 32.7758Z" fill="#C4820E"/>
<path d="M10.29 49.7697V62.3982H8.41912V49.7697H3.27417V47.8988H15.4349V49.7697H10.29ZM24.0099 62.3982V55.6942C24.0099 53.8233 23.3862 53.1997 21.9831 53.1997C20.7358 53.1997 19.6445 53.8233 19.0208 54.447V62.3982H17.1499V46.6516L19.0208 46.3398V53.0438C19.9563 51.9524 21.2035 51.4847 22.6067 51.4847C24.6335 51.4847 25.8807 52.732 25.8807 55.0706V62.3982H24.0099ZM29.9343 57.4092C29.9343 59.5919 31.3375 60.9951 33.3643 60.9951C34.4557 60.9951 35.7029 60.6833 36.6384 60.0596L36.9502 61.9305C36.0147 62.3982 34.7675 62.71 33.3643 62.71C30.0903 62.71 27.9075 60.5273 27.9075 57.2533C27.9075 53.8233 30.2462 51.3288 33.2084 51.3288C35.8588 51.4847 37.262 53.0438 37.262 55.5383L37.1061 57.2533H29.9343V57.4092ZM35.3911 55.8501V55.6942C35.3911 54.1351 34.7675 53.0438 33.0525 53.0438C31.1816 53.0438 30.0903 54.6029 29.9343 56.006L35.3911 55.8501ZM51.9173 62.71C47.5519 62.71 44.5896 59.7478 44.5896 55.2265C44.5896 50.5493 47.5519 47.4311 51.9173 47.4311C53.6323 47.587 55.5032 48.0547 56.7504 48.8343L56.1268 50.5493C54.8795 49.9256 53.3205 49.302 51.9173 49.302C48.6432 49.302 46.6164 51.4847 46.6164 55.0706C46.6164 58.6565 48.7991 60.9951 51.9173 60.9951C53.1646 60.9951 54.2559 60.6833 55.0354 60.2155V56.7856H50.9818V54.9147H56.9063V61.3069C55.5032 62.2423 53.4764 62.71 51.9173 62.71ZM64.234 62.71C61.2717 62.71 59.089 60.5273 59.089 57.0974C59.089 53.6674 61.2717 51.3288 64.3899 51.3288C67.3521 51.3288 69.5348 53.6674 69.5348 57.0974C69.5348 60.5273 67.1962 62.71 64.234 62.71ZM64.234 53.0438C62.2072 53.0438 60.9599 54.7588 60.9599 57.0974C60.9599 59.2801 62.2072 60.9951 64.234 60.9951C66.4167 60.9951 67.508 59.436 67.508 57.0974C67.6639 54.7588 66.4167 53.0438 64.234 53.0438ZM71.5616 62.3982V46.6516L73.4325 46.3398V62.3982H71.5616ZM83.2547 46.6516L85.2815 46.3398V62.3982H83.2547V61.4628C82.4752 62.0864 81.5397 62.71 80.2924 62.71C77.3302 62.71 75.6152 60.3714 75.6152 57.0974C75.6152 53.8233 77.7979 51.3288 81.072 51.3288C81.6956 51.3288 82.6311 51.4847 83.2547 51.7965V46.6516ZM80.9161 53.1997C78.7334 53.1997 77.642 54.9147 77.642 57.0974C77.642 59.436 78.7334 60.9951 80.7602 60.9951C81.6956 60.9951 82.6311 60.6833 83.2547 59.9037V53.8233C82.6311 53.3556 81.8515 53.1997 80.9161 53.1997ZM101.34 62.3982V55.6942C101.34 53.8233 100.56 53.1997 99.1572 53.1997C98.0659 53.1997 97.1304 53.8233 96.5068 54.447V62.3982H94.6359V55.6942C94.6359 53.8233 94.0123 53.1997 92.6091 53.1997C91.3619 53.1997 90.4264 53.6674 89.8028 54.291V62.3982H87.9319V51.6406L89.8028 51.3288V52.8879C90.8941 51.7965 91.9855 51.3288 93.2328 51.3288C94.48 51.3288 95.5714 51.9524 96.0391 53.1997C97.2864 51.9524 98.5336 51.3288 99.9368 51.3288C101.964 51.3288 103.211 52.732 103.211 55.0706V62.3982H101.34ZM111.474 61.3069C110.694 62.2423 109.759 62.71 108.668 62.71C106.641 62.71 105.238 61.4628 105.238 59.7478C105.238 57.8769 106.641 56.1619 111.63 55.8501V55.5383C111.63 53.8233 110.85 53.1997 109.135 53.1997C108.044 53.1997 106.797 53.6674 105.705 54.447L105.394 52.5761C106.329 51.9524 107.888 51.4847 109.291 51.4847C112.253 51.4847 113.501 52.5761 113.501 55.5383V60.0596C113.501 60.9951 113.657 61.151 114.592 61.151L114.436 62.71C112.721 62.866 111.942 62.2423 111.63 61.3069H111.474ZM111.63 57.0974C108.356 57.5651 107.264 58.1887 107.264 59.436C107.264 60.3714 107.888 61.151 109.135 61.151C110.071 61.151 111.006 60.6833 111.63 60.0596V57.0974ZM123.167 62.3982V55.6942C123.167 53.8233 122.387 53.1997 120.984 53.1997C119.737 53.1997 118.646 53.8233 118.178 54.447V62.3982H116.151V51.6406L118.178 51.3288V53.0438C119.113 51.9524 120.361 51.3288 121.608 51.3288C123.791 51.3288 125.038 52.732 125.038 55.0706V62.3982H123.167ZM140.785 58.5005C140.785 57.0974 139.693 56.4738 137.355 55.8501C135.328 55.3824 132.989 54.447 132.989 51.6406C132.989 49.1461 135.016 47.587 137.822 47.587C139.537 47.587 141.096 47.8988 142.5 48.8343L141.72 50.5493C140.629 49.7697 139.225 49.302 137.822 49.302C135.795 49.302 134.86 50.2375 134.86 51.4847C134.86 52.8879 136.107 53.5115 138.446 54.1351C140.629 54.6029 142.811 55.6942 142.811 58.3446C142.811 60.8392 140.629 62.71 137.666 62.71C135.951 62.71 134.081 62.2423 132.833 61.4628L133.457 59.5919C134.704 60.3714 135.951 60.9951 137.666 60.9951C139.537 60.9951 140.785 60.0596 140.785 58.5005ZM149.671 62.71C146.241 62.71 144.37 60.5273 144.37 57.0974C144.37 53.6674 146.553 51.3288 149.671 51.3288C151.074 51.3288 152.166 51.6406 153.101 52.2643L152.633 53.9792C151.854 53.3556 150.763 53.1997 149.671 53.1997C147.489 53.1997 146.397 54.6029 146.397 57.0974C146.397 59.436 147.644 60.9951 149.671 60.9951C150.763 60.9951 151.854 60.6833 152.789 60.0596L153.101 61.9305C152.166 62.5541 150.919 62.71 149.671 62.71ZM161.832 62.3982V55.6942C161.832 53.8233 161.208 53.1997 159.805 53.1997C158.558 53.1997 157.467 53.8233 156.843 54.447V62.3982H154.972V46.6516L156.843 46.3398V53.0438C157.778 51.9524 159.026 51.4847 160.429 51.4847C162.456 51.4847 163.703 52.732 163.703 55.0706V62.3982H161.832ZM171.031 62.71C167.912 62.71 165.886 60.5273 165.886 57.0974C165.886 53.6674 168.068 51.3288 171.186 51.3288C174.149 51.3288 176.176 53.6674 176.176 57.0974C176.176 60.5273 173.993 62.71 171.031 62.71ZM171.031 53.0438C168.848 53.0438 167.757 54.7588 167.757 57.0974C167.757 59.2801 169.004 60.9951 171.031 60.9951C173.213 60.9951 174.305 59.436 174.305 57.0974C174.305 54.7588 173.057 53.0438 171.031 53.0438ZM182.88 62.71C179.917 62.71 177.735 60.5273 177.735 57.0974C177.735 53.6674 179.917 51.3288 183.035 51.3288C186.154 51.3288 188.18 53.6674 188.18 57.0974C188.18 60.5273 185.998 62.71 182.88 62.71ZM182.88 53.0438C180.853 53.0438 179.605 54.7588 179.605 57.0974C179.605 59.2801 180.853 60.9951 183.035 60.9951C185.062 60.9951 186.309 59.436 186.309 57.0974C186.309 54.7588 185.062 53.0438 182.88 53.0438ZM190.207 62.3982V46.6516L192.234 46.3398V62.3982H190.207Z" fill="#003262"/>
</svg>
