<svg width="99" height="99" viewBox="0 0 99 99" fill="none" xmlns="http://www.w3.org/2000/svg">
<g filter="url(#filter0_d_7231_2242)">
<rect x="4.5" y="0.335938" width="90" height="90" rx="45" fill="#E79450" shape-rendering="crispEdges"/>
<rect x="4.5" y="0.335938" width="90" height="90" rx="45" fill="url(#paint0_linear_7231_2242)" shape-rendering="crispEdges"/>
<path d="M70.6812 43.0171L58.8247 31.0798C55.787 28.0513 51.6716 26.3522 47.3821 26.3555C43.0927 26.3588 38.9799 28.0642 35.9468 31.0973L33.5245 33.5899C33.4582 33.6559 33.4058 33.7343 33.3702 33.8208C33.3346 33.9072 33.3167 33.9999 33.3173 34.0934C33.318 34.1869 33.3373 34.2793 33.3741 34.3652C33.4109 34.4511 33.4645 34.5288 33.5317 34.5938C33.5989 34.6588 33.6784 34.7097 33.7655 34.7436C33.8526 34.7775 33.9456 34.7937 34.039 34.7912C34.1325 34.7888 34.2245 34.7677 34.3097 34.7292C34.3949 34.6908 34.4716 34.6357 34.5353 34.5673L36.9487 32.0747C38.0939 30.9274 39.4208 29.9771 40.8757 29.2622L49.9108 38.3044L32.5384 55.6751C32.3417 55.871 32.1857 56.1039 32.0792 56.3603C31.9728 56.6167 31.918 56.8916 31.918 57.1692C31.918 57.4468 31.9728 57.7217 32.0792 57.9781C32.1857 58.2345 32.3417 58.4674 32.5384 58.6634L36.1753 62.295C36.3713 62.4916 36.6041 62.6477 36.8605 62.7541C37.1169 62.8606 37.3918 62.9154 37.6694 62.9154C37.9471 62.9154 38.222 62.8606 38.4784 62.7541C38.7347 62.6477 38.9676 62.4916 39.1636 62.295L56.5308 44.919L59.5489 47.9389L62.6532 51.0432C62.8492 51.2399 63.0821 51.3959 63.3385 51.5024C63.5949 51.6089 63.8697 51.6637 64.1474 51.6637C64.425 51.6637 64.6999 51.6089 64.9563 51.5024C65.2127 51.3959 65.4455 51.2399 65.6415 51.0432L70.6847 46.0001C71.0798 45.604 71.3013 45.0673 71.3007 44.5078C71.3 43.9484 71.0772 43.4122 70.6812 43.0171ZM38.1616 61.2983C38.0963 61.3637 38.0188 61.4156 37.9334 61.4509C37.8481 61.4863 37.7566 61.5045 37.6642 61.5045C37.5718 61.5045 37.4803 61.4863 37.3949 61.4509C37.3095 61.4156 37.232 61.3637 37.1667 61.2983L33.5333 57.6649C33.4679 57.5996 33.4161 57.5221 33.3807 57.4367C33.3453 57.3514 33.3271 57.2599 33.3271 57.1675C33.3271 57.0751 33.3453 56.9836 33.3807 56.8982C33.4161 56.8128 33.4679 56.7353 33.5333 56.67L45.9839 44.2159L50.614 48.8512L38.1616 61.2983ZM56.0333 43.4284L51.6089 47.8528L46.9771 43.2262L51.4032 38.7966C51.4686 38.7313 51.5205 38.6537 51.5558 38.5684C51.5912 38.483 51.6094 38.3915 51.6094 38.2991C51.6094 38.2067 51.5912 38.1152 51.5558 38.0298C51.5205 37.9445 51.4686 37.8669 51.4032 37.8016L42.2626 28.661C44.9109 27.6843 47.7833 27.4861 50.5407 28.0897C53.298 28.6934 55.8249 30.0738 57.8228 32.0677L66.0845 40.3909L60.0464 46.4466L57.0282 43.4284C56.9629 43.363 56.8854 43.3112 56.8 43.2758C56.7147 43.2404 56.6232 43.2222 56.5308 43.2222C56.4384 43.2222 56.3469 43.2404 56.2615 43.2758C56.1761 43.3112 56.0986 43.363 56.0333 43.4284ZM69.6845 45.0104L64.6431 50.0536C64.5778 50.119 64.5002 50.1708 64.4149 50.2062C64.3295 50.2416 64.238 50.2598 64.1456 50.2598C64.0532 50.2598 63.9617 50.2416 63.8764 50.2062C63.791 50.1708 63.7134 50.119 63.6481 50.0536L61.0413 47.445L67.0864 41.3981L69.6845 44.0138C69.8154 44.1455 69.8889 44.3237 69.8889 44.5095C69.8889 44.6952 69.8154 44.8734 69.6845 45.0052V45.0104Z" fill="#1C2745"/>
</g>
<defs>
<filter id="filter0_d_7231_2242" x="0.5" y="0.335938" width="98" height="98" filterUnits="userSpaceOnUse" color-interpolation-filters="sRGB">
<feFlood flood-opacity="0" result="BackgroundImageFix"/>
<feColorMatrix in="SourceAlpha" type="matrix" values="0 0 0 0 0 0 0 0 0 0 0 0 0 0 0 0 0 0 127 0" result="hardAlpha"/>
<feOffset dy="4"/>
<feGaussianBlur stdDeviation="2"/>
<feComposite in2="hardAlpha" operator="out"/>
<feColorMatrix type="matrix" values="0 0 0 0 0 0 0 0 0 0 0 0 0 0 0 0 0 0 0.13 0"/>
<feBlend mode="normal" in2="BackgroundImageFix" result="effect1_dropShadow_7231_2242"/>
<feBlend mode="normal" in="SourceGraphic" in2="effect1_dropShadow_7231_2242" result="shape"/>
</filter>
<linearGradient id="paint0_linear_7231_2242" x1="49.5" y1="0.335937" x2="49.5" y2="90.3359" gradientUnits="userSpaceOnUse">
<stop stop-color="#C78A54" stop-opacity="0"/>
<stop offset="1" stop-color="#C78A54"/>
</linearGradient>
</defs>
</svg>
