<svg width="96" height="96" viewBox="0 0 96 96" fill="none" xmlns="http://www.w3.org/2000/svg">
<g filter="url(#filter0_d_8219_2119)">
<rect x="3" y="0.836426" width="90" height="90" rx="45" fill="url(#paint0_linear_8219_2119)" shape-rendering="crispEdges"/>
<path d="M69.1812 43.5179L57.3247 31.5806C54.287 28.5521 50.1716 26.853 45.8821 26.8563C41.5927 26.8596 37.4799 28.565 34.4468 31.5981L32.0245 34.0907C31.9582 34.1566 31.9058 34.2351 31.8702 34.3216C31.8346 34.408 31.8167 34.5007 31.8173 34.5942C31.818 34.6876 31.8373 34.7801 31.8741 34.866C31.9109 34.9519 31.9645 35.0296 32.0317 35.0946C32.0989 35.1596 32.1784 35.2105 32.2655 35.2444C32.3526 35.2783 32.4456 35.2945 32.539 35.292C32.6325 35.2896 32.7245 35.2685 32.8097 35.23C32.8949 35.1916 32.9716 35.1365 33.0353 35.0681L35.4487 32.5755C36.5939 31.4282 37.9208 30.4779 39.3757 29.763L48.4108 38.8052L31.0384 56.1759C30.8417 56.3718 30.6857 56.6047 30.5792 56.8611C30.4728 57.1175 30.418 57.3924 30.418 57.67C30.418 57.9476 30.4728 58.2225 30.5792 58.4789C30.6857 58.7353 30.8417 58.9682 31.0384 59.1642L34.6753 62.7958C34.8713 62.9924 35.1041 63.1485 35.3605 63.2549C35.6169 63.3614 35.8918 63.4162 36.1694 63.4162C36.4471 63.4162 36.722 63.3614 36.9784 63.2549C37.2347 63.1485 37.4676 62.9924 37.6636 62.7958L55.0308 45.4198L58.0489 48.4397L61.1532 51.544C61.3492 51.7407 61.5821 51.8967 61.8385 52.0032C62.0949 52.1096 62.3697 52.1644 62.6474 52.1644C62.925 52.1644 63.1999 52.1096 63.4563 52.0032C63.7127 51.8967 63.9455 51.7407 64.1415 51.544L69.1847 46.5009C69.5798 46.1048 69.8013 45.5681 69.8007 45.0086C69.8 44.4492 69.5772 43.913 69.1812 43.5179ZM36.6616 61.7991C36.5963 61.8645 36.5188 61.9163 36.4334 61.9517C36.3481 61.9871 36.2566 62.0053 36.1642 62.0053C36.0718 62.0053 35.9803 61.9871 35.8949 61.9517C35.8095 61.9163 35.732 61.8645 35.6667 61.7991L32.0333 58.1657C31.9679 58.1004 31.9161 58.0229 31.8807 57.9375C31.8453 57.8522 31.8271 57.7607 31.8271 57.6683C31.8271 57.5759 31.8453 57.4844 31.8807 57.399C31.9161 57.3136 31.9679 57.2361 32.0333 57.1708L44.4839 44.7167L49.114 49.352L36.6616 61.7991ZM54.5333 43.9292L50.1089 48.3536L45.4771 43.727L49.9032 39.2974C49.9686 39.2321 50.0205 39.1545 50.0558 39.0691C50.0912 38.9838 50.1094 38.8923 50.1094 38.7999C50.1094 38.7075 50.0912 38.616 50.0558 38.5306C50.0205 38.4453 49.9686 38.3677 49.9032 38.3024L40.7626 29.1618C43.4109 28.1851 46.2833 27.9869 49.0407 28.5905C51.798 29.1942 54.3249 30.5745 56.3228 32.5685L64.5845 40.8917L58.5464 46.9474L55.5282 43.9292C55.4629 43.8638 55.3854 43.812 55.3 43.7766C55.2147 43.7412 55.1232 43.723 55.0308 43.723C54.9384 43.723 54.8469 43.7412 54.7615 43.7766C54.6761 43.812 54.5986 43.8638 54.5333 43.9292ZM68.1845 45.5112L63.1431 50.5544C63.0778 50.6198 63.0002 50.6716 62.9149 50.707C62.8295 50.7424 62.738 50.7606 62.6456 50.7606C62.5532 50.7606 62.4617 50.7424 62.3764 50.707C62.291 50.6716 62.2134 50.6198 62.1481 50.5544L59.5413 47.9458L65.5864 41.8989L68.1845 44.5145C68.3154 44.6463 68.3889 44.8245 68.3889 45.0102C68.3889 45.196 68.3154 45.3742 68.1845 45.5059V45.5112Z" fill="#FFF4EB"/>
</g>
<defs>
<filter id="filter0_d_8219_2119" x="0.857143" y="0.836426" width="94.2857" height="94.2857" filterUnits="userSpaceOnUse" color-interpolation-filters="sRGB">
<feFlood flood-opacity="0" result="BackgroundImageFix"/>
<feColorMatrix in="SourceAlpha" type="matrix" values="0 0 0 0 0 0 0 0 0 0 0 0 0 0 0 0 0 0 127 0" result="hardAlpha"/>
<feOffset dy="2.14286"/>
<feGaussianBlur stdDeviation="1.07143"/>
<feComposite in2="hardAlpha" operator="out"/>
<feColorMatrix type="matrix" values="0 0 0 0 0 0 0 0 0 0 0 0 0 0 0 0 0 0 0.08 0"/>
<feBlend mode="normal" in2="BackgroundImageFix" result="effect1_dropShadow_8219_2119"/>
<feBlend mode="normal" in="SourceGraphic" in2="effect1_dropShadow_8219_2119" result="shape"/>
</filter>
<linearGradient id="paint0_linear_8219_2119" x1="48" y1="0.836426" x2="48" y2="90.8364" gradientUnits="userSpaceOnUse">
<stop stop-color="#5489A3"/>
<stop offset="1" stop-color="#577B91"/>
</linearGradient>
</defs>
</svg>
