<svg width="63" height="65" viewBox="0 0 63 65" fill="none" xmlns="http://www.w3.org/2000/svg">
<g filter="url(#filter0_d_11252_13204)">
<rect y="0.25293" width="60" height="60" rx="30" fill="url(#paint0_linear_11252_13204)" shape-rendering="crispEdges"/>
<path d="M41.707 32.1562C41.4141 31.9307 41.0729 31.776 40.7102 31.7042C40.3475 31.6324 39.9732 31.6456 39.6164 31.7425L38.216 32.0648C41.1633 29.5359 42.6563 27.0398 42.6563 24.6281C42.6563 21.7851 40.3711 19.4718 37.5633 19.4718C36.7163 19.4651 35.881 19.6699 35.1333 20.0677C34.3855 20.4655 33.7489 21.0438 33.2813 21.75C32.8136 21.0438 32.177 20.4655 31.4292 20.0677C30.6815 19.6699 29.8462 19.4651 28.9992 19.4718C26.1914 19.4718 23.9063 21.7851 23.9063 24.6281C23.9063 26.0168 24.3879 27.375 25.4074 28.8468C24.5832 28.8775 23.8013 29.2197 23.2195 29.8043L20.4305 32.5968H16.875C16.502 32.5968 16.1444 32.745 15.8806 33.0087C15.6169 33.2724 15.4688 33.6301 15.4688 34.0031L15.4688 38.6906C15.4688 39.0636 15.6169 39.4212 15.8806 39.685C16.1444 39.9487 16.502 40.0968 16.875 40.0968H29.0625C29.102 40.0971 29.1414 40.0924 29.1797 40.0828L36.6797 38.2078C36.7036 38.2016 36.7271 38.1937 36.75 38.1843L41.2992 36.2461L41.325 36.2343C41.6915 36.0511 42.0054 35.7776 42.237 35.4396C42.4687 35.1016 42.6104 34.7102 42.649 34.3022C42.6876 33.8943 42.6217 33.4832 42.4575 33.1078C42.2933 32.7323 42.0362 32.4049 41.7105 32.1562H41.707ZM28.9992 20.4093C29.8188 20.3991 30.6228 20.6336 31.3084 21.0829C31.9939 21.5321 32.5299 22.1757 32.8477 22.9312C32.883 23.0172 32.9431 23.0907 33.0203 23.1425C33.0975 23.1942 33.1883 23.2219 33.2813 23.2219C33.3742 23.2219 33.465 23.1942 33.5422 23.1425C33.6195 23.0907 33.6795 23.0172 33.7148 22.9312C34.0326 22.1757 34.5686 21.5321 35.2541 21.0829C35.9397 20.6336 36.7437 20.3991 37.5633 20.4093C39.8156 20.4093 41.7188 22.3418 41.7188 24.6281C41.7188 27.1207 39.8285 29.7843 36.1008 32.5511L33.8379 33.0656C34.0874 32.639 34.2189 32.1536 34.2188 31.6593C34.2188 30.9134 33.9224 30.1981 33.395 29.6706C32.8675 29.1432 32.1522 28.8468 31.4063 28.8468H26.5652C25.3934 27.3234 24.8438 25.9757 24.8438 24.6281C24.8438 22.3418 26.7469 20.4093 28.9992 20.4093ZM16.4063 38.6906V34.0031C16.4063 33.8788 16.4556 33.7595 16.5435 33.6716C16.6315 33.5837 16.7507 33.5343 16.875 33.5343H20.1563V39.1593H16.875C16.7507 39.1593 16.6315 39.11 16.5435 39.0221C16.4556 38.9341 16.4063 38.8149 16.4063 38.6906ZM40.9137 35.3894L36.4125 37.3078L29.0051 39.1593H21.0938V33.2601L23.8828 30.4711C24.0999 30.2527 24.3581 30.0795 24.6425 29.9617C24.927 29.8438 25.232 29.7835 25.5398 29.7843H31.4063C31.9035 29.7843 32.3804 29.9819 32.7321 30.3335C33.0837 30.6852 33.2813 31.1621 33.2813 31.6593C33.2813 32.1566 33.0837 32.6335 32.7321 32.9852C32.3804 33.3368 31.9035 33.5343 31.4063 33.5343H28.125C28.0007 33.5343 27.8815 33.5837 27.7935 33.6716C27.7056 33.7595 27.6563 33.8788 27.6563 34.0031C27.6563 34.1274 27.7056 34.2466 27.7935 34.3346C27.8815 34.4225 28.0007 34.4718 28.125 34.4718H31.875C31.9105 34.472 31.9459 34.4681 31.9805 34.4601L39.832 32.6543H39.8508C40.2026 32.561 40.5765 32.6009 40.9007 32.7664C41.2248 32.932 41.4764 33.2114 41.6072 33.5511C41.738 33.8907 41.7387 34.2668 41.6091 34.6069C41.4796 34.9471 41.229 35.2274 40.9055 35.3941L40.9137 35.3894Z" fill="#1C2745"/>
</g>
<defs>
<filter id="filter0_d_11252_13204" x="-2.23814" y="0.25293" width="64.4763" height="64.4763" filterUnits="userSpaceOnUse" color-interpolation-filters="sRGB">
<feFlood flood-opacity="0" result="BackgroundImageFix"/>
<feColorMatrix in="SourceAlpha" type="matrix" values="0 0 0 0 0 0 0 0 0 0 0 0 0 0 0 0 0 0 127 0" result="hardAlpha"/>
<feOffset dy="2.23814"/>
<feGaussianBlur stdDeviation="1.11907"/>
<feComposite in2="hardAlpha" operator="out"/>
<feColorMatrix type="matrix" values="0 0 0 0 0 0 0 0 0 0 0 0 0 0 0 0 0 0 0.13 0"/>
<feBlend mode="normal" in2="BackgroundImageFix" result="effect1_dropShadow_11252_13204"/>
<feBlend mode="normal" in="SourceGraphic" in2="effect1_dropShadow_11252_13204" result="shape"/>
</filter>
<linearGradient id="paint0_linear_11252_13204" x1="30" y1="0.25293" x2="30" y2="60.2529" gradientUnits="userSpaceOnUse">
<stop stop-color="#E79450"/>
<stop offset="1" stop-color="#C58853"/>
</linearGradient>
</defs>
</svg>
