<svg width="80" height="81" viewBox="0 0 80 81" fill="none" xmlns="http://www.w3.org/2000/svg">
<g clip-path="url(#clip0_8219_2007)">
<path d="M15 65.8364H5C4.33696 65.8364 3.70107 65.573 3.23223 65.1042C2.76339 64.6354 2.5 63.9995 2.5 63.3364V50.8364C2.5 50.1734 2.76339 49.5375 3.23223 49.0687C3.70107 48.5998 4.33696 48.3364 5 48.3364H15" stroke="black" stroke-width="2.5" stroke-linecap="round" stroke-linejoin="round"/>
<path d="M35 50.8364H45L65.9375 46.0208C66.7073 45.8099 67.5153 45.7793 68.2988 45.9314C69.0824 46.0836 69.8202 46.4144 70.4551 46.8981C71.09 47.3818 71.6048 48.0054 71.9594 48.7204C72.3141 49.4355 72.4991 50.2227 72.5 51.0208C72.5004 51.9845 72.2322 52.9293 71.7254 53.749C71.2187 54.5687 70.4935 55.231 69.6313 55.6615L57.5 60.8364L37.5 65.8364H15V48.3364L22.8125 40.5239C23.5108 39.8281 24.3394 39.2767 25.251 38.9013C26.1626 38.526 27.1392 38.334 28.125 38.3364H43.75C45.4076 38.3364 46.9973 38.9949 48.1694 40.167C49.3415 41.3391 50 42.9288 50 44.5864C50 46.2441 49.3415 47.8338 48.1694 49.0059C46.9973 50.178 45.4076 50.8364 43.75 50.8364H35Z" stroke="black" stroke-width="2.5" stroke-linecap="round" stroke-linejoin="round"/>
<path d="M30.2281 38.3363C27.1875 34.4988 25 30.3863 25 25.8363C25 19.0582 30.5219 13.3363 37.3312 13.3363C39.7649 13.3077 42.1517 14.0063 44.186 15.3424C46.2203 16.6786 47.8095 18.5915 48.75 20.8363C49.6905 18.5915 51.2797 16.6786 53.314 15.3424C55.3483 14.0063 57.7351 13.3077 60.1687 13.3363C66.9781 13.3363 72.5 19.0582 72.5 25.8363C72.5 34.9707 63.6937 43.0457 56.8062 48.1238" stroke="black" stroke-width="2.5" stroke-linecap="round" stroke-linejoin="round"/>
</g>
<defs>
<clipPath id="clip0_8219_2007">
<rect width="80" height="80" fill="white" transform="translate(0 0.836426)"/>
</clipPath>
</defs>
</svg>
