<svg width="219" height="61" viewBox="0 0 219 61" fill="none" xmlns="http://www.w3.org/2000/svg">
  <path
    d="M13.4942 51.2662C19.1726 54.5526 25.8524 55.6618 32.2882 54.3869C38.724 53.1121 44.4765 49.5402 48.4732 44.3372C52.47 39.1342 54.4381 32.6553 54.0108 26.1084C53.5834 19.5615 50.7896 13.3934 46.1504 8.7542C41.5112 4.11498 35.3431 1.32125 28.7962 0.893873C22.2493 0.4665 15.7704 2.43466 10.5674 6.4314C5.36445 10.4281 1.79255 16.1807 0.51769 22.6165C-0.757175 29.0523 0.352003 35.7321 3.63842 41.4105L0.115703 51.9279C-0.0166666 52.3249 -0.0358764 52.7508 0.0602269 53.158C0.15633 53.5653 0.363949 53.9377 0.659813 54.2335C0.955676 54.5294 1.32809 54.737 1.73532 54.8331C2.14255 54.9292 2.5685 54.91 2.96542 54.7777L13.4942 51.2662Z"
    fill="#5489A3" />
  <path
    d="M57.3536 57.2004C51.6752 60.4868 44.9954 61.596 38.5596 60.3211C32.1238 59.0463 26.3713 55.4744 22.3746 50.2714C18.3778 45.0684 16.4096 38.5895 16.837 32.0426C17.2644 25.4957 20.0581 19.3276 24.6974 14.6884C29.3366 10.0492 35.5046 7.25545 42.0516 6.82808C48.5985 6.4007 55.0774 8.36886 60.2804 12.3656C65.4833 16.3623 69.0552 22.1149 70.3301 28.5507C71.605 34.9865 70.4958 41.6663 67.2094 47.3447L70.7321 57.8621C70.8644 58.2591 70.8837 58.685 70.7876 59.0922C70.6914 59.4995 70.4838 59.8719 70.188 60.1678C69.8921 60.4636 69.5197 60.6712 69.1125 60.7673C68.7052 60.8634 68.2793 60.8442 67.8824 60.7119L57.3536 57.2004Z"
    fill="#E79450" />
  <path fill-rule="evenodd" clip-rule="evenodd"
    d="M43.936 6.77079C43.3093 6.76794 42.6808 6.78689 42.0518 6.82795C35.5049 7.25533 29.3368 10.0491 24.6976 14.6883C20.0583 19.3275 17.2646 25.4956 16.8372 32.0425C16.4099 38.5894 18.378 45.0683 22.3748 50.2713C23.7057 52.0039 25.2313 53.5556 26.912 54.9019C28.7051 54.9101 30.506 54.7399 32.2881 54.3868C38.7239 53.112 44.4765 49.5401 48.4732 44.3371C52.4699 39.1342 54.4381 32.6552 54.0107 26.1083C53.5834 19.5614 50.7896 13.3933 46.1504 8.75412C45.4461 8.04987 44.7067 7.38815 43.936 6.77079Z"
    fill="#1C2745" />
  <path
    d="M206.933 30.0834C205.179 30.0834 203.721 29.2521 202.56 27.5895C201.398 25.9269 200.817 23.5013 200.817 20.3128C200.817 17.0787 201.41 14.6417 202.594 13.0019C203.801 11.3393 205.35 10.508 207.24 10.508C207.992 10.508 208.641 10.6332 209.187 10.8838C209.734 11.1115 210.201 11.4418 210.588 11.8745C210.998 12.2844 211.351 12.7513 211.647 13.2752H211.75C211.658 12.7969 211.59 12.1364 211.545 11.2937C211.522 10.451 211.51 9.63111 211.51 8.83397V3.77783H218.446V29.7418H213.287L211.75 27.3504H211.51C211.237 27.8514 210.895 28.3069 210.486 28.7169C210.076 29.1269 209.575 29.4571 208.982 29.7076C208.413 29.9582 207.73 30.0834 206.933 30.0834ZM209.905 24.9248C210.702 24.9248 211.271 24.5945 211.613 23.9341C211.955 23.2736 212.125 22.2601 212.125 20.8935V20.3811C212.125 18.9007 211.966 17.7619 211.647 16.9648C211.328 16.1676 210.725 15.7691 209.836 15.7691C209.267 15.7691 208.777 16.1449 208.367 16.8965C207.98 17.648 207.787 18.821 207.787 20.4153C207.787 21.9868 207.992 23.1369 208.402 23.8657C208.812 24.5718 209.313 24.9248 209.905 24.9248Z"
    fill="#1C2745" />
  <path
    d="M190.237 10.5079C192.013 10.5079 193.551 10.8268 194.849 11.4645C196.147 12.1022 197.138 13.0588 197.821 14.3342C198.527 15.6096 198.88 17.2153 198.88 19.1512V22.0551H188.153C188.198 23.0344 188.506 23.8429 189.075 24.4806C189.667 25.1184 190.556 25.4372 191.74 25.4372C192.856 25.4372 193.87 25.3233 194.781 25.0956C195.714 24.8678 196.671 24.5034 197.65 24.0024V28.6827C196.808 29.161 195.851 29.514 194.781 29.7418C193.733 29.9695 192.378 30.0834 190.715 30.0834C188.916 30.0834 187.299 29.7531 185.864 29.0927C184.429 28.4094 183.29 27.3503 182.448 25.9155C181.605 24.4806 181.184 22.6472 181.184 20.4152C181.184 18.1377 181.559 16.2701 182.311 14.8125C183.085 13.3549 184.144 12.273 185.488 11.567C186.855 10.861 188.438 10.5079 190.237 10.5079ZM190.544 14.9491C189.929 14.9491 189.417 15.1883 189.007 15.6666C188.597 16.1448 188.358 16.9078 188.29 17.9555H192.731C192.731 17.3861 192.64 16.885 192.457 16.4523C192.275 15.9968 192.025 15.6324 191.706 15.3591C191.387 15.0858 191 14.9491 190.544 14.9491Z"
    fill="#1C2745" />
  <path
    d="M167.301 10.5079C168.645 10.5079 169.67 10.7699 170.376 11.2937C171.105 11.7947 171.652 12.4211 172.016 13.1727H172.153L172.631 10.8496H178.644V29.7759C178.644 31.5524 178.291 33.0442 177.584 34.2513C176.878 35.4584 175.797 36.3694 174.339 36.9843C172.904 37.622 171.048 37.9409 168.77 37.9409C167.244 37.9409 165.923 37.8612 164.807 37.7018C163.691 37.5423 162.632 37.2576 161.63 36.8477V31.4158C162.359 31.7346 163.02 31.9965 163.612 32.2015C164.204 32.4293 164.842 32.5887 165.525 32.6798C166.208 32.7937 167.051 32.8506 168.053 32.8506C169.306 32.8506 170.228 32.6115 170.82 32.1332C171.435 31.6549 171.743 30.9602 171.743 30.0492V29.7076C171.743 29.4115 171.754 29.0585 171.777 28.6485C171.822 28.2386 171.891 27.8058 171.982 27.3503H171.743C171.447 28.1019 170.945 28.751 170.239 29.2976C169.556 29.8215 168.554 30.0834 167.233 30.0834C165.434 30.0834 163.942 29.2521 162.758 27.5895C161.596 25.9269 161.015 23.5013 161.015 20.3127C161.015 18.1719 161.289 16.384 161.835 14.9491C162.382 13.4915 163.133 12.3869 164.09 11.6353C165.047 10.8837 166.117 10.5079 167.301 10.5079ZM170.069 15.5641C169.613 15.5641 169.226 15.7463 168.907 16.1107C168.611 16.4751 168.383 17.0217 168.224 17.7505C168.087 18.4565 168.019 19.3448 168.019 20.4152C168.019 22.0551 168.19 23.2394 168.531 23.9682C168.896 24.6742 169.442 25.0273 170.171 25.0273C170.604 25.0273 170.957 24.9475 171.23 24.7881C171.526 24.6059 171.754 24.3554 171.913 24.0365C172.073 23.6949 172.175 23.2735 172.221 22.7725C172.289 22.2714 172.323 21.6793 172.323 20.996V20.2103C172.323 19.2309 172.266 18.3996 172.153 17.7163C172.061 17.0103 171.856 16.4751 171.538 16.1107C171.219 15.7463 170.729 15.5641 170.069 15.5641Z"
    fill="#1C2745" />
  <path
    d="M151.459 10.5079C153.669 10.5079 155.4 11.1001 156.652 12.2844C157.928 13.4687 158.565 15.1541 158.565 17.3406V29.7418H153.817L152.484 27.2479H152.348C151.847 27.9083 151.334 28.455 150.81 28.8877C150.287 29.2976 149.683 29.5937 149 29.7759C148.316 29.9809 147.485 30.0834 146.506 30.0834C145.481 30.0834 144.559 29.867 143.739 29.4343C142.919 28.9788 142.27 28.3069 141.791 27.4187C141.336 26.5077 141.108 25.3575 141.108 23.9682C141.108 21.9412 141.769 20.438 143.09 19.4587C144.41 18.4565 146.289 17.9099 148.726 17.8188L151.63 17.7163V17.443C151.63 16.6004 151.459 16.0082 151.118 15.6666C150.799 15.3022 150.355 15.12 149.785 15.12C149.171 15.12 148.419 15.2566 147.531 15.5299C146.642 15.7804 145.754 16.1107 144.866 16.5206L142.987 12.2161C144.08 11.6467 145.31 11.2254 146.677 10.9521C148.066 10.656 149.66 10.5079 151.459 10.5079ZM150.537 21.3718C149.649 21.4174 149.011 21.6337 148.624 22.0209C148.26 22.3853 148.077 22.9091 148.077 23.5924C148.077 24.2301 148.214 24.7084 148.487 25.0273C148.761 25.3233 149.114 25.4714 149.546 25.4714C150.116 25.4714 150.617 25.2208 151.05 24.7198C151.482 24.2187 151.699 23.5696 151.699 22.7725V21.3035L150.537 21.3718Z"
    fill="#1C2745" />
  <path
    d="M127.465 10.5079C128.809 10.5079 129.834 10.7699 130.54 11.2937C131.269 11.7947 131.815 12.4211 132.18 13.1727H132.316L132.795 10.8496H138.807V29.7759C138.807 31.5524 138.454 33.0442 137.748 34.2513C137.042 35.4584 135.961 36.3694 134.503 36.9843C133.068 37.622 131.212 37.9409 128.934 37.9409C127.408 37.9409 126.087 37.8612 124.971 37.7018C123.855 37.5423 122.796 37.2576 121.794 36.8477V31.4158C122.523 31.7346 123.184 31.9965 123.776 32.2015C124.368 32.4293 125.006 32.5887 125.689 32.6798C126.372 32.7937 127.215 32.8506 128.217 32.8506C129.47 32.8506 130.392 32.6115 130.984 32.1332C131.599 31.6549 131.907 30.9602 131.907 30.0492V29.7076C131.907 29.4115 131.918 29.0585 131.941 28.6485C131.986 28.2386 132.055 27.8058 132.146 27.3503H131.907C131.61 28.1019 131.109 28.751 130.403 29.2976C129.72 29.8215 128.718 30.0834 127.397 30.0834C125.598 30.0834 124.106 29.2521 122.922 27.5895C121.76 25.9269 121.179 23.5013 121.179 20.3127C121.179 18.1719 121.453 16.384 121.999 14.9491C122.546 13.4915 123.297 12.3869 124.254 11.6353C125.211 10.8837 126.281 10.5079 127.465 10.5079ZM130.233 15.5641C129.777 15.5641 129.39 15.7463 129.071 16.1107C128.775 16.4751 128.547 17.0217 128.388 17.7505C128.251 18.4565 128.183 19.3448 128.183 20.4152C128.183 22.0551 128.354 23.2394 128.695 23.9682C129.06 24.6742 129.606 25.0273 130.335 25.0273C130.768 25.0273 131.121 24.9475 131.394 24.7881C131.69 24.6059 131.918 24.3554 132.077 24.0365C132.237 23.6949 132.339 23.2735 132.385 22.7725C132.453 22.2714 132.487 21.6793 132.487 20.996V20.2103C132.487 19.2309 132.43 18.3996 132.316 17.7163C132.225 17.0103 132.02 16.4751 131.702 16.1107C131.383 15.7463 130.893 15.5641 130.233 15.5641Z"
    fill="#1C2745" />
  <path
    d="M112.477 10.5079C114.299 10.5079 115.791 11.0545 116.953 12.1478C118.137 13.241 118.729 15.0061 118.729 17.443V29.7418H111.828V19.4245C111.828 18.1719 111.692 17.2267 111.418 16.589C111.145 15.9513 110.689 15.6324 110.052 15.6324C109.072 15.6324 108.423 16.1335 108.104 17.1356C107.786 18.1377 107.626 19.5839 107.626 21.4743V29.7418H100.725V10.8496H105.884L106.84 13.3435H107.045C107.433 12.7513 107.877 12.2503 108.378 11.8403C108.879 11.4076 109.46 11.0773 110.12 10.8496C110.803 10.6218 111.589 10.5079 112.477 10.5079Z"
    fill="#1C2745" />
  <path
    d="M98.1713 29.7418H84.3352V5.34937H98.1713V10.6446H91.3045V14.4709H97.6588V19.7662H91.3045V24.3782H98.1713V29.7418Z"
    fill="#1C2745" />
  <path
    d="M204.732 57.767L209.103 44.5397H214.08L218.475 57.767H214.349L213.677 55.3009H209.529L208.857 57.767H204.732ZM212.264 49.853C212.19 49.5691 212.107 49.2701 212.018 48.9563C211.943 48.6424 211.868 48.3285 211.794 48.0147C211.719 47.7008 211.652 47.4019 211.592 47.1179C211.547 47.4019 211.487 47.7008 211.412 48.0147C211.338 48.3285 211.263 48.6424 211.188 48.9563C211.114 49.2701 211.031 49.5765 210.942 49.8755L210.269 52.2519H212.959L212.264 49.853Z"
    fill="#1C2745" />
  <path
    d="M195.338 57.767V55.6372L197.019 54.9422V47.4093L195.338 46.7143V44.6069H202.579V46.7143L200.898 47.4093V54.9422L202.579 55.6372V57.767H195.338Z"
    fill="#1C2745" />
  <path
    d="M191.77 44.6069V57.767H186.681L182.152 48.6648H182.063C182.063 48.6798 182.07 48.8068 182.085 49.0459C182.1 49.2701 182.122 49.5541 182.152 49.8979C182.182 50.2416 182.205 50.6078 182.22 50.9964C182.235 51.385 182.242 51.7587 182.242 52.1174V57.767H178.812V44.6069H183.901L188.43 53.5746H188.475C188.475 53.5298 188.467 53.3953 188.452 53.1711C188.437 52.9469 188.422 52.6704 188.407 52.3416C188.392 51.9978 188.377 51.6466 188.362 51.2879C188.348 50.9292 188.34 50.5929 188.34 50.279V44.6069H191.77Z"
    fill="#1C2745" />
  <path
    d="M169.164 44.6069C170.987 44.6069 172.362 44.9432 173.289 45.6158C174.23 46.2734 174.701 47.2748 174.701 48.62C174.701 49.442 174.485 50.1594 174.051 50.7722C173.618 51.385 173.005 51.8558 172.213 52.1846L175.979 57.767H171.742L169.074 53.1711H168.357V57.767H164.478V44.6069H169.164ZM168.984 50.3238C169.522 50.3238 169.963 50.2192 170.307 50.01C170.651 49.7858 170.823 49.4047 170.823 48.8666C170.823 48.4033 170.681 48.052 170.397 47.8129C170.128 47.5737 169.694 47.4542 169.096 47.4542H168.357V50.3238H168.984Z"
    fill="#1C2745" />
  <path
    d="M160.555 51.1757C160.555 52.5358 160.331 53.724 159.883 54.7404C159.449 55.7567 158.754 56.5489 157.798 57.1168C156.841 57.6698 155.593 57.9463 154.054 57.9463C152.544 57.9463 151.311 57.6698 150.354 57.1168C149.398 56.5489 148.688 55.7567 148.225 54.7404C147.776 53.7091 147.552 52.5134 147.552 51.1533C147.552 49.7932 147.776 48.605 148.225 47.5886C148.688 46.5723 149.398 45.7876 150.354 45.2346C151.326 44.6667 152.567 44.3827 154.076 44.3827C155.601 44.3827 156.841 44.6667 157.798 45.2346C158.754 45.7876 159.449 46.5723 159.883 47.5886C160.331 48.605 160.555 49.8007 160.555 51.1757ZM151.61 51.1757C151.61 51.938 151.692 52.5956 151.857 53.1486C152.021 53.6867 152.283 54.1052 152.641 54.4041C153 54.6881 153.471 54.8301 154.054 54.8301C154.651 54.8301 155.13 54.6881 155.488 54.4041C155.847 54.1052 156.101 53.6792 156.251 53.1262C156.415 52.5732 156.497 51.923 156.497 51.1757C156.497 50.0249 156.318 49.1206 155.959 48.463C155.616 47.7904 154.988 47.4541 154.076 47.4541C153.478 47.4541 153 47.6036 152.641 47.9025C152.283 48.2014 152.021 48.6274 151.857 49.1804C151.692 49.7185 151.61 50.3836 151.61 51.1757Z"
    fill="#1C2745" />
  <path
    d="M136.272 44.6069H144.163V47.5439H140.083V49.9651H143.827V52.9021H140.083V57.767H136.272V44.6069Z"
    fill="#1C2745" />
  <path
    d="M125.488 57.767V55.6372L127.169 54.9422V47.4093L125.488 46.7143V44.6069H132.729V46.7143L131.048 47.4093V54.9422L132.729 55.6372V57.767H125.488Z"
    fill="#1C2745" />
  <path d="M117.657 44.6069V54.7404H122.612V57.767H113.778V44.6069H117.657Z" fill="#1C2745" />
  <path
    d="M97.0703 57.767L101.442 44.5397H106.419L110.813 57.767H106.688L106.016 55.3009H101.868L101.195 57.767H97.0703ZM104.603 49.853C104.528 49.5691 104.446 49.2701 104.357 48.9563C104.282 48.6424 104.207 48.3285 104.132 48.0147C104.058 47.7008 103.99 47.4019 103.931 47.1179C103.886 47.4019 103.826 47.7008 103.751 48.0147C103.676 48.3285 103.602 48.6424 103.527 48.9563C103.452 49.2701 103.37 49.5765 103.28 49.8755L102.608 52.2519H105.298L104.603 49.853Z"
    fill="#1C2745" />
  <path
    d="M90.9713 47.4766C90.4034 47.4766 89.9176 47.6261 89.5141 47.925C89.1105 48.209 88.8041 48.6349 88.5949 49.2029C88.4006 49.7559 88.3034 50.4359 88.3034 51.243C88.3034 52.4537 88.5276 53.3654 88.976 53.9782C89.4244 54.591 90.1493 54.8974 91.1507 54.8974C91.7186 54.8974 92.2716 54.8226 92.8097 54.6732C93.3627 54.5237 93.9306 54.3145 94.5135 54.0454V57.2065C93.9008 57.4606 93.288 57.6475 92.6752 57.767C92.0624 57.8866 91.4122 57.9464 90.7247 57.9464C89.2151 57.9464 87.9895 57.6624 87.0479 57.0944C86.1063 56.5265 85.4188 55.7418 84.9854 54.7404C84.5519 53.7241 84.3352 52.5508 84.3352 51.2206C84.3352 49.8904 84.5818 48.7171 85.075 47.7008C85.5683 46.6695 86.3006 45.8624 87.2721 45.2795C88.2586 44.6966 89.4842 44.4052 90.9489 44.4052C91.6514 44.4052 92.3389 44.4874 93.0115 44.6518C93.699 44.8012 94.394 45.0254 95.0965 45.3243L93.9082 48.2613C93.43 48.0371 92.9517 47.8502 92.4734 47.7008C92.0101 47.5513 91.5094 47.4766 90.9713 47.4766Z"
    fill="#1C2745" />
</svg>