<svg width="1368" height="452" viewBox="0 0 1368 452" fill="none" xmlns="http://www.w3.org/2000/svg">
<path d="M87.1655 357.751C123.845 378.98 166.993 386.145 208.565 377.91C250.137 369.675 287.296 346.602 313.113 312.993C338.93 279.385 351.643 237.534 348.883 195.244C346.122 152.955 328.076 113.112 298.109 83.1449C268.142 53.1778 228.299 35.1317 186.009 32.3711C143.719 29.6105 101.869 42.3238 68.2602 68.1407C34.6516 93.9577 11.579 131.116 3.34402 172.688C-4.89097 214.26 2.27376 257.408 23.5024 294.088L0.747387 362.026C-0.107658 364.59 -0.231743 367.341 0.389036 369.972C1.00982 372.602 2.35093 375.008 4.26206 376.919C6.17319 378.83 8.57882 380.171 11.2093 380.792C13.8398 381.413 16.5912 381.289 19.1551 380.434L87.1655 357.751Z" fill="#5489A3"/>
<path d="M370.476 396.083C333.796 417.312 290.648 424.476 249.076 416.241C207.504 408.006 170.346 384.934 144.529 351.325C118.712 317.717 105.998 275.866 108.759 233.576C111.52 191.286 129.566 151.444 159.533 121.477C189.5 91.5096 229.343 73.4635 271.632 70.7029C313.922 67.9423 355.773 80.6556 389.381 106.473C422.99 132.289 446.063 169.448 454.298 211.02C462.533 252.592 455.368 295.74 434.139 332.42L456.894 400.358C457.749 402.922 457.873 405.673 457.253 408.303C456.632 410.934 455.291 413.34 453.38 415.251C451.468 417.162 449.063 418.503 446.432 419.124C443.802 419.744 441.05 419.62 438.486 418.765L370.476 396.083Z" fill="#E79450"/>
<path fill-rule="evenodd" clip-rule="evenodd" d="M283.805 70.3333C279.756 70.3149 275.697 70.4373 271.634 70.7026C229.344 73.4632 189.501 91.5093 159.534 121.476C129.567 151.443 111.521 191.286 108.76 233.576C106 275.866 118.713 317.716 144.53 351.325C153.127 362.517 162.982 372.54 173.838 381.236C185.421 381.289 197.054 380.19 208.565 377.909C250.137 369.674 287.296 346.602 313.113 312.993C338.93 279.385 351.643 237.534 348.882 195.244C346.122 152.954 328.076 113.112 298.109 83.1446C293.56 78.5955 288.783 74.3212 283.805 70.3333Z" fill="#1C2745"/>
<path d="M1299.68 228.709C1289.3 228.709 1280.67 223.788 1273.8 213.947C1266.92 204.105 1263.48 189.748 1263.48 170.874C1263.48 151.731 1266.99 137.306 1274 127.599C1281.15 117.758 1290.31 112.837 1301.5 112.837C1305.95 112.837 1309.79 113.579 1313.03 115.062C1316.26 116.41 1319.03 118.364 1321.32 120.926C1323.75 123.353 1325.84 126.116 1327.59 129.217H1328.19C1327.66 126.386 1327.25 122.476 1326.98 117.488C1326.85 112.5 1326.78 107.647 1326.78 102.928V73H1367.83V226.686H1337.29L1328.19 212.531H1326.78C1325.16 215.497 1323.14 218.193 1320.71 220.62C1318.29 223.047 1315.32 225.001 1311.81 226.484C1308.44 227.967 1304.4 228.709 1299.68 228.709ZM1317.27 198.174C1321.99 198.174 1325.36 196.219 1327.39 192.309C1329.41 188.4 1330.42 182.4 1330.42 174.312V171.278C1330.42 162.516 1329.48 155.775 1327.59 151.057C1325.7 146.338 1322.13 143.979 1316.87 143.979C1313.5 143.979 1310.6 146.203 1308.17 150.652C1305.88 155.101 1304.74 162.044 1304.74 171.481C1304.74 180.783 1305.95 187.591 1308.38 191.905C1310.8 196.084 1313.77 198.174 1317.27 198.174Z" fill="#1C2745"/>
<path d="M1200.86 112.837C1211.37 112.837 1220.47 114.725 1228.16 118.499C1235.84 122.274 1241.7 127.936 1245.75 135.486C1249.93 143.035 1252.02 152.54 1252.02 163.999V181.187H1188.52C1188.79 186.984 1190.61 191.77 1193.98 195.545C1197.49 199.319 1202.74 201.207 1209.75 201.207C1216.36 201.207 1222.36 200.533 1227.75 199.185C1233.28 197.837 1238.94 195.68 1244.74 192.714V220.418C1239.75 223.249 1234.09 225.338 1227.75 226.686C1221.55 228.035 1213.53 228.709 1203.69 228.709C1193.04 228.709 1183.47 226.754 1174.97 222.844C1166.48 218.8 1159.74 212.531 1154.75 204.038C1149.76 195.545 1147.27 184.692 1147.27 171.481C1147.27 157.999 1149.49 146.945 1153.94 138.317C1158.52 129.689 1164.79 123.285 1172.75 119.106C1180.84 114.927 1190.21 112.837 1200.86 112.837ZM1202.68 139.126C1199.04 139.126 1196 140.541 1193.58 143.372C1191.15 146.203 1189.73 150.72 1189.33 156.921H1215.62C1215.62 153.551 1215.08 150.585 1214 148.023C1212.92 145.327 1211.44 143.17 1209.55 141.552C1207.66 139.935 1205.37 139.126 1202.68 139.126Z" fill="#1C2745"/>
<path d="M1065.1 112.837C1073.05 112.837 1079.12 114.388 1083.29 117.488C1087.61 120.454 1090.84 124.161 1093 128.61H1093.81L1096.64 114.859H1132.23V226.889C1132.23 237.404 1130.14 246.234 1125.96 253.379C1121.78 260.524 1115.38 265.917 1106.75 269.557C1098.26 273.332 1087.27 275.219 1073.79 275.219C1064.76 275.219 1056.94 274.747 1050.33 273.804C1043.73 272.86 1037.46 271.175 1031.53 268.748V236.595C1035.84 238.483 1039.75 240.033 1043.26 241.246C1046.76 242.594 1050.54 243.538 1054.58 244.077C1058.62 244.751 1063.61 245.088 1069.54 245.088C1076.96 245.088 1082.42 243.673 1085.92 240.842C1089.56 238.011 1091.38 233.899 1091.38 228.506V226.484C1091.38 224.732 1091.45 222.642 1091.59 220.215C1091.86 217.789 1092.26 215.227 1092.8 212.531H1091.38C1089.63 216.98 1086.67 220.822 1082.49 224.058C1078.44 227.158 1072.51 228.709 1064.69 228.709C1054.04 228.709 1045.21 223.788 1038.2 213.947C1031.32 204.105 1027.89 189.748 1027.89 170.874C1027.89 158.202 1029.5 147.619 1032.74 139.126C1035.98 130.498 1040.42 123.959 1046.09 119.51C1051.75 115.062 1058.08 112.837 1065.1 112.837ZM1081.47 142.766C1078.78 142.766 1076.49 143.844 1074.6 146.001C1072.85 148.158 1071.5 151.394 1070.55 155.708C1069.75 159.887 1069.34 165.144 1069.34 171.481C1069.34 181.187 1070.35 188.197 1072.37 192.511C1074.53 196.691 1077.77 198.78 1082.08 198.78C1084.64 198.78 1086.73 198.308 1088.35 197.365C1090.1 196.286 1091.45 194.803 1092.39 192.916C1093.34 190.894 1093.94 188.4 1094.21 185.434C1094.62 182.468 1094.82 178.963 1094.82 174.918V170.267C1094.82 164.47 1094.48 159.55 1093.81 155.505C1093.27 151.326 1092.06 148.158 1090.17 146.001C1088.28 143.844 1085.38 142.766 1081.47 142.766Z" fill="#1C2745"/>
<path d="M971.323 112.837C984.4 112.837 994.646 116.342 1002.06 123.353C1009.61 130.363 1013.38 140.339 1013.38 153.281V226.686H985.277L977.39 211.924H976.581C973.615 215.834 970.582 219.07 967.481 221.631C964.381 224.058 960.808 225.81 956.764 226.889C952.719 228.102 947.799 228.709 942.002 228.709C935.935 228.709 930.475 227.428 925.622 224.866C920.769 222.17 916.926 218.193 914.095 212.936C911.399 207.543 910.051 200.735 910.051 192.511C910.051 180.513 913.961 171.615 921.78 165.819C929.599 159.887 940.721 156.651 955.146 156.112L972.334 155.505V153.888C972.334 148.9 971.323 145.394 969.301 143.372C967.414 141.215 964.785 140.137 961.415 140.137C957.775 140.137 953.326 140.946 948.068 142.563C942.81 144.046 937.553 146.001 932.295 148.428L921.173 122.948C927.644 119.578 934.924 117.084 943.013 115.466C951.236 113.713 960.673 112.837 971.323 112.837ZM965.863 177.143C960.606 177.412 956.831 178.693 954.539 180.985C952.382 183.142 951.304 186.243 951.304 190.287C951.304 194.062 952.113 196.893 953.73 198.78C955.348 200.533 957.438 201.409 959.999 201.409C963.369 201.409 966.335 199.926 968.897 196.96C971.458 193.994 972.739 190.152 972.739 185.434V176.738L965.863 177.143Z" fill="#1C2745"/>
<path d="M829.297 112.837C837.251 112.837 843.317 114.388 847.496 117.488C851.81 120.454 855.046 124.161 857.203 128.61H858.012L860.843 114.859H896.433V226.889C896.433 237.404 894.344 246.234 890.165 253.379C885.985 260.524 879.582 265.917 870.954 269.557C862.461 273.332 851.473 275.219 837.992 275.219C828.96 275.219 821.141 274.747 814.535 273.804C807.929 272.86 801.66 271.175 795.728 268.748V236.595C800.042 238.483 803.952 240.033 807.457 241.246C810.962 242.594 814.737 243.538 818.781 244.077C822.826 244.751 827.814 245.088 833.746 245.088C841.16 245.088 846.62 243.673 850.125 240.842C853.765 238.011 855.585 233.899 855.585 228.506V226.484C855.585 224.732 855.653 222.642 855.787 220.215C856.057 217.789 856.461 215.227 857.001 212.531H855.585C853.833 216.98 850.867 220.822 846.688 224.058C842.643 227.158 836.711 228.709 828.892 228.709C818.242 228.709 809.412 223.788 802.402 213.947C795.526 204.105 792.088 189.748 792.088 170.874C792.088 158.202 793.706 147.619 796.942 139.126C800.177 130.498 804.626 123.959 810.288 119.51C815.95 115.062 822.286 112.837 829.297 112.837ZM845.676 142.766C842.98 142.766 840.688 143.844 838.801 146.001C837.048 148.158 835.7 151.394 834.757 155.708C833.948 159.887 833.543 165.144 833.543 171.481C833.543 181.187 834.554 188.197 836.577 192.511C838.734 196.691 841.969 198.78 846.283 198.78C848.845 198.78 850.934 198.308 852.552 197.365C854.304 196.286 855.653 194.803 856.596 192.916C857.54 190.894 858.147 188.4 858.416 185.434C858.821 182.468 859.023 178.963 859.023 174.918V170.267C859.023 164.47 858.686 159.55 858.012 155.505C857.473 151.326 856.259 148.158 854.372 146.001C852.484 143.844 849.586 142.766 845.676 142.766Z" fill="#1C2745"/>
<path d="M740.579 112.837C751.364 112.837 760.194 116.073 767.07 122.544C774.08 129.015 777.585 139.463 777.585 153.888V226.686H736.737V165.616C736.737 158.202 735.928 152.607 734.31 148.832C732.692 145.057 729.996 143.17 726.221 143.17C720.424 143.17 716.582 146.136 714.695 152.068C712.808 157.999 711.864 166.56 711.864 177.749V226.686H671.016V114.859H701.551L707.213 129.621H708.426C710.718 126.116 713.347 123.15 716.313 120.724C719.279 118.162 722.716 116.207 726.626 114.859C730.67 113.511 735.321 112.837 740.579 112.837Z" fill="#1C2745"/>
<path d="M655.898 226.686H574V82.3021H655.898V113.646H615.252V136.295H652.865V167.638H615.252V194.938H655.898V226.686Z" fill="#1C2745"/>
<path d="M1286.65 392.574L1312.53 314.279H1341.99L1368 392.574H1343.58L1339.6 377.977H1315.05L1311.07 392.574H1286.65ZM1331.24 345.73C1330.8 344.049 1330.31 342.279 1329.78 340.421C1329.34 338.564 1328.9 336.706 1328.46 334.848C1328.01 332.99 1327.61 331.221 1327.26 329.54C1327 331.221 1326.64 332.99 1326.2 334.848C1325.76 336.706 1325.31 338.564 1324.87 340.421C1324.43 342.279 1323.94 344.093 1323.41 345.862L1319.43 359.929H1335.36L1331.24 345.73Z" fill="#1C2745"/>
<path d="M1231.05 392.574V379.968L1241 375.854V331.265L1231.05 327.151V314.677H1273.91V327.151L1263.96 331.265V375.854L1273.91 379.968V392.574H1231.05Z" fill="#1C2745"/>
<path d="M1209.93 314.677V392.574H1179.81L1153 338.696H1152.47C1152.47 338.785 1152.52 339.537 1152.6 340.952C1152.69 342.279 1152.83 343.96 1153 345.995C1153.18 348.03 1153.31 350.197 1153.4 352.498C1153.49 354.798 1153.53 357.01 1153.53 359.133V392.574H1133.23V314.677H1163.35L1190.16 367.759H1190.42C1190.42 367.493 1190.38 366.697 1190.29 365.37C1190.2 364.043 1190.12 362.406 1190.03 360.46C1189.94 358.425 1189.85 356.346 1189.76 354.223C1189.67 352.1 1189.63 350.109 1189.63 348.251V314.677H1209.93Z" fill="#1C2745"/>
<path d="M1076.12 314.677C1086.91 314.677 1095.05 316.668 1100.54 320.649C1106.11 324.541 1108.9 330.469 1108.9 338.431C1108.9 343.297 1107.61 347.544 1105.05 351.171C1102.48 354.798 1098.86 357.585 1094.17 359.531L1116.46 392.575H1091.38L1075.59 365.37H1071.34V392.575H1048.38V314.677H1076.12ZM1075.06 348.517C1078.24 348.517 1080.85 347.897 1082.89 346.659C1084.92 345.332 1085.94 343.076 1085.94 339.891C1085.94 337.148 1085.1 335.069 1083.42 333.654C1081.83 332.238 1079.26 331.53 1075.72 331.53H1071.34V348.517H1075.06Z" fill="#1C2745"/>
<path d="M1025.16 353.559C1025.16 361.61 1023.84 368.643 1021.18 374.659C1018.62 380.675 1014.5 385.364 1008.84 388.726C1003.18 391.999 995.791 393.636 986.679 393.636C977.743 393.636 970.444 391.999 964.782 388.726C959.12 385.364 954.918 380.675 952.175 374.659C949.521 368.555 948.194 361.477 948.194 353.426C948.194 345.376 949.521 338.342 952.175 332.326C954.918 326.31 959.12 321.666 964.782 318.392C970.533 315.031 977.876 313.35 986.811 313.35C995.835 313.35 1003.18 315.031 1008.84 318.392C1014.5 321.666 1018.62 326.31 1021.18 332.326C1023.84 338.342 1025.16 345.42 1025.16 353.559ZM972.214 353.559C972.214 358.071 972.7 361.964 973.674 365.237C974.647 368.422 976.195 370.899 978.318 372.669C980.442 374.349 983.228 375.19 986.679 375.19C990.217 375.19 993.049 374.349 995.172 372.669C997.295 370.899 998.799 368.378 999.684 365.104C1000.66 361.831 1001.14 357.983 1001.14 353.559C1001.14 346.747 1000.08 341.395 997.959 337.502C995.924 333.521 992.208 331.53 986.811 331.53C983.273 331.53 980.442 332.415 978.318 334.184C976.195 335.954 974.647 338.475 973.674 341.748C972.7 344.933 972.214 348.87 972.214 353.559Z" fill="#1C2745"/>
<path d="M881.424 314.677H928.136V332.061H903.984V346.393H926.145V363.778H903.984V392.575H881.424V314.677Z" fill="#1C2745"/>
<path d="M817.59 392.575V379.968L827.543 375.854V331.265L817.59 327.151V314.677H860.454V327.151L850.501 331.265V375.854L860.454 379.968V392.575H817.59Z" fill="#1C2745"/>
<path d="M771.239 314.677V374.659H800.566V392.575H748.281V314.677H771.239Z" fill="#1C2745"/>
<path d="M649.382 392.574L675.259 314.279H704.719L730.73 392.574H706.312L702.331 377.977H677.78L673.799 392.574H649.382ZM693.97 345.73C693.528 344.049 693.041 342.279 692.511 340.421C692.068 338.564 691.626 336.706 691.184 334.848C690.741 332.99 690.343 331.221 689.989 329.54C689.724 331.221 689.37 332.99 688.928 334.848C688.485 336.706 688.043 338.564 687.601 340.421C687.158 342.279 686.672 344.093 686.141 345.862L682.16 359.929H698.084L693.97 345.73Z" fill="#1C2745"/>
<path d="M613.28 331.663C609.918 331.663 607.043 332.548 604.655 334.317C602.266 335.998 600.452 338.519 599.214 341.881C598.064 345.154 597.488 349.18 597.488 353.957C597.488 361.123 598.816 366.52 601.47 370.147C604.124 373.774 608.414 375.588 614.342 375.588C617.704 375.588 620.977 375.146 624.162 374.261C627.435 373.376 630.797 372.138 634.248 370.545V389.257C630.62 390.761 626.993 391.866 623.366 392.574C619.739 393.282 615.89 393.636 611.821 393.636C602.885 393.636 595.631 391.955 590.057 388.593C584.483 385.231 580.414 380.587 577.848 374.659C575.283 368.643 574 361.698 574 353.824C574 345.951 575.46 339.006 578.379 332.99C581.299 326.885 585.634 322.108 591.384 318.658C597.223 315.207 604.478 313.482 613.148 313.482C617.306 313.482 621.375 313.969 625.356 314.942C629.426 315.827 633.54 317.154 637.698 318.923L630.665 336.307C627.834 334.98 625.003 333.875 622.172 332.99C619.429 332.105 616.465 331.663 613.28 331.663Z" fill="#1C2745"/>
</svg>
