<svg width="289" height="282" viewBox="0 0 289 282" fill="none" xmlns="http://www.w3.org/2000/svg">
<g clip-path="url(#clip0_1304_3205)">
<g filter="url(#filter0_d_1304_3205)">
<rect x="141.758" y="-21.2755" width="250.901" height="250.901" rx="125.451" transform="rotate(17.3157 141.758 -21.2755)" fill="#5489A3" shape-rendering="crispEdges"/>
<rect x="141.758" y="-21.2755" width="250.901" height="250.901" rx="125.451" transform="rotate(17.3157 141.758 -21.2755)" fill="url(#paint0_linear_1304_3205)" shape-rendering="crispEdges"/>
<g clip-path="url(#clip1_1304_3205)">
<path d="M229.094 133.252C228.864 133.993 228.418 134.648 227.815 135.135C227.212 135.622 226.478 135.92 225.706 135.99C224.934 136.06 224.158 135.899 223.477 135.529C222.796 135.158 222.24 134.593 221.88 133.907C221.52 133.22 221.371 132.442 221.453 131.671C221.535 130.9 221.844 130.171 222.34 129.575C222.837 128.98 223.499 128.545 224.243 128.325C224.986 128.106 225.778 128.112 226.518 128.343C227.511 128.652 228.34 129.343 228.823 130.264C229.306 131.185 229.404 132.26 229.094 133.252ZM205.934 121.925C205.194 121.694 204.402 121.688 203.658 121.908C202.914 122.127 202.252 122.562 201.756 123.158C201.259 123.753 200.951 124.483 200.869 125.254C200.787 126.025 200.935 126.803 201.295 127.489C201.656 128.176 202.211 128.74 202.892 129.111C203.573 129.482 204.349 129.642 205.121 129.572C205.893 129.502 206.628 129.205 207.231 128.717C207.834 128.23 208.279 127.575 208.51 126.835C208.819 125.842 208.722 124.767 208.239 123.847C207.755 122.926 206.926 122.235 205.934 121.925ZM247.103 134.76C246.363 134.53 245.571 134.524 244.827 134.743C244.083 134.962 243.421 135.397 242.925 135.993C242.429 136.588 242.12 137.318 242.038 138.089C241.956 138.86 242.104 139.638 242.465 140.324C242.825 141.011 243.381 141.575 244.062 141.946C244.743 142.317 245.518 142.477 246.29 142.407C247.063 142.337 247.797 142.04 248.4 141.553C249.003 141.065 249.448 140.41 249.679 139.67C249.988 138.677 249.891 137.602 249.408 136.682C248.925 135.761 248.096 135.07 247.103 134.76ZM281.469 116.73L262.8 176.612C262.336 178.101 261.299 179.345 259.918 180.069C258.537 180.794 256.925 180.94 255.436 180.476L226.079 171.324L215.349 181.324C214.59 182.031 213.658 182.524 212.647 182.754C211.636 182.984 210.582 182.942 209.592 182.634C208.602 182.325 207.712 181.76 207.011 180.997C206.309 180.233 205.823 179.297 205.6 178.285L202.454 163.958L173.098 154.806C171.609 154.341 170.365 153.305 169.64 151.924C168.916 150.543 168.77 148.93 169.234 147.441L187.903 87.5588C188.367 86.0699 189.404 84.8263 190.785 84.1018C192.166 83.3772 193.778 83.2309 195.267 83.6951L277.606 109.365C279.095 109.83 280.338 110.866 281.063 112.247C281.787 113.628 281.934 115.241 281.469 116.73ZM277.727 115.563C277.882 115.066 277.833 114.529 277.591 114.069C277.35 113.608 276.935 113.263 276.439 113.108L194.1 87.4377C193.604 87.283 193.067 87.3318 192.606 87.5733C192.146 87.8148 191.8 88.2293 191.646 88.7256L172.976 148.608C172.822 149.104 172.87 149.642 173.112 150.102C173.354 150.563 173.768 150.908 174.264 151.063L204.706 160.554C205.035 160.656 205.332 160.843 205.565 161.096C205.799 161.349 205.962 161.659 206.038 161.995L209.439 177.428C209.514 177.765 209.676 178.076 209.91 178.33C210.144 178.584 210.44 178.772 210.769 178.875C211.099 178.978 211.45 178.992 211.786 178.915C212.123 178.839 212.433 178.675 212.686 178.441L224.255 167.675C224.509 167.441 224.819 167.279 225.155 167.203C225.491 167.128 225.842 167.142 226.17 167.245L256.603 176.733C257.099 176.888 257.637 176.839 258.097 176.598C258.557 176.356 258.903 175.942 259.058 175.445L277.727 115.563Z" fill="#FFF4EB"/>
</g>
</g>
<g filter="url(#filter1_d_1304_3205)">
<rect y="149.875" width="133.378" height="133.378" rx="66.6891" transform="rotate(-16.3498 0 149.875)" fill="#E79450" shape-rendering="crispEdges"/>
<rect y="149.875" width="133.378" height="133.378" rx="66.6891" transform="rotate(-16.3498 0 149.875)" fill="url(#paint1_linear_1304_3205)" shape-rendering="crispEdges"/>
<g clip-path="url(#clip2_1304_3205)">
<path d="M105.195 176.232C104.569 175.839 103.867 175.582 103.135 175.481C102.403 175.379 101.658 175.434 100.949 175.643L85.9511 180.043L84.4845 175.043C83.7843 172.656 82.1647 170.646 79.982 169.453C77.7993 168.261 75.2323 167.984 72.8456 168.684C72.6598 168.739 72.4928 168.844 72.3634 168.988C72.234 169.131 72.1472 169.309 72.1128 169.499L68.096 191.796L56.7148 195.135C55.9193 195.368 55.249 195.908 54.8515 196.636C54.454 197.363 54.3618 198.219 54.5952 199.015L61.0484 221.012C61.2818 221.808 61.8217 222.478 62.5493 222.875C63.2768 223.273 64.1325 223.365 64.9281 223.132L107.923 210.518C109.142 210.161 110.188 209.371 110.865 208.296C111.542 207.222 111.804 205.937 111.6 204.683L107.56 179.806C107.441 179.077 107.169 178.381 106.762 177.765C106.354 177.149 105.82 176.626 105.195 176.232ZM75.3401 217.905L64.3414 221.132C64.0762 221.21 63.791 221.179 63.5485 221.046C63.3059 220.914 63.126 220.69 63.0482 220.425L56.595 198.428C56.5172 198.163 56.5479 197.878 56.6804 197.635C56.8129 197.393 57.0363 197.213 57.3015 197.135L68.3002 193.908L75.3401 217.905ZM105.502 180.141L109.543 205.018C109.665 205.77 109.508 206.541 109.102 207.186C108.695 207.83 108.067 208.304 107.336 208.519L77.3398 217.319L70.0755 192.557L74.0445 170.531C75.8342 170.171 77.694 170.495 79.2566 171.438C80.8192 172.382 81.9711 173.878 82.4847 175.63L84.2447 181.629C84.3225 181.894 84.5025 182.118 84.745 182.25C84.9875 182.383 85.2727 182.413 85.5379 182.336L101.536 177.642C101.961 177.517 102.408 177.484 102.848 177.546C103.287 177.607 103.708 177.76 104.083 177.997C104.458 178.233 104.779 178.547 105.023 178.916C105.268 179.286 105.431 179.703 105.502 180.141Z" fill="#1C2745"/>
</g>
</g>
<g filter="url(#filter2_d_1304_3205)">
<rect x="138.275" y="159.643" width="139.266" height="139.266" rx="69.6328" transform="rotate(23.3852 138.275 159.643)" fill="#FFF4EB" shape-rendering="crispEdges"/>
<rect x="138.275" y="159.643" width="139.266" height="139.266" rx="69.6328" transform="rotate(23.3852 138.275 159.643)" fill="url(#paint2_linear_1304_3205)" shape-rendering="crispEdges"/>
<path d="M169.773 270.465C169.517 271.057 169.091 271.56 168.549 271.911C168.007 272.261 167.373 272.443 166.727 272.433C166.082 272.423 165.454 272.221 164.922 271.855C164.391 271.488 163.981 270.972 163.743 270.371C163.505 269.771 163.451 269.114 163.586 268.483C163.722 267.852 164.042 267.275 164.505 266.826C164.969 266.376 165.555 266.074 166.19 265.958C166.825 265.842 167.481 265.917 168.073 266.173C168.868 266.517 169.493 267.162 169.812 267.967C170.131 268.771 170.117 269.67 169.773 270.465ZM171.528 258.184C171.793 258.298 172.092 258.303 172.36 258.197C172.629 258.091 172.844 257.882 172.958 257.617L184.186 231.653C184.301 231.388 184.305 231.088 184.199 230.82C184.093 230.552 183.884 230.337 183.619 230.222C183.355 230.108 183.055 230.103 182.787 230.209C182.519 230.315 182.304 230.524 182.189 230.789L170.961 256.753C170.846 257.018 170.842 257.318 170.948 257.586C171.054 257.854 171.263 258.069 171.528 258.184Z" fill="#1C2745"/>
</g>
</g>
<defs>
<filter id="filter0_d_1304_3205" x="63.0811" y="-21.2755" width="322.207" height="322.207" filterUnits="userSpaceOnUse" color-interpolation-filters="sRGB">
<feFlood flood-opacity="0" result="BackgroundImageFix"/>
<feColorMatrix in="SourceAlpha" type="matrix" values="0 0 0 0 0 0 0 0 0 0 0 0 0 0 0 0 0 0 127 0" result="hardAlpha"/>
<feOffset dy="4"/>
<feGaussianBlur stdDeviation="2"/>
<feComposite in2="hardAlpha" operator="out"/>
<feColorMatrix type="matrix" values="0 0 0 0 0 0 0 0 0 0 0 0 0 0 0 0 0 0 0.13 0"/>
<feBlend mode="normal" in2="BackgroundImageFix" result="effect1_dropShadow_1304_3205"/>
<feBlend mode="normal" in="SourceGraphic" in2="effect1_dropShadow_1304_3205" result="shape"/>
</filter>
<filter id="filter1_d_1304_3205" x="-4" y="112.329" width="173.531" height="173.531" filterUnits="userSpaceOnUse" color-interpolation-filters="sRGB">
<feFlood flood-opacity="0" result="BackgroundImageFix"/>
<feColorMatrix in="SourceAlpha" type="matrix" values="0 0 0 0 0 0 0 0 0 0 0 0 0 0 0 0 0 0 127 0" result="hardAlpha"/>
<feOffset dy="4"/>
<feGaussianBlur stdDeviation="2"/>
<feComposite in2="hardAlpha" operator="out"/>
<feColorMatrix type="matrix" values="0 0 0 0 0 0 0 0 0 0 0 0 0 0 0 0 0 0 0.13 0"/>
<feBlend mode="normal" in2="BackgroundImageFix" result="effect1_dropShadow_1304_3205"/>
<feBlend mode="normal" in="SourceGraphic" in2="effect1_dropShadow_1304_3205" result="shape"/>
</filter>
<filter id="filter2_d_1304_3205" x="78.9995" y="159.643" width="191.102" height="191.102" filterUnits="userSpaceOnUse" color-interpolation-filters="sRGB">
<feFlood flood-opacity="0" result="BackgroundImageFix"/>
<feColorMatrix in="SourceAlpha" type="matrix" values="0 0 0 0 0 0 0 0 0 0 0 0 0 0 0 0 0 0 127 0" result="hardAlpha"/>
<feOffset dy="4"/>
<feGaussianBlur stdDeviation="2"/>
<feComposite in2="hardAlpha" operator="out"/>
<feColorMatrix type="matrix" values="0 0 0 0 0 0 0 0 0 0 0 0 0 0 0 0 0 0 0.13 0"/>
<feBlend mode="normal" in2="BackgroundImageFix" result="effect1_dropShadow_1304_3205"/>
<feBlend mode="normal" in="SourceGraphic" in2="effect1_dropShadow_1304_3205" result="shape"/>
</filter>
<linearGradient id="paint0_linear_1304_3205" x1="267.209" y1="-21.2755" x2="267.209" y2="229.625" gradientUnits="userSpaceOnUse">
<stop stop-color="#53758B" stop-opacity="0"/>
<stop offset="1" stop-color="#53758B"/>
</linearGradient>
<linearGradient id="paint1_linear_1304_3205" x1="66.6891" y1="149.875" x2="66.6891" y2="283.253" gradientUnits="userSpaceOnUse">
<stop stop-color="#C78A54" stop-opacity="0"/>
<stop offset="1" stop-color="#C78A54"/>
</linearGradient>
<linearGradient id="paint2_linear_1304_3205" x1="207.908" y1="159.643" x2="207.908" y2="298.908" gradientUnits="userSpaceOnUse">
<stop stop-color="#F9DED6" stop-opacity="0"/>
<stop offset="1" stop-color="#F9DED6"/>
</linearGradient>
<clipPath id="clip0_1304_3205">
<rect width="289" height="282" fill="white"/>
</clipPath>
<clipPath id="clip1_1304_3205">
<rect width="125.451" height="125.451" fill="white" transform="translate(182.972 57.2763) rotate(17.3157)"/>
</clipPath>
<clipPath id="clip2_1304_3205">
<rect width="66.6891" height="66.6891" fill="white" transform="translate(41.3828 172.485) rotate(-16.3498)"/>
</clipPath>
</defs>
</svg>
