<svg width="356" height="326" viewBox="0 0 356 326" fill="none" xmlns="http://www.w3.org/2000/svg">
<g filter="url(#filter0_d_594_4273)">
<rect x="154.02" y="0.836426" width="210.535" height="210.535" rx="105.267" transform="rotate(17.3157 154.02 0.836426)" fill="#5489A3" />
<rect x="154.02" y="0.836426" width="210.535" height="210.535" rx="105.267" transform="rotate(17.3157 154.02 0.836426)" fill="url(#paint0_linear_594_4273)" />
<g clip-path="url(#clip0_594_4273)">
<path d="M227.304 130.503C227.111 131.124 226.737 131.674 226.231 132.083C225.725 132.492 225.109 132.741 224.461 132.8C223.813 132.859 223.162 132.724 222.591 132.413C222.019 132.102 221.553 131.628 221.251 131.052C220.949 130.476 220.824 129.823 220.893 129.176C220.961 128.529 221.22 127.917 221.637 127.418C222.054 126.918 222.609 126.553 223.233 126.369C223.857 126.185 224.522 126.19 225.143 126.383C225.976 126.643 226.672 127.223 227.077 127.996C227.482 128.768 227.564 129.67 227.304 130.503ZM207.87 120.998C207.249 120.805 206.584 120.8 205.96 120.984C205.336 121.168 204.781 121.533 204.364 122.032C203.948 122.532 203.689 123.144 203.62 123.791C203.551 124.438 203.676 125.091 203.978 125.667C204.28 126.243 204.747 126.717 205.318 127.028C205.889 127.339 206.54 127.474 207.188 127.415C207.836 127.356 208.452 127.107 208.958 126.698C209.464 126.289 209.838 125.739 210.032 125.118C210.291 124.285 210.209 123.383 209.804 122.611C209.399 121.838 208.703 121.258 207.87 120.998ZM242.416 131.769C241.795 131.575 241.13 131.57 240.506 131.754C239.882 131.938 239.327 132.303 238.91 132.803C238.493 133.302 238.234 133.914 238.166 134.561C238.097 135.208 238.221 135.861 238.524 136.437C238.826 137.014 239.292 137.487 239.864 137.798C240.435 138.109 241.086 138.244 241.734 138.185C242.382 138.126 242.998 137.877 243.504 137.468C244.01 137.059 244.384 136.509 244.577 135.888C244.837 135.055 244.755 134.153 244.35 133.381C243.944 132.608 243.249 132.028 242.416 131.769ZM271.253 116.639L255.588 166.887C255.198 168.136 254.328 169.18 253.169 169.788C252.01 170.396 250.657 170.519 249.408 170.129L224.775 162.449L215.771 170.841C215.134 171.434 214.352 171.848 213.503 172.041C212.655 172.234 211.771 172.199 210.94 171.94C210.109 171.681 209.362 171.207 208.774 170.566C208.185 169.925 207.777 169.14 207.59 168.29L204.95 156.269L180.317 148.589C179.067 148.199 178.024 147.329 177.416 146.171C176.808 145.012 176.685 143.659 177.075 142.409L192.74 92.161C193.13 90.9116 194 89.8681 195.158 89.2601C196.317 88.6521 197.67 88.5293 198.92 88.9189L268.011 110.459C269.26 110.849 270.304 111.719 270.912 112.877C271.52 114.036 271.643 115.389 271.253 116.639ZM268.113 115.66C268.243 115.243 268.202 114.792 267.999 114.406C267.796 114.02 267.448 113.73 267.032 113.6L197.941 92.0594C197.524 91.9295 197.073 91.9705 196.687 92.1731C196.301 92.3758 196.011 92.7236 195.881 93.1401L180.215 143.388C180.085 143.805 180.126 144.256 180.329 144.642C180.531 145.028 180.879 145.318 181.296 145.448L206.84 153.412C207.116 153.498 207.365 153.655 207.561 153.867C207.757 154.079 207.894 154.34 207.957 154.622L210.812 167.572C210.874 167.855 211.011 168.116 211.207 168.329C211.403 168.542 211.651 168.7 211.928 168.786C212.204 168.872 212.498 168.884 212.781 168.82C213.063 168.756 213.324 168.618 213.536 168.421L223.244 159.388C223.456 159.192 223.717 159.055 223.999 158.992C224.281 158.929 224.575 158.941 224.851 159.027L250.387 166.989C250.804 167.118 251.255 167.078 251.641 166.875C252.027 166.672 252.317 166.324 252.447 165.908L268.113 115.66Z" fill="#FFF4EB"/>
</g>
</g>
<g filter="url(#filter1_d_594_4273)">
<rect y="132.711" width="133.378" height="133.378" rx="66.6891" transform="rotate(-16.3498 0 132.711)" fill="#E79450" />
<rect y="132.711" width="133.378" height="133.378" rx="66.6891" transform="rotate(-16.3498 0 132.711)" fill="url(#paint1_linear_594_4273)" />
<g clip-path="url(#clip1_594_4273)">
<path d="M105.195 159.069C104.569 158.675 103.867 158.419 103.136 158.317C102.404 158.215 101.658 158.271 100.949 158.479L85.9513 162.879L84.4846 157.879C83.7844 155.493 82.1649 153.482 79.9822 152.29C77.7994 151.097 75.2324 150.82 72.8457 151.521C72.6599 151.575 72.493 151.68 72.3635 151.824C72.2341 151.968 72.1473 152.145 72.1129 152.336L68.0961 174.633L56.715 177.971C55.9194 178.205 55.2492 178.745 54.8516 179.472C54.4541 180.2 54.3619 181.055 54.5953 181.851L61.0486 203.848C61.2819 204.644 61.8218 205.314 62.5494 205.712C63.2769 206.109 64.1326 206.201 64.9282 205.968L107.923 193.355C109.142 192.998 110.188 192.207 110.865 191.133C111.542 190.058 111.804 188.773 111.6 187.52L107.56 162.643C107.442 161.913 107.17 161.217 106.762 160.601C106.354 159.985 105.82 159.463 105.195 159.069ZM75.3402 200.742L64.3415 203.968C64.0763 204.046 63.7911 204.015 63.5486 203.883C63.3061 203.75 63.1261 203.527 63.0483 203.262L56.5951 181.264C56.5173 180.999 56.548 180.714 56.6805 180.471C56.813 180.229 57.0364 180.049 57.3016 179.971L68.3003 176.744L75.3402 200.742ZM105.502 162.977L109.543 187.855C109.665 188.607 109.508 189.377 109.102 190.022C108.695 190.667 108.068 191.141 107.336 191.355L77.34 200.155L70.0757 175.393L74.0447 153.368C75.8343 153.007 77.6941 153.331 79.2567 154.275C80.8194 155.219 81.9712 156.714 82.4849 158.466L84.2448 164.465C84.3226 164.731 84.5026 164.954 84.7451 165.087C84.9876 165.219 85.2728 165.25 85.538 165.172L101.536 160.479C101.961 160.354 102.409 160.321 102.848 160.382C103.287 160.443 103.708 160.597 104.083 160.833C104.458 161.069 104.779 161.383 105.023 161.753C105.268 162.122 105.431 162.54 105.502 162.977Z" fill="#1C2745"/>
</g>
</g>
<g filter="url(#filter2_d_594_4273)">
<rect x="138.275" y="142.479" width="139.266" height="139.266" rx="69.6328" transform="rotate(23.3852 138.275 142.479)" fill="#FFF4EB" />
<rect x="138.275" y="142.479" width="139.266" height="139.266" rx="69.6328" transform="rotate(23.3852 138.275 142.479)" fill="url(#paint2_linear_594_4273)" />
<path d="M169.773 253.301C169.517 253.894 169.091 254.397 168.548 254.747C168.006 255.097 167.372 255.279 166.727 255.269C166.081 255.259 165.453 255.058 164.922 254.691C164.391 254.324 163.98 253.808 163.743 253.208C163.505 252.608 163.45 251.951 163.586 251.319C163.722 250.688 164.041 250.112 164.505 249.662C164.968 249.213 165.555 248.911 166.19 248.795C166.825 248.679 167.48 248.753 168.073 249.01C168.867 249.353 169.493 249.998 169.812 250.803C170.13 251.608 170.117 252.506 169.773 253.301ZM171.527 241.02C171.792 241.135 172.092 241.14 172.36 241.033C172.628 240.927 172.843 240.719 172.958 240.454L184.186 214.489C184.3 214.224 184.305 213.925 184.199 213.656C184.092 213.388 183.884 213.173 183.619 213.059C183.354 212.944 183.055 212.939 182.786 213.046C182.518 213.152 182.303 213.361 182.188 213.625L170.961 239.59C170.846 239.855 170.841 240.154 170.948 240.423C171.054 240.691 171.262 240.906 171.527 241.02Z" fill="#1C2745"/>
</g>
<defs>
<filter id="filter0_d_594_4273" x="87.3567" y="0.836426" width="271.656" height="271.656" filterUnits="userSpaceOnUse" color-interpolation-filters="sRGB">
<feFlood flood-opacity="0" result="BackgroundImageFix"/>
<feColorMatrix in="SourceAlpha" type="matrix" values="0 0 0 0 0 0 0 0 0 0 0 0 0 0 0 0 0 0 127 0" result="hardAlpha"/>
<feOffset dy="4"/>
<feGaussianBlur stdDeviation="2"/>
<feComposite in2="hardAlpha" operator="out"/>
<feColorMatrix type="matrix" values="0 0 0 0 0 0 0 0 0 0 0 0 0 0 0 0 0 0 0.13 0"/>
<feBlend mode="normal" in2="BackgroundImageFix" result="effect1_dropShadow_594_4273"/>
<feBlend mode="normal" in="SourceGraphic" in2="effect1_dropShadow_594_4273" result="shape"/>
</filter>
<filter id="filter1_d_594_4273" x="-4" y="95.1653" width="173.531" height="173.531" filterUnits="userSpaceOnUse" color-interpolation-filters="sRGB">
<feFlood flood-opacity="0" result="BackgroundImageFix"/>
<feColorMatrix in="SourceAlpha" type="matrix" values="0 0 0 0 0 0 0 0 0 0 0 0 0 0 0 0 0 0 127 0" result="hardAlpha"/>
<feOffset dy="4"/>
<feGaussianBlur stdDeviation="2"/>
<feComposite in2="hardAlpha" operator="out"/>
<feColorMatrix type="matrix" values="0 0 0 0 0 0 0 0 0 0 0 0 0 0 0 0 0 0 0.13 0"/>
<feBlend mode="normal" in2="BackgroundImageFix" result="effect1_dropShadow_594_4273"/>
<feBlend mode="normal" in="SourceGraphic" in2="effect1_dropShadow_594_4273" result="shape"/>
</filter>
<filter id="filter2_d_594_4273" x="78.9994" y="142.479" width="191.102" height="191.102" filterUnits="userSpaceOnUse" color-interpolation-filters="sRGB">
<feFlood flood-opacity="0" result="BackgroundImageFix"/>
<feColorMatrix in="SourceAlpha" type="matrix" values="0 0 0 0 0 0 0 0 0 0 0 0 0 0 0 0 0 0 127 0" result="hardAlpha"/>
<feOffset dy="4"/>
<feGaussianBlur stdDeviation="2"/>
<feComposite in2="hardAlpha" operator="out"/>
<feColorMatrix type="matrix" values="0 0 0 0 0 0 0 0 0 0 0 0 0 0 0 0 0 0 0.13 0"/>
<feBlend mode="normal" in2="BackgroundImageFix" result="effect1_dropShadow_594_4273"/>
<feBlend mode="normal" in="SourceGraphic" in2="effect1_dropShadow_594_4273" result="shape"/>
</filter>
<linearGradient id="paint0_linear_594_4273" x1="259.287" y1="0.836426" x2="259.287" y2="211.371" gradientUnits="userSpaceOnUse">
<stop stop-color="#53758B" stop-opacity="0"/>
<stop offset="1" stop-color="#53758B"/>
</linearGradient>
<linearGradient id="paint1_linear_594_4273" x1="66.6891" y1="132.711" x2="66.6891" y2="266.09" gradientUnits="userSpaceOnUse">
<stop stop-color="#C78A54" stop-opacity="0"/>
<stop offset="1" stop-color="#C78A54"/>
</linearGradient>
<linearGradient id="paint2_linear_594_4273" x1="207.908" y1="142.479" x2="207.908" y2="281.745" gradientUnits="userSpaceOnUse">
<stop stop-color="#F9DED6" stop-opacity="0"/>
<stop offset="1" stop-color="#F9DED6"/>
</linearGradient>
<clipPath id="clip0_594_4273">
<rect width="105.267" height="105.267" fill="white" transform="translate(188.602 66.7505) rotate(17.3157)"/>
</clipPath>
<clipPath id="clip1_594_4273">
<rect width="66.6891" height="66.6891" fill="white" transform="translate(41.3827 155.321) rotate(-16.3498)"/>
</clipPath>
</defs>
</svg>
