<svg width="96" height="96" viewBox="0 0 96 96" fill="none" xmlns="http://www.w3.org/2000/svg">
<g filter="url(#filter0_d_8219_2154)">
<rect x="3" y="0.836426" width="90" height="90" rx="45" fill="url(#paint0_linear_8219_2154)" shape-rendering="crispEdges"/>
<path d="M67.6875 60.6021H64.1719V45.5446L65.7838 47.1565C65.9157 47.2885 66.0947 47.3626 66.2812 47.3626C66.4678 47.3626 66.6468 47.2885 66.7787 47.1565C66.9106 47.0246 66.9848 46.8457 66.9848 46.6591C66.9848 46.4725 66.9106 46.2936 66.7787 46.1616L49.4924 28.8753C49.2964 28.6786 49.0636 28.5226 48.8072 28.4162C48.5508 28.3097 48.2759 28.2549 47.9982 28.2549C47.7206 28.2549 47.4457 28.3097 47.1893 28.4162C46.9329 28.5226 46.7001 28.6786 46.5041 28.8753L29.2213 46.1616C29.156 46.227 29.1041 46.3045 29.0688 46.3899C29.0334 46.4752 29.0152 46.5667 29.0152 46.6591C29.0152 46.7515 29.0334 46.843 29.0688 46.9283C29.1041 47.0137 29.156 47.0912 29.2213 47.1565C29.2866 47.2219 29.3642 47.2737 29.4495 47.3091C29.5349 47.3444 29.6264 47.3626 29.7188 47.3626C29.8111 47.3626 29.9026 47.3444 29.988 47.3091C30.0733 47.2737 30.1509 47.2219 30.2162 47.1565L31.8281 45.5446V60.6021H28.3125C28.126 60.6021 27.9472 60.6761 27.8153 60.808C27.6835 60.9399 27.6094 61.1187 27.6094 61.3052C27.6094 61.4917 27.6835 61.6705 27.8153 61.8024C27.9472 61.9342 28.126 62.0083 28.3125 62.0083H67.6875C67.874 62.0083 68.0528 61.9342 68.1847 61.8024C68.3165 61.6705 68.3906 61.4917 68.3906 61.3052C68.3906 61.1187 68.3165 60.9399 68.1847 60.808C68.0528 60.6761 67.874 60.6021 67.6875 60.6021ZM33.2344 44.1384L47.5025 29.8702C47.5678 29.8048 47.6454 29.753 47.7307 29.7176C47.8161 29.6822 47.9076 29.664 48 29.664C48.0924 29.664 48.1839 29.6822 48.2693 29.7176C48.3546 29.753 48.4322 29.8048 48.4975 29.8702L62.7656 44.1384V60.6021H52.9219V50.0552C52.9219 49.8687 52.8478 49.6899 52.7159 49.558C52.5841 49.4261 52.4052 49.3521 52.2188 49.3521H43.7812C43.5948 49.3521 43.4159 49.4261 43.2841 49.558C43.1522 49.6899 43.0781 49.8687 43.0781 50.0552V60.6021H33.2344V44.1384ZM51.5156 60.6021H44.4844V50.7583H51.5156V60.6021Z" fill="#FFF4EB"/>
</g>
<defs>
<filter id="filter0_d_8219_2154" x="0.857143" y="0.836426" width="94.2857" height="94.2857" filterUnits="userSpaceOnUse" color-interpolation-filters="sRGB">
<feFlood flood-opacity="0" result="BackgroundImageFix"/>
<feColorMatrix in="SourceAlpha" type="matrix" values="0 0 0 0 0 0 0 0 0 0 0 0 0 0 0 0 0 0 127 0" result="hardAlpha"/>
<feOffset dy="2.14286"/>
<feGaussianBlur stdDeviation="1.07143"/>
<feComposite in2="hardAlpha" operator="out"/>
<feColorMatrix type="matrix" values="0 0 0 0 0 0 0 0 0 0 0 0 0 0 0 0 0 0 0.08 0"/>
<feBlend mode="normal" in2="BackgroundImageFix" result="effect1_dropShadow_8219_2154"/>
<feBlend mode="normal" in="SourceGraphic" in2="effect1_dropShadow_8219_2154" result="shape"/>
</filter>
<linearGradient id="paint0_linear_8219_2154" x1="48" y1="0.836426" x2="48" y2="90.8364" gradientUnits="userSpaceOnUse">
<stop stop-color="#5489A3"/>
<stop offset="1" stop-color="#577B91"/>
</linearGradient>
</defs>
</svg>
