<svg width="63" height="65" viewBox="0 0 63 65" fill="none" xmlns="http://www.w3.org/2000/svg">
<g filter="url(#filter0_d_10917_23729)">
<rect y="0.25293" width="60" height="60" rx="30" fill="url(#paint0_linear_10917_23729)" shape-rendering="crispEdges"/>
<path d="M43.125 40.097H40.7813V30.0587L41.8559 31.1333C41.9438 31.2213 42.0631 31.2707 42.1875 31.2707C42.3119 31.2707 42.4312 31.2213 42.5191 31.1333C42.6071 31.0454 42.6565 30.9261 42.6565 30.8017C42.6565 30.6773 42.6071 30.558 42.5191 30.4701L30.9949 18.9458C30.8643 18.8147 30.709 18.7107 30.5381 18.6397C30.3672 18.5688 30.1839 18.5322 29.9988 18.5322C29.8137 18.5322 29.6305 18.5688 29.4596 18.6397C29.2886 18.7107 29.1334 18.8147 29.0027 18.9458L17.4809 30.4701C17.4373 30.5136 17.4028 30.5653 17.3792 30.6222C17.3556 30.6791 17.3435 30.7401 17.3435 30.8017C17.3435 30.8633 17.3556 30.9243 17.3792 30.9812C17.4028 31.0381 17.4373 31.0898 17.4809 31.1333C17.5244 31.1769 17.5761 31.2114 17.633 31.235C17.6899 31.2586 17.7509 31.2707 17.8125 31.2707C17.8741 31.2707 17.9351 31.2586 17.992 31.235C18.0489 31.2114 18.1006 31.1769 18.1441 31.1333L19.2188 30.0587V40.097H16.875C16.7507 40.097 16.6315 40.1464 16.5435 40.2343C16.4556 40.3222 16.4062 40.4414 16.4062 40.5658C16.4062 40.6901 16.4556 40.8093 16.5435 40.8972C16.6315 40.9851 16.7507 41.0345 16.875 41.0345H43.125C43.2493 41.0345 43.3686 40.9851 43.4565 40.8972C43.5444 40.8093 43.5938 40.6901 43.5938 40.5658C43.5938 40.4414 43.5444 40.3222 43.4565 40.2343C43.3686 40.1464 43.2493 40.097 43.125 40.097ZM20.1563 29.1212L29.6684 19.6091C29.7119 19.5655 29.7636 19.531 29.8205 19.5074C29.8774 19.4838 29.9384 19.4716 30 19.4716C30.0616 19.4716 30.1226 19.4838 30.1795 19.5074C30.2364 19.531 30.2881 19.5655 30.3316 19.6091L39.8438 29.1212V40.097H33.2813V33.0658C33.2813 32.9414 33.2319 32.8222 33.144 32.7343C33.0561 32.6464 32.9368 32.597 32.8125 32.597H27.1875C27.0632 32.597 26.944 32.6464 26.856 32.7343C26.7681 32.8222 26.7188 32.9414 26.7188 33.0658V40.097H20.1563V29.1212ZM32.3438 40.097H27.6563V33.5345H32.3438V40.097Z" fill="#1C2745"/>
</g>
<defs>
<filter id="filter0_d_10917_23729" x="-2.23814" y="0.25293" width="64.4763" height="64.4763" filterUnits="userSpaceOnUse" color-interpolation-filters="sRGB">
<feFlood flood-opacity="0" result="BackgroundImageFix"/>
<feColorMatrix in="SourceAlpha" type="matrix" values="0 0 0 0 0 0 0 0 0 0 0 0 0 0 0 0 0 0 127 0" result="hardAlpha"/>
<feOffset dy="2.23814"/>
<feGaussianBlur stdDeviation="1.11907"/>
<feComposite in2="hardAlpha" operator="out"/>
<feColorMatrix type="matrix" values="0 0 0 0 0 0 0 0 0 0 0 0 0 0 0 0 0 0 0.13 0"/>
<feBlend mode="normal" in2="BackgroundImageFix" result="effect1_dropShadow_10917_23729"/>
<feBlend mode="normal" in="SourceGraphic" in2="effect1_dropShadow_10917_23729" result="shape"/>
</filter>
<linearGradient id="paint0_linear_10917_23729" x1="30" y1="0.25293" x2="30" y2="60.2529" gradientUnits="userSpaceOnUse">
<stop stop-color="#E79450"/>
<stop offset="1" stop-color="#C58853"/>
</linearGradient>
</defs>
</svg>
