<svg width="1180" height="331" viewBox="0 0 1180 331" fill="none" xmlns="http://www.w3.org/2000/svg">
<g clip-path="url(#clip0_594_4289)">
<g filter="url(#filter0_d_594_4289)">
<rect x="3" y="13.0002" width="260" height="128" rx="64" fill="#1C2745" shape-rendering="crispEdges"/>
<path d="M70.646 62.3402L73.59 55.5782H77.592L72.486 65.6062V72.0002H68.783V65.7212L63.677 55.5782H67.725L70.646 62.3402ZM88.6917 65.6982C88.6917 66.7408 88.5537 67.6685 88.2777 68.4812C88.017 69.2938 87.6337 69.9838 87.1277 70.5512C86.6217 71.1032 86.0007 71.5248 85.2647 71.8162C84.544 72.0922 83.7313 72.2302 82.8267 72.2302C81.9833 72.2302 81.2013 72.0922 80.4807 71.8162C79.76 71.5248 79.139 71.1032 78.6177 70.5512C78.1117 69.9838 77.713 69.2938 77.4217 68.4812C77.1457 67.6685 77.0077 66.7408 77.0077 65.6982C77.0077 64.3028 77.2453 63.1298 77.7207 62.1792C78.196 61.2132 78.8707 60.4772 79.7447 59.9712C80.6187 59.4652 81.669 59.2122 82.8957 59.2122C84.0303 59.2122 85.027 59.4652 85.8857 59.9712C86.7597 60.4772 87.442 61.2132 87.9327 62.1792C88.4387 63.1298 88.6917 64.3028 88.6917 65.6982ZM80.7567 65.6982C80.7567 66.5262 80.8257 67.2238 80.9637 67.7912C81.117 68.3432 81.347 68.7648 81.6537 69.0562C81.9757 69.3322 82.382 69.4702 82.8727 69.4702C83.3787 69.4702 83.7773 69.3322 84.0687 69.0562C84.3753 68.7648 84.5977 68.3432 84.7357 67.7912C84.8737 67.2238 84.9427 66.5262 84.9427 65.6982C84.9427 64.8702 84.8737 64.1802 84.7357 63.6282C84.5977 63.0762 84.3677 62.6622 84.0457 62.3862C83.739 62.1102 83.3403 61.9722 82.8497 61.9722C82.0983 61.9722 81.5617 62.2865 81.2397 62.9152C80.9177 63.5285 80.7567 64.4562 80.7567 65.6982ZM101.959 59.4422V72.0002H99.1761L98.6931 70.3902H98.4861C98.2407 70.8195 97.9264 71.1722 97.5431 71.4482C97.1751 71.7088 96.7611 71.9005 96.3011 72.0232C95.8411 72.1612 95.3657 72.2302 94.8751 72.2302C94.0624 72.2302 93.3417 72.0692 92.7131 71.7472C92.0844 71.4252 91.5861 70.9268 91.2181 70.2522C90.8654 69.5775 90.6891 68.7035 90.6891 67.6302V59.4422H94.3691V66.7792C94.3691 67.6685 94.4994 68.3432 94.7601 68.8032C95.0207 69.2632 95.4424 69.4932 96.0251 69.4932C96.6231 69.4932 97.0831 69.3322 97.4051 69.0102C97.7271 68.6882 97.9494 68.2205 98.0721 67.6072C98.2101 66.9938 98.2791 66.2425 98.2791 65.3532V59.4422H101.959ZM120.846 65.6982C120.846 66.7408 120.708 67.6685 120.432 68.4812C120.171 69.2938 119.788 69.9838 119.282 70.5512C118.776 71.1032 118.155 71.5248 117.419 71.8162C116.698 72.0922 115.886 72.2302 114.981 72.2302C114.138 72.2302 113.356 72.0922 112.635 71.8162C111.914 71.5248 111.293 71.1032 110.772 70.5512C110.266 69.9838 109.867 69.2938 109.576 68.4812C109.3 67.6685 109.162 66.7408 109.162 65.6982C109.162 64.3028 109.4 63.1298 109.875 62.1792C110.35 61.2132 111.025 60.4772 111.899 59.9712C112.773 59.4652 113.823 59.2122 115.05 59.2122C116.185 59.2122 117.181 59.4652 118.04 59.9712C118.914 60.4772 119.596 61.2132 120.087 62.1792C120.593 63.1298 120.846 64.3028 120.846 65.6982ZM112.911 65.6982C112.911 66.5262 112.98 67.2238 113.118 67.7912C113.271 68.3432 113.501 68.7648 113.808 69.0562C114.13 69.3322 114.536 69.4702 115.027 69.4702C115.533 69.4702 115.932 69.3322 116.223 69.0562C116.53 68.7648 116.752 68.3432 116.89 67.7912C117.028 67.2238 117.097 66.5262 117.097 65.6982C117.097 64.8702 117.028 64.1802 116.89 63.6282C116.752 63.0762 116.522 62.6622 116.2 62.3862C115.893 62.1102 115.495 61.9722 115.004 61.9722C114.253 61.9722 113.716 62.2865 113.394 62.9152C113.072 63.5285 112.911 64.4562 112.911 65.6982ZM129.835 59.2122C131.154 59.2122 132.204 59.7642 132.986 60.8682C133.784 61.9568 134.182 63.5668 134.182 65.6982C134.182 67.1242 133.991 68.3278 133.607 69.3092C133.224 70.2752 132.695 71.0035 132.02 71.4942C131.346 71.9848 130.571 72.2302 129.697 72.2302C129.145 72.2302 128.67 72.1535 128.271 72.0002C127.873 71.8468 127.535 71.6475 127.259 71.4022C126.999 71.1568 126.769 70.8962 126.569 70.6202H126.408C126.454 70.9115 126.493 71.2182 126.523 71.5402C126.554 71.8468 126.569 72.1535 126.569 72.4602V77.5202H122.889V59.4422H125.879L126.408 61.0752H126.569C126.769 60.7378 127.014 60.4312 127.305 60.1552C127.597 59.8638 127.949 59.6338 128.363 59.4652C128.777 59.2965 129.268 59.2122 129.835 59.2122ZM128.524 61.9492C128.049 61.9492 127.666 62.0718 127.374 62.3172C127.083 62.5625 126.876 62.9382 126.753 63.4442C126.631 63.9348 126.569 64.5558 126.569 65.3072V65.6752C126.569 66.4878 126.631 67.1778 126.753 67.7452C126.876 68.2972 127.083 68.7188 127.374 69.0102C127.666 69.3015 128.064 69.4472 128.57 69.4472C128.984 69.4472 129.329 69.3015 129.605 69.0102C129.881 68.7188 130.088 68.2895 130.226 67.7222C130.364 67.1548 130.433 66.4648 130.433 65.6522C130.433 64.4255 130.272 63.5055 129.95 62.8922C129.644 62.2635 129.168 61.9492 128.524 61.9492ZM141.625 69.4932C141.993 69.4932 142.331 69.4548 142.637 69.3782C142.959 69.3015 143.289 69.2095 143.626 69.1022V71.6552C143.243 71.8085 142.791 71.9388 142.269 72.0462C141.763 72.1688 141.165 72.2302 140.475 72.2302C139.739 72.2302 139.08 72.1075 138.497 71.8622C137.93 71.6168 137.485 71.1952 137.163 70.5972C136.841 69.9838 136.68 69.1405 136.68 68.0672V62.0182H135.185V60.5692L136.979 59.4192L137.991 56.7742H140.36V59.4422H143.488V62.0182H140.36V68.0672C140.36 68.5425 140.475 68.9028 140.705 69.1482C140.935 69.3782 141.242 69.4932 141.625 69.4932ZM154.254 59.4422V72.0002H150.574V59.4422H154.254ZM152.437 54.5202C152.973 54.5202 153.433 54.6428 153.817 54.8882C154.2 55.1182 154.392 55.5552 154.392 56.1992C154.392 56.8278 154.2 57.2648 153.817 57.5102C153.433 57.7555 152.973 57.8782 152.437 57.8782C151.885 57.8782 151.417 57.7555 151.034 57.5102C150.65 57.2648 150.459 56.8278 150.459 56.1992C150.459 55.5552 150.65 55.1182 151.034 54.8882C151.417 54.6428 151.885 54.5202 152.437 54.5202ZM164.003 59.2122C165.261 59.2122 166.273 59.5802 167.039 60.3162C167.821 61.0368 168.212 62.2022 168.212 63.8122V72.0002H164.532V64.6632C164.532 63.7585 164.394 63.0838 164.118 62.6392C163.858 62.1792 163.436 61.9492 162.853 61.9492C161.964 61.9492 161.366 62.3095 161.059 63.0302C160.753 63.7355 160.599 64.7552 160.599 66.0892V72.0002H156.919V59.4422H159.702L160.208 61.0522H160.369C160.63 60.6228 160.937 60.2778 161.289 60.0172C161.657 59.7412 162.071 59.5418 162.531 59.4192C162.991 59.2812 163.482 59.2122 164.003 59.2122ZM181.372 69.4932C181.74 69.4932 182.077 69.4548 182.384 69.3782C182.706 69.3015 183.036 69.2095 183.373 69.1022V71.6552C182.99 71.8085 182.537 71.9388 182.016 72.0462C181.51 72.1688 180.912 72.2302 180.222 72.2302C179.486 72.2302 178.827 72.1075 178.244 71.8622C177.677 71.6168 177.232 71.1952 176.91 70.5972C176.588 69.9838 176.427 69.1405 176.427 68.0672V62.0182H174.932V60.5692L176.726 59.4192L177.738 56.7742H180.107V59.4422H183.235V62.0182H180.107V68.0672C180.107 68.5425 180.222 68.9028 180.452 69.1482C180.682 69.3782 180.989 69.4932 181.372 69.4932ZM196.228 65.6982C196.228 66.7408 196.09 67.6685 195.814 68.4812C195.554 69.2938 195.17 69.9838 194.664 70.5512C194.158 71.1032 193.537 71.5248 192.801 71.8162C192.081 72.0922 191.268 72.2302 190.363 72.2302C189.52 72.2302 188.738 72.0922 188.017 71.8162C187.297 71.5248 186.676 71.1032 186.154 70.5512C185.648 69.9838 185.25 69.2938 184.958 68.4812C184.682 67.6685 184.544 66.7408 184.544 65.6982C184.544 64.3028 184.782 63.1298 185.257 62.1792C185.733 61.2132 186.407 60.4772 187.281 59.9712C188.155 59.4652 189.206 59.2122 190.432 59.2122C191.567 59.2122 192.564 59.4652 193.422 59.9712C194.296 60.4772 194.979 61.2132 195.469 62.1792C195.975 63.1298 196.228 64.3028 196.228 65.6982ZM188.293 65.6982C188.293 66.5262 188.362 67.2238 188.5 67.7912C188.654 68.3432 188.884 68.7648 189.19 69.0562C189.512 69.3322 189.919 69.4702 190.409 69.4702C190.915 69.4702 191.314 69.3322 191.605 69.0562C191.912 68.7648 192.134 68.3432 192.272 67.7912C192.41 67.2238 192.479 66.5262 192.479 65.6982C192.479 64.8702 192.41 64.1802 192.272 63.6282C192.134 63.0762 191.904 62.6622 191.582 62.3862C191.276 62.1102 190.877 61.9722 190.386 61.9722C189.635 61.9722 189.098 62.2865 188.776 62.9152C188.454 63.5285 188.293 64.4562 188.293 65.6982ZM104.231 87.1892C105.779 87.1892 106.975 87.5572 107.819 88.2932C108.677 89.0138 109.107 90.1255 109.107 91.6282V100H106.554L105.841 98.2982H105.749C105.411 98.7428 105.066 99.1108 104.714 99.4022C104.361 99.6935 103.955 99.9005 103.495 100.023C103.035 100.161 102.475 100.23 101.816 100.23C101.126 100.23 100.505 100.092 99.9527 99.8162C99.416 99.5248 98.9867 99.0878 98.6647 98.5052C98.3427 97.9072 98.1817 97.1558 98.1817 96.2512C98.1817 94.9172 98.6187 93.9358 99.4927 93.3072C100.382 92.6632 101.685 92.3105 103.403 92.2492L105.427 92.1802V91.6282C105.427 90.9688 105.281 90.4858 104.99 90.1792C104.698 89.8725 104.3 89.7192 103.794 89.7192C103.272 89.7192 102.728 89.8112 102.161 89.9952C101.593 90.1638 101.026 90.3785 100.459 90.6392L99.3317 88.3162C100.006 87.9635 100.75 87.6875 101.563 87.4882C102.391 87.2888 103.28 87.1892 104.231 87.1892ZM104.369 94.2272C103.464 94.2578 102.828 94.4572 102.46 94.8252C102.107 95.1932 101.931 95.6762 101.931 96.2742C101.931 96.7955 102.053 97.1712 102.299 97.4012C102.559 97.6158 102.897 97.7232 103.311 97.7232C103.893 97.7232 104.392 97.5085 104.806 97.0792C105.235 96.6345 105.45 96.0135 105.45 95.2162V94.1812L104.369 94.2272ZM122.269 97.4932C122.637 97.4932 122.975 97.4548 123.281 97.3782C123.603 97.3015 123.933 97.2095 124.27 97.1022V99.6552C123.887 99.8085 123.435 99.9388 122.913 100.046C122.407 100.169 121.809 100.23 121.119 100.23C120.383 100.23 119.724 100.108 119.141 99.8622C118.574 99.6168 118.129 99.1952 117.807 98.5972C117.485 97.9838 117.324 97.1405 117.324 96.0672V90.0182H115.829V88.5692L117.623 87.4192L118.635 84.7742H121.004V87.4422H124.132V90.0182H121.004V96.0672C121.004 96.5425 121.119 96.9028 121.349 97.1482C121.579 97.3782 121.886 97.4932 122.269 97.4932ZM137.126 93.6982C137.126 94.7408 136.988 95.6685 136.712 96.4812C136.451 97.2938 136.068 97.9838 135.562 98.5512C135.056 99.1032 134.435 99.5248 133.699 99.8162C132.978 100.092 132.165 100.23 131.261 100.23C130.417 100.23 129.635 100.092 128.915 99.8162C128.194 99.5248 127.573 99.1032 127.052 98.5512C126.546 97.9838 126.147 97.2938 125.856 96.4812C125.58 95.6685 125.442 94.7408 125.442 93.6982C125.442 92.3028 125.679 91.1298 126.155 90.1792C126.63 89.2132 127.305 88.4772 128.179 87.9712C129.053 87.4652 130.103 87.2122 131.33 87.2122C132.464 87.2122 133.461 87.4652 134.32 87.9712C135.194 88.4772 135.876 89.2132 136.367 90.1792C136.873 91.1298 137.126 92.3028 137.126 93.6982ZM129.191 93.6982C129.191 94.5262 129.26 95.2238 129.398 95.7912C129.551 96.3432 129.781 96.7648 130.088 97.0562C130.41 97.3322 130.816 97.4702 131.307 97.4702C131.813 97.4702 132.211 97.3322 132.503 97.0562C132.809 96.7648 133.032 96.3432 133.17 95.7912C133.308 95.2238 133.377 94.5262 133.377 93.6982C133.377 92.8702 133.308 92.1802 133.17 91.6282C133.032 91.0762 132.802 90.6622 132.48 90.3862C132.173 90.1102 131.774 89.9722 131.284 89.9722C130.532 89.9722 129.996 90.2865 129.674 90.9152C129.352 91.5285 129.191 92.4562 129.191 93.6982ZM146.115 87.2122C147.434 87.2122 148.484 87.7642 149.266 88.8682C150.063 89.9568 150.462 91.5668 150.462 93.6982C150.462 95.1242 150.27 96.3278 149.887 97.3092C149.504 98.2752 148.975 99.0035 148.3 99.4942C147.625 99.9848 146.851 100.23 145.977 100.23C145.425 100.23 144.95 100.154 144.551 100C144.152 99.8468 143.815 99.6475 143.539 99.4022C143.278 99.1568 143.048 98.8962 142.849 98.6202H142.688C142.734 98.9115 142.772 99.2182 142.803 99.5402C142.834 99.8468 142.849 100.154 142.849 100.46V105.52H139.169V87.4422H142.159L142.688 89.0752H142.849C143.048 88.7378 143.294 88.4312 143.585 88.1552C143.876 87.8638 144.229 87.6338 144.643 87.4652C145.057 87.2965 145.548 87.2122 146.115 87.2122ZM144.804 89.9492C144.329 89.9492 143.945 90.0718 143.654 90.3172C143.363 90.5625 143.156 90.9382 143.033 91.4442C142.91 91.9348 142.849 92.5558 142.849 93.3072V93.6752C142.849 94.4878 142.91 95.1778 143.033 95.7452C143.156 96.2972 143.363 96.7188 143.654 97.0102C143.945 97.3015 144.344 97.4472 144.85 97.4472C145.264 97.4472 145.609 97.3015 145.885 97.0102C146.161 96.7188 146.368 96.2895 146.506 95.7222C146.644 95.1548 146.713 94.4648 146.713 93.6522C146.713 92.4255 146.552 91.5055 146.23 90.8922C145.923 90.2635 145.448 89.9492 144.804 89.9492ZM156.18 87.4422V100H152.5V87.4422H156.18ZM154.363 82.5202C154.9 82.5202 155.36 82.6428 155.743 82.8882C156.126 83.1182 156.318 83.5552 156.318 84.1992C156.318 84.8278 156.126 85.2648 155.743 85.5102C155.36 85.7555 154.9 85.8782 154.363 85.8782C153.811 85.8782 153.343 85.7555 152.96 85.5102C152.577 85.2648 152.385 84.8278 152.385 84.1992C152.385 83.5552 152.577 83.1182 152.96 82.8882C153.343 82.6428 153.811 82.5202 154.363 82.5202ZM163.975 100.23C162.779 100.23 161.751 100.008 160.893 99.5632C160.034 99.1032 159.375 98.3978 158.915 97.4472C158.455 96.4965 158.225 95.2775 158.225 93.7902C158.225 92.2568 158.478 91.0072 158.984 90.0412C159.505 89.0752 160.218 88.3622 161.123 87.9022C162.043 87.4422 163.093 87.2122 164.274 87.2122C165.04 87.2122 165.753 87.2965 166.413 87.4652C167.072 87.6338 167.624 87.8332 168.069 88.0632L166.988 90.6392C166.528 90.4398 166.106 90.2788 165.723 90.1562C165.355 90.0335 164.948 89.9722 164.504 89.9722C163.967 89.9722 163.507 90.1178 163.124 90.4092C162.756 90.6852 162.472 91.1068 162.273 91.6742C162.073 92.2262 161.974 92.9238 161.974 93.7672C161.974 94.5952 162.073 95.2852 162.273 95.8372C162.487 96.3738 162.779 96.7802 163.147 97.0562C163.53 97.3168 163.982 97.4472 164.504 97.4472C165.086 97.4472 165.638 97.3552 166.16 97.1712C166.696 96.9718 167.202 96.7035 167.678 96.3662V99.2872C167.172 99.6245 166.627 99.8622 166.045 100C165.477 100.154 164.787 100.23 163.975 100.23Z" fill="#FFF4EB"/>
</g>
<g filter="url(#filter1_d_594_4289)">
<rect x="635" y="13.0002" width="260" height="128" rx="64" fill="#1C2745" shape-rendering="crispEdges"/>
<path d="M720.245 62.3402L723.189 55.5782H727.191L722.085 65.6062V72.0002H718.382V65.7212L713.276 55.5782H717.324L720.245 62.3402ZM738.291 65.6982C738.291 66.7408 738.153 67.6685 737.877 68.4812C737.616 69.2938 737.233 69.9838 736.727 70.5512C736.221 71.1032 735.6 71.5248 734.864 71.8162C734.143 72.0922 733.33 72.2302 732.426 72.2302C731.582 72.2302 730.8 72.0922 730.08 71.8162C729.359 71.5248 728.738 71.1032 728.217 70.5512C727.711 69.9838 727.312 69.2938 727.021 68.4812C726.745 67.6685 726.607 66.7408 726.607 65.6982C726.607 64.3028 726.844 63.1298 727.32 62.1792C727.795 61.2132 728.47 60.4772 729.344 59.9712C730.218 59.4652 731.268 59.2122 732.495 59.2122C733.629 59.2122 734.626 59.4652 735.485 59.9712C736.359 60.4772 737.041 61.2132 737.532 62.1792C738.038 63.1298 738.291 64.3028 738.291 65.6982ZM730.356 65.6982C730.356 66.5262 730.425 67.2238 730.563 67.7912C730.716 68.3432 730.946 68.7648 731.253 69.0562C731.575 69.3322 731.981 69.4702 732.472 69.4702C732.978 69.4702 733.376 69.3322 733.668 69.0562C733.974 68.7648 734.197 68.3432 734.335 67.7912C734.473 67.2238 734.542 66.5262 734.542 65.6982C734.542 64.8702 734.473 64.1802 734.335 63.6282C734.197 63.0762 733.967 62.6622 733.645 62.3862C733.338 62.1102 732.939 61.9722 732.449 61.9722C731.697 61.9722 731.161 62.2865 730.839 62.9152C730.517 63.5285 730.356 64.4562 730.356 65.6982ZM751.558 59.4422V72.0002H748.775L748.292 70.3902H748.085C747.84 70.8195 747.525 71.1722 747.142 71.4482C746.774 71.7088 746.36 71.9005 745.9 72.0232C745.44 72.1612 744.965 72.2302 744.474 72.2302C743.661 72.2302 742.941 72.0692 742.312 71.7472C741.683 71.4252 741.185 70.9268 740.817 70.2522C740.464 69.5775 740.288 68.7035 740.288 67.6302V59.4422H743.968V66.7792C743.968 67.6685 744.098 68.3432 744.359 68.8032C744.62 69.2632 745.041 69.4932 745.624 69.4932C746.222 69.4932 746.682 69.3322 747.004 69.0102C747.326 68.6882 747.548 68.2205 747.671 67.6072C747.809 66.9938 747.878 66.2425 747.878 65.3532V59.4422H751.558ZM767.938 68.2742C767.938 69.1175 767.754 69.8382 767.386 70.4362C767.033 71.0188 766.489 71.4635 765.753 71.7702C765.017 72.0768 764.066 72.2302 762.901 72.2302C762.058 72.2302 761.322 72.1688 760.693 72.0462C760.064 71.9388 759.428 71.7548 758.784 71.4942V68.6652C759.489 68.9718 760.218 69.2248 760.969 69.4242C761.72 69.6235 762.349 69.7232 762.855 69.7232C763.407 69.7232 763.798 69.6235 764.028 69.4242C764.273 69.2248 764.396 68.9642 764.396 68.6422C764.396 68.4275 764.335 68.2358 764.212 68.0672C764.089 67.8985 763.844 67.7068 763.476 67.4922C763.108 67.2775 762.564 67.0015 761.843 66.6642C761.138 66.3268 760.555 65.9972 760.095 65.6752C759.65 65.3378 759.313 64.9392 759.083 64.4792C758.868 64.0038 758.761 63.4135 758.761 62.7082C758.761 61.5428 759.198 60.6688 760.072 60.0862C760.961 59.5035 762.127 59.2122 763.568 59.2122C764.335 59.2122 765.055 59.2888 765.73 59.4422C766.405 59.5955 767.102 59.8485 767.823 60.2012L766.788 62.6622C766.389 62.4782 765.998 62.3172 765.615 62.1792C765.232 62.0412 764.864 61.9338 764.511 61.8572C764.174 61.7805 763.852 61.7422 763.545 61.7422C763.146 61.7422 762.84 61.8112 762.625 61.9492C762.426 62.0872 762.326 62.2942 762.326 62.5702C762.326 62.7695 762.387 62.9535 762.51 63.1222C762.633 63.2755 762.87 63.4518 763.223 63.6512C763.576 63.8352 764.089 64.0728 764.764 64.3642C765.454 64.6555 766.029 64.9622 766.489 65.2842C766.964 65.5908 767.325 65.9818 767.57 66.4572C767.815 66.9172 767.938 67.5228 767.938 68.2742ZM773.563 58.0852C773.563 58.6985 773.54 59.2888 773.494 59.8562C773.463 60.4235 773.432 60.8222 773.402 61.0522H773.586C773.846 60.6228 774.138 60.2778 774.46 60.0172C774.797 59.7412 775.173 59.5418 775.587 59.4192C776.001 59.2812 776.445 59.2122 776.921 59.2122C777.749 59.2122 778.477 59.3732 779.106 59.6952C779.75 60.0172 780.256 60.5155 780.624 61.1902C780.992 61.8648 781.176 62.7388 781.176 63.8122V72.0002H777.473V64.6632C777.473 63.7585 777.335 63.0838 777.059 62.6392C776.798 62.1792 776.384 61.9492 775.817 61.9492C775.249 61.9492 774.797 62.1102 774.46 62.4322C774.122 62.7542 773.885 63.2218 773.747 63.8352C773.624 64.4485 773.563 65.1998 773.563 66.0892V72.0002H769.883V54.5202H773.563V58.0852ZM789.111 59.1892C790.66 59.1892 791.856 59.5572 792.699 60.2932C793.558 61.0138 793.987 62.1255 793.987 63.6282V72.0002H791.434L790.721 70.2982H790.629C790.292 70.7428 789.947 71.1108 789.594 71.4022C789.242 71.6935 788.835 71.9005 788.375 72.0232C787.915 72.1612 787.356 72.2302 786.696 72.2302C786.006 72.2302 785.385 72.0922 784.833 71.8162C784.297 71.5248 783.867 71.0878 783.545 70.5052C783.223 69.9072 783.062 69.1558 783.062 68.2512C783.062 66.9172 783.499 65.9358 784.373 65.3072C785.263 64.6632 786.566 64.3105 788.283 64.2492L790.307 64.1802V63.6282C790.307 62.9688 790.162 62.4858 789.87 62.1792C789.579 61.8725 789.18 61.7192 788.674 61.7192C788.153 61.7192 787.609 61.8112 787.041 61.9952C786.474 62.1638 785.907 62.3785 785.339 62.6392L784.212 60.3162C784.887 59.9635 785.631 59.6875 786.443 59.4882C787.271 59.2888 788.161 59.1892 789.111 59.1892ZM789.249 66.2272C788.345 66.2578 787.708 66.4572 787.34 66.8252C786.988 67.1932 786.811 67.6762 786.811 68.2742C786.811 68.7955 786.934 69.1712 787.179 69.4012C787.44 69.6158 787.777 69.7232 788.191 69.7232C788.774 69.7232 789.272 69.5085 789.686 69.0792C790.116 68.6345 790.33 68.0135 790.33 67.2162V66.1812L789.249 66.2272ZM803.49 59.2122C803.689 59.2122 803.904 59.2198 804.134 59.2352C804.364 59.2505 804.54 59.2735 804.663 59.3042L804.364 62.5242C804.241 62.4935 804.08 62.4705 803.881 62.4552C803.681 62.4245 803.451 62.4092 803.191 62.4092C802.853 62.4092 802.508 62.4705 802.156 62.5932C801.818 62.7005 801.504 62.8768 801.213 63.1222C800.937 63.3675 800.707 63.6972 800.523 64.1112C800.354 64.5098 800.27 65.0082 800.27 65.6062V72.0002H796.59V59.4422H799.35L799.902 61.5582H800.086C800.316 61.1288 800.599 60.7378 800.937 60.3852C801.274 60.0325 801.657 59.7488 802.087 59.5342C802.531 59.3195 802.999 59.2122 803.49 59.2122ZM810.805 59.2122C811.924 59.2122 812.89 59.4345 813.703 59.8792C814.515 60.3238 815.144 60.9678 815.589 61.8112C816.033 62.6545 816.256 63.6895 816.256 64.9162V66.5722H808.781C808.811 67.5382 809.057 68.2972 809.517 68.8492C809.992 69.4012 810.667 69.6772 811.541 69.6772C812.307 69.6772 812.997 69.6005 813.611 69.4472C814.239 69.2785 814.883 69.0255 815.543 68.6882V71.3332C814.975 71.6398 814.354 71.8622 813.68 72.0002C813.02 72.1535 812.2 72.2302 811.219 72.2302C810.023 72.2302 808.957 72.0002 808.022 71.5402C807.102 71.0648 806.373 70.3518 805.837 69.4012C805.315 68.4505 805.055 67.2545 805.055 65.8132C805.055 64.3412 805.292 63.1222 805.768 62.1562C806.258 61.1748 806.933 60.4388 807.792 59.9482C808.666 59.4575 809.67 59.2122 810.805 59.2122ZM810.874 61.6502C810.322 61.6502 809.862 61.8648 809.494 62.2942C809.126 62.7235 808.911 63.3905 808.85 64.2952H812.875C812.875 63.7892 812.798 63.3368 812.645 62.9382C812.491 62.5395 812.269 62.2252 811.978 61.9952C811.686 61.7652 811.318 61.6502 810.874 61.6502ZM689.293 87.4422H693.226L695.319 94.5032C695.395 94.7178 695.449 94.9478 695.48 95.1932C695.526 95.4232 695.556 95.6608 695.572 95.9062C695.602 96.1515 695.625 96.4122 695.641 96.6882H695.733C695.763 96.2895 695.802 95.9138 695.848 95.5612C695.909 95.1932 695.993 94.8405 696.101 94.5032L698.194 87.4422H702.058L697.136 101.587C696.829 102.461 696.438 103.19 695.963 103.772C695.487 104.355 694.912 104.792 694.238 105.083C693.563 105.375 692.773 105.52 691.869 105.52C691.501 105.52 691.179 105.497 690.903 105.451C690.642 105.421 690.412 105.382 690.213 105.336V102.622C690.366 102.653 690.55 102.684 690.765 102.714C690.995 102.745 691.232 102.76 691.478 102.76C691.938 102.76 692.321 102.661 692.628 102.461C692.934 102.262 693.187 101.994 693.387 101.656C693.586 101.319 693.732 100.943 693.824 100.529L693.985 99.9082L689.293 87.4422ZM714.195 93.6982C714.195 94.7408 714.057 95.6685 713.781 96.4812C713.52 97.2938 713.137 97.9838 712.631 98.5512C712.125 99.1032 711.504 99.5248 710.768 99.8162C710.047 100.092 709.235 100.23 708.33 100.23C707.487 100.23 706.705 100.092 705.984 99.8162C705.263 99.5248 704.642 99.1032 704.121 98.5512C703.615 97.9838 703.216 97.2938 702.925 96.4812C702.649 95.6685 702.511 94.7408 702.511 93.6982C702.511 92.3028 702.749 91.1298 703.224 90.1792C703.699 89.2132 704.374 88.4772 705.248 87.9712C706.122 87.4652 707.172 87.2122 708.399 87.2122C709.534 87.2122 710.53 87.4652 711.389 87.9712C712.263 88.4772 712.945 89.2132 713.436 90.1792C713.942 91.1298 714.195 92.3028 714.195 93.6982ZM706.26 93.6982C706.26 94.5262 706.329 95.2238 706.467 95.7912C706.62 96.3432 706.85 96.7648 707.157 97.0562C707.479 97.3322 707.885 97.4702 708.376 97.4702C708.882 97.4702 709.281 97.3322 709.572 97.0562C709.879 96.7648 710.101 96.3432 710.239 95.7912C710.377 95.2238 710.446 94.5262 710.446 93.6982C710.446 92.8702 710.377 92.1802 710.239 91.6282C710.101 91.0762 709.871 90.6622 709.549 90.3862C709.242 90.1102 708.844 89.9722 708.353 89.9722C707.602 89.9722 707.065 90.2865 706.743 90.9152C706.421 91.5285 706.26 92.4562 706.26 93.6982ZM727.462 87.4422V100H724.679L724.196 98.3902H723.989C723.744 98.8195 723.43 99.1722 723.046 99.4482C722.678 99.7088 722.264 99.9005 721.804 100.023C721.344 100.161 720.869 100.23 720.378 100.23C719.566 100.23 718.845 100.069 718.216 99.7472C717.588 99.4252 717.089 98.9268 716.721 98.2522C716.369 97.5775 716.192 96.7035 716.192 95.6302V87.4422H719.872V94.7792C719.872 95.6685 720.003 96.3432 720.263 96.8032C720.524 97.2632 720.946 97.4932 721.528 97.4932C722.126 97.4932 722.586 97.3322 722.908 97.0102C723.23 96.6882 723.453 96.2205 723.575 95.6072C723.713 94.9938 723.782 94.2425 723.782 93.3532V87.4422H727.462ZM737.031 87.2122C737.23 87.2122 737.445 87.2198 737.675 87.2352C737.905 87.2505 738.081 87.2735 738.204 87.3042L737.905 90.5242C737.782 90.4935 737.621 90.4705 737.422 90.4552C737.223 90.4245 736.993 90.4092 736.732 90.4092C736.395 90.4092 736.05 90.4705 735.697 90.5932C735.36 90.7005 735.045 90.8768 734.754 91.1222C734.478 91.3675 734.248 91.6972 734.064 92.1112C733.895 92.5098 733.811 93.0082 733.811 93.6062V100H730.131V87.4422H732.891L733.443 89.5582H733.627C733.857 89.1288 734.141 88.7378 734.478 88.3852C734.815 88.0325 735.199 87.7488 735.628 87.5342C736.073 87.3195 736.54 87.2122 737.031 87.2122ZM750.204 97.4932C750.572 97.4932 750.909 97.4548 751.216 97.3782C751.538 97.3015 751.868 97.2095 752.205 97.1022V99.6552C751.822 99.8085 751.369 99.9388 750.848 100.046C750.342 100.169 749.744 100.23 749.054 100.23C748.318 100.23 747.659 100.108 747.076 99.8622C746.509 99.6168 746.064 99.1952 745.742 98.5972C745.42 97.9838 745.259 97.1405 745.259 96.0672V90.0182H743.764V88.5692L745.558 87.4192L746.57 84.7742H748.939V87.4422H752.067V90.0182H748.939V96.0672C748.939 96.5425 749.054 96.9028 749.284 97.1482C749.514 97.3782 749.821 97.4932 750.204 97.4932ZM757.677 86.0852C757.677 86.6985 757.654 87.2888 757.608 87.8562C757.577 88.4235 757.547 88.8222 757.516 89.0522H757.7C757.961 88.6228 758.252 88.2778 758.574 88.0172C758.911 87.7412 759.287 87.5418 759.701 87.4192C760.115 87.2812 760.56 87.2122 761.035 87.2122C761.863 87.2122 762.591 87.3732 763.22 87.6952C763.864 88.0172 764.37 88.5155 764.738 89.1902C765.106 89.8648 765.29 90.7388 765.29 91.8122V100H761.587V92.6632C761.587 91.7585 761.449 91.0838 761.173 90.6392C760.912 90.1792 760.498 89.9492 759.931 89.9492C759.364 89.9492 758.911 90.1102 758.574 90.4322C758.237 90.7542 757.999 91.2218 757.861 91.8352C757.738 92.4485 757.677 93.1998 757.677 94.0892V100H753.997V82.5202H757.677V86.0852ZM778.953 93.6982C778.953 94.7408 778.815 95.6685 778.539 96.4812C778.278 97.2938 777.895 97.9838 777.389 98.5512C776.883 99.1032 776.262 99.5248 775.526 99.8162C774.805 100.092 773.992 100.23 773.088 100.23C772.244 100.23 771.462 100.092 770.742 99.8162C770.021 99.5248 769.4 99.1032 768.879 98.5512C768.373 97.9838 767.974 97.2938 767.683 96.4812C767.407 95.6685 767.269 94.7408 767.269 93.6982C767.269 92.3028 767.506 91.1298 767.982 90.1792C768.457 89.2132 769.132 88.4772 770.006 87.9712C770.88 87.4652 771.93 87.2122 773.157 87.2122C774.291 87.2122 775.288 87.4652 776.147 87.9712C777.021 88.4772 777.703 89.2132 778.194 90.1792C778.7 91.1298 778.953 92.3028 778.953 93.6982ZM771.018 93.6982C771.018 94.5262 771.087 95.2238 771.225 95.7912C771.378 96.3432 771.608 96.7648 771.915 97.0562C772.237 97.3322 772.643 97.4702 773.134 97.4702C773.64 97.4702 774.038 97.3322 774.33 97.0562C774.636 96.7648 774.859 96.3432 774.997 95.7912C775.135 95.2238 775.204 94.5262 775.204 93.6982C775.204 92.8702 775.135 92.1802 774.997 91.6282C774.859 91.0762 774.629 90.6622 774.307 90.3862C774 90.1102 773.601 89.9722 773.111 89.9722C772.359 89.9722 771.823 90.2865 771.501 90.9152C771.179 91.5285 771.018 92.4562 771.018 93.6982ZM792.22 87.4422V100H789.437L788.954 98.3902H788.747C788.502 98.8195 788.187 99.1722 787.804 99.4482C787.436 99.7088 787.022 99.9005 786.562 100.023C786.102 100.161 785.627 100.23 785.136 100.23C784.323 100.23 783.603 100.069 782.974 99.7472C782.345 99.4252 781.847 98.9268 781.479 98.2522C781.126 97.5775 780.95 96.7035 780.95 95.6302V87.4422H784.63V94.7792C784.63 95.6685 784.76 96.3432 785.021 96.8032C785.282 97.2632 785.703 97.4932 786.286 97.4932C786.884 97.4932 787.344 97.3322 787.666 97.0102C787.988 96.6882 788.21 96.2205 788.333 95.6072C788.471 94.9938 788.54 94.2425 788.54 93.3532V87.4422H792.22ZM798.707 87.2122C799.489 87.2122 800.148 87.3655 800.685 87.6722C801.237 87.9788 801.689 88.4388 802.042 89.0522H802.134L802.41 87.4422H805.561V100.023C805.561 101.219 805.331 102.224 804.871 103.036C804.426 103.849 803.751 104.462 802.847 104.876C801.942 105.306 800.8 105.52 799.42 105.52C798.53 105.52 797.718 105.467 796.982 105.359C796.261 105.252 795.563 105.06 794.889 104.784V102.047C795.379 102.262 795.855 102.438 796.315 102.576C796.79 102.73 797.273 102.837 797.764 102.898C798.27 102.975 798.814 103.013 799.397 103.013C800.24 103.013 800.861 102.776 801.26 102.3C801.674 101.825 801.881 101.112 801.881 100.161V99.9082C801.881 99.6475 801.888 99.3792 801.904 99.1032C801.934 98.8272 801.965 98.5818 801.996 98.3672H801.881C801.543 99.0265 801.106 99.5018 800.57 99.7932C800.048 100.085 799.404 100.23 798.638 100.23C797.304 100.23 796.238 99.6628 795.441 98.5282C794.659 97.3782 794.268 95.7835 794.268 93.7442C794.268 92.3642 794.452 91.1912 794.82 90.2252C795.188 89.2438 795.701 88.5002 796.361 87.9942C797.035 87.4728 797.817 87.2122 798.707 87.2122ZM799.995 89.9952C799.55 89.9952 799.182 90.1408 798.891 90.4322C798.599 90.7082 798.377 91.1298 798.224 91.6972C798.086 92.2492 798.017 92.9468 798.017 93.7902C798.017 95.0475 798.178 95.9905 798.5 96.6192C798.837 97.2325 799.351 97.5392 800.041 97.5392C800.409 97.5392 800.723 97.4855 800.984 97.3782C801.26 97.2555 801.482 97.0638 801.651 96.8032C801.819 96.5272 801.942 96.1745 802.019 95.7452C802.111 95.3158 802.157 94.7945 802.157 94.1812V93.7672C802.157 92.8625 802.088 92.1342 801.95 91.5822C801.812 91.0302 801.582 90.6315 801.26 90.3862C800.953 90.1255 800.531 89.9952 799.995 89.9952ZM811.9 86.0852C811.9 86.6985 811.877 87.2888 811.831 87.8562C811.8 88.4235 811.769 88.8222 811.739 89.0522H811.923C812.183 88.6228 812.475 88.2778 812.797 88.0172C813.134 87.7412 813.51 87.5418 813.924 87.4192C814.338 87.2812 814.782 87.2122 815.258 87.2122C816.086 87.2122 816.814 87.3732 817.443 87.6952C818.087 88.0172 818.593 88.5155 818.961 89.1902C819.329 89.8648 819.513 90.7388 819.513 91.8122V100H815.81V92.6632C815.81 91.7585 815.672 91.0838 815.396 90.6392C815.135 90.1792 814.721 89.9492 814.154 89.9492C813.586 89.9492 813.134 90.1102 812.797 90.4322C812.459 90.7542 812.222 91.2218 812.084 91.8352C811.961 92.4485 811.9 93.1998 811.9 94.0892V100H808.22V82.5202H811.9V86.0852ZM827.517 97.4932C827.885 97.4932 828.222 97.4548 828.529 97.3782C828.851 97.3015 829.181 97.2095 829.518 97.1022V99.6552C829.135 99.8085 828.682 99.9388 828.161 100.046C827.655 100.169 827.057 100.23 826.367 100.23C825.631 100.23 824.972 100.108 824.389 99.8622C823.822 99.6168 823.377 99.1952 823.055 98.5972C822.733 97.9838 822.572 97.1405 822.572 96.0672V90.0182H821.077V88.5692L822.871 87.4192L823.883 84.7742H826.252V87.4422H829.38V90.0182H826.252V96.0672C826.252 96.5425 826.367 96.9028 826.597 97.1482C826.827 97.3782 827.134 97.4932 827.517 97.4932ZM839.866 96.2742C839.866 97.1175 839.682 97.8382 839.314 98.4362C838.962 99.0188 838.417 99.4635 837.681 99.7702C836.945 100.077 835.995 100.23 834.829 100.23C833.986 100.23 833.25 100.169 832.621 100.046C831.993 99.9388 831.356 99.7548 830.712 99.4942V96.6652C831.418 96.9718 832.146 97.2248 832.897 97.4242C833.649 97.6235 834.277 97.7232 834.783 97.7232C835.335 97.7232 835.726 97.6235 835.956 97.4242C836.202 97.2248 836.324 96.9642 836.324 96.6422C836.324 96.4275 836.263 96.2358 836.14 96.0672C836.018 95.8985 835.772 95.7068 835.404 95.4922C835.036 95.2775 834.492 95.0015 833.771 94.6642C833.066 94.3268 832.483 93.9972 832.023 93.6752C831.579 93.3378 831.241 92.9392 831.011 92.4792C830.797 92.0038 830.689 91.4135 830.689 90.7082C830.689 89.5428 831.126 88.6688 832 88.0862C832.89 87.5035 834.055 87.2122 835.496 87.2122C836.263 87.2122 836.984 87.2888 837.658 87.4422C838.333 87.5955 839.031 87.8485 839.751 88.2012L838.716 90.6622C838.318 90.4782 837.927 90.3172 837.543 90.1792C837.16 90.0412 836.792 89.9338 836.439 89.8572C836.102 89.7805 835.78 89.7422 835.473 89.7422C835.075 89.7422 834.768 89.8112 834.553 89.9492C834.354 90.0872 834.254 90.2942 834.254 90.5702C834.254 90.7695 834.316 90.9535 834.438 91.1222C834.561 91.2755 834.799 91.4518 835.151 91.6512C835.504 91.8352 836.018 92.0728 836.692 92.3642C837.382 92.6555 837.957 92.9622 838.417 93.2842C838.893 93.5908 839.253 93.9818 839.498 94.4572C839.744 94.9172 839.866 95.5228 839.866 96.2742Z" fill="#FFF4EB"/>
</g>
<g filter="url(#filter2_d_594_4289)">
<rect x="299" y="203" width="261" height="128" rx="64" fill="#1C2745" shape-rendering="crispEdges"/>
<path d="M379.178 245.578L375.291 262H370.967L369.15 253.375C369.119 253.207 369.073 252.954 369.012 252.616C368.951 252.279 368.882 251.911 368.805 251.512C368.744 251.114 368.682 250.738 368.621 250.385C368.575 250.017 368.537 249.734 368.506 249.534C368.491 249.734 368.452 250.017 368.391 250.385C368.33 250.738 368.261 251.114 368.184 251.512C368.123 251.896 368.061 252.264 368 252.616C367.939 252.954 367.885 253.214 367.839 253.398L366.022 262H361.698L357.811 245.578H361.445L363.262 254.548C363.308 254.809 363.369 255.131 363.446 255.514C363.523 255.882 363.599 256.273 363.676 256.687C363.753 257.086 363.822 257.477 363.883 257.86C363.944 258.244 363.99 258.573 364.021 258.849C364.067 258.558 364.121 258.228 364.182 257.86C364.259 257.477 364.328 257.086 364.389 256.687C364.466 256.289 364.535 255.921 364.596 255.583C364.673 255.231 364.734 254.947 364.78 254.732L366.781 245.578H370.231L372.186 254.778C372.232 254.978 372.286 255.254 372.347 255.606C372.424 255.944 372.5 256.312 372.577 256.71C372.654 257.109 372.723 257.5 372.784 257.883C372.845 258.251 372.899 258.573 372.945 258.849C372.991 258.466 373.06 258.014 373.152 257.492C373.244 256.956 373.344 256.419 373.451 255.882C373.558 255.346 373.65 254.901 373.727 254.548L375.544 245.578H379.178ZM385.154 249.212C386.273 249.212 387.239 249.435 388.052 249.879C388.864 250.324 389.493 250.968 389.938 251.811C390.382 252.655 390.605 253.69 390.605 254.916V256.572H383.13C383.16 257.538 383.406 258.297 383.866 258.849C384.341 259.401 385.016 259.677 385.89 259.677C386.656 259.677 387.346 259.601 387.96 259.447C388.588 259.279 389.232 259.026 389.892 258.688V261.333C389.324 261.64 388.703 261.862 388.029 262C387.369 262.154 386.549 262.23 385.568 262.23C384.372 262.23 383.306 262 382.371 261.54C381.451 261.065 380.722 260.352 380.186 259.401C379.664 258.451 379.404 257.255 379.404 255.813C379.404 254.341 379.641 253.122 380.117 252.156C380.607 251.175 381.282 250.439 382.141 249.948C383.015 249.458 384.019 249.212 385.154 249.212ZM385.223 251.65C384.671 251.65 384.211 251.865 383.843 252.294C383.475 252.724 383.26 253.391 383.199 254.295H387.224C387.224 253.789 387.147 253.337 386.994 252.938C386.84 252.54 386.618 252.225 386.327 251.995C386.035 251.765 385.667 251.65 385.223 251.65ZM401.472 249.442V262H397.792V249.442H401.472ZM399.655 244.52C400.192 244.52 400.652 244.643 401.035 244.888C401.418 245.118 401.61 245.555 401.61 246.199C401.61 246.828 401.418 247.265 401.035 247.51C400.652 247.756 400.192 247.878 399.655 247.878C399.103 247.878 398.635 247.756 398.252 247.51C397.869 247.265 397.677 246.828 397.677 246.199C397.677 245.555 397.869 245.118 398.252 244.888C398.635 244.643 399.103 244.52 399.655 244.52ZM411.222 249.212C412.479 249.212 413.491 249.58 414.258 250.316C415.04 251.037 415.431 252.202 415.431 253.812V262H411.751V254.663C411.751 253.759 411.613 253.084 411.337 252.639C411.076 252.179 410.654 251.949 410.072 251.949C409.182 251.949 408.584 252.31 408.278 253.03C407.971 253.736 407.818 254.755 407.818 256.089V262H404.138V249.442H406.921L407.427 251.052H407.588C407.848 250.623 408.155 250.278 408.508 250.017C408.876 249.741 409.29 249.542 409.75 249.419C410.21 249.281 410.7 249.212 411.222 249.212ZM420.997 262L416.466 249.442H420.307L422.4 256.595C422.492 256.871 422.561 257.163 422.607 257.469C422.653 257.776 422.692 258.075 422.722 258.366C422.753 258.658 422.768 258.926 422.768 259.171H422.86C422.876 258.911 422.891 258.635 422.906 258.343C422.937 258.052 422.983 257.761 423.044 257.469C423.106 257.163 423.175 256.871 423.251 256.595L425.367 249.442H429.231L424.7 262H420.997ZM434.008 249.442V262H430.328V249.442H434.008ZM432.191 244.52C432.728 244.52 433.188 244.643 433.571 244.888C433.955 245.118 434.146 245.555 434.146 246.199C434.146 246.828 433.955 247.265 433.571 247.51C433.188 247.756 432.728 247.878 432.191 247.878C431.639 247.878 431.172 247.756 430.788 247.51C430.405 247.265 430.213 246.828 430.213 246.199C430.213 245.555 430.405 245.118 430.788 244.888C431.172 244.643 431.639 244.52 432.191 244.52ZM442.079 259.493C442.447 259.493 442.784 259.455 443.091 259.378C443.413 259.302 443.743 259.21 444.08 259.102V261.655C443.697 261.809 443.244 261.939 442.723 262.046C442.217 262.169 441.619 262.23 440.929 262.23C440.193 262.23 439.534 262.108 438.951 261.862C438.384 261.617 437.939 261.195 437.617 260.597C437.295 259.984 437.134 259.141 437.134 258.067V252.018H435.639V250.569L437.433 249.419L438.445 246.774H440.814V249.442H443.942V252.018H440.814V258.067C440.814 258.543 440.929 258.903 441.159 259.148C441.389 259.378 441.696 259.493 442.079 259.493ZM451.001 249.212C452.12 249.212 453.086 249.435 453.899 249.879C454.712 250.324 455.34 250.968 455.785 251.811C456.23 252.655 456.452 253.69 456.452 254.916V256.572H448.977C449.008 257.538 449.253 258.297 449.713 258.849C450.188 259.401 450.863 259.677 451.737 259.677C452.504 259.677 453.194 259.601 453.807 259.447C454.436 259.279 455.08 259.026 455.739 258.688V261.333C455.172 261.64 454.551 261.862 453.876 262C453.217 262.154 452.396 262.23 451.415 262.23C450.219 262.23 449.153 262 448.218 261.54C447.298 261.065 446.57 260.352 446.033 259.401C445.512 258.451 445.251 257.255 445.251 255.813C445.251 254.341 445.489 253.122 445.964 252.156C446.455 251.175 447.129 250.439 447.988 249.948C448.862 249.458 449.866 249.212 451.001 249.212ZM451.07 251.65C450.518 251.65 450.058 251.865 449.69 252.294C449.322 252.724 449.107 253.391 449.046 254.295H453.071C453.071 253.789 452.994 253.337 452.841 252.938C452.688 252.54 452.465 252.225 452.174 251.995C451.883 251.765 451.515 251.65 451.07 251.65ZM462.076 249.442H466.009L468.102 256.503C468.178 256.718 468.232 256.948 468.263 257.193C468.309 257.423 468.339 257.661 468.355 257.906C468.385 258.152 468.408 258.412 468.424 258.688H468.516C468.546 258.29 468.585 257.914 468.631 257.561C468.692 257.193 468.776 256.841 468.884 256.503L470.977 249.442H474.841L469.919 263.587C469.612 264.461 469.221 265.19 468.746 265.772C468.27 266.355 467.695 266.792 467.021 267.083C466.346 267.375 465.556 267.52 464.652 267.52C464.284 267.52 463.962 267.497 463.686 267.451C463.425 267.421 463.195 267.382 462.996 267.336V264.622C463.149 264.653 463.333 264.684 463.548 264.714C463.778 264.745 464.015 264.76 464.261 264.76C464.721 264.76 465.104 264.661 465.411 264.461C465.717 264.262 465.97 263.994 466.17 263.656C466.369 263.319 466.515 262.943 466.607 262.529L466.768 261.908L462.076 249.442ZM486.978 255.698C486.978 256.741 486.84 257.669 486.564 258.481C486.303 259.294 485.92 259.984 485.414 260.551C484.908 261.103 484.287 261.525 483.551 261.816C482.83 262.092 482.018 262.23 481.113 262.23C480.27 262.23 479.488 262.092 478.767 261.816C478.046 261.525 477.425 261.103 476.904 260.551C476.398 259.984 475.999 259.294 475.708 258.481C475.432 257.669 475.294 256.741 475.294 255.698C475.294 254.303 475.532 253.13 476.007 252.179C476.482 251.213 477.157 250.477 478.031 249.971C478.905 249.465 479.955 249.212 481.182 249.212C482.317 249.212 483.313 249.465 484.172 249.971C485.046 250.477 485.728 251.213 486.219 252.179C486.725 253.13 486.978 254.303 486.978 255.698ZM479.043 255.698C479.043 256.526 479.112 257.224 479.25 257.791C479.403 258.343 479.633 258.765 479.94 259.056C480.262 259.332 480.668 259.47 481.159 259.47C481.665 259.47 482.064 259.332 482.355 259.056C482.662 258.765 482.884 258.343 483.022 257.791C483.16 257.224 483.229 256.526 483.229 255.698C483.229 254.87 483.16 254.18 483.022 253.628C482.884 253.076 482.654 252.662 482.332 252.386C482.025 252.11 481.627 251.972 481.136 251.972C480.385 251.972 479.848 252.287 479.526 252.915C479.204 253.529 479.043 254.456 479.043 255.698ZM500.245 249.442V262H497.462L496.979 260.39H496.772C496.527 260.82 496.213 261.172 495.829 261.448C495.461 261.709 495.047 261.901 494.587 262.023C494.127 262.161 493.652 262.23 493.161 262.23C492.349 262.23 491.628 262.069 490.999 261.747C490.371 261.425 489.872 260.927 489.504 260.252C489.152 259.578 488.975 258.704 488.975 257.63V249.442H492.655V256.779C492.655 257.669 492.786 258.343 493.046 258.803C493.307 259.263 493.729 259.493 494.311 259.493C494.909 259.493 495.369 259.332 495.691 259.01C496.013 258.688 496.236 258.221 496.358 257.607C496.496 256.994 496.565 256.243 496.565 255.353V249.442H500.245ZM402.664 287.493C403.032 287.493 403.369 287.455 403.676 287.378C403.998 287.302 404.328 287.21 404.665 287.102V289.655C404.282 289.809 403.829 289.939 403.308 290.046C402.802 290.169 402.204 290.23 401.514 290.23C400.778 290.23 400.119 290.108 399.536 289.862C398.969 289.617 398.524 289.195 398.202 288.597C397.88 287.984 397.719 287.141 397.719 286.067V280.018H396.224V278.569L398.018 277.419L399.03 274.774H401.399V277.442H404.527V280.018H401.399V286.067C401.399 286.543 401.514 286.903 401.744 287.148C401.974 287.378 402.281 287.493 402.664 287.493ZM417.52 283.698C417.52 284.741 417.382 285.669 417.106 286.481C416.845 287.294 416.462 287.984 415.956 288.551C415.45 289.103 414.829 289.525 414.093 289.816C413.372 290.092 412.56 290.23 411.655 290.23C410.812 290.23 410.03 290.092 409.309 289.816C408.588 289.525 407.967 289.103 407.446 288.551C406.94 287.984 406.541 287.294 406.25 286.481C405.974 285.669 405.836 284.741 405.836 283.698C405.836 282.303 406.074 281.13 406.549 280.179C407.024 279.213 407.699 278.477 408.573 277.971C409.447 277.465 410.497 277.212 411.724 277.212C412.859 277.212 413.855 277.465 414.714 277.971C415.588 278.477 416.27 279.213 416.761 280.179C417.267 281.13 417.52 282.303 417.52 283.698ZM409.585 283.698C409.585 284.526 409.654 285.224 409.792 285.791C409.945 286.343 410.175 286.765 410.482 287.056C410.804 287.332 411.21 287.47 411.701 287.47C412.207 287.47 412.606 287.332 412.897 287.056C413.204 286.765 413.426 286.343 413.564 285.791C413.702 285.224 413.771 284.526 413.771 283.698C413.771 282.87 413.702 282.18 413.564 281.628C413.426 281.076 413.196 280.662 412.874 280.386C412.567 280.11 412.169 279.972 411.678 279.972C410.927 279.972 410.39 280.287 410.068 280.915C409.746 281.529 409.585 282.456 409.585 283.698ZM424.075 295.52C423.737 295.52 423.362 295.49 422.948 295.428C422.534 295.382 422.189 295.321 421.913 295.244V292.553C422.158 292.615 422.388 292.661 422.603 292.691C422.817 292.737 423.055 292.76 423.316 292.76C423.699 292.76 424.029 292.63 424.305 292.369C424.581 292.109 424.719 291.603 424.719 290.851V277.442H428.376V291.357C428.376 292.124 428.238 292.822 427.962 293.45C427.686 294.079 427.233 294.577 426.605 294.945C425.976 295.329 425.133 295.52 424.075 295.52ZM424.604 274.199C424.604 273.555 424.795 273.118 425.179 272.888C425.562 272.643 426.022 272.52 426.559 272.52C427.095 272.52 427.555 272.643 427.939 272.888C428.337 273.118 428.537 273.555 428.537 274.199C428.537 274.828 428.337 275.265 427.939 275.51C427.555 275.756 427.095 275.878 426.559 275.878C426.022 275.878 425.562 275.756 425.179 275.51C424.795 275.265 424.604 274.828 424.604 274.199ZM442.127 283.698C442.127 284.741 441.989 285.669 441.713 286.481C441.453 287.294 441.069 287.984 440.563 288.551C440.057 289.103 439.436 289.525 438.7 289.816C437.98 290.092 437.167 290.23 436.262 290.23C435.419 290.23 434.637 290.092 433.916 289.816C433.196 289.525 432.575 289.103 432.053 288.551C431.547 287.984 431.149 287.294 430.857 286.481C430.581 285.669 430.443 284.741 430.443 283.698C430.443 282.303 430.681 281.13 431.156 280.179C431.632 279.213 432.306 278.477 433.18 277.971C434.054 277.465 435.105 277.212 436.331 277.212C437.466 277.212 438.463 277.465 439.321 277.971C440.195 278.477 440.878 279.213 441.368 280.179C441.874 281.13 442.127 282.303 442.127 283.698ZM434.192 283.698C434.192 284.526 434.261 285.224 434.399 285.791C434.553 286.343 434.783 286.765 435.089 287.056C435.411 287.332 435.818 287.47 436.308 287.47C436.814 287.47 437.213 287.332 437.504 287.056C437.811 286.765 438.033 286.343 438.171 285.791C438.309 285.224 438.378 284.526 438.378 283.698C438.378 282.87 438.309 282.18 438.171 281.628C438.033 281.076 437.803 280.662 437.481 280.386C437.175 280.11 436.776 279.972 436.285 279.972C435.534 279.972 434.997 280.287 434.675 280.915C434.353 281.529 434.192 282.456 434.192 283.698ZM447.851 277.442V290H444.171V277.442H447.851ZM446.034 272.52C446.571 272.52 447.031 272.643 447.414 272.888C447.797 273.118 447.989 273.555 447.989 274.199C447.989 274.828 447.797 275.265 447.414 275.51C447.031 275.756 446.571 275.878 446.034 275.878C445.482 275.878 445.014 275.756 444.631 275.51C444.248 275.265 444.056 274.828 444.056 274.199C444.056 273.555 444.248 273.118 444.631 272.888C445.014 272.643 445.482 272.52 446.034 272.52ZM457.601 277.212C458.858 277.212 459.87 277.58 460.637 278.316C461.419 279.037 461.81 280.202 461.81 281.812V290H458.13V282.663C458.13 281.759 457.992 281.084 457.716 280.639C457.455 280.179 457.033 279.949 456.451 279.949C455.561 279.949 454.963 280.31 454.657 281.03C454.35 281.736 454.197 282.755 454.197 284.089V290H450.517V277.442H453.3L453.806 279.052H453.967C454.227 278.623 454.534 278.278 454.887 278.017C455.255 277.741 455.669 277.542 456.129 277.419C456.589 277.281 457.079 277.212 457.601 277.212Z" fill="#FFF4EB"/>
</g>
<g filter="url(#filter3_d_594_4289)">
<rect x="908" y="191" width="260" height="128" rx="64" fill="#1C2745" shape-rendering="crispEdges"/>
<path d="M1010.79 233.578L1006.9 250H1002.57L1000.76 241.375C1000.73 241.207 1000.68 240.954 1000.62 240.616C1000.56 240.279 1000.49 239.911 1000.41 239.512C1000.35 239.114 1000.29 238.738 1000.23 238.385C1000.18 238.017 1000.14 237.734 1000.11 237.534C1000.1 237.734 1000.06 238.017 999.999 238.385C999.938 238.738 999.869 239.114 999.792 239.512C999.731 239.896 999.669 240.264 999.608 240.616C999.547 240.954 999.493 241.214 999.447 241.398L997.63 250H993.306L989.419 233.578H993.053L994.87 242.548C994.916 242.809 994.977 243.131 995.054 243.514C995.131 243.882 995.207 244.273 995.284 244.687C995.361 245.086 995.43 245.477 995.491 245.86C995.552 246.244 995.598 246.573 995.629 246.849C995.675 246.558 995.729 246.228 995.79 245.86C995.867 245.477 995.936 245.086 995.997 244.687C996.074 244.289 996.143 243.921 996.204 243.583C996.281 243.231 996.342 242.947 996.388 242.732L998.389 233.578H1001.84L1003.79 242.778C1003.84 242.978 1003.89 243.254 1003.95 243.606C1004.03 243.944 1004.11 244.312 1004.18 244.71C1004.26 245.109 1004.33 245.5 1004.39 245.883C1004.45 246.251 1004.51 246.573 1004.55 246.849C1004.6 246.466 1004.67 246.014 1004.76 245.492C1004.85 244.956 1004.95 244.419 1005.06 243.882C1005.17 243.346 1005.26 242.901 1005.33 242.548L1007.15 233.578H1010.79ZM1016.76 237.212C1017.88 237.212 1018.85 237.435 1019.66 237.879C1020.47 238.324 1021.1 238.968 1021.55 239.811C1021.99 240.655 1022.21 241.69 1022.21 242.916V244.572H1014.74C1014.77 245.538 1015.01 246.297 1015.47 246.849C1015.95 247.401 1016.62 247.677 1017.5 247.677C1018.26 247.677 1018.95 247.601 1019.57 247.447C1020.2 247.279 1020.84 247.026 1021.5 246.688V249.333C1020.93 249.64 1020.31 249.862 1019.64 250C1018.98 250.154 1018.16 250.23 1017.18 250.23C1015.98 250.23 1014.91 250 1013.98 249.54C1013.06 249.065 1012.33 248.352 1011.79 247.401C1011.27 246.451 1011.01 245.255 1011.01 243.813C1011.01 242.341 1011.25 241.122 1011.72 240.156C1012.22 239.175 1012.89 238.439 1013.75 237.948C1014.62 237.458 1015.63 237.212 1016.76 237.212ZM1016.83 239.65C1016.28 239.65 1015.82 239.865 1015.45 240.294C1015.08 240.724 1014.87 241.391 1014.81 242.295H1018.83C1018.83 241.789 1018.75 241.337 1018.6 240.938C1018.45 240.54 1018.23 240.225 1017.93 239.995C1017.64 239.765 1017.28 239.65 1016.83 239.65ZM1037.96 246.274C1037.96 247.118 1037.77 247.838 1037.4 248.436C1037.05 249.019 1036.51 249.464 1035.77 249.77C1035.03 250.077 1034.08 250.23 1032.92 250.23C1032.08 250.23 1031.34 250.169 1030.71 250.046C1030.08 249.939 1029.45 249.755 1028.8 249.494V246.665C1029.51 246.972 1030.24 247.225 1030.99 247.424C1031.74 247.624 1032.37 247.723 1032.87 247.723C1033.42 247.723 1033.82 247.624 1034.05 247.424C1034.29 247.225 1034.41 246.964 1034.41 246.642C1034.41 246.428 1034.35 246.236 1034.23 246.067C1034.11 245.899 1033.86 245.707 1033.49 245.492C1033.13 245.278 1032.58 245.002 1031.86 244.664C1031.16 244.327 1030.57 243.997 1030.11 243.675C1029.67 243.338 1029.33 242.939 1029.1 242.479C1028.89 242.004 1028.78 241.414 1028.78 240.708C1028.78 239.543 1029.22 238.669 1030.09 238.086C1030.98 237.504 1032.14 237.212 1033.59 237.212C1034.35 237.212 1035.07 237.289 1035.75 237.442C1036.42 237.596 1037.12 237.849 1037.84 238.201L1036.81 240.662C1036.41 240.478 1036.02 240.317 1035.63 240.179C1035.25 240.041 1034.88 239.934 1034.53 239.857C1034.19 239.781 1033.87 239.742 1033.56 239.742C1033.16 239.742 1032.86 239.811 1032.64 239.949C1032.44 240.087 1032.34 240.294 1032.34 240.57C1032.34 240.77 1032.41 240.954 1032.53 241.122C1032.65 241.276 1032.89 241.452 1033.24 241.651C1033.59 241.835 1034.11 242.073 1034.78 242.364C1035.47 242.656 1036.05 242.962 1036.51 243.284C1036.98 243.591 1037.34 243.982 1037.59 244.457C1037.83 244.917 1037.96 245.523 1037.96 246.274ZM1043.58 236.085C1043.58 236.699 1043.56 237.289 1043.51 237.856C1043.48 238.424 1043.45 238.822 1043.42 239.052H1043.6C1043.86 238.623 1044.16 238.278 1044.48 238.017C1044.82 237.741 1045.19 237.542 1045.6 237.419C1046.02 237.281 1046.46 237.212 1046.94 237.212C1047.77 237.212 1048.5 237.373 1049.12 237.695C1049.77 238.017 1050.27 238.516 1050.64 239.19C1051.01 239.865 1051.19 240.739 1051.19 241.812V250H1047.49V242.663C1047.49 241.759 1047.35 241.084 1047.08 240.639C1046.82 240.179 1046.4 239.949 1045.83 239.949C1045.27 239.949 1044.82 240.11 1044.48 240.432C1044.14 240.754 1043.9 241.222 1043.76 241.835C1043.64 242.449 1043.58 243.2 1043.58 244.089V250H1039.9V232.52H1043.58V236.085ZM1059.13 237.189C1060.68 237.189 1061.87 237.557 1062.72 238.293C1063.58 239.014 1064.01 240.126 1064.01 241.628V250H1061.45L1060.74 248.298H1060.65C1060.31 248.743 1059.97 249.111 1059.61 249.402C1059.26 249.694 1058.85 249.901 1058.39 250.023C1057.93 250.161 1057.37 250.23 1056.71 250.23C1056.02 250.23 1055.4 250.092 1054.85 249.816C1054.31 249.525 1053.89 249.088 1053.56 248.505C1053.24 247.907 1053.08 247.156 1053.08 246.251C1053.08 244.917 1053.52 243.936 1054.39 243.307C1055.28 242.663 1056.58 242.311 1058.3 242.249L1060.33 242.18V241.628C1060.33 240.969 1060.18 240.486 1059.89 240.179C1059.6 239.873 1059.2 239.719 1058.69 239.719C1058.17 239.719 1057.63 239.811 1057.06 239.995C1056.49 240.164 1055.92 240.379 1055.36 240.639L1054.23 238.316C1054.91 237.964 1055.65 237.688 1056.46 237.488C1057.29 237.289 1058.18 237.189 1059.13 237.189ZM1059.27 244.227C1058.36 244.258 1057.73 244.457 1057.36 244.825C1057.01 245.193 1056.83 245.676 1056.83 246.274C1056.83 246.796 1056.95 247.171 1057.2 247.401C1057.46 247.616 1057.8 247.723 1058.21 247.723C1058.79 247.723 1059.29 247.509 1059.7 247.079C1060.13 246.635 1060.35 246.014 1060.35 245.216V244.181L1059.27 244.227ZM1073.51 237.212C1073.71 237.212 1073.92 237.22 1074.15 237.235C1074.38 237.251 1074.56 237.274 1074.68 237.304L1074.38 240.524C1074.26 240.494 1074.1 240.471 1073.9 240.455C1073.7 240.425 1073.47 240.409 1073.21 240.409C1072.87 240.409 1072.53 240.471 1072.17 240.593C1071.84 240.701 1071.52 240.877 1071.23 241.122C1070.95 241.368 1070.72 241.697 1070.54 242.111C1070.37 242.51 1070.29 243.008 1070.29 243.606V250H1066.61V237.442H1069.37L1069.92 239.558H1070.1C1070.33 239.129 1070.62 238.738 1070.95 238.385C1071.29 238.033 1071.68 237.749 1072.1 237.534C1072.55 237.32 1073.02 237.212 1073.51 237.212ZM1080.82 237.212C1081.94 237.212 1082.91 237.435 1083.72 237.879C1084.53 238.324 1085.16 238.968 1085.61 239.811C1086.05 240.655 1086.27 241.69 1086.27 242.916V244.572H1078.8C1078.83 245.538 1079.07 246.297 1079.53 246.849C1080.01 247.401 1080.68 247.677 1081.56 247.677C1082.33 247.677 1083.02 247.601 1083.63 247.447C1084.26 247.279 1084.9 247.026 1085.56 246.688V249.333C1084.99 249.64 1084.37 249.862 1083.7 250C1083.04 250.154 1082.22 250.23 1081.24 250.23C1080.04 250.23 1078.98 250 1078.04 249.54C1077.12 249.065 1076.39 248.352 1075.85 247.401C1075.33 246.451 1075.07 245.255 1075.07 243.813C1075.07 242.341 1075.31 241.122 1075.79 240.156C1076.28 239.175 1076.95 238.439 1077.81 237.948C1078.68 237.458 1079.69 237.212 1080.82 237.212ZM1080.89 239.65C1080.34 239.65 1079.88 239.865 1079.51 240.294C1079.14 240.724 1078.93 241.391 1078.87 242.295H1082.89C1082.89 241.789 1082.82 241.337 1082.66 240.938C1082.51 240.54 1082.29 240.225 1082 239.995C1081.7 239.765 1081.34 239.65 1080.89 239.65ZM1010.17 265.212C1010.37 265.212 1010.58 265.22 1010.81 265.235C1011.04 265.251 1011.22 265.274 1011.34 265.304L1011.04 268.524C1010.92 268.494 1010.76 268.471 1010.56 268.455C1010.36 268.425 1010.13 268.409 1009.87 268.409C1009.53 268.409 1009.18 268.471 1008.83 268.593C1008.49 268.701 1008.18 268.877 1007.89 269.122C1007.61 269.368 1007.38 269.697 1007.2 270.111C1007.03 270.51 1006.95 271.008 1006.95 271.606V278H1003.27V265.442H1006.03L1006.58 267.558H1006.76C1006.99 267.129 1007.28 266.738 1007.61 266.385C1007.95 266.033 1008.33 265.749 1008.76 265.534C1009.21 265.32 1009.68 265.212 1010.17 265.212ZM1017.48 265.212C1018.6 265.212 1019.57 265.435 1020.38 265.879C1021.19 266.324 1021.82 266.968 1022.26 267.811C1022.71 268.655 1022.93 269.69 1022.93 270.916V272.572H1015.46C1015.49 273.538 1015.73 274.297 1016.19 274.849C1016.67 275.401 1017.34 275.677 1018.22 275.677C1018.98 275.677 1019.67 275.601 1020.29 275.447C1020.92 275.279 1021.56 275.026 1022.22 274.688V277.333C1021.65 277.64 1021.03 277.862 1020.36 278C1019.7 278.154 1018.88 278.23 1017.89 278.23C1016.7 278.23 1015.63 278 1014.7 277.54C1013.78 277.065 1013.05 276.352 1012.51 275.401C1011.99 274.451 1011.73 273.255 1011.73 271.813C1011.73 270.341 1011.97 269.122 1012.44 268.156C1012.93 267.175 1013.61 266.439 1014.47 265.948C1015.34 265.458 1016.35 265.212 1017.48 265.212ZM1017.55 267.65C1017 267.65 1016.54 267.865 1016.17 268.294C1015.8 268.724 1015.59 269.391 1015.53 270.295H1019.55C1019.55 269.789 1019.47 269.337 1019.32 268.938C1019.17 268.54 1018.95 268.225 1018.65 267.995C1018.36 267.765 1017.99 267.65 1017.55 267.65ZM1033.52 274.274C1033.52 275.118 1033.34 275.838 1032.97 276.436C1032.62 277.019 1032.07 277.464 1031.33 277.77C1030.6 278.077 1029.65 278.23 1028.48 278.23C1027.64 278.23 1026.9 278.169 1026.27 278.046C1025.65 277.939 1025.01 277.755 1024.37 277.494V274.665C1025.07 274.972 1025.8 275.225 1026.55 275.424C1027.3 275.624 1027.93 275.723 1028.44 275.723C1028.99 275.723 1029.38 275.624 1029.61 275.424C1029.86 275.225 1029.98 274.964 1029.98 274.642C1029.98 274.428 1029.92 274.236 1029.79 274.067C1029.67 273.899 1029.43 273.707 1029.06 273.492C1028.69 273.278 1028.15 273.002 1027.42 272.664C1026.72 272.327 1026.14 271.997 1025.68 271.675C1025.23 271.338 1024.89 270.939 1024.66 270.479C1024.45 270.004 1024.34 269.414 1024.34 268.708C1024.34 267.543 1024.78 266.669 1025.65 266.086C1026.54 265.504 1027.71 265.212 1029.15 265.212C1029.92 265.212 1030.64 265.289 1031.31 265.442C1031.99 265.596 1032.68 265.849 1033.4 266.201L1032.37 268.662C1031.97 268.478 1031.58 268.317 1031.2 268.179C1030.81 268.041 1030.45 267.934 1030.09 267.857C1029.76 267.781 1029.43 267.742 1029.13 267.742C1028.73 267.742 1028.42 267.811 1028.21 267.949C1028.01 268.087 1027.91 268.294 1027.91 268.57C1027.91 268.77 1027.97 268.954 1028.09 269.122C1028.21 269.276 1028.45 269.452 1028.8 269.651C1029.16 269.835 1029.67 270.073 1030.35 270.364C1031.04 270.656 1031.61 270.962 1032.07 271.284C1032.55 271.591 1032.91 271.982 1033.15 272.457C1033.4 272.917 1033.52 273.523 1033.52 274.274ZM1046.69 265.442V278H1043.91L1043.42 276.39H1043.22C1042.97 276.82 1042.66 277.172 1042.27 277.448C1041.9 277.709 1041.49 277.901 1041.03 278.023C1040.57 278.161 1040.1 278.23 1039.6 278.23C1038.79 278.23 1038.07 278.069 1037.44 277.747C1036.81 277.425 1036.32 276.927 1035.95 276.252C1035.6 275.578 1035.42 274.704 1035.42 273.63V265.442H1039.1V272.779C1039.1 273.669 1039.23 274.343 1039.49 274.803C1039.75 275.263 1040.17 275.493 1040.75 275.493C1041.35 275.493 1041.81 275.332 1042.13 275.01C1042.46 274.688 1042.68 274.221 1042.8 273.607C1042.94 272.994 1043.01 272.243 1043.01 271.353V265.442H1046.69ZM1053.04 278H1049.36V260.52H1053.04V278ZM1061.11 275.493C1061.48 275.493 1061.81 275.455 1062.12 275.378C1062.44 275.302 1062.77 275.21 1063.11 275.102V277.655C1062.73 277.809 1062.27 277.939 1061.75 278.046C1061.25 278.169 1060.65 278.23 1059.96 278.23C1059.22 278.23 1058.56 278.108 1057.98 277.862C1057.41 277.617 1056.97 277.195 1056.65 276.597C1056.32 275.984 1056.16 275.141 1056.16 274.067V268.018H1054.67V266.569L1056.46 265.419L1057.47 262.774H1059.84V265.442H1062.97V268.018H1059.84V274.067C1059.84 274.543 1059.96 274.903 1060.19 275.148C1060.42 275.378 1060.72 275.493 1061.11 275.493ZM1073.46 274.274C1073.46 275.118 1073.27 275.838 1072.91 276.436C1072.55 277.019 1072.01 277.464 1071.27 277.77C1070.54 278.077 1069.59 278.23 1068.42 278.23C1067.58 278.23 1066.84 278.169 1066.21 278.046C1065.58 277.939 1064.95 277.755 1064.3 277.494V274.665C1065.01 274.972 1065.74 275.225 1066.49 275.424C1067.24 275.624 1067.87 275.723 1068.37 275.723C1068.93 275.723 1069.32 275.624 1069.55 275.424C1069.79 275.225 1069.92 274.964 1069.92 274.642C1069.92 274.428 1069.85 274.236 1069.73 274.067C1069.61 273.899 1069.36 273.707 1069 273.492C1068.63 273.278 1068.08 273.002 1067.36 272.664C1066.66 272.327 1066.07 271.997 1065.61 271.675C1065.17 271.338 1064.83 270.939 1064.6 270.479C1064.39 270.004 1064.28 269.414 1064.28 268.708C1064.28 267.543 1064.72 266.669 1065.59 266.086C1066.48 265.504 1067.65 265.212 1069.09 265.212C1069.85 265.212 1070.57 265.289 1071.25 265.442C1071.92 265.596 1072.62 265.849 1073.34 266.201L1072.31 268.662C1071.91 268.478 1071.52 268.317 1071.13 268.179C1070.75 268.041 1070.38 267.934 1070.03 267.857C1069.69 267.781 1069.37 267.742 1069.06 267.742C1068.67 267.742 1068.36 267.811 1068.14 267.949C1067.94 268.087 1067.85 268.294 1067.85 268.57C1067.85 268.77 1067.91 268.954 1068.03 269.122C1068.15 269.276 1068.39 269.452 1068.74 269.651C1069.09 269.835 1069.61 270.073 1070.28 270.364C1070.97 270.656 1071.55 270.962 1072.01 271.284C1072.48 271.591 1072.84 271.982 1073.09 272.457C1073.33 272.917 1073.46 273.523 1073.46 274.274Z" fill="#FFF4EB"/>
</g>
<rect x="910.36" y="182" width="48" height="48" rx="24" transform="rotate(5.21115 910.36 182)" fill="#E79450"/>
<path d="M933.352 194.139C933.328 194.136 933.304 194.136 933.28 194.137C933.272 194.139 933.263 194.14 933.255 194.142C933.239 194.144 933.223 194.146 933.207 194.151C933.199 194.152 933.193 194.155 933.185 194.157C933.169 194.161 933.153 194.168 933.137 194.174C933.13 194.178 933.122 194.181 933.114 194.185C933.1 194.192 933.087 194.2 933.075 194.208C933.066 194.213 933.058 194.219 933.05 194.226C933.038 194.234 933.027 194.244 933.017 194.253C933.01 194.26 933.002 194.267 932.996 194.274C932.986 194.284 932.978 194.294 932.969 194.306C932.962 194.314 932.955 194.323 932.949 194.332C932.941 194.344 932.934 194.356 932.927 194.369C932.923 194.377 932.919 194.386 932.915 194.394C932.908 194.41 932.902 194.426 932.897 194.442C932.895 194.449 932.892 194.456 932.89 194.463C932.883 194.487 932.879 194.51 932.877 194.534L932.509 198.57C928.275 198.413 924.622 201.591 924.232 205.866L924.186 206.379L920.176 206.013C919.405 205.943 918.712 206.519 918.642 207.29C918.589 207.872 918.903 208.408 919.392 208.666L918.357 220.01L917.785 219.957C917.67 219.947 917.555 219.983 917.465 220.057C917.376 220.131 917.32 220.238 917.31 220.354C917.289 220.594 917.466 220.806 917.706 220.828L943.912 223.218C944.153 223.24 944.364 223.064 944.387 222.824C944.398 222.708 944.362 222.593 944.288 222.503C944.214 222.414 944.107 222.358 943.991 222.348L943.419 222.295L944.453 210.953C944.981 210.787 945.386 210.316 945.439 209.734C945.51 208.963 944.935 208.271 944.164 208.201L940.153 207.835L940.2 207.322C940.59 203.047 937.571 199.261 933.38 198.65L933.424 198.161L937.553 198.537C937.793 198.559 938.006 198.382 938.028 198.142L938.312 195.03C938.334 194.79 938.156 194.577 937.916 194.555L933.352 194.139ZM933.708 195.05L937.401 195.386L937.196 197.627L933.504 197.29L933.708 195.05ZM932.866 199.469C936.814 199.829 939.69 203.287 939.329 207.242L939.282 207.755L936.746 207.524L932.716 203.961C932.574 203.834 932.366 203.815 932.202 203.914L927.594 206.689L925.057 206.458L925.104 205.945C925.465 201.99 928.919 199.109 932.866 199.469L932.866 199.469ZM932.377 204.827L940.105 211.663L923.542 210.153L925.082 209.225C925.094 209.218 925.108 209.21 925.121 209.201L927.925 207.51L927.927 207.511L932.377 204.827ZM920.097 206.884L926.327 207.452L924.775 208.387L920 207.952C919.697 207.924 919.487 207.672 919.514 207.369C919.542 207.065 919.794 206.857 920.097 206.884L920.097 206.884ZM937.854 208.504L944.086 209.072C944.389 209.1 944.599 209.351 944.571 209.654C944.543 209.958 944.291 210.167 943.989 210.139L939.211 209.705L937.854 208.504ZM920.254 208.855L923.507 209.151L921.946 210.092L921.918 210.115C921.901 210.128 921.886 210.141 921.871 210.155C921.855 210.17 921.841 210.185 921.827 210.203C921.816 210.219 921.804 210.237 921.795 210.255C921.784 210.272 921.774 210.291 921.766 210.31C921.757 210.335 921.751 210.36 921.747 210.384C921.741 210.412 921.738 210.442 921.739 210.472C921.739 210.499 921.741 210.525 921.745 210.552C921.749 210.569 921.754 210.586 921.76 210.602C921.768 210.626 921.777 210.648 921.789 210.672C921.792 210.678 921.794 210.685 921.797 210.693C921.804 210.7 921.81 210.708 921.817 210.715C921.831 210.737 921.848 210.757 921.867 210.776C921.878 210.787 921.889 210.797 921.902 210.807C921.924 210.826 921.949 210.84 921.974 210.853C921.987 210.861 922 210.866 922.012 210.873C922.05 210.889 922.092 210.899 922.134 210.903L923.785 211.053L923.093 218.641L922.673 218.603C922.433 218.581 922.22 218.758 922.198 218.999L922.075 220.348L919.23 220.089L920.254 208.855ZM940.32 210.685L943.573 210.981L942.548 222.215L939.704 221.956L939.827 220.606C939.849 220.366 939.671 220.153 939.431 220.131L939.013 220.093L939.705 212.505L941.354 212.656C941.398 212.66 941.444 212.657 941.487 212.648C941.489 212.647 941.491 212.648 941.492 212.647C941.535 212.637 941.577 212.62 941.615 212.597C941.616 212.597 941.617 212.596 941.619 212.595C941.656 212.574 941.69 212.546 941.718 212.513C941.719 212.512 941.721 212.511 941.722 212.51C941.727 212.505 941.73 212.5 941.734 212.496C941.735 212.495 941.735 212.494 941.737 212.493C941.744 212.483 941.753 212.473 941.759 212.461C941.759 212.461 941.759 212.46 941.76 212.46C941.879 212.279 941.847 212.036 941.685 211.892L940.32 210.685ZM924.655 211.133L938.832 212.426L938.14 220.013L937.123 219.92L937.611 214.57C937.687 213.739 937.066 212.993 936.234 212.917C935.403 212.841 934.658 213.463 934.582 214.294L934.094 219.644L932.567 219.505L933.055 214.155C933.131 213.323 932.509 212.577 931.678 212.501C930.847 212.425 930.103 213.047 930.027 213.878L929.539 219.229L928.011 219.089L928.499 213.739C928.574 212.908 927.954 212.162 927.122 212.086C926.291 212.01 925.544 212.632 925.469 213.463L924.981 218.813L923.962 218.72L924.655 211.133ZM927.042 212.957C927.406 212.99 927.66 213.296 927.627 213.66L927.139 219.01L925.853 218.893L926.341 213.542C926.374 213.179 926.679 212.924 927.043 212.957L927.042 212.957ZM931.598 213.373C931.962 213.406 932.216 213.711 932.183 214.075L931.695 219.426L930.409 219.308L930.897 213.958C930.93 213.594 931.236 213.34 931.599 213.373L931.598 213.373ZM936.155 213.788C936.518 213.822 936.772 214.127 936.738 214.491L936.25 219.841L934.964 219.724L935.452 214.373C935.485 214.01 935.791 213.755 936.155 213.788ZM923.03 219.515L938.915 220.964L938.832 221.876L922.946 220.428L923.03 219.515Z" fill="#1C2745"/>
<rect x="294.675" y="191" width="48" height="48" rx="24" transform="rotate(2 294.675 191)" fill="#E79450"/>
<path d="M318.312 201.831C318.288 201.831 318.264 201.832 318.239 201.834C318.232 201.836 318.223 201.838 318.215 201.84C318.199 201.843 318.183 201.847 318.168 201.852C318.16 201.854 318.153 201.857 318.145 201.86C318.13 201.865 318.114 201.872 318.099 201.879C318.092 201.883 318.084 201.887 318.077 201.891C318.063 201.899 318.051 201.908 318.038 201.916C318.031 201.922 318.023 201.929 318.015 201.936C318.004 201.944 317.993 201.955 317.983 201.964C317.976 201.972 317.969 201.979 317.964 201.987C317.955 201.997 317.947 202.008 317.938 202.02C317.932 202.028 317.926 202.038 317.92 202.048C317.913 202.059 317.906 202.072 317.9 202.085C317.897 202.094 317.893 202.103 317.889 202.111C317.883 202.127 317.878 202.144 317.875 202.16C317.872 202.167 317.87 202.174 317.868 202.182C317.863 202.205 317.86 202.229 317.859 202.253L317.718 206.303C313.482 206.383 310.013 209.761 309.863 214.051L309.845 214.566L305.821 214.426C305.048 214.399 304.388 215.012 304.361 215.786C304.341 216.37 304.685 216.888 305.187 217.119L304.789 228.502L304.215 228.482C304.1 228.478 303.986 228.52 303.902 228.599C303.817 228.678 303.767 228.788 303.763 228.905C303.756 229.145 303.944 229.347 304.185 229.355L330.484 230.274C330.725 230.282 330.927 230.094 330.936 229.854C330.94 229.737 330.898 229.625 330.819 229.539C330.74 229.454 330.63 229.404 330.514 229.4L329.939 229.38L330.337 217.998C330.855 217.803 331.233 217.309 331.253 216.726C331.281 215.952 330.668 215.293 329.894 215.266L325.869 215.126L325.887 214.611C326.037 210.321 322.811 206.709 318.592 206.334L318.609 205.843L322.752 205.988C322.993 205.996 323.196 205.808 323.204 205.567L323.313 202.444C323.322 202.203 323.133 202 322.891 201.992L318.312 201.831ZM318.718 202.721L322.424 202.851L322.345 205.099L318.64 204.97L318.718 202.721ZM318.125 207.181C322.087 207.319 325.152 210.611 325.013 214.58L324.995 215.095L322.449 215.006L318.226 211.674C318.077 211.556 317.869 211.549 317.711 211.656L313.265 214.685L310.72 214.596L310.738 214.081C310.876 210.112 314.164 207.042 318.125 207.181L318.125 207.181ZM317.937 212.558L326.036 218.951L309.414 218.37L310.899 217.357C310.911 217.35 310.925 217.341 310.937 217.331L313.642 215.486L313.644 215.486L317.937 212.558ZM305.791 215.3L312.043 215.518L310.546 216.538L305.754 216.371C305.45 216.36 305.226 216.12 305.237 215.817C305.247 215.512 305.487 215.289 305.791 215.3L305.791 215.3ZM323.611 215.922L329.865 216.14C330.169 216.151 330.393 216.39 330.382 216.695C330.371 217 330.131 217.222 329.828 217.212L325.033 217.045L323.611 215.922ZM306.059 217.258L309.323 217.372L307.817 218.399L307.79 218.424C307.774 218.438 307.759 218.451 307.746 218.466C307.731 218.482 307.717 218.498 307.705 218.516C307.694 218.533 307.684 218.552 307.675 218.57C307.665 218.588 307.657 218.607 307.649 218.627C307.642 218.652 307.638 218.677 307.635 218.702C307.63 218.73 307.629 218.76 307.632 218.789C307.633 218.817 307.636 218.843 307.642 218.87C307.647 218.886 307.653 218.903 307.66 218.918C307.669 218.942 307.679 218.964 307.693 218.986C307.696 218.993 307.699 219 307.702 219.007C307.709 219.014 307.715 219.021 307.723 219.028C307.739 219.049 307.756 219.068 307.777 219.087C307.788 219.097 307.8 219.106 307.813 219.115C307.836 219.133 307.862 219.145 307.888 219.157C307.901 219.164 307.914 219.169 307.927 219.175C307.966 219.188 308.008 219.197 308.05 219.198L309.707 219.256L309.441 226.87L309.02 226.855C308.778 226.847 308.576 227.036 308.567 227.277L308.52 228.632L305.665 228.532L306.059 217.258ZM326.195 217.961L329.46 218.075L329.066 229.349L326.212 229.25L326.259 227.895C326.267 227.654 326.077 227.451 325.837 227.443L325.417 227.428L325.683 219.814L327.338 219.872C327.383 219.873 327.428 219.868 327.471 219.857C327.472 219.855 327.474 219.856 327.475 219.854C327.517 219.843 327.559 219.823 327.595 219.798C327.597 219.799 327.598 219.797 327.599 219.796C327.635 219.772 327.667 219.743 327.694 219.709C327.695 219.708 327.696 219.707 327.697 219.706C327.702 219.7 327.705 219.695 327.709 219.691C327.71 219.69 327.71 219.689 327.711 219.688C327.718 219.677 327.726 219.666 327.732 219.654C327.732 219.654 327.732 219.653 327.733 219.653C327.841 219.466 327.796 219.225 327.626 219.09L326.195 217.961ZM310.58 219.286L324.808 219.783L324.542 227.397L323.521 227.362L323.708 221.992C323.737 221.158 323.076 220.448 322.241 220.419C321.407 220.39 320.698 221.052 320.668 221.886L320.481 227.256L318.948 227.202L319.136 221.833C319.165 220.999 318.503 220.288 317.669 220.259C316.835 220.23 316.126 220.893 316.097 221.727L315.91 227.096L314.376 227.042L314.564 221.673C314.593 220.839 313.931 220.129 313.096 220.099C312.262 220.07 311.552 220.733 311.523 221.567L311.335 226.936L310.313 226.901L310.58 219.286ZM313.066 220.974C313.431 220.987 313.702 221.278 313.689 221.643L313.501 227.012L312.211 226.967L312.398 221.598C312.411 221.233 312.702 220.961 313.067 220.974L313.066 220.974ZM317.638 221.134C318.003 221.147 318.274 221.437 318.261 221.802L318.074 227.172L316.783 227.127L316.97 221.757C316.983 221.392 317.274 221.121 317.639 221.134L317.638 221.134ZM322.21 221.294C322.575 221.306 322.845 221.597 322.833 221.962L322.645 227.331L321.354 227.286L321.542 221.917C321.554 221.552 321.845 221.281 322.21 221.294ZM309.427 227.746L325.368 228.303L325.336 229.219L309.395 228.662L309.427 227.746Z" fill="#1C2745"/>
<ellipse cx="25.6157" cy="26.4048" rx="24" ry="24" transform="rotate(-4 25.6157 26.4048)" fill="#5489A3"/>
<path d="M19.8775 36.2901C22.183 36.1289 23.9222 34.143 23.7622 31.8545C23.6021 29.566 21.6035 27.8414 19.298 28.0027C16.9925 28.1639 15.2533 30.1498 15.4133 32.4383C15.5734 34.7268 17.572 36.4513 19.8775 36.2901Z" stroke="#FFF4EB" stroke-width="2" stroke-linecap="round" stroke-linejoin="round"/>
<path d="M18.9356 22.8237C21.241 22.6625 22.9803 20.6766 22.8202 18.3881C22.6602 16.0996 20.6615 14.3751 18.3561 14.5363C16.0506 14.6975 14.3114 16.6834 14.4714 18.9719C14.6314 21.2604 16.6301 22.985 18.9356 22.8237Z" stroke="#FFF4EB" stroke-width="2" stroke-linecap="round" stroke-linejoin="round"/>
<path d="M32.4002 35.4149C34.7056 35.2536 36.4449 33.2677 36.2848 30.9792C36.1248 28.6907 34.1261 26.9662 31.8207 27.1274C29.5152 27.2886 27.776 29.2745 27.936 31.563C28.096 33.8516 30.0947 35.5761 32.4002 35.4149Z" stroke="#FFF4EB" stroke-width="2" stroke-linecap="round" stroke-linejoin="round"/>
<path d="M13.8333 39.8363C14.4949 38.8204 15.3855 37.9711 16.4346 37.3557C17.4837 36.7403 18.6625 36.3756 19.8776 36.2907C21.0927 36.2057 22.3108 36.4027 23.4353 36.8661C24.5599 37.3296 25.56 38.0466 26.3566 38.9606C27.0181 37.9447 27.9088 37.0954 28.9579 36.48C30.007 35.8645 31.1858 35.4999 32.4009 35.4149C33.616 35.33 34.834 35.527 35.9586 35.9904C37.0831 36.4538 38.0833 37.1709 38.8798 38.0849" stroke="#FFF4EB" stroke-width="2" stroke-linecap="round" stroke-linejoin="round"/>
<path d="M31.4587 21.9481C33.7642 21.7869 35.5034 19.801 35.3434 17.5124C35.1833 15.2239 33.1847 13.4994 30.8792 13.6606C28.5737 13.8218 26.8345 15.8077 26.9945 18.0962C27.1546 20.3848 29.1532 22.1093 31.4587 21.9481Z" stroke="#FFF4EB" stroke-width="2" stroke-linecap="round" stroke-linejoin="round"/>
<path d="M12.8914 26.3691C13.553 25.3532 14.4436 24.5039 15.4927 23.8885C16.5418 23.273 17.7206 22.9084 18.9357 22.8234C20.1508 22.7385 21.3688 22.9355 22.4934 23.3989C23.6179 23.8623 24.6181 24.5794 25.4146 25.4934C26.0762 24.4775 26.9668 23.6282 28.0159 23.0127C29.0651 22.3973 30.2438 22.0327 31.4589 21.9477C32.6741 21.8628 33.8921 22.0598 35.0167 22.5232C36.1412 22.9866 37.1414 23.7037 37.9379 24.6177" stroke="#FFF4EB" stroke-width="2" stroke-linecap="round" stroke-linejoin="round"/>
<ellipse cx="656.616" cy="36.405" rx="24" ry="24" transform="rotate(-4 656.616 36.405)" fill="#5489A3"/>
<path d="M650.877 46.2903C653.183 46.1291 654.922 44.1432 654.762 41.8547C654.602 39.5661 652.603 37.8416 650.298 38.0028C647.992 38.164 646.253 40.1499 646.413 42.4385C646.573 44.727 648.572 46.4515 650.877 46.2903Z" stroke="#FFF4EB" stroke-width="2" stroke-linecap="round" stroke-linejoin="round"/>
<path d="M649.936 32.8239C652.241 32.6627 653.98 30.6768 653.82 28.3883C653.66 26.0998 651.662 24.3753 649.356 24.5365C647.051 24.6977 645.311 26.6836 645.471 28.9721C645.631 31.2606 647.63 32.9851 649.936 32.8239Z" stroke="#FFF4EB" stroke-width="2" stroke-linecap="round" stroke-linejoin="round"/>
<path d="M663.4 45.415C665.706 45.2538 667.445 43.2679 667.285 40.9794C667.125 38.6909 665.126 36.9664 662.821 37.1276C660.515 37.2888 658.776 39.2747 658.936 41.5632C659.096 43.8517 661.095 45.5763 663.4 45.415Z" stroke="#FFF4EB" stroke-width="2" stroke-linecap="round" stroke-linejoin="round"/>
<path d="M644.833 49.8365C645.495 48.8206 646.385 47.9713 647.435 47.3559C648.484 46.7404 649.662 46.3758 650.878 46.2908C652.093 46.2059 653.311 46.4029 654.435 46.8663C655.56 47.3297 656.56 48.0468 657.357 48.9608C658.018 47.9449 658.909 47.0956 659.958 46.4801C661.007 45.8647 662.186 45.5001 663.401 45.4151C664.616 45.3302 665.834 45.5272 666.959 45.9906C668.083 46.454 669.083 47.1711 669.88 48.0851" stroke="#FFF4EB" stroke-width="2" stroke-linecap="round" stroke-linejoin="round"/>
<path d="M662.459 31.9482C664.764 31.787 666.503 29.8011 666.343 27.5126C666.183 25.2241 664.185 23.4996 661.879 23.6608C659.574 23.822 657.835 25.8079 657.995 28.0964C658.155 30.3849 660.153 32.1095 662.459 31.9482Z" stroke="#FFF4EB" stroke-width="2" stroke-linecap="round" stroke-linejoin="round"/>
<path d="M643.891 36.3693C644.553 35.3533 645.444 34.5041 646.493 33.8886C647.542 33.2732 648.721 32.9086 649.936 32.8236C651.151 32.7386 652.369 32.9357 653.493 33.3991C654.618 33.8625 655.618 34.5796 656.415 35.4936C657.076 34.4776 657.967 33.6283 659.016 33.0129C660.065 32.3975 661.244 32.0329 662.459 31.9479C663.674 31.8629 664.892 32.06 666.017 32.5234C667.141 32.9868 668.141 33.7039 668.938 34.6178" stroke="#FFF4EB" stroke-width="2" stroke-linecap="round" stroke-linejoin="round"/>
<path d="M286.768 271.768C287.744 270.791 287.744 269.209 286.768 268.232L270.858 252.322C269.882 251.346 268.299 251.346 267.322 252.322C266.346 253.299 266.346 254.882 267.322 255.858L281.464 270L267.322 284.142C266.346 285.118 266.346 286.701 267.322 287.678C268.299 288.654 269.882 288.654 270.858 287.678L286.768 271.768ZM139.5 152V225H144.5V152H139.5ZM187 272.5H285V267.5H187V272.5ZM139.5 225C139.5 251.234 160.766 272.5 187 272.5V267.5C163.528 267.5 144.5 248.472 144.5 225H139.5Z" fill="#5489A3"/>
<path d="M896.768 272.768C897.744 271.791 897.744 270.209 896.768 269.232L880.858 253.322C879.882 252.346 878.299 252.346 877.322 253.322C876.346 254.299 876.346 255.882 877.322 256.858L891.464 271L877.322 285.142C876.346 286.118 876.346 287.701 877.322 288.678C878.299 289.654 879.882 289.654 880.858 288.678L896.768 272.768ZM768.5 153V226H773.5V153H768.5ZM816 273.5H895V268.5H816V273.5ZM768.5 226C768.5 252.234 789.766 273.5 816 273.5V268.5C792.528 268.5 773.5 249.472 773.5 226H768.5Z" fill="#5489A3"/>
<path d="M626.768 81.2322C627.744 82.2085 627.744 83.7915 626.768 84.7678L610.858 100.678C609.882 101.654 608.299 101.654 607.322 100.678C606.346 99.7014 606.346 98.1184 607.322 97.1421L621.464 83L607.322 68.8579C606.346 67.8815 606.346 66.2986 607.322 65.3223C608.299 64.346 609.882 64.346 610.858 65.3223L626.768 81.2322ZM427.5 191V128H432.5V191H427.5ZM475 80.5H625V85.5H475V80.5ZM427.5 128C427.5 101.766 448.766 80.5 475 80.5V85.5C451.528 85.5 432.5 104.528 432.5 128H427.5Z" fill="#5489A3"/>
</g>
<defs>
<filter id="filter0_d_594_4289" x="-1" y="13.0002" width="268" height="136" filterUnits="userSpaceOnUse" color-interpolation-filters="sRGB">
<feFlood flood-opacity="0" result="BackgroundImageFix"/>
<feColorMatrix in="SourceAlpha" type="matrix" values="0 0 0 0 0 0 0 0 0 0 0 0 0 0 0 0 0 0 127 0" result="hardAlpha"/>
<feOffset dy="4"/>
<feGaussianBlur stdDeviation="2"/>
<feComposite in2="hardAlpha" operator="out"/>
<feColorMatrix type="matrix" values="0 0 0 0 0 0 0 0 0 0 0 0 0 0 0 0 0 0 0.06 0"/>
<feBlend mode="normal" in2="BackgroundImageFix" result="effect1_dropShadow_594_4289"/>
<feBlend mode="normal" in="SourceGraphic" in2="effect1_dropShadow_594_4289" result="shape"/>
</filter>
<filter id="filter1_d_594_4289" x="631" y="13.0002" width="268" height="136" filterUnits="userSpaceOnUse" color-interpolation-filters="sRGB">
<feFlood flood-opacity="0" result="BackgroundImageFix"/>
<feColorMatrix in="SourceAlpha" type="matrix" values="0 0 0 0 0 0 0 0 0 0 0 0 0 0 0 0 0 0 127 0" result="hardAlpha"/>
<feOffset dy="4"/>
<feGaussianBlur stdDeviation="2"/>
<feComposite in2="hardAlpha" operator="out"/>
<feColorMatrix type="matrix" values="0 0 0 0 0 0 0 0 0 0 0 0 0 0 0 0 0 0 0.06 0"/>
<feBlend mode="normal" in2="BackgroundImageFix" result="effect1_dropShadow_594_4289"/>
<feBlend mode="normal" in="SourceGraphic" in2="effect1_dropShadow_594_4289" result="shape"/>
</filter>
<filter id="filter2_d_594_4289" x="295" y="203" width="269" height="136" filterUnits="userSpaceOnUse" color-interpolation-filters="sRGB">
<feFlood flood-opacity="0" result="BackgroundImageFix"/>
<feColorMatrix in="SourceAlpha" type="matrix" values="0 0 0 0 0 0 0 0 0 0 0 0 0 0 0 0 0 0 127 0" result="hardAlpha"/>
<feOffset dy="4"/>
<feGaussianBlur stdDeviation="2"/>
<feComposite in2="hardAlpha" operator="out"/>
<feColorMatrix type="matrix" values="0 0 0 0 0 0 0 0 0 0 0 0 0 0 0 0 0 0 0.06 0"/>
<feBlend mode="normal" in2="BackgroundImageFix" result="effect1_dropShadow_594_4289"/>
<feBlend mode="normal" in="SourceGraphic" in2="effect1_dropShadow_594_4289" result="shape"/>
</filter>
<filter id="filter3_d_594_4289" x="904" y="191" width="268" height="136" filterUnits="userSpaceOnUse" color-interpolation-filters="sRGB">
<feFlood flood-opacity="0" result="BackgroundImageFix"/>
<feColorMatrix in="SourceAlpha" type="matrix" values="0 0 0 0 0 0 0 0 0 0 0 0 0 0 0 0 0 0 127 0" result="hardAlpha"/>
<feOffset dy="4"/>
<feGaussianBlur stdDeviation="2"/>
<feComposite in2="hardAlpha" operator="out"/>
<feColorMatrix type="matrix" values="0 0 0 0 0 0 0 0 0 0 0 0 0 0 0 0 0 0 0.06 0"/>
<feBlend mode="normal" in2="BackgroundImageFix" result="effect1_dropShadow_594_4289"/>
<feBlend mode="normal" in="SourceGraphic" in2="effect1_dropShadow_594_4289" result="shape"/>
</filter>
<clipPath id="clip0_594_4289">
<rect width="1180" height="330.211" fill="white" transform="translate(0 0.789062)"/>
</clipPath>
</defs>
</svg>
