<svg width="48" height="48" viewBox="0 0 48 48" fill="none" xmlns="http://www.w3.org/2000/svg">
<ellipse cx="24" cy="24" rx="24" ry="24" fill="#5489A3"/>
<path d="M17.5862 33.461C19.8973 33.461 21.7708 31.6012 21.7708 29.3071C21.7708 27.013 19.8973 25.1533 17.5862 25.1533C15.2751 25.1533 13.4016 27.013 13.4016 29.3071C13.4016 31.6012 15.2751 33.461 17.5862 33.461Z" stroke="#FFF4EB" stroke-linecap="round" stroke-linejoin="round"/>
<path d="M17.5859 19.9617C19.897 19.9617 21.7705 18.1019 21.7705 15.8078C21.7705 13.5137 19.897 11.654 17.5859 11.654C15.2748 11.654 13.4012 13.5137 13.4012 15.8078C13.4012 18.1019 15.2748 19.9617 17.5859 19.9617Z" stroke="#FFF4EB" stroke-linecap="round" stroke-linejoin="round"/>
<path d="M30.1395 33.4614C32.4505 33.4614 34.3241 31.6016 34.3241 29.3075C34.3241 27.0134 32.4505 25.1537 30.1395 25.1537C27.8284 25.1537 25.9548 27.0134 25.9548 29.3075C25.9548 31.6016 27.8284 33.4614 30.1395 33.4614Z" stroke="#FFF4EB" stroke-linecap="round" stroke-linejoin="round"/>
<path d="M11.3093 36.5769C12.0402 35.6096 12.9879 34.8245 14.0773 34.2838C15.1668 33.7431 16.3682 33.4615 17.5863 33.4615C18.8043 33.4615 20.0057 33.7431 21.0952 34.2838C22.1846 34.8245 23.1323 35.6096 23.8632 36.5769C24.594 35.6096 25.5417 34.8245 26.6312 34.2838C27.7207 33.7431 28.922 33.4615 30.1401 33.4615C31.3582 33.4615 32.5595 33.7431 33.649 34.2838C34.7385 34.8245 35.6862 35.6096 36.417 36.5769" stroke="#FFF4EB" stroke-linecap="round" stroke-linejoin="round"/>
<path d="M30.1396 19.9617C32.4507 19.9617 34.3242 18.1019 34.3242 15.8078C34.3242 13.5137 32.4507 11.654 30.1396 11.654C27.8285 11.654 25.955 13.5137 25.955 15.8078C25.955 18.1019 27.8285 19.9617 30.1396 19.9617Z" stroke="#FFF4EB" stroke-linecap="round" stroke-linejoin="round"/>
<path d="M11.3091 23.0767C12.0399 22.1095 12.9876 21.3243 14.0771 20.7836C15.1666 20.2429 16.3679 19.9614 17.586 19.9614C18.8041 19.9614 20.0054 20.2429 21.0949 20.7836C22.1844 21.3243 23.1321 22.1095 23.8629 23.0767C24.5938 22.1095 25.5415 21.3243 26.6309 20.7836C27.7204 20.2429 28.9218 19.9614 30.1399 19.9614C31.3579 19.9614 32.5593 20.2429 33.6488 20.7836C34.7382 21.3243 35.6859 22.1095 36.4168 23.0767" stroke="#FFF4EB" stroke-linecap="round" stroke-linejoin="round"/>
</svg>
