<svg xmlns="http://www.w3.org/2000/svg" width="49" height="49" viewbox="0 0 49 49">
  <ellipse cx="24.6157" cy="24.6156" rx="24" ry="24" fill="#5489A3" />
  <path
    d="M18.2022 34.0766C20.5133 34.0766 22.3868 32.2169 22.3868 29.9228C22.3868 27.6287 20.5133 25.7689 18.2022 25.7689C15.8911 25.7689 14.0176 27.6287 14.0176 29.9228C14.0176 32.2169 15.8911 34.0766 18.2022 34.0766Z"
    stroke="#FFF4EB" fill="#5489A3" stroke-width="2" stroke-linecap="round" stroke-linejoin="round" />
  <path
    d="M18.2017 20.5773C20.5128 20.5773 22.3863 18.7176 22.3863 16.4235C22.3863 14.1294 20.5128 12.2697 18.2017 12.2697C15.8906 12.2697 14.0171 14.1294 14.0171 16.4235C14.0171 18.7176 15.8906 20.5773 18.2017 20.5773Z"
    stroke="#FFF4EB" fill="#5489A3" stroke-width="2" stroke-linecap="round" stroke-linejoin="round" />
  <path
    d="M30.7554 34.0771C33.0665 34.0771 34.94 32.2174 34.94 29.9233C34.94 27.6291 33.0665 25.7694 30.7554 25.7694C28.4443 25.7694 26.5708 27.6291 26.5708 29.9233C26.5708 32.2174 28.4443 34.0771 30.7554 34.0771Z"
    stroke="#FFF4EB" fill="#5489A3" stroke-width="2" stroke-linecap="round" stroke-linejoin="round" />
  <path
    d="M11.9253 37.1925C12.6561 36.2252 13.6038 35.4401 14.6933 34.8994C15.7828 34.3587 16.9841 34.0771 18.2022 34.0771C19.4203 34.0771 20.6216 34.3587 21.7111 34.8994C22.8006 35.4401 23.7483 36.2252 24.4791 37.1925C25.21 36.2252 26.1577 35.4401 27.2472 34.8994C28.3366 34.3587 29.538 34.0771 30.7561 34.0771C31.9741 34.0771 33.1755 34.3587 34.265 34.8994C35.3545 35.4401 36.3021 36.2252 37.033 37.1925"
    stroke="#FFF4EB" fill="#5489A3" stroke-width="2" stroke-linecap="round" stroke-linejoin="round" />
  <path
    d="M30.7554 20.5773C33.0665 20.5773 34.94 18.7176 34.94 16.4235C34.94 14.1294 33.0665 12.2697 30.7554 12.2697C28.4443 12.2697 26.5708 14.1294 26.5708 16.4235C26.5708 18.7176 28.4443 20.5773 30.7554 20.5773Z"
    stroke="#FFF4EB" fill="#5489A3" stroke-width="2" stroke-linecap="round" stroke-linejoin="round" />
  <path
    d="M11.9248 23.6924C12.6557 22.7251 13.6033 21.94 14.6928 21.3993C15.7823 20.8585 16.9837 20.577 18.2017 20.577C19.4198 20.577 20.6212 20.8585 21.7106 21.3993C22.8001 21.94 23.7478 22.7251 24.4787 23.6924C25.2095 22.7251 26.1572 21.94 27.2467 21.3993C28.3362 20.8585 29.5375 20.577 30.7556 20.577C31.9737 20.577 33.175 20.8585 34.2645 21.3993C35.354 21.94 36.3017 22.7251 37.0325 23.6924"
    stroke="#FFF4EB" fill="#5489A3" stroke-width="2" stroke-linecap="round" stroke-linejoin="round" />
</svg>