<svg width="49" height="49" viewBox="0 0 49 49" fill="none" xmlns="http://www.w3.org/2000/svg">
<rect x="0.822998" y="0.822998" width="48" height="48" rx="24" fill="#E79450"/>
<path d="M25.0376 30.1344C29.5634 30.1344 33.2565 26.5638 33.2565 22.1299C33.2565 17.6959 29.5634 14.1253 25.0376 14.1253C20.5117 14.1253 16.8186 17.6959 16.8186 22.1299C16.8186 26.5638 20.5117 30.1344 25.0376 30.1344Z" fill="#E79450" stroke="#1C2745"/>
<rect x="16.8186" y="26.9903" width="16.4379" height="9.57663" fill="#E79450" stroke="#1C2745"/>
<path d="M12 25.0885V38.0885" stroke="#1C2745" stroke-linecap="round" stroke-linejoin="round"/>
<path d="M38 25.0885V38.0885" stroke="#1C2745" stroke-linecap="round" stroke-linejoin="round"/>
<path d="M19.6769 23.1307H12.3868C11.7554 23.1307 11.2435 23.6426 11.2435 24.274C11.2435 24.9054 11.7554 25.4172 12.3868 25.4172H18.176H31.8986H37.6879C38.3193 25.4172 38.8311 24.9054 38.8311 24.274C38.8311 23.6426 38.3193 23.1307 37.6879 23.1307H29.9689H19.6769Z" fill="#E79450" stroke="#1C2745"/>
<path d="M15.962 26.2212C15.7819 26.3455 15.7036 26.5725 15.7687 26.7814C15.8339 26.9903 16.0273 27.1326 16.2461 27.1326H33.8282C34.0449 27.1326 34.2369 26.993 34.3038 26.7869C34.3707 26.5807 34.2971 26.355 34.1217 26.2278L25.545 20.0097C25.3734 19.8853 25.1419 19.8826 24.9675 20.0031L15.962 26.2212Z" fill="#E79450" stroke="#1C2745" stroke-linejoin="round"/>
<mask id="path-8-outside-1_687_4780" maskUnits="userSpaceOnUse" x="24" y="7.69366" width="7" height="5" fill="black">
<rect fill="white" x="24" y="7.69366" width="7" height="5"/>
<path d="M29.7171 8.69366H25V10.9099H29.7171V8.69366Z"/>
</mask>
<path d="M29.7171 8.69366H25V10.9099H29.7171V8.69366Z" fill="#E79450"/>
<path d="M25 8.69366V7.69366C24.4477 7.69366 24 8.14138 24 8.69366H25ZM29.7171 8.69366H30.7171C30.7171 8.14138 30.2694 7.69366 29.7171 7.69366V8.69366ZM29.7171 10.9099V11.9099C30.2694 11.9099 30.7171 11.4622 30.7171 10.9099H29.7171ZM25 10.9099H24V11.9099H25V10.9099ZM25 9.69366H29.7171V7.69366H25V9.69366ZM28.7171 8.69366V10.9099H30.7171V8.69366H28.7171ZM26 10.9099V8.69366H24V10.9099H26ZM29.7171 9.9099H25V11.9099H29.7171V9.9099Z" fill="#1C2745" mask="url(#path-8-outside-1_687_4780)"/>
<line x1="24.5" y1="11" x2="24.5" y2="14" stroke="#1C2745"/>
<path d="M10.4572 38.9523H39.1889" stroke="#1C2745" stroke-linecap="round" stroke-linejoin="round"/>
<path d="M20.7489 37.323H21.2489V36.823V30.4662C21.2489 29.8348 20.737 29.323 20.1057 29.323C19.4743 29.323 18.9624 29.8348 18.9624 30.4662V36.823V37.323H19.4624H20.7489Z" fill="#1C2745" stroke="#1C2745"/>
<path d="M25.6805 37.323H26.1805V36.823V30.4662C26.1805 29.8348 25.6687 29.323 25.0373 29.323C24.4059 29.323 23.894 29.8348 23.894 30.4662V36.823V37.323H24.394H25.6805Z" fill="#1C2745" stroke="#1C2745"/>
<path d="M30.6122 37.323H31.1122V36.823V30.4662C31.1122 29.8348 30.6003 29.323 29.9689 29.323C29.3375 29.323 28.8257 29.8348 28.8257 30.4662V36.823V37.323H29.3257H30.6122Z" fill="#1C2745" stroke="#1C2745"/>
<mask id="path-15-outside-2_687_4780" maskUnits="userSpaceOnUse" x="15" y="36.1293" width="20" height="3" fill="black">
<rect fill="white" x="15" y="36.1293" width="20" height="3"/>
<path d="M16 37.1293H34V38.1293H16V37.1293Z"/>
</mask>
<path d="M16 37.1293H34V38.1293H16V37.1293Z" fill="#E79450"/>
<path d="M16 37.1293V36.1293C15.4477 36.1293 15 36.577 15 37.1293H16ZM34 37.1293H35C35 36.577 34.5523 36.1293 34 36.1293V37.1293ZM34 38.1293V39.1293H35V38.1293H34ZM16 38.1293H15V39.1293H16V38.1293ZM16 38.1293H34V36.1293H16V38.1293ZM33 37.1293V38.1293H35V37.1293H33ZM34 37.1293H16V39.1293H34V37.1293ZM17 38.1293V37.1293H15V38.1293H17Z" fill="#1C2745" mask="url(#path-15-outside-2_687_4780)"/>
</svg>
