<svg xmlns="http://www.w3.org/2000/svg" width="49" height="49" viewbox="0 0 49 49">
  <rect x="0.823242" y="0.0339355" width="48" height="48" rx="24" fill="#E79450" />
  <path
    d="M24.8231 10.0339C24.7991 10.0339 24.775 10.0361 24.751 10.0394C24.7433 10.0416 24.7346 10.0438 24.7269 10.046C24.7105 10.0492 24.6952 10.0536 24.6799 10.0591C24.6722 10.0613 24.6656 10.0646 24.658 10.0678C24.6427 10.0733 24.6274 10.081 24.6121 10.0886C24.6055 10.093 24.5978 10.0974 24.5902 10.1017C24.5771 10.1105 24.565 10.1192 24.553 10.128C24.5453 10.1346 24.5377 10.1411 24.53 10.1488C24.5191 10.1575 24.5092 10.1685 24.4994 10.1783C24.4928 10.186 24.4863 10.1936 24.4808 10.2013C24.4721 10.2122 24.4644 10.2232 24.4567 10.2352C24.4502 10.2439 24.4447 10.2538 24.4392 10.2636C24.4327 10.2757 24.4261 10.2888 24.4207 10.3019C24.4174 10.3106 24.4141 10.3194 24.4108 10.3281C24.4053 10.3446 24.401 10.361 24.3977 10.3774C24.3955 10.385 24.3933 10.3916 24.3922 10.3992C24.3878 10.4233 24.3857 10.4474 24.3857 10.4714V14.5239C20.1551 14.7514 16.8062 18.2481 16.8062 22.5411V23.0563H12.7801C12.0057 23.0563 11.368 23.6928 11.368 24.4672C11.368 25.0512 11.7301 25.5566 12.2397 25.7698V37.1601H11.6655C11.5496 37.1601 11.438 37.206 11.356 37.288C11.274 37.3701 11.228 37.4816 11.228 37.5986C11.2291 37.8392 11.4249 38.0339 11.6655 38.0339H37.9805C38.2222 38.0339 38.4169 37.8392 38.418 37.5986C38.418 37.4816 38.372 37.3711 38.29 37.288C38.208 37.206 38.0964 37.1601 37.9805 37.1601H37.4052V25.771C37.9159 25.5577 38.2769 25.0513 38.2769 24.4673C38.2769 23.6929 37.6414 23.0563 36.867 23.0563H32.8398V22.5412C32.8398 18.2484 29.4896 14.7517 25.2603 14.524V14.0329L29.4056 14.0329C29.6473 14.0329 29.8431 13.8371 29.8431 13.5965V10.4717C29.8431 10.23 29.6473 10.0342 29.4056 10.0342L24.8231 10.0339ZM25.2606 10.9089H28.9683V13.1587H25.2606V10.9089ZM24.8231 15.3865C28.7879 15.3865 31.9654 18.5691 31.9654 22.5407V23.0558H29.4181L25.0814 19.8732C24.9283 19.7605 24.7194 19.7605 24.5652 19.8732L20.2285 23.0558H17.6813V22.5407C17.6813 18.5691 20.8597 15.3865 24.8235 15.3865H24.8231ZM24.8231 20.7666L33.14 26.8731H16.5077L17.9569 25.8089C17.969 25.8013 17.9821 25.7914 17.9941 25.7816L20.6333 23.8435H20.6344L24.8231 20.7666ZM12.7801 23.9308H19.0363L17.5751 25.0027H12.7802C12.4761 25.0027 12.2442 24.7708 12.2442 24.4668C12.2442 24.1616 12.4761 23.9308 12.7802 23.9308H12.7801ZM30.6114 23.9308H36.8688C37.1729 23.9308 37.4047 24.1616 37.4047 24.4668C37.4047 24.7719 37.1729 25.0027 36.8688 25.0027L32.0715 25.0038L30.6114 23.9308ZM13.1161 25.8788H16.382L14.9131 26.9572L14.8868 26.9834C14.8715 26.9977 14.8573 27.0119 14.8442 27.0272C14.83 27.0436 14.8168 27.06 14.8048 27.0786C14.795 27.0961 14.7851 27.1147 14.7775 27.1333C14.7676 27.1519 14.76 27.1716 14.7534 27.1913C14.7468 27.2164 14.7436 27.2416 14.7414 27.2667C14.7381 27.2952 14.7381 27.3247 14.7414 27.3542C14.7436 27.3816 14.7479 27.4078 14.7545 27.4341C14.76 27.4505 14.7665 27.4669 14.7742 27.4822C14.784 27.5052 14.795 27.527 14.8092 27.5489C14.8125 27.5555 14.8157 27.562 14.819 27.5697C14.8267 27.5762 14.8332 27.5828 14.8409 27.5894C14.8573 27.6102 14.8759 27.6287 14.8967 27.6462C14.9087 27.6561 14.9207 27.6648 14.9339 27.6736C14.9579 27.69 14.9842 27.702 15.0104 27.713C15.0236 27.7195 15.0367 27.7239 15.0498 27.7294C15.0892 27.7414 15.1318 27.748 15.1734 27.748H16.8315V35.3669H16.4104C16.1687 35.3669 15.9729 35.5627 15.9729 35.8044V37.1595H13.116L13.1161 25.8788ZM33.2648 25.8788H36.5319L36.5308 37.1596H33.6751V35.8044C33.6751 35.5627 33.4782 35.3669 33.2376 35.3669H32.8176V27.748H34.4735C34.5183 27.748 34.5632 27.7415 34.6058 27.7283C34.6069 27.7272 34.6091 27.7272 34.6102 27.7261C34.6518 27.713 34.6922 27.6922 34.7283 27.666C34.7294 27.666 34.7305 27.6649 34.7316 27.6638C34.7666 27.6386 34.7983 27.608 34.8235 27.573C34.8246 27.5719 34.8257 27.5708 34.8268 27.5697C34.8311 27.5643 34.8344 27.5588 34.8377 27.5544C34.8388 27.5533 34.8388 27.5522 34.8399 27.5511C34.8465 27.5402 34.8541 27.5293 34.8596 27.5172C34.8596 27.5172 34.8596 27.5161 34.8607 27.5161C34.9624 27.3247 34.9088 27.0863 34.7338 26.9573L33.2648 25.8788ZM17.7054 27.7479H31.9416V35.3669H30.92V29.9942C30.92 29.1597 30.2343 28.4728 29.3987 28.4728C28.5641 28.4728 27.8784 29.1597 27.8784 29.9942V35.3669H26.3449V29.9942C26.3449 29.1597 25.6581 28.4728 24.8236 28.4728C23.9891 28.4728 23.3044 29.1597 23.3044 29.9942V35.3669H21.7699V29.9942C21.7699 29.1597 21.0841 28.4728 20.2485 28.4728C19.414 28.4728 18.7271 29.1597 18.7271 29.9942V35.3669H17.7045L17.7054 27.7479ZM20.2482 29.3481C20.6135 29.3481 20.8946 29.6292 20.8946 29.9945V35.3671H19.6029V29.9945C19.6029 29.6292 19.884 29.3481 20.2493 29.3481H20.2482ZM24.8234 29.3481C25.1887 29.3481 25.4698 29.6292 25.4698 29.9945V35.3671H24.1781V29.9945C24.1781 29.6292 24.4592 29.3481 24.8245 29.3481H24.8234ZM29.3985 29.3481C29.7638 29.3481 30.0438 29.6292 30.0438 29.9945V35.3671H28.7521V29.9945C28.7521 29.6292 29.0332 29.3481 29.3985 29.3481ZM16.8479 36.243H32.7991V37.1595H16.8479V36.243Z"
    fill="#1C2745" />
</svg>