<svg width="63" height="65" viewBox="0 0 63 65" fill="none" xmlns="http://www.w3.org/2000/svg">
<g filter="url(#filter0_d_10917_23573)">
<rect y="0.25293" width="60" height="60" rx="30" fill="url(#paint0_linear_10917_23573)" shape-rendering="crispEdges"/>
<g clip-path="url(#clip0_10917_23573)">
<path d="M40.4473 21.3669L32.2043 18.8942L36.7746 16.6103C36.8297 16.5827 36.8788 16.5446 36.9192 16.4981C36.9595 16.4515 36.9903 16.3975 37.0098 16.3391C37.0293 16.2806 37.0371 16.2189 37.0327 16.1575C37.0283 16.096 37.0119 16.0361 36.9844 15.981C36.9568 15.9259 36.9187 15.8767 36.8722 15.8364C36.8256 15.796 36.7716 15.7652 36.7132 15.7457C36.6547 15.7263 36.593 15.7185 36.5316 15.7229C36.4702 15.7272 36.4102 15.7437 36.3551 15.7712L30.8203 18.5345C28.4793 18.5674 26.2452 19.52 24.6006 21.1865C22.9561 22.8529 22.0332 25.0995 22.0312 27.4407V39.6282C22.0312 39.7526 22.0806 39.8718 22.1685 39.9597C22.2565 40.0476 22.3757 40.097 22.5 40.097C22.6243 40.097 22.7435 40.0476 22.8315 39.9597C22.9194 39.8718 22.9688 39.7526 22.9688 39.6282V35.4095H25.7813V42.4407C25.7813 42.8137 25.9294 43.1714 26.1931 43.4351C26.4569 43.6988 26.8145 43.847 27.1875 43.847H34.6875C35.0605 43.847 35.4181 43.6988 35.6819 43.4351C35.9456 43.1714 36.0938 42.8137 36.0938 42.4407V27.4407C36.0919 26.155 35.6104 24.9162 34.7435 23.9666C33.8766 23.0171 32.6865 22.4252 31.4063 22.3067V19.6337L40.1777 22.2646C40.2214 22.278 40.2668 22.2848 40.3125 22.2845C40.4249 22.2844 40.5336 22.2439 40.6187 22.1703C40.7037 22.0968 40.7595 21.9951 40.7758 21.8838C40.7922 21.7726 40.768 21.6592 40.7077 21.5643C40.6473 21.4694 40.5549 21.3993 40.4473 21.3669ZM22.9688 34.472V27.4407C22.9714 25.4093 23.7488 23.4555 25.1424 21.9775C26.5361 20.4996 28.441 19.609 30.4688 19.4872V22.3067C29.1885 22.4252 27.9984 23.0171 27.1315 23.9666C26.2646 24.9162 25.7831 26.155 25.7813 27.4407V34.472H22.9688ZM34.6875 42.9095H27.1875C27.0632 42.9095 26.944 42.8601 26.856 42.7722C26.7681 42.6843 26.7188 42.5651 26.7188 42.4407V35.4095H35.1563V42.4407C35.1563 42.5651 35.1069 42.6843 35.019 42.7722C34.931 42.8601 34.8118 42.9095 34.6875 42.9095ZM35.1563 27.4407V34.472H26.7188V27.4407C26.7188 26.3218 27.1632 25.2488 27.9544 24.4576C28.7456 23.6665 29.8186 23.222 30.9375 23.222C32.0564 23.222 33.1294 23.6665 33.9206 24.4576C34.7118 25.2488 35.1563 26.3218 35.1563 27.4407Z" fill="#1C2745"/>
</g>
</g>
<defs>
<filter id="filter0_d_10917_23573" x="-2.23814" y="0.25293" width="64.4763" height="64.4763" filterUnits="userSpaceOnUse" color-interpolation-filters="sRGB">
<feFlood flood-opacity="0" result="BackgroundImageFix"/>
<feColorMatrix in="SourceAlpha" type="matrix" values="0 0 0 0 0 0 0 0 0 0 0 0 0 0 0 0 0 0 127 0" result="hardAlpha"/>
<feOffset dy="2.23814"/>
<feGaussianBlur stdDeviation="1.11907"/>
<feComposite in2="hardAlpha" operator="out"/>
<feColorMatrix type="matrix" values="0 0 0 0 0 0 0 0 0 0 0 0 0 0 0 0 0 0 0.13 0"/>
<feBlend mode="normal" in2="BackgroundImageFix" result="effect1_dropShadow_10917_23573"/>
<feBlend mode="normal" in="SourceGraphic" in2="effect1_dropShadow_10917_23573" result="shape"/>
</filter>
<linearGradient id="paint0_linear_10917_23573" x1="30" y1="0.25293" x2="30" y2="60.2529" gradientUnits="userSpaceOnUse">
<stop stop-color="#E79450"/>
<stop offset="1" stop-color="#C58853"/>
</linearGradient>
<clipPath id="clip0_10917_23573">
<rect width="30" height="30" fill="white" transform="translate(15 15.2529)"/>
</clipPath>
</defs>
</svg>
