<svg width="80" height="80" viewBox="0 0 80 80" fill="none" xmlns="http://www.w3.org/2000/svg">
<g clip-path="url(#clip0_11980_18502)">
<path d="M27.5 72.5H52.5" stroke="black" stroke-width="2.5" stroke-linecap="round" stroke-linejoin="round"/>
<path d="M24.5941 52.187C21.6222 49.8654 19.215 46.9004 17.5533 43.5149C15.8917 40.1294 15.0189 36.4114 15.0004 32.6401C14.9254 19.0901 25.8504 7.81202 39.3973 7.49952C44.6473 7.37236 49.8041 8.90171 54.1359 11.8706C58.4677 14.8395 61.7546 19.0971 63.5303 24.0394C65.3059 28.9816 65.4801 34.3576 64.028 39.4044C62.576 44.4513 59.5716 48.9127 55.441 52.1558C54.5299 52.8622 53.7917 53.7668 53.2822 54.8009C52.7727 55.8351 52.5053 56.9717 52.5004 58.1245V59.9995C52.5004 60.6626 52.237 61.2984 51.7682 61.7673C51.2993 62.2361 50.6634 62.4995 50.0004 62.4995H30.0004C29.3373 62.4995 28.7015 62.2361 28.2326 61.7673C27.7638 61.2984 27.5004 60.6626 27.5004 59.9995V58.1245C27.4992 56.979 27.2368 55.8489 26.7332 54.82C26.2296 53.7912 25.498 52.8907 24.5941 52.187Z" stroke="black" stroke-width="2.5" stroke-linecap="round" stroke-linejoin="round"/>
<path d="M42.5 17.5C48.75 18.5531 53.9406 23.75 55 30" stroke="black" stroke-width="2.5" stroke-linecap="round" stroke-linejoin="round"/>
</g>
<defs>
<clipPath id="clip0_11980_18502">
<rect width="80" height="80" fill="white"/>
</clipPath>
</defs>
</svg>
