<svg width="80" height="81" viewBox="0 0 80 81" fill="none" xmlns="http://www.w3.org/2000/svg">
<g clip-path="url(#clip0_8219_1983)">
<path d="M33.75 47.0864L50 30.8364" stroke="black" stroke-width="2.5" stroke-linecap="round" stroke-linejoin="round"/>
<path d="M69.9034 14.0177C70.0239 13.59 70.0283 13.138 69.916 12.7081C69.8038 12.2782 69.5791 11.886 69.2649 11.5718C68.9507 11.2577 68.5585 11.0329 68.1286 10.9207C67.6987 10.8084 67.2467 10.8128 66.819 10.9333L6.81902 29.1271C6.32917 29.2653 5.89318 29.5498 5.56934 29.9425C5.2455 30.3351 5.04923 30.8173 5.00677 31.3245C4.9643 31.8317 5.07766 32.3398 5.3317 32.7809C5.58574 33.2219 5.96835 33.5749 6.42839 33.7927L33.7503 47.0864L47.044 74.4052C47.2618 74.8652 47.6148 75.2479 48.0559 75.5019C48.4969 75.7559 49.005 75.8693 49.5122 75.8268C50.0194 75.7844 50.5016 75.5881 50.8943 75.2642C51.2869 74.9404 51.5714 74.5044 51.7096 74.0146L69.9034 14.0177Z" stroke="black" stroke-width="2.5" stroke-linecap="round" stroke-linejoin="round"/>
</g>
<defs>
<clipPath id="clip0_8219_1983">
<rect width="80" height="80" fill="white" transform="translate(0 0.836426)"/>
</clipPath>
</defs>
</svg>
