<svg width="30" height="30" viewBox="0 0 30 30" fill="none" xmlns="http://www.w3.org/2000/svg">
<path d="M27.2449 9.54375C27.003 9.26975 26.7056 9.05031 26.3725 8.89999C26.0393 8.74968 25.678 8.67192 25.3125 8.67188H18.5156V6.5625C18.5156 5.38146 18.0465 4.24879 17.2113 3.41367C16.3762 2.57854 15.2435 2.10938 14.0625 2.10938C13.9318 2.10934 13.8037 2.14572 13.6925 2.21444C13.5814 2.28317 13.4916 2.38151 13.4332 2.49844L8.94023 11.4844H3.75C3.31488 11.4844 2.89758 11.6572 2.5899 11.9649C2.28223 12.2726 2.10938 12.6899 2.10938 13.125V23.4375C2.10938 23.8726 2.28223 24.2899 2.5899 24.5976C2.89758 24.9053 3.31488 25.0781 3.75 25.0781H23.9062C24.5346 25.0781 25.1413 24.8486 25.6124 24.4328C26.0835 24.017 26.3865 23.4434 26.4645 22.8199L27.8707 11.5699C27.916 11.2071 27.8837 10.8388 27.7758 10.4895C27.6679 10.1402 27.4869 9.8178 27.2449 9.54375ZM3.51562 23.4375V13.125C3.51562 13.0628 3.54032 13.0032 3.58427 12.9593C3.62823 12.9153 3.68784 12.8906 3.75 12.8906H8.67188V23.6719H3.75C3.68784 23.6719 3.62823 23.6472 3.58427 23.6032C3.54032 23.5593 3.51562 23.4997 3.51562 23.4375ZM26.475 11.3953L25.0688 22.6453C25.0333 22.9287 24.8957 23.1894 24.6816 23.3784C24.4675 23.5674 24.1918 23.6718 23.9062 23.6719H10.0781V12.3539L14.482 3.54492C15.2104 3.64617 15.8775 4.00743 16.3604 4.56202C16.8433 5.11662 17.1093 5.82714 17.1094 6.5625V9.375C17.1094 9.56148 17.1835 9.74032 17.3153 9.87218C17.4472 10.004 17.626 10.0781 17.8125 10.0781H25.3125C25.4786 10.0782 25.6429 10.1135 25.7943 10.1819C25.9457 10.2502 26.0809 10.35 26.1908 10.4746C26.3007 10.5991 26.3829 10.7456 26.4319 10.9044C26.4809 11.0631 26.4956 11.2305 26.475 11.3953Z" fill="#444444"/>
</svg>
