<svg width="40" height="40" viewBox="0 0 40 40" fill="none" xmlns="http://www.w3.org/2000/svg">
<g clip-path="url(#clip0_9490_13144)">
<path d="M16.986 30.8172L16.1875 31.6156C15.5103 32.293 14.7062 32.8302 13.8211 33.1964C12.9361 33.5626 11.9875 33.7508 11.0297 33.7501C10.0718 33.7493 9.12355 33.5598 8.23907 33.1922C7.35458 32.8246 6.55125 32.2862 5.87504 31.6078C4.51252 30.2406 3.74825 28.3885 3.75 26.4582C3.75176 24.528 4.51941 22.6773 5.88442 21.3125L11.3125 15.8844C11.989 15.2078 12.7921 14.671 13.676 14.3048C14.5599 13.9386 15.5073 13.7501 16.4641 13.7501C17.4209 13.7501 18.3683 13.9386 19.2522 14.3048C20.1361 14.671 20.9392 15.2078 21.6157 15.8844C22.5781 16.8426 23.2517 18.0522 23.5594 19.375" stroke="#444444" stroke-width="3.75" stroke-linecap="round" stroke-linejoin="round"/>
<path d="M23.0141 9.18284L23.8125 8.3844C24.489 7.70776 25.2921 7.17101 26.176 6.80481C27.0599 6.43861 28.0073 6.25012 28.9641 6.25012C29.9209 6.25012 30.8683 6.43861 31.7522 6.80481C32.6361 7.17101 33.4392 7.70776 34.1157 8.3844C34.7923 9.06084 35.3291 9.86396 35.6953 10.7479C36.0615 11.6318 36.2499 12.5792 36.2499 13.536C36.2499 14.4927 36.0615 15.4401 35.6953 16.324C35.3291 17.208 34.7923 18.0111 34.1157 18.6875L30.3032 22.5L28.6875 24.1156C28.0103 24.793 27.2062 25.3302 26.3211 25.6964C25.4361 26.0626 24.4875 26.2508 23.5297 26.2501C22.5718 26.2493 21.6236 26.0598 20.7391 25.6922C19.8546 25.3246 19.0513 24.7862 18.375 24.1078C17.4181 23.15 16.7481 21.9436 16.4407 20.625" stroke="#444444" stroke-width="3.75" stroke-linecap="round" stroke-linejoin="round"/>
</g>
<defs>
<clipPath id="clip0_9490_13144">
<rect width="40" height="40" fill="white"/>
</clipPath>
</defs>
</svg>
