<svg width="257" height="65" viewBox="0 0 257 65" fill="none" xmlns="http://www.w3.org/2000/svg">
<path d="M251.756 0.395508H5.26309C2.7633 0.395508 0.736816 2.42199 0.736816 4.92178V59.8692C0.736816 62.369 2.7633 64.3955 5.26309 64.3955H251.756C254.255 64.3955 256.282 62.369 256.282 59.8692V4.92178C256.282 2.42199 254.255 0.395508 251.756 0.395508Z" fill="#19377C"/>
<path d="M31.3451 34.4993L31.3205 24.2318L26.2842 32.6906H24.4991L19.4874 24.4513V34.4993H15.7714V17.3857H19.0472L25.4522 28.0206L31.7596 17.3857H35.0108L35.06 34.4993H31.3451Z" fill="white"/>
<path d="M50.487 26.9941V34.4998H46.9178V32.8614C46.2088 34.0597 44.8392 34.6948 42.9084 34.6948C39.8276 34.6948 37.9942 32.9835 37.9942 30.71C37.9942 28.3873 39.6326 26.7735 43.642 26.7735H46.6736C46.6736 25.1361 45.6959 24.182 43.642 24.182C42.2487 24.182 40.8063 24.6468 39.8522 25.4049L38.4836 22.7396C39.926 21.7126 42.0528 21.1504 44.1559 21.1504C48.1653 21.1504 50.488 23.0084 50.488 26.9931L50.487 26.9941ZM46.6736 30.3437V28.9988H44.0575C42.2733 28.9988 41.7101 29.6585 41.7101 30.5387C41.7101 31.4918 42.5165 32.1279 43.8615 32.1279C45.1327 32.1279 46.2335 31.541 46.6736 30.3437Z" fill="white"/>
<path d="M66.744 21.3472L60.8028 35.307C59.5316 38.4854 57.7219 39.4385 55.351 39.4385C54.006 39.4385 52.5399 38.9984 51.6843 38.2402L53.0775 35.5266C53.6643 36.0406 54.4707 36.3586 55.2289 36.3586C56.2804 36.3586 56.8673 35.8939 57.3803 34.7202L57.4295 34.5981L51.7335 21.3472H55.67L59.3613 30.2707L63.0772 21.3472H66.744Z" fill="white"/>
<path d="M66.9636 27.9236C66.9636 23.9634 70.0198 21.1514 74.2005 21.1514C78.3812 21.1514 81.4128 23.9624 81.4128 27.9236C81.4128 31.8847 78.3812 34.6957 74.2005 34.6957C70.0198 34.6957 66.9636 31.8847 66.9636 27.9236ZM77.5501 27.9236C77.5501 25.6501 76.1077 24.2805 74.2005 24.2805C72.2933 24.2805 70.8262 25.6491 70.8262 27.9236C70.8262 30.198 72.2923 31.5666 74.2005 31.5666C76.1087 31.5666 77.5501 30.198 77.5501 27.9236Z" fill="white"/>
<path d="M92.1205 21.1514V24.6714C91.8025 24.6468 91.5583 24.6221 91.2649 24.6221C89.1627 24.6221 87.7695 25.7712 87.7695 28.2889V34.4988H83.9551V21.3463H87.5982V23.0822C88.5266 21.8111 90.0922 21.1504 92.1215 21.1504L92.1205 21.1514Z" fill="white"/>
<path d="M107.913 27.7764L105.615 30.172V34.4993H101.679V17.3857H105.615V25.3808L113.193 17.3857H117.594L110.504 25.0136L118.01 34.4993H113.389L107.913 27.7764Z" fill="white"/>
<path d="M130.844 26.9941V34.4998H127.275V32.8614C126.566 34.0597 125.198 34.6948 123.266 34.6948C120.185 34.6948 118.352 32.9835 118.352 30.71C118.352 28.3873 119.99 26.7735 123.999 26.7735H127.031C127.031 25.1361 126.053 24.182 123.999 24.182C122.606 24.182 121.163 24.6468 120.21 25.4049L118.84 22.7396C120.282 21.7126 122.409 21.1504 124.512 21.1504C128.522 21.1504 130.844 23.0093 130.844 26.9941ZM127.03 30.3437V28.9988H124.415C122.63 28.9988 122.068 29.6585 122.068 30.5387C122.068 31.4918 122.874 32.1279 124.219 32.1279C125.49 32.1279 126.591 31.541 127.03 30.3437Z" fill="white"/>
<path d="M142.457 21.1514V24.6714C142.139 24.6468 141.895 24.6221 141.601 24.6221C139.499 24.6221 138.106 25.7712 138.106 28.2889V34.4988H134.292V21.3463H137.935V23.0822C138.863 21.8111 140.429 21.1504 142.458 21.1504L142.457 21.1514Z" fill="white"/>
<path d="M157.419 28.9988H147.469C147.836 30.6372 149.229 31.6395 151.234 31.6395C152.627 31.6395 153.629 31.224 154.534 30.3684L156.564 32.569C155.341 33.9622 153.507 34.6957 151.136 34.6957C146.588 34.6957 143.631 31.8354 143.631 27.9236C143.631 23.988 146.638 21.1514 150.647 21.1514C154.51 21.1514 157.492 23.7429 157.492 27.9718C157.492 28.2652 157.443 28.6807 157.418 28.9988H157.419ZM147.42 26.7735H153.899C153.63 25.1115 152.384 24.0353 150.673 24.0353C148.937 24.0353 147.689 25.0869 147.42 26.7735Z" fill="white"/>
<path d="M173.481 26.9704V34.5008H169.667V27.5573C169.667 25.4305 168.689 24.4528 167.002 24.4528C165.169 24.4528 163.849 25.5772 163.849 27.9974V34.5008H160.034V21.3483H163.677V22.8882C164.704 21.7638 166.244 21.1523 168.028 21.1523C171.134 21.1523 173.48 22.9611 173.48 26.9704H173.481Z" fill="white"/>
<path d="M199.81 29.8303C199.81 32.7881 197.463 34.4993 192.965 34.4993H184.115V17.3857H192.476C196.755 17.3857 198.955 19.1709 198.955 21.8352C198.955 23.5465 198.075 24.8668 196.682 25.6004C198.589 26.2118 199.811 27.6779 199.811 29.8303H199.81ZM188.051 20.3691V24.4031H191.987C193.919 24.4031 194.969 23.7188 194.969 22.3738C194.969 21.0288 193.919 20.3691 191.987 20.3691H188.051ZM195.825 29.4148C195.825 27.9723 194.724 27.288 192.671 27.288H188.051V31.5179H192.671C194.724 31.5179 195.825 30.8819 195.825 29.4148Z" fill="white"/>
<path d="M214.185 26.9941V34.4998H210.616V32.8614C209.907 34.0597 208.538 34.6948 206.607 34.6948C203.526 34.6948 201.692 32.9835 201.692 30.71C201.692 28.3873 203.331 26.7735 207.34 26.7735H210.372C210.372 25.1361 209.394 24.182 207.34 24.182C205.947 24.182 204.503 24.6468 203.55 25.4049L202.181 22.7396C203.623 21.7126 205.75 21.1504 207.853 21.1504C211.862 21.1504 214.185 23.0093 214.185 26.9941ZM210.371 30.3437V28.9988H207.756C205.971 28.9988 205.408 29.6585 205.408 30.5387C205.408 31.4918 206.215 32.1279 207.56 32.1279C208.831 32.1279 209.932 31.541 210.371 30.3437Z" fill="white"/>
<path d="M216.36 33.2779L217.631 30.5397C218.805 31.2978 220.589 31.8108 222.203 31.8108C223.963 31.8108 224.623 31.3471 224.623 30.6135C224.623 28.4621 216.678 30.6627 216.678 25.4059C216.678 22.9119 218.927 21.1523 222.766 21.1523C224.575 21.1523 226.58 21.5679 227.827 22.3014L226.556 25.015C225.26 24.2815 223.964 24.0373 222.766 24.0373C221.055 24.0373 220.321 24.5749 220.321 25.2602C220.321 27.509 228.267 25.333 228.267 30.516C228.267 32.9608 225.994 34.6967 222.057 34.6967C219.832 34.6967 217.583 34.0853 216.361 33.2789L216.36 33.2779Z" fill="white"/>
<path d="M229.342 33.2779L230.614 30.5397C231.787 31.2978 233.571 31.8108 235.185 31.8108C236.946 31.8108 237.605 31.3471 237.605 30.6135C237.605 28.4621 229.66 30.6627 229.66 25.4059C229.66 22.9119 231.909 21.1523 235.748 21.1523C237.557 21.1523 239.562 21.5679 240.809 22.3014L239.538 25.015C238.242 24.2815 236.947 24.0373 235.748 24.0373C234.037 24.0373 233.304 24.5749 233.304 25.2602C233.304 27.509 241.249 25.333 241.249 30.516C241.249 32.9608 238.976 34.6967 235.039 34.6967C232.814 34.6967 230.565 34.0853 229.343 33.2789L229.342 33.2779Z" fill="white"/>
<path d="M90.7066 42.4258H15.7793V47.406H90.7066V42.4258Z" fill="#40BA86"/>
<path d="M165.775 42.4258H90.8474V47.406H165.775V42.4258Z" fill="#FFCC64"/>
<path d="M240.844 42.4258H165.916V47.406H240.844V42.4258Z" fill="#F45C71"/>
</svg>
