<svg width="21" height="20" viewBox="0 0 21 20" fill="none" xmlns="http://www.w3.org/2000/svg">
<path d="M20.402 16.389L19.695 15.802L19.699 15.798L17.454 13.984L14.285 11.361C14.935 10.198 15.27 8.91 15.27 7.604C15.27 5.651 14.521 3.699 13.012 2.193C11.539 0.719 9.588 0 7.603 0C3.493 0 0 3.494 0 7.604C0 11.749 3.426 15.24 7.568 15.24C9.108 15.24 10.646 14.778 11.963 13.88L15.223 16.58L17.457 18.384L17.455 18.386L18.222 19.022C18.598 19.335 19.156 19.282 19.464 18.906L20.523 17.63C20.834 17.256 20.779 16.699 20.405 16.388L20.402 16.389ZM10.955 10.926C10.033 11.85 8.833 12.295 7.602 12.295C5.1 12.295 2.944 10.172 2.944 7.604C2.944 5.103 5.067 2.946 7.602 2.946C10.204 2.946 12.324 5.07 12.324 7.604C12.324 8.802 11.847 10.001 10.955 10.926Z" fill="black"/>
</svg>
