<svg width="80" height="81" viewBox="0 0 80 81" fill="none" xmlns="http://www.w3.org/2000/svg">
<g clip-path="url(#clip0_8219_1993)">
<path d="M61.5625 38.3364C66.4187 38.3364 70.7281 41.2833 73.4375 45.8364" stroke="black" stroke-width="2.5" stroke-linecap="round" stroke-linejoin="round"/>
<path d="M5 45.8364C6.74499 43.5061 9.00937 41.6149 11.6133 40.3129C14.2171 39.011 17.0888 38.3342 20 38.3364" stroke="black" stroke-width="2.5" stroke-linecap="round" stroke-linejoin="round"/>
<path d="M40 58.3364C46.9036 58.3364 52.5 52.74 52.5 45.8364C52.5 38.9329 46.9036 33.3364 40 33.3364C33.0964 33.3364 27.5 38.9329 27.5 45.8364C27.5 52.74 33.0964 58.3364 40 58.3364Z" stroke="black" stroke-width="2.5" stroke-linecap="round" stroke-linejoin="round"/>
<path d="M22.5 68.3364C24.2947 65.291 26.853 62.7665 29.9222 61.0127C32.9913 59.2589 36.4651 58.3364 40 58.3364C43.5349 58.3364 47.0086 59.2589 50.0778 61.0127C53.147 62.7665 55.7053 65.291 57.5 68.3364" stroke="black" stroke-width="2.5" stroke-linecap="round" stroke-linejoin="round"/>
<path d="M50.3125 25.8364C50.78 24.0257 51.746 22.3823 53.1006 21.093C54.4552 19.8037 56.1442 18.92 57.9758 18.5424C59.8074 18.1648 61.7082 18.3084 63.4623 18.9568C65.2164 19.6052 66.7535 20.7325 67.8991 22.2107C69.0447 23.6889 69.7528 25.4587 69.9431 27.3191C70.1333 29.1795 69.7981 31.056 68.9754 32.7355C68.1527 34.4149 66.8756 35.83 65.2891 36.8201C63.7025 37.8102 61.8701 38.3355 60 38.3364" stroke="black" stroke-width="2.5" stroke-linecap="round" stroke-linejoin="round"/>
<path d="M20.0008 38.3364C18.1307 38.3355 16.2983 37.8102 14.7118 36.8201C13.1252 35.83 11.8481 34.4149 11.0254 32.7355C10.2027 31.056 9.86749 29.1795 10.0577 27.3191C10.248 25.4587 10.9561 23.6889 12.1017 22.2107C13.2473 20.7325 14.7844 19.6052 16.5385 18.9568C18.2926 18.3084 20.1934 18.1648 22.025 18.5424C23.8566 18.92 25.5457 19.8037 26.9003 21.093C28.2549 22.3823 29.2208 24.0257 29.6883 25.8364" stroke="black" stroke-width="2.5" stroke-linecap="round" stroke-linejoin="round"/>
</g>
<defs>
<clipPath id="clip0_8219_1993">
<rect width="80" height="80" fill="white" transform="translate(0 0.836426)"/>
</clipPath>
</defs>
</svg>
