<svg width="218" height="65" viewBox="0 0 218 65" fill="none" xmlns="http://www.w3.org/2000/svg">
<path d="M28.0796 24.1404H30.1895L29.1345 3.75784L28.0796 24.1404Z" fill="#E86329"/>
<path d="M31.0881 22.89L29.1345 28.3992L27.1809 22.89L29.1345 23.8017L31.0881 22.89Z" fill="#E86329"/>
<path d="M30.1895 41.1628H28.0796L29.1345 61.5584L30.1895 41.1628Z" fill="#E86329"/>
<path d="M27.1809 42.4261L29.1345 36.9039L31.0881 42.4261L29.1345 41.5144L27.1809 42.4261Z" fill="#E86329"/>
<path d="M20.6299 33.7131V31.6032L0.234253 32.6451L20.6299 33.7131Z" fill="#E86329"/>
<path d="M19.3666 30.6916L24.8888 32.6452L19.3666 34.6118L20.2783 32.6452L19.3666 30.6916Z" fill="#E86329"/>
<path d="M37.6392 31.5902V33.7131L58.0348 32.6451L37.6392 31.5902Z" fill="#E86329"/>
<path d="M38.9026 34.6118L33.3804 32.6452L38.9026 30.6916L37.9909 32.6452L38.9026 34.6118Z" fill="#E86329"/>
<path d="M22.375 27.3834L23.8598 25.8856L8.69983 12.2234L22.375 27.3834Z" fill="#E86329"/>
<path d="M23.6124 24.3618L26.126 29.6495L20.8383 27.1359L22.883 26.3935L23.6124 24.3618Z" fill="#E86329"/>
<path d="M35.8939 37.9328L34.4092 39.4176L49.5691 53.0928L35.8939 37.9328Z" fill="#E86329"/>
<path d="M34.6567 40.9544L32.1431 35.6536L37.4308 38.1803L35.3991 38.9226L34.6567 40.9544Z" fill="#E86329"/>
<path d="M23.8598 39.4176L22.375 37.9328L8.69983 53.0928L23.8598 39.4176Z" fill="#E86329"/>
<path d="M20.8383 38.1803L26.126 35.6536L23.6124 40.9544L22.883 38.9226L20.8383 38.1803Z" fill="#E86329"/>
<path d="M34.4092 25.8856L35.8939 27.3834L49.5691 12.2234L34.4092 25.8856Z" fill="#E86329"/>
<path d="M37.4308 27.1359L32.1431 29.6495L34.6567 24.3618L35.3991 26.3935L37.4308 27.1359Z" fill="#E86329"/>
<path d="M35.9592 51.9077L37.9128 51.0872L29.1346 32.6452L35.9592 51.9077Z" fill="#6C7075"/>
<path d="M38.2645 49.5764L38.564 55.4242L34.6438 51.0742L36.8058 51.1784L38.2645 49.5764Z" fill="#6C7075"/>
<path d="M22.31 13.4088L20.3564 14.2162L29.1346 32.6452L22.31 13.4088Z" fill="#6C7075"/>
<path d="M20.0048 15.7271L19.7052 9.87929L23.6254 14.2293L21.4634 14.1251L20.0048 15.7271Z" fill="#6C7075"/>
<path d="M48.3841 25.8206L47.5636 23.867L29.1346 32.6452L48.3841 25.8206Z" fill="#6C7075"/>
<path d="M46.0658 23.5154L51.9136 23.2158L47.5636 27.1361L47.6547 24.9741L46.0658 23.5154Z" fill="#6C7075"/>
<path d="M9.88513 39.4828L10.6926 41.4364L29.1346 32.6452L9.88513 39.4828Z" fill="#6C7075"/>
<path d="M12.2164 41.7881L6.35559 42.0876L10.7056 38.1674L10.6144 40.3294L12.2164 41.7881Z" fill="#6C7075"/>
<path d="M47.5636 41.4364L48.3841 39.4828L29.1346 32.6452L47.5636 41.4364Z" fill="#6C7075"/>
<path d="M47.5636 38.1674L51.9136 42.0876L46.0658 41.7881L47.6547 40.3294L47.5636 38.1674Z" fill="#6C7075"/>
<path d="M10.6926 23.867L9.88513 25.8206L29.1346 32.6452L10.6926 23.867Z" fill="#6C7075"/>
<path d="M10.7056 27.1361L6.35559 23.2158L12.2164 23.5154L10.6144 24.9741L10.7056 27.1361Z" fill="#6C7075"/>
<path d="M37.9128 14.2162L35.9592 13.4088L29.1346 32.6452L37.9128 14.2162Z" fill="#6C7075"/>
<path d="M34.6438 14.2293L38.564 9.87931L38.2645 15.7271L36.8058 14.1251L34.6438 14.2293Z" fill="#6C7075"/>
<path d="M20.3564 51.0872L22.31 51.9077L29.1346 32.6452L20.3564 51.0872Z" fill="#6C7075"/>
<path d="M23.6254 51.0742L19.7052 55.4242L20.0048 49.5764L21.4634 51.1784L23.6254 51.0742Z" fill="#6C7075"/>
<path d="M107.474 40.5246V49.7586H100.194V15.5575H126.32C130.162 15.5575 132.089 17.5502 132.089 21.5356V35.2629C132.089 38.7663 130.162 40.5246 126.32 40.5246H107.487H107.474ZM123.168 33.2442C124.288 33.2442 124.848 32.7362 124.848 31.7334V25.4558C124.848 24.2315 124.288 23.6064 123.168 23.6064H107.474V33.2442H123.168Z" fill="#E86329"/>
<path d="M145.726 40.5246V49.7586H138.432V15.5575H164.558C168.4 15.5575 170.328 17.5502 170.328 21.5356V35.2629C170.328 38.7663 168.4 40.5246 164.558 40.5246H145.726ZM161.42 33.2442C162.54 33.2442 163.113 32.7362 163.113 31.7334V25.4558C163.113 24.2315 162.553 23.6064 161.42 23.6064H145.726V33.2442H161.42Z" fill="#E86329"/>
<path d="M183.99 49.7586H176.697V15.5575H183.99V49.7586Z" fill="#E86329"/>
<path d="M197.6 39.9385C197.6 41.1106 198.212 41.6967 199.45 41.6967H217.579V49.7456H196.128C192.286 49.7456 190.359 47.7659 190.359 43.8066V21.5225C190.359 17.5372 192.273 15.5445 196.128 15.5445H217.579V23.5933H199.319C198.173 23.5933 197.6 24.2055 197.6 25.4427V39.9124V39.9385Z" fill="#E86329"/>
<path d="M74.2107 0.970703V4.73464" stroke="#6C7075" stroke-width="0.7"/>
<path d="M74.2107 8.49862V12.2626" stroke="#6C7075" stroke-width="0.7"/>
<path d="M74.2107 16.0265V19.7905" stroke="#6C7075" stroke-width="0.7"/>
<path d="M74.2107 23.5544V27.3184" stroke="#6C7075" stroke-width="0.7"/>
<path d="M74.2107 31.0822V34.8462" stroke="#6C7075" stroke-width="0.7"/>
<path d="M74.2107 38.6101V42.3741" stroke="#6C7075" stroke-width="0.7"/>
<path d="M74.2107 46.138V49.915" stroke="#6C7075" stroke-width="0.7"/>
<path d="M74.2107 53.6788V57.4428" stroke="#6C7075" stroke-width="0.7"/>
<path d="M74.2107 61.2068V64.9707" stroke="#6C7075" stroke-width="0.7"/>
</svg>
