<svg width="80" height="80" viewBox="0 0 80 80" fill="none" xmlns="http://www.w3.org/2000/svg">
<g clip-path="url(#clip0_11980_18487)">
<path d="M61.5625 37.5C66.4187 37.5 70.7281 40.4469 73.4375 45" stroke="#0F152F" stroke-width="2.5" stroke-linecap="round" stroke-linejoin="round"/>
<path d="M5 45C6.74499 42.6697 9.00937 40.7785 11.6133 39.4765C14.2171 38.1746 17.0888 37.4978 20 37.5" stroke="#0F152F" stroke-width="2.5" stroke-linecap="round" stroke-linejoin="round"/>
<path d="M40 57.5C46.9036 57.5 52.5 51.9036 52.5 45C52.5 38.0964 46.9036 32.5 40 32.5C33.0964 32.5 27.5 38.0964 27.5 45C27.5 51.9036 33.0964 57.5 40 57.5Z" stroke="#0F152F" stroke-width="2.5" stroke-linecap="round" stroke-linejoin="round"/>
<path d="M22.5 67.5C24.2947 64.4545 26.853 61.9301 29.9222 60.1763C32.9913 58.4225 36.4651 57.5 40 57.5C43.5349 57.5 47.0086 58.4225 50.0778 60.1763C53.147 61.9301 55.7053 64.4545 57.5 67.5" stroke="#0F152F" stroke-width="2.5" stroke-linecap="round" stroke-linejoin="round"/>
<path d="M50.3125 25C50.78 23.1893 51.746 21.5459 53.1006 20.2566C54.4552 18.9672 56.1442 18.0836 57.9758 17.706C59.8074 17.3284 61.7082 17.4719 63.4623 18.1204C65.2164 18.7688 66.7535 19.8961 67.8991 21.3743C69.0447 22.8525 69.7528 24.6223 69.9431 26.4827C70.1333 28.3431 69.7981 30.2196 68.9754 31.899C68.1527 33.5785 66.8756 34.9936 65.2891 35.9837C63.7025 36.9737 61.8701 37.4991 60 37.5" stroke="#0F152F" stroke-width="2.5" stroke-linecap="round" stroke-linejoin="round"/>
<path d="M19.9998 37.5C18.1297 37.4991 16.2973 36.9737 14.7108 35.9837C13.1242 34.9936 11.8471 33.5785 11.0244 31.899C10.2018 30.2196 9.86652 28.3431 10.0568 26.4827C10.247 24.6223 10.9552 22.8525 12.1007 21.3743C13.2463 19.8961 14.7835 18.7688 16.5376 18.1204C18.2917 17.4719 20.1925 17.3284 22.0241 17.706C23.8557 18.0836 25.5447 18.9672 26.8993 20.2566C28.2539 21.5459 29.2198 23.1893 29.6873 25" stroke="#0F152F" stroke-width="2.5" stroke-linecap="round" stroke-linejoin="round"/>
</g>
<defs>
<clipPath id="clip0_11980_18487">
<rect width="80" height="80" fill="white"/>
</clipPath>
</defs>
</svg>
