<svg width="72" height="72" viewBox="0 0 72 72" fill="none" xmlns="http://www.w3.org/2000/svg">
<g filter="url(#filter0_d_1409_1197)">
<rect x="4" width="64" height="64" rx="32" fill="#5489A3" />
<rect x="4" width="64" height="64" rx="32" fill="url(#paint0_linear_1409_1197)" />
<path d="M49.0623 38.1838C49.641 36.7437 49.858 35.1837 49.6943 33.6403C49.5307 32.0969 48.9914 30.6171 48.1236 29.3303C47.2558 28.0436 46.086 26.989 44.7164 26.2588C43.3469 25.5287 41.8192 25.1452 40.2672 25.142C39.6936 23.9937 38.8932 22.9736 37.9143 22.1432C36.9355 21.3128 35.7986 20.6894 34.5721 20.3107C33.3457 19.9319 32.0552 19.8055 30.7786 19.9393C29.502 20.0731 28.2658 20.4642 27.1445 21.089C26.0232 21.7138 25.0402 22.5593 24.2548 23.5746C23.4694 24.5898 22.8978 25.7537 22.5747 26.9959C22.2515 28.2382 22.1835 29.533 22.3746 30.8023C22.5658 32.0716 23.0122 33.289 23.6868 34.381L23.0123 37.7287C22.959 37.993 22.9779 38.2666 23.067 38.521C23.1561 38.7754 23.3121 39.0011 23.5185 39.1743C23.725 39.3476 23.9743 39.462 24.2403 39.5055C24.5063 39.5491 24.7791 39.5202 25.03 39.4218L28.2098 38.1762C29.33 38.6258 30.5257 38.8577 31.7328 38.8593C32.321 40.0467 33.1511 41.098 34.1698 41.9455C35.1885 42.793 36.3732 43.418 37.6479 43.7803C38.9225 44.1427 40.2589 44.2344 41.571 44.0495C42.8832 43.8646 44.1422 43.4073 45.2671 42.7068L48.6149 43.3813C48.8791 43.4346 49.1528 43.4157 49.4072 43.3266C49.6615 43.2376 49.8872 43.0816 50.0605 42.8751C50.2337 42.6687 50.3481 42.4193 50.3917 42.1533C50.4352 41.8874 50.4063 41.6145 50.308 41.3636L49.0623 38.1838ZM28.0328 37.1716L24.6651 38.4914C24.5808 38.5256 24.4889 38.5362 24.3991 38.5221C24.3093 38.5079 24.2251 38.4696 24.1554 38.4112C24.0858 38.3527 24.0334 38.2764 24.0039 38.1904C23.9744 38.1045 23.9689 38.0121 23.988 37.9232L24.7029 34.3774C24.7274 34.2494 24.7019 34.1169 24.6316 34.0072C23.5183 32.3 23.0555 30.2495 23.3276 28.2296C23.5996 26.2097 24.5884 24.3548 26.1137 23.003C27.6391 21.6511 29.5994 20.8924 31.6373 20.865C33.6753 20.8376 35.6553 21.5434 37.2164 22.8538C38.7774 24.1642 39.8157 25.9919 40.1419 28.0038C40.4681 30.0157 40.0606 32.0778 38.9935 33.8143C37.9265 35.5508 36.271 36.8461 34.3288 37.4641C32.3865 38.0821 30.2869 37.9816 28.4126 37.181C28.292 37.1288 28.1559 37.1254 28.0328 37.1716ZM49.2949 42.2327C49.2366 42.3023 49.1604 42.3548 49.0746 42.3844C48.9888 42.414 48.8965 42.4197 48.8077 42.4008L45.2619 41.6859C45.1339 41.6614 45.0014 41.6869 44.8917 41.7572C43.9169 42.394 42.8218 42.8237 41.6741 43.0198C40.5265 43.2159 39.3507 43.1741 38.2199 42.897C37.089 42.62 36.0272 42.1135 35.1001 41.4091C34.1731 40.7047 33.4007 39.8174 32.8307 38.8021C34.2535 38.6397 35.6212 38.1577 36.8314 37.3922C38.0417 36.6267 39.0632 35.5975 39.8196 34.3815C40.5761 33.1656 41.0478 31.7943 41.1996 30.3704C41.3514 28.9464 41.1793 27.5065 40.6962 26.1585C42.0617 26.2305 43.3897 26.6309 44.5675 27.3257C45.7452 28.0206 46.7379 28.9893 47.4614 30.1496C48.1849 31.31 48.6177 32.6278 48.7231 33.9912C48.8286 35.3545 48.6035 36.7232 48.0671 37.981C48.017 38.1013 48.0148 38.2362 48.0612 38.358L49.381 41.7258C49.4139 41.8102 49.4233 41.9019 49.4081 41.9912C49.3929 42.0804 49.3538 42.1639 49.2949 42.2327Z" fill="#FFF4EB"/>
</g>
<defs>
<filter id="filter0_d_1409_1197" x="0" y="0" width="72" height="72" filterUnits="userSpaceOnUse" color-interpolation-filters="sRGB">
<feFlood flood-opacity="0" result="BackgroundImageFix"/>
<feColorMatrix in="SourceAlpha" type="matrix" values="0 0 0 0 0 0 0 0 0 0 0 0 0 0 0 0 0 0 127 0" result="hardAlpha"/>
<feOffset dy="4"/>
<feGaussianBlur stdDeviation="2"/>
<feComposite in2="hardAlpha" operator="out"/>
<feColorMatrix type="matrix" values="0 0 0 0 0 0 0 0 0 0 0 0 0 0 0 0 0 0 0.13 0"/>
<feBlend mode="normal" in2="BackgroundImageFix" result="effect1_dropShadow_1409_1197"/>
<feBlend mode="normal" in="SourceGraphic" in2="effect1_dropShadow_1409_1197" result="shape"/>
</filter>
<linearGradient id="paint0_linear_1409_1197" x1="36" y1="0" x2="36" y2="64" gradientUnits="userSpaceOnUse">
<stop stop-color="#53758B" stop-opacity="0"/>
<stop offset="1" stop-color="#53758B"/>
</linearGradient>
</defs>
</svg>
