<svg width="72" height="72" viewBox="0 0 72 72" fill="none" xmlns="http://www.w3.org/2000/svg">
<g filter="url(#filter0_d_833_90837)">
<rect x="4" width="64" height="64" rx="32" fill="#5489A3" shape-rendering="crispEdges"/>
<rect x="4" width="64" height="64" rx="32" fill="url(#paint0_linear_833_90837)" shape-rendering="crispEdges"/>
<path d="M49.0624 38.1838C49.641 36.7437 49.858 35.1837 49.6944 33.6403C49.5307 32.0969 48.9914 30.6171 48.1237 29.3303C47.2559 28.0436 46.086 26.989 44.7165 26.2588C43.3469 25.5287 41.8193 25.1452 40.2672 25.142C39.6936 23.9937 38.8932 22.9736 37.9144 22.1432C36.9356 21.3128 35.7986 20.6894 34.5722 20.3107C33.3457 19.9319 32.0553 19.8055 30.7787 19.9393C29.5021 20.0731 28.2658 20.4642 27.1445 21.089C26.0233 21.7138 25.0403 22.5593 24.2548 23.5746C23.4694 24.5898 22.8979 25.7537 22.5747 26.9959C22.2516 28.2382 22.1835 29.533 22.3747 30.8023C22.5658 32.0716 23.0122 33.289 23.6869 34.381L23.0123 37.7287C22.9591 37.993 22.978 38.2666 23.067 38.521C23.1561 38.7754 23.3121 39.0011 23.5186 39.1743C23.725 39.3476 23.9744 39.462 24.2404 39.5055C24.5063 39.5491 24.7791 39.5202 25.0301 39.4218L28.2099 38.1762C29.3301 38.6258 30.5257 38.8577 31.7328 38.8593C32.321 40.0467 33.1511 41.098 34.1698 41.9455C35.1885 42.793 36.3733 43.418 37.6479 43.7803C38.9225 44.1427 40.2589 44.2344 41.5711 44.0495C42.8833 43.8646 44.1423 43.4073 45.2672 42.7068L48.6149 43.3813C48.8791 43.4346 49.1528 43.4157 49.4072 43.3266C49.6616 43.2376 49.8873 43.0816 50.0605 42.8751C50.2338 42.6687 50.3482 42.4193 50.3917 42.1533C50.4353 41.8874 50.4064 41.6145 50.308 41.3636L49.0624 38.1838ZM28.0329 37.1716L24.6651 38.4914C24.5809 38.5256 24.4889 38.5362 24.3991 38.5221C24.3094 38.5079 24.2251 38.4696 24.1555 38.4112C24.0858 38.3527 24.0335 38.2764 24.004 38.1904C23.9744 38.1045 23.9689 38.0121 23.988 37.9232L24.7029 34.3774C24.7275 34.2494 24.7019 34.1169 24.6317 34.0072C23.5183 32.3 23.0555 30.2495 23.3276 28.2296C23.5997 26.2097 24.5885 24.3548 26.1138 23.003C27.6391 21.6511 29.5994 20.8924 31.6374 20.865C33.6754 20.8376 35.6553 21.5434 37.2164 22.8538C38.7775 24.1642 39.8158 25.9919 40.142 28.0038C40.4682 30.0157 40.0606 32.0778 38.9936 33.8143C37.9265 35.5508 36.271 36.8461 34.3288 37.4641C32.3866 38.0821 30.287 37.9816 28.4127 37.181C28.2921 37.1288 28.1559 37.1254 28.0329 37.1716ZM49.2949 42.2327C49.2366 42.3023 49.1605 42.3548 49.0746 42.3844C48.9888 42.414 48.8965 42.4197 48.8077 42.4008L45.2619 41.6859C45.1339 41.6614 45.0014 41.6869 44.8917 41.7572C43.917 42.394 42.8218 42.8237 41.6742 43.0198C40.5265 43.2159 39.3508 43.1741 38.2199 42.897C37.0891 42.62 36.0272 42.1135 35.1002 41.4091C34.1731 40.7047 33.4007 39.8174 32.8308 38.8021C34.2535 38.6397 35.6212 38.1577 36.8315 37.3922C38.0417 36.6267 39.0633 35.5975 39.8197 34.3815C40.5761 33.1656 41.0479 31.7943 41.1996 30.3704C41.3514 28.9464 41.1793 27.5065 40.6962 26.1585C42.0618 26.2305 43.3898 26.6309 44.5675 27.3257C45.7453 28.0206 46.738 28.9893 47.4614 30.1496C48.1849 31.31 48.6177 32.6278 48.7232 33.9912C48.8286 35.3545 48.6036 36.7232 48.0672 37.981C48.017 38.1013 48.0149 38.2362 48.0613 38.358L49.3811 41.7258C49.414 41.8102 49.4233 41.9019 49.4081 41.9912C49.393 42.0804 49.3538 42.1639 49.2949 42.2327Z" fill="#FFF4EB"/>
</g>
<defs>
<filter id="filter0_d_833_90837" x="0" y="0" width="72" height="72" filterUnits="userSpaceOnUse" color-interpolation-filters="sRGB">
<feFlood flood-opacity="0" result="BackgroundImageFix"/>
<feColorMatrix in="SourceAlpha" type="matrix" values="0 0 0 0 0 0 0 0 0 0 0 0 0 0 0 0 0 0 127 0" result="hardAlpha"/>
<feOffset dy="4"/>
<feGaussianBlur stdDeviation="2"/>
<feComposite in2="hardAlpha" operator="out"/>
<feColorMatrix type="matrix" values="0 0 0 0 0 0 0 0 0 0 0 0 0 0 0 0 0 0 0.13 0"/>
<feBlend mode="normal" in2="BackgroundImageFix" result="effect1_dropShadow_833_90837"/>
<feBlend mode="normal" in="SourceGraphic" in2="effect1_dropShadow_833_90837" result="shape"/>
</filter>
<linearGradient id="paint0_linear_833_90837" x1="36" y1="0" x2="36" y2="64" gradientUnits="userSpaceOnUse">
<stop stop-color="#53758B" stop-opacity="0"/>
<stop offset="1" stop-color="#53758B"/>
</linearGradient>
</defs>
</svg>
