<svg width="64" height="65" viewBox="0 0 64 65" fill="none" xmlns="http://www.w3.org/2000/svg">
<rect x="1.5" y="2.33936" width="61" height="61" rx="30.5" fill="white"/>
<rect x="1.5" y="2.33936" width="61" height="61" rx="30.5" stroke="#8FB1D4" stroke-width="3"/>
<g clip-path="url(#clip0_594_5047)">
<path d="M32 39.3394C33.7233 39.3374 35.3754 38.6519 36.594 37.4334C37.8126 36.2148 38.498 34.5627 38.5 32.8394V24.8394C38.5 23.1154 37.8152 21.4621 36.5962 20.2432C35.3772 19.0242 33.7239 18.3394 32 18.3394C30.2761 18.3394 28.6228 19.0242 27.4038 20.2432C26.1848 21.4621 25.5 23.1154 25.5 24.8394V32.8394C25.502 34.5627 26.1874 36.2148 27.406 37.4334C28.6246 38.6519 30.2767 39.3374 32 39.3394ZM28.5 24.8394C28.5 23.9111 28.8687 23.0209 29.5251 22.3645C30.1815 21.7081 31.0717 21.3394 32 21.3394C32.9283 21.3394 33.8185 21.7081 34.4749 22.3645C35.1313 23.0209 35.5 23.9111 35.5 24.8394V32.8394C35.5 33.7676 35.1313 34.6579 34.4749 35.3142C33.8185 35.9706 32.9283 36.3394 32 36.3394C31.0717 36.3394 30.1815 35.9706 29.5251 35.3142C28.8687 34.6579 28.5 33.7676 28.5 32.8394V24.8394ZM33.5 44.2419V46.8394C33.5 47.2372 33.342 47.6187 33.0607 47.9C32.7794 48.1813 32.3978 48.3394 32 48.3394C31.6022 48.3394 31.2206 48.1813 30.9393 47.9C30.658 47.6187 30.5 47.2372 30.5 46.8394V44.2419C27.735 43.8744 25.1974 42.516 23.3583 40.4189C21.5192 38.3218 20.5035 35.6286 20.5 32.8394C20.5 32.4415 20.658 32.06 20.9393 31.7787C21.2206 31.4974 21.6022 31.3394 22 31.3394C22.3978 31.3394 22.7794 31.4974 23.0607 31.7787C23.342 32.06 23.5 32.4415 23.5 32.8394C23.5 35.0937 24.3955 37.2557 25.9896 38.8498C27.5837 40.4438 29.7457 41.3394 32 41.3394C34.2543 41.3394 36.4163 40.4438 38.0104 38.8498C39.6045 37.2557 40.5 35.0937 40.5 32.8394C40.5 32.4415 40.658 32.06 40.9393 31.7787C41.2206 31.4974 41.6022 31.3394 42 31.3394C42.3978 31.3394 42.7794 31.4974 43.0607 31.7787C43.342 32.06 43.5 32.4415 43.5 32.8394C43.4965 35.6286 42.4808 38.3218 40.6417 40.4189C38.8026 42.516 36.265 43.8744 33.5 44.2419Z" fill="#3349A3"/>
</g>
<defs>
<clipPath id="clip0_594_5047">
<rect width="32" height="32" fill="white" transform="translate(16 16.8394)"/>
</clipPath>
</defs>
</svg>
