<svg width="72" height="72" viewBox="0 0 72 72" fill="none" xmlns="http://www.w3.org/2000/svg">
<g filter="url(#filter0_d_1409_1198)">
<rect x="4" width="64" height="64" rx="32" fill="url(#paint0_linear_1409_1198)" />
<g clip-path="url(#clip0_1409_1198)">
<path d="M44.0789 34.7872L38.2719 30.6883L37.6257 23.6099C37.5976 23.3064 37.4772 23.0188 37.2807 22.7858C37.0842 22.5529 36.8211 22.3857 36.5267 22.3068C36.2323 22.2279 35.9209 22.2411 35.6342 22.3447C35.3476 22.4482 35.0995 22.637 34.9235 22.8858L30.8246 28.6928L23.7462 29.339C23.4427 29.3671 23.1551 29.4875 22.9221 29.684C22.6892 29.8805 22.522 30.1436 22.4431 30.438C22.3642 30.7324 22.3774 31.0438 22.481 31.3305C22.5845 31.6171 22.7733 31.8652 23.0221 32.0412L28.8291 36.1401L29.4753 43.2186C29.5034 43.522 29.6238 43.8096 29.8203 44.0426C30.0168 44.2755 30.2799 44.4427 30.5743 44.5216C30.8687 44.6005 31.1801 44.5873 31.4668 44.4837C31.7534 44.3802 32.0015 44.1914 32.1775 43.9426L36.2764 38.1356L43.3548 37.4894C43.6583 37.4613 43.9459 37.3409 44.1789 37.1444C44.4118 36.9479 44.579 36.6848 44.6579 36.3904C44.7368 36.096 44.7236 35.7846 44.62 35.4979C44.5165 35.2113 44.3277 34.9632 44.0789 34.7872ZM43.2634 36.493L35.9556 37.1645C35.8835 37.1711 35.8138 37.1932 35.7511 37.2294C35.6885 37.2655 35.6345 37.3149 35.5927 37.3739L31.3597 43.3676C31.302 43.4496 31.2204 43.512 31.1261 43.5461C31.0317 43.5803 30.9292 43.5847 30.8323 43.5588C30.7354 43.5328 30.6487 43.4777 30.5841 43.4009C30.5196 43.3242 30.4801 43.2294 30.4711 43.1295L29.8002 35.8193C29.7934 35.7479 29.7713 35.6789 29.7355 35.6168C29.6997 35.5547 29.6509 35.5011 29.5925 35.4595L23.5989 31.2265C23.5168 31.1687 23.4545 31.0872 23.4203 30.9928C23.3861 30.8985 23.3817 30.796 23.4077 30.699C23.4337 30.6021 23.4888 30.5155 23.5655 30.4509C23.6423 30.3863 23.7371 30.3469 23.837 30.3378L31.1454 29.6639C31.2168 29.6571 31.2858 29.6351 31.3479 29.5992C31.41 29.5634 31.4636 29.5146 31.5052 29.4562L35.7382 23.4626C35.796 23.3805 35.8775 23.3182 35.9719 23.284C36.0662 23.2498 36.1687 23.2454 36.2657 23.2714C36.3626 23.2974 36.4492 23.3525 36.5138 23.4292C36.5784 23.506 36.6179 23.6008 36.6269 23.7007L37.3008 31.0091C37.3074 31.0812 37.3295 31.1509 37.3657 31.2136C37.4018 31.2762 37.4512 31.3302 37.5102 31.372L43.5039 35.605C43.5859 35.6628 43.6482 35.7443 43.6824 35.8386C43.7166 35.933 43.721 36.0355 43.6951 36.1324C43.6691 36.2293 43.614 36.316 43.5372 36.3806C43.4605 36.4451 43.3657 36.4846 43.2658 36.4936L43.2634 36.493ZM41.2618 22.0219C41.2961 21.8938 41.3799 21.7846 41.4948 21.7183C41.6096 21.6519 41.7461 21.634 41.8742 21.6683L44.289 22.3153L44.936 19.9005C44.9704 19.7724 45.0542 19.6632 45.169 19.5969C45.2838 19.5306 45.4203 19.5127 45.5484 19.547C45.6765 19.5813 45.7857 19.6651 45.852 19.7799C45.9183 19.8948 45.9363 20.0313 45.902 20.1594L45.2549 22.5742L47.6697 23.2212C47.7978 23.2555 47.907 23.3393 47.9733 23.4542C48.0396 23.569 48.0576 23.7055 48.0233 23.8336C47.989 23.9617 47.9052 24.0709 47.7903 24.1372C47.6755 24.2035 47.539 24.2215 47.4109 24.1871L44.9961 23.5401L44.3491 25.9549C44.3147 26.083 44.2309 26.1922 44.1161 26.2585C44.0013 26.3248 43.8648 26.3428 43.7367 26.3085C43.6086 26.2741 43.4994 26.1903 43.4331 26.0755C43.3668 25.9607 43.3488 25.8242 43.3831 25.6961L44.0302 23.2813L41.6154 22.6342C41.4873 22.5999 41.3781 22.5161 41.3118 22.4013C41.2455 22.2864 41.2275 22.1499 41.2618 22.0219ZM51.3 30.9232C51.2657 31.0513 51.1819 31.1605 51.067 31.2268C50.9522 31.2931 50.8157 31.3111 50.6876 31.2768L49.2387 30.8886L48.8505 32.3375C48.8162 32.4655 48.7324 32.5748 48.6176 32.6411C48.5027 32.7074 48.3662 32.7253 48.2381 32.691C48.1101 32.6567 48.0008 32.5729 47.9345 32.458C47.8682 32.3432 47.8503 32.2067 47.8846 32.0786L48.2728 30.6297L46.8239 30.2415C46.6958 30.2072 46.5866 30.1234 46.5203 30.0086C46.454 29.8937 46.4361 29.7572 46.4704 29.6291C46.5047 29.5011 46.5885 29.3918 46.7033 29.3255C46.8182 29.2592 46.9547 29.2413 47.0827 29.2756L48.5316 29.6638L48.9199 28.2149C48.9542 28.0868 49.038 27.9776 49.1528 27.9113C49.2677 27.845 49.4041 27.8271 49.5322 27.8614C49.6603 27.8957 49.7695 27.9795 49.8358 28.0943C49.9021 28.2092 49.9201 28.3457 49.8858 28.4737L49.4976 29.9226L50.9465 30.3109C51.0745 30.3452 51.1838 30.429 51.2501 30.5438C51.3164 30.6587 51.3343 30.7951 51.3 30.9232Z" fill="#1C2745"/>
</g>
</g>
<defs>
<filter id="filter0_d_1409_1198" x="0" y="0" width="72" height="72" filterUnits="userSpaceOnUse" color-interpolation-filters="sRGB">
<feFlood flood-opacity="0" result="BackgroundImageFix"/>
<feColorMatrix in="SourceAlpha" type="matrix" values="0 0 0 0 0 0 0 0 0 0 0 0 0 0 0 0 0 0 127 0" result="hardAlpha"/>
<feOffset dy="4"/>
<feGaussianBlur stdDeviation="2"/>
<feComposite in2="hardAlpha" operator="out"/>
<feColorMatrix type="matrix" values="0 0 0 0 0 0 0 0 0 0 0 0 0 0 0 0 0 0 0.13 0"/>
<feBlend mode="normal" in2="BackgroundImageFix" result="effect1_dropShadow_1409_1198"/>
<feBlend mode="normal" in="SourceGraphic" in2="effect1_dropShadow_1409_1198" result="shape"/>
</filter>
<linearGradient id="paint0_linear_1409_1198" x1="36" y1="0" x2="36" y2="64" gradientUnits="userSpaceOnUse">
<stop stop-color="#E79450"/>
<stop offset="1" stop-color="#C58853"/>
</linearGradient>
<clipPath id="clip0_1409_1198">
<rect width="32" height="32" fill="white" transform="translate(24.6863 12.4041) rotate(15)"/>
</clipPath>
</defs>
</svg>
