<svg width="64" height="65" viewBox="0 0 64 65" fill="none" xmlns="http://www.w3.org/2000/svg">
<rect x="1.5" y="2.33936" width="61" height="61" rx="30.5" fill="white"/>
<rect x="1.5" y="2.33936" width="61" height="61" rx="30.5" stroke="#8FB1D4" stroke-width="3"/>
<path d="M47.5 31.8394C47.4981 30.1161 46.8126 28.4639 45.5941 27.2454C44.3755 26.0268 42.7233 25.3414 41 25.3394H36.0401C35.6101 25.3131 29.465 24.8394 23.6075 19.9269C23.2432 19.621 22.7991 19.4254 22.3274 19.3631C21.8558 19.3008 21.3761 19.3744 20.9448 19.5752C20.5135 19.776 20.1485 20.0957 19.8925 20.4968C19.6366 20.8979 19.5005 21.3636 19.5 21.8394V41.8394C19.497 42.3157 19.6315 42.7828 19.8874 43.1845C20.1433 43.5863 20.5096 43.9057 20.9425 44.1044C21.3736 44.3079 21.8541 44.383 22.3267 44.3207C22.7993 44.2584 23.2439 44.0614 23.6075 43.7531C26.6057 41.2327 30.1727 39.4806 34 38.6481V41.9231C34 42.3346 34.1015 42.7398 34.2956 43.1026C34.4896 43.4654 34.7703 43.7748 35.1125 44.0031C35.168 44.0405 35.2261 44.0739 35.2863 44.1031L37.0913 44.9856C37.4249 45.1854 37.8005 45.3045 38.1883 45.3336C38.576 45.3627 38.9652 45.3009 39.3249 45.1533C39.6846 45.0056 40.0049 44.776 40.2603 44.4828C40.5158 44.1896 40.6993 43.8409 40.7963 43.4644L42.1826 38.2369C43.6762 37.9588 45.0256 37.167 45.9967 35.9985C46.9679 34.8301 47.4997 33.3587 47.5 31.8394ZM22.5 40.7931V22.8894C27.0213 26.3981 31.5213 27.6519 34 28.0969V35.5894C31.5213 36.0294 27.0213 37.2831 22.5 40.7931ZM38.0488 42.1144L37 41.6019V38.3394H39.05L38.0488 42.1144ZM41 35.3394H37V28.3394H41C41.9283 28.3394 42.8185 28.7081 43.4749 29.3645C44.1313 30.0209 44.5 30.9111 44.5 31.8394C44.5 32.7676 44.1313 33.6579 43.4749 34.3143C42.8185 34.9706 41.9283 35.3394 41 35.3394Z" fill="#3349A3"/>
</svg>
