<svg width="64" height="65" viewBox="0 0 64 65" fill="none" xmlns="http://www.w3.org/2000/svg">
<rect x="1.5" y="2.33936" width="61" height="61" rx="30.5" fill="white"/>
<rect x="1.5" y="2.33936" width="61" height="61" rx="30.5" stroke="#8FB1D4" stroke-width="3"/>
<path d="M42.5 26.8394H39V23.3394C39 22.6763 38.7366 22.0404 38.2678 21.5716C37.7989 21.1027 37.163 20.8394 36.5 20.8394H20.5C19.837 20.8394 19.2011 21.1027 18.7322 21.5716C18.2634 22.0404 18 22.6763 18 23.3394V39.3394C18.0001 39.6224 18.0804 39.8997 18.2314 40.1391C18.3825 40.3785 18.5982 40.5703 18.8537 40.6923C19.1091 40.8143 19.3939 40.8615 19.6751 40.8284C19.9562 40.7954 20.2223 40.6835 20.4425 40.5056L24 37.6306V40.3394C24 41.0024 24.2634 41.6383 24.7322 42.1071C25.2011 42.576 25.837 42.8394 26.5 42.8394H38.0212L42.5575 46.5056C42.7777 46.6835 43.0438 46.7954 43.3249 46.8284C43.6061 46.8615 43.8909 46.8143 44.1463 46.6923C44.4018 46.5703 44.6175 46.3785 44.7686 46.1391C44.9196 45.8997 44.9999 45.6224 45 45.3394V29.3394C45 28.6763 44.7366 28.0404 44.2678 27.5716C43.7989 27.1027 43.163 26.8394 42.5 26.8394ZM21 36.1981V23.8394H36V33.8394H24.4475C24.1027 33.8384 23.7681 33.9563 23.5 34.1731L21 36.1981ZM42 42.1981L39.5 40.1731C39.2332 39.9573 38.9006 39.8395 38.5575 39.8394H27V36.8394H36.5C37.163 36.8394 37.7989 36.576 38.2678 36.1071C38.7366 35.6383 39 35.0024 39 34.3394V29.8394H42V42.1981Z" fill="#3349A3"/>
</svg>
