<svg width="72" height="72" viewBox="0 0 72 72" fill="none" xmlns="http://www.w3.org/2000/svg">
<g filter="url(#filter0_d_837_92171)">
<rect x="4" width="64" height="64" rx="32" fill="url(#paint0_linear_837_92171)" shape-rendering="crispEdges"/>
<path d="M35.0449 37.4165C36.4813 37.6681 37.9587 37.3396 39.1532 36.5033C40.3477 35.6669 41.1616 34.3909 41.4164 32.9551L42.8056 25.0766C43.0589 23.6401 42.7312 22.1618 41.8945 20.9669C41.0579 19.772 39.7808 18.9584 38.3443 18.7051C36.9077 18.4518 35.4294 18.7796 34.2345 19.6162C33.0396 20.4529 32.226 21.73 31.9727 23.1665L30.5836 31.045C30.332 32.4813 30.6604 33.9588 31.4968 35.1532C32.3332 36.3477 33.6092 37.1616 35.0449 37.4165ZM32.9576 23.3402C33.1648 22.1648 33.8305 21.1199 34.8081 20.4354C35.7857 19.7508 36.9953 19.4827 38.1706 19.6899C39.3459 19.8972 40.3908 20.5629 41.0754 21.5405C41.7599 22.5181 42.0281 23.7277 41.8208 24.903L40.4316 32.7815C40.2244 33.9568 39.5587 35.0017 38.5811 35.6862C37.6035 36.3708 36.3939 36.6389 35.2186 36.4317C34.0432 36.2244 32.9984 35.5588 32.3138 34.5811C31.6293 33.6035 31.3611 32.394 31.5684 31.2186L32.9576 23.3402ZM34.8451 41.429L34.0613 45.8742C34.0383 46.0048 33.9643 46.1209 33.8557 46.1969C33.7471 46.273 33.6127 46.3028 33.4821 46.2798C33.3515 46.2567 33.2354 46.1828 33.1594 46.0741C33.0833 45.9655 33.0535 45.8311 33.0765 45.7005L33.8603 41.2554C31.4913 40.7049 29.4232 39.2678 28.0811 37.2396C26.739 35.2114 26.2248 32.746 26.6443 30.3504C26.6674 30.2198 26.7413 30.1037 26.8499 30.0276C26.9586 29.9516 27.093 29.9218 27.2236 29.9448C27.3541 29.9678 27.4702 30.0418 27.5463 30.1504C27.6224 30.259 27.6522 30.3934 27.6291 30.524C27.2377 32.7441 27.7442 35.0288 29.0372 36.8754C30.3302 38.7221 32.3039 39.9794 34.524 40.3709C36.7441 40.7624 39.0288 40.2559 40.8754 38.9628C42.722 37.6698 43.9794 35.6961 44.3709 33.4761C44.3939 33.3455 44.4679 33.2294 44.5765 33.1533C44.6851 33.0772 44.8195 33.0474 44.9501 33.0705C45.0807 33.0935 45.1968 33.1675 45.2728 33.2761C45.3489 33.3847 45.3787 33.5191 45.3557 33.6497C44.9305 36.0443 43.6042 38.1851 41.6493 39.632C39.6944 41.0789 37.2595 41.722 34.8451 41.429Z" fill="#1C2745"/>
</g>
<defs>
<filter id="filter0_d_837_92171" x="0" y="0" width="72" height="72" filterUnits="userSpaceOnUse" color-interpolation-filters="sRGB">
<feFlood flood-opacity="0" result="BackgroundImageFix"/>
<feColorMatrix in="SourceAlpha" type="matrix" values="0 0 0 0 0 0 0 0 0 0 0 0 0 0 0 0 0 0 127 0" result="hardAlpha"/>
<feOffset dy="4"/>
<feGaussianBlur stdDeviation="2"/>
<feComposite in2="hardAlpha" operator="out"/>
<feColorMatrix type="matrix" values="0 0 0 0 0 0 0 0 0 0 0 0 0 0 0 0 0 0 0.13 0"/>
<feBlend mode="normal" in2="BackgroundImageFix" result="effect1_dropShadow_837_92171"/>
<feBlend mode="normal" in="SourceGraphic" in2="effect1_dropShadow_837_92171" result="shape"/>
</filter>
<linearGradient id="paint0_linear_837_92171" x1="36" y1="0" x2="36" y2="64" gradientUnits="userSpaceOnUse">
<stop stop-color="#E79450"/>
<stop offset="1" stop-color="#C58853"/>
</linearGradient>
</defs>
</svg>
