<svg width="72" height="72" viewBox="0 0 72 72" fill="none" xmlns="http://www.w3.org/2000/svg">
<g filter="url(#filter0_d_833_90711)">
<rect x="4" width="64" height="64" rx="32" fill="#5489A3" shape-rendering="crispEdges"/>
<rect x="4" width="64" height="64" rx="32" fill="url(#paint0_linear_833_90711)" shape-rendering="crispEdges"/>
<g clip-path="url(#clip0_833_90711)">
<path d="M43.011 23.3921L38.1934 24.683C37.9254 24.7406 31.4977 26.0397 24.1292 22.6061C23.8705 22.4852 23.5828 22.4407 23.2998 22.4777C23.0168 22.5147 22.7502 22.6317 22.5313 22.815C22.3124 22.9982 22.1504 23.2401 22.0642 23.5122C21.9781 23.7844 21.9713 24.0754 22.0448 24.3512L27.2212 43.6698C27.2934 43.9462 27.4438 44.1959 27.6544 44.389C27.865 44.5821 28.1268 44.7103 28.4084 44.7583C28.6245 44.796 28.8462 44.7864 29.0583 44.7304C29.3983 44.6386 29.6947 44.4294 29.8953 44.1399C33.8695 38.4655 38.9715 36.111 40.5537 35.4865L41.7278 39.8681C41.7915 40.107 41.9131 40.3265 42.0821 40.507C42.251 40.6875 42.4619 40.8235 42.6961 40.9028L44.2614 41.4319C44.4883 41.5087 44.7304 41.53 44.9672 41.4941C45.2041 41.4581 45.4289 41.366 45.6228 41.2253C45.8168 41.0846 45.9742 40.8996 46.0819 40.6856C46.1897 40.4716 46.2446 40.2349 46.2421 39.9953L46.2266 33.9056C47.5779 33.444 48.6966 32.475 49.3463 31.2035C49.996 29.932 50.1258 28.4577 49.7082 27.0922C49.2905 25.7268 48.3582 24.5773 47.1084 23.8868C45.8586 23.1963 44.3892 23.0189 43.011 23.3921ZM40.2963 34.5111C38.7063 35.1118 33.3307 37.493 29.0803 43.5663C29.0259 43.6445 28.9503 43.7055 28.8624 43.7422C28.7745 43.7788 28.678 43.7896 28.5842 43.7733C28.4904 43.757 28.4031 43.7142 28.3328 43.65C28.2625 43.5858 28.2119 43.5029 28.1871 43.4109L23.0107 24.0924C22.9862 24.0007 22.9883 23.9039 23.0167 23.8133C23.0451 23.7228 23.0988 23.6422 23.1713 23.5809C23.2298 23.5332 23.2976 23.4983 23.3703 23.4784C23.4839 23.4502 23.6039 23.464 23.7082 23.5173C30.4245 26.6469 36.2705 26.0213 37.9478 25.7465L40.2963 34.5111ZM45.2456 40.0048C45.247 40.085 45.2291 40.1643 45.1934 40.236C45.1577 40.3078 45.1053 40.37 45.0406 40.4172C44.9759 40.4645 44.9007 40.4956 44.8215 40.5077C44.7423 40.5199 44.6613 40.5128 44.5854 40.4871L43.0201 39.958C42.9421 39.9316 42.8719 39.8863 42.8156 39.8262C42.7593 39.7661 42.7187 39.693 42.6975 39.6135L41.5101 35.1823L45.2289 34.1859L45.2456 40.0048ZM45.5992 33.0514L41.2525 34.2161L38.9231 25.5227L43.2698 24.358C44.4226 24.0492 45.6509 24.2109 46.6845 24.8076C47.7181 25.4043 48.4723 26.3872 48.7812 27.54C49.09 28.6928 48.9283 29.9211 48.3316 30.9547C47.7349 31.9883 46.752 32.7425 45.5992 33.0514Z" fill="#FFF4EB"/>
</g>
</g>
<defs>
<filter id="filter0_d_833_90711" x="0" y="0" width="72" height="72" filterUnits="userSpaceOnUse" color-interpolation-filters="sRGB">
<feFlood flood-opacity="0" result="BackgroundImageFix"/>
<feColorMatrix in="SourceAlpha" type="matrix" values="0 0 0 0 0 0 0 0 0 0 0 0 0 0 0 0 0 0 127 0" result="hardAlpha"/>
<feOffset dy="4"/>
<feGaussianBlur stdDeviation="2"/>
<feComposite in2="hardAlpha" operator="out"/>
<feColorMatrix type="matrix" values="0 0 0 0 0 0 0 0 0 0 0 0 0 0 0 0 0 0 0.13 0"/>
<feBlend mode="normal" in2="BackgroundImageFix" result="effect1_dropShadow_833_90711"/>
<feBlend mode="normal" in="SourceGraphic" in2="effect1_dropShadow_833_90711" result="shape"/>
</filter>
<linearGradient id="paint0_linear_833_90711" x1="36" y1="0" x2="36" y2="64" gradientUnits="userSpaceOnUse">
<stop stop-color="#53758B" stop-opacity="0"/>
<stop offset="1" stop-color="#53758B"/>
</linearGradient>
<clipPath id="clip0_833_90711">
<rect width="32" height="32" fill="white" transform="translate(16.4041 20.6863) rotate(-15)"/>
</clipPath>
</defs>
</svg>
