<svg width="72" height="72" viewBox="0 0 72 72" fill="none" xmlns="http://www.w3.org/2000/svg">
<g filter="url(#filter0_d_1409_1196)">
<rect x="4" width="64" height="64" rx="32" fill="url(#paint0_linear_1409_1196)" />
<path d="M35.045 37.4165C36.4813 37.6681 37.9588 37.3396 39.1533 36.5033C40.3477 35.6669 41.1617 34.3909 41.4165 32.9551L42.8057 25.0766C43.059 23.6401 42.7313 22.1618 41.8946 20.9669C41.0579 19.772 39.7809 18.9584 38.3443 18.7051C36.9078 18.4518 35.4295 18.7796 34.2346 19.6162C33.0397 20.4529 32.2261 21.73 31.9728 23.1665L30.5836 31.045C30.332 32.4813 30.6605 33.9588 31.4969 35.1532C32.3332 36.3477 33.6093 37.1616 35.045 37.4165ZM32.9576 23.3402C33.1649 22.1648 33.8305 21.1199 34.8082 20.4354C35.7858 19.7508 36.9953 19.4827 38.1707 19.6899C39.346 19.8972 40.3909 20.5629 41.0754 21.5405C41.76 22.5181 42.0281 23.7277 41.8209 24.903L40.4317 32.7815C40.2245 33.9568 39.5588 35.0017 38.5812 35.6862C37.6035 36.3708 36.394 36.6389 35.2187 36.4317C34.0433 36.2244 32.9984 35.5588 32.3139 34.5811C31.6293 33.6035 31.3612 32.394 31.5684 31.2186L32.9576 23.3402ZM34.8452 41.429L34.0614 45.8742C34.0384 46.0048 33.9644 46.1209 33.8558 46.1969C33.7472 46.273 33.6128 46.3028 33.4822 46.2798C33.3516 46.2567 33.2355 46.1828 33.1594 46.0741C33.0834 45.9655 33.0536 45.8311 33.0766 45.7005L33.8604 41.2554C31.4914 40.7049 29.4233 39.2678 28.0812 37.2396C26.7391 35.2114 26.2249 32.746 26.6444 30.3504C26.6674 30.2198 26.7414 30.1037 26.85 30.0276C26.9586 29.9516 27.093 29.9218 27.2236 29.9448C27.3542 29.9678 27.4703 30.0418 27.5464 30.1504C27.6224 30.259 27.6522 30.3934 27.6292 30.524C27.2377 32.7441 27.7442 35.0288 29.0373 36.8754C30.3303 38.7221 32.304 39.9794 34.5241 40.3709C36.7442 40.7624 39.0288 40.2559 40.8755 38.9628C42.7221 37.6698 43.9795 35.6961 44.3709 33.4761C44.394 33.3455 44.4679 33.2294 44.5766 33.1533C44.6852 33.0772 44.8196 33.0474 44.9502 33.0705C45.0808 33.0935 45.1969 33.1675 45.2729 33.2761C45.349 33.3847 45.3788 33.5191 45.3557 33.6497C44.9306 36.0443 43.6042 38.1851 41.6494 39.632C39.6945 41.0789 37.2596 41.722 34.8452 41.429Z" fill="#1C2745"/>
</g>
<defs>
<filter id="filter0_d_1409_1196" x="0" y="0" width="72" height="72" filterUnits="userSpaceOnUse" color-interpolation-filters="sRGB">
<feFlood flood-opacity="0" result="BackgroundImageFix"/>
<feColorMatrix in="SourceAlpha" type="matrix" values="0 0 0 0 0 0 0 0 0 0 0 0 0 0 0 0 0 0 127 0" result="hardAlpha"/>
<feOffset dy="4"/>
<feGaussianBlur stdDeviation="2"/>
<feComposite in2="hardAlpha" operator="out"/>
<feColorMatrix type="matrix" values="0 0 0 0 0 0 0 0 0 0 0 0 0 0 0 0 0 0 0.13 0"/>
<feBlend mode="normal" in2="BackgroundImageFix" result="effect1_dropShadow_1409_1196"/>
<feBlend mode="normal" in="SourceGraphic" in2="effect1_dropShadow_1409_1196" result="shape"/>
</filter>
<linearGradient id="paint0_linear_1409_1196" x1="36" y1="0" x2="36" y2="64" gradientUnits="userSpaceOnUse">
<stop stop-color="#E79450"/>
<stop offset="1" stop-color="#C58853"/>
</linearGradient>
</defs>
</svg>
