<svg width="64" height="65" viewBox="0 0 64 65" fill="none" xmlns="http://www.w3.org/2000/svg">
<rect x="1.5" y="2.33936" width="61" height="61" rx="30.5" fill="white"/>
<rect x="1.5" y="2.33936" width="61" height="61" rx="30.5" stroke="#8FB1D4" stroke-width="3"/>
<g clip-path="url(#clip0_594_5156)">
<path d="M40.3747 32.0055L34.1397 29.7068L31.8359 23.4668C31.6598 22.989 31.3414 22.5767 30.9236 22.2855C30.5059 21.9943 30.0089 21.8382 29.4997 21.8382C28.9905 21.8382 28.4935 21.9943 28.0757 22.2855C27.658 22.5767 27.3396 22.989 27.1634 23.4668L24.8647 29.7068L18.6247 32.0055C18.1469 32.1817 17.7346 32.5001 17.4434 32.9179C17.1522 33.3356 16.9961 33.8326 16.9961 34.3418C16.9961 34.851 17.1522 35.348 17.4434 35.7657C17.7346 36.1835 18.1469 36.5019 18.6247 36.678L24.8597 38.9768L27.1634 45.2168C27.3396 45.6946 27.658 46.1069 28.0757 46.3981C28.4935 46.6893 28.9905 46.8454 29.4997 46.8454C30.0089 46.8454 30.5059 46.6893 30.9236 46.3981C31.3414 46.1069 31.6598 45.6946 31.8359 45.2168L34.1347 38.9818L40.3747 36.678C40.8525 36.5019 41.2647 36.1835 41.5559 35.7657C41.8471 35.348 42.0033 34.851 42.0033 34.3418C42.0033 33.8326 41.8471 33.3356 41.5559 32.9179C41.2647 32.5001 40.8525 32.1817 40.3747 32.0055ZM32.4522 36.4005C32.2486 36.4756 32.0637 36.5939 31.9102 36.7473C31.7568 36.9008 31.6385 37.0857 31.5634 37.2893L29.4997 42.8768L27.4409 37.2893C27.3659 37.0857 27.2476 36.9008 27.0941 36.7473C26.9407 36.5939 26.7558 36.4756 26.5522 36.4005L20.9647 34.3418L26.5522 32.283C26.7558 32.208 26.9407 32.0897 27.0941 31.9362C27.2476 31.7828 27.3659 31.5979 27.4409 31.3943L29.4997 25.8068L31.5584 31.3943C31.6335 31.5979 31.7518 31.7828 31.9052 31.9362C32.0587 32.0897 32.2436 32.208 32.4472 32.283L38.0347 34.3418L32.4522 36.4005ZM32.9997 21.3418C32.9997 20.944 33.1577 20.5624 33.439 20.2811C33.7203 19.9998 34.1019 19.8418 34.4997 19.8418H35.9997V18.3418C35.9997 17.944 36.1577 17.5624 36.439 17.2811C36.7203 16.9998 37.1019 16.8418 37.4997 16.8418C37.8975 16.8418 38.279 16.9998 38.5603 17.2811C38.8416 17.5624 38.9997 17.944 38.9997 18.3418V19.8418H40.4997C40.8975 19.8418 41.279 19.9998 41.5603 20.2811C41.8416 20.5624 41.9997 20.944 41.9997 21.3418C41.9997 21.7396 41.8416 22.1212 41.5603 22.4025C41.279 22.6838 40.8975 22.8418 40.4997 22.8418H38.9997V24.3418C38.9997 24.7396 38.8416 25.1212 38.5603 25.4025C38.279 25.6838 37.8975 25.8418 37.4997 25.8418C37.1019 25.8418 36.7203 25.6838 36.439 25.4025C36.1577 25.1212 35.9997 24.7396 35.9997 24.3418V22.8418H34.4997C34.1019 22.8418 33.7203 22.6838 33.439 22.4025C33.1577 22.1212 32.9997 21.7396 32.9997 21.3418ZM46.9997 27.3418C46.9997 27.7396 46.8416 28.1212 46.5603 28.4025C46.279 28.6838 45.8975 28.8418 45.4997 28.8418H44.9997V29.3418C44.9997 29.7396 44.8416 30.1212 44.5603 30.4025C44.279 30.6838 43.8975 30.8418 43.4997 30.8418C43.1019 30.8418 42.7203 30.6838 42.439 30.4025C42.1577 30.1212 41.9997 29.7396 41.9997 29.3418V28.8418H41.4997C41.1019 28.8418 40.7203 28.6838 40.439 28.4025C40.1577 28.1212 39.9997 27.7396 39.9997 27.3418C39.9997 26.944 40.1577 26.5624 40.439 26.2811C40.7203 25.9998 41.1019 25.8418 41.4997 25.8418H41.9997V25.3418C41.9997 24.944 42.1577 24.5624 42.439 24.2811C42.7203 23.9998 43.1019 23.8418 43.4997 23.8418C43.8975 23.8418 44.279 23.9998 44.5603 24.2811C44.8416 24.5624 44.9997 24.944 44.9997 25.3418V25.8418H45.4997C45.8975 25.8418 46.279 25.9998 46.5603 26.2811C46.8416 26.5624 46.9997 26.944 46.9997 27.3418Z" fill="#3349A3"/>
</g>
<defs>
<clipPath id="clip0_594_5156">
<rect width="32" height="32" fill="white" transform="translate(16 16.8394)"/>
</clipPath>
</defs>
</svg>
