<svg width="197" height="215" viewBox="0 0 197 215" fill="none" xmlns="http://www.w3.org/2000/svg">
<rect width="197" height="215" fill="white"/>
<g filter="url(#filter0_d_13103_3659)">
<rect width="129" height="129" rx="64.5" transform="matrix(0.994763 0.102209 -0.107492 0.994206 67.875 0)" fill="url(#paint0_linear_13103_3659)" shape-rendering="crispEdges"/>
<path d="M148.533 87.9147C150.24 85.2854 151.279 82.2816 151.558 79.1661C151.837 76.0505 151.348 72.9181 150.134 70.0427C148.919 67.1673 147.017 64.6366 144.592 62.6718C142.168 60.707 139.295 59.3681 136.225 58.7721C135.539 56.2824 134.354 53.9602 132.741 51.9456C131.129 49.931 129.123 48.2657 126.844 47.0505C124.566 45.8352 122.062 45.095 119.484 44.8747C116.906 44.6544 114.307 44.9585 111.844 45.7686C109.382 46.5787 107.107 47.8781 105.156 49.5882C103.206 51.2984 101.62 53.3839 100.496 55.7187C99.371 58.0536 98.7306 60.5894 98.613 63.1731C98.4954 65.7569 98.9032 68.3349 99.8115 70.7515L97.1693 77.1184C96.9607 77.6208 96.8912 78.1695 96.9681 78.7066C97.045 79.2437 97.2654 79.7494 97.6063 80.1706C97.9471 80.5918 98.3957 80.9128 98.905 81.1C99.4142 81.2872 99.9653 81.3337 100.5 81.2344L107.278 79.9781C109.319 81.2932 111.594 82.206 113.982 82.6677C114.682 85.2404 115.913 87.6355 117.598 89.6992C119.283 91.7628 121.382 93.4494 123.763 94.6505C126.143 95.8516 128.752 96.5406 131.42 96.6733C134.088 96.806 136.758 96.3795 139.257 95.4211L145.618 98.0273C146.12 98.2331 146.668 98.2997 147.206 98.2201C147.745 98.1405 148.252 97.9177 148.675 97.575C149.099 97.2323 149.423 96.7825 149.613 96.2729C149.803 95.7632 149.852 95.2125 149.756 94.6787L148.533 87.9147ZM107.32 77.9233L100.142 79.255C99.9615 79.2907 99.7754 79.2767 99.6033 79.2147C99.4312 79.1526 99.2795 79.0447 99.1645 78.9027C99.0496 78.7607 98.9757 78.5898 98.9509 78.4085C98.9261 78.2272 98.9513 78.0423 99.0237 77.8737L101.823 71.1304C101.922 70.8866 101.923 70.6147 101.827 70.371C100.291 66.5705 100.176 62.3382 101.503 58.4454C102.831 54.5526 105.512 51.2586 109.057 49.1636C112.603 47.0686 116.778 46.3122 120.821 47.0322C124.864 47.7523 128.506 49.9008 131.083 53.0863C133.66 56.2717 135 60.282 134.86 64.3861C134.719 68.4903 133.107 72.4151 130.318 75.4452C127.528 78.4753 123.747 80.409 119.663 80.8937C115.579 81.3785 111.464 80.3822 108.068 78.0862C107.85 77.9372 107.582 77.8788 107.32 77.9233ZM147.412 96.0132C147.269 96.1288 147.098 96.2036 146.917 96.2296C146.735 96.2556 146.55 96.2318 146.382 96.1607L139.646 93.3993C139.402 93.3022 139.13 93.3023 138.885 93.3997C136.708 94.2893 134.373 94.7235 132.026 94.6754C129.679 94.6273 127.369 94.098 125.24 93.1203C123.11 92.1425 121.207 90.7372 119.648 88.9915C118.089 87.2457 116.907 85.1968 116.176 82.9717C119.055 83.1909 121.949 82.7569 124.643 81.7022C127.336 80.6475 129.759 78.9994 131.731 76.8812C133.703 74.763 135.172 72.2294 136.028 69.4699C136.885 66.7105 137.106 63.7965 136.677 60.946C139.351 61.6072 141.822 62.9039 143.881 64.7259C145.94 66.5479 147.525 68.8415 148.504 71.412C149.482 73.9825 149.823 76.754 149.499 79.4913C149.176 82.2285 148.196 84.8508 146.643 87.1355C146.497 87.3543 146.44 87.6204 146.484 87.879L147.78 95.043C147.812 95.2225 147.795 95.4075 147.73 95.5784C147.665 95.7493 147.555 95.8996 147.412 96.0132Z" fill="#FFF4EB"/>
</g>
<g filter="url(#filter1_d_13103_3659)">
<rect y="111.204" width="105" height="105" rx="52.5" transform="rotate(-11.4826 0 111.204)" fill="#FFF4EB" shape-rendering="crispEdges"/>
<rect y="111.204" width="105" height="105" rx="52.5" transform="rotate(-11.4826 0 111.204)" fill="url(#paint1_linear_13103_3659)" shape-rendering="crispEdges"/>
<path d="M76.5221 145.884C75.6992 141.833 73.3011 138.274 69.8548 135.992C66.4085 133.709 62.1963 132.89 58.1454 133.712C54.0945 134.535 50.5359 136.933 48.2533 140.38C45.9707 143.826 45.1512 148.038 45.9741 152.089C46.5279 154.815 47.3351 156.546 48.2224 157.749C49.1086 158.95 50.1127 159.679 51.17 160.364C52.2043 161.034 53.3849 161.711 54.3722 162.759C55.3911 163.842 56.1888 165.288 56.6384 167.501C57.0715 169.633 58.3343 171.505 60.1482 172.707C61.962 173.908 64.1783 174.34 66.3104 173.907C68.7661 173.408 70.3935 171.929 71.5275 169.803C71.7406 169.404 72.2378 169.252 72.6375 169.465C73.0371 169.678 73.1888 170.175 72.9758 170.575C71.6638 173.035 69.6717 174.898 66.637 175.515C64.0785 176.035 61.4189 175.516 59.2423 174.074C57.0657 172.633 55.5504 170.386 55.0306 167.828C54.6333 165.872 53.9603 164.714 53.1781 163.883C52.3643 163.019 51.4132 162.474 50.279 161.74C49.1678 161.021 47.966 160.163 46.9031 158.723C45.8413 157.284 44.9555 155.316 44.3663 152.416C43.4568 147.938 44.3628 143.283 46.8856 139.474C49.4085 135.665 53.3415 133.014 57.8188 132.105C62.2961 131.195 66.9516 132.101 70.7607 134.624C74.5697 137.147 77.2204 141.08 78.1299 145.557C78.22 146.001 77.9332 146.434 77.4893 146.524C77.0453 146.615 76.6123 146.328 76.5221 145.884Z" fill="black"/>
<path d="M65.9459 159.751C65.3952 157.04 66.4062 154.954 67.2767 153.119C68.1647 151.248 68.9121 149.629 68.4831 147.517C68.0933 145.598 66.9568 143.913 65.3243 142.832C63.7937 141.818 61.9447 141.413 60.1382 141.688L59.7783 141.751C57.8595 142.141 56.1747 143.278 55.0935 144.91C54.0123 146.543 53.6232 148.537 54.013 150.456C54.1032 150.9 53.8164 151.333 53.3724 151.423C52.9284 151.514 52.4954 151.227 52.4052 150.783C51.9288 148.438 52.4043 146 53.7258 144.004C55.0473 142.009 57.1065 140.62 59.4517 140.144L59.892 140.066C62.0998 139.73 64.3595 140.225 66.2301 141.464C68.2254 142.786 69.6144 144.845 70.0909 147.19C70.6416 149.901 69.6305 151.988 68.76 153.822C67.8721 155.693 67.1247 157.312 67.5537 159.425L67.6017 159.621C67.733 160.074 67.992 160.482 68.3499 160.793C68.7585 161.148 69.2733 161.358 69.8138 161.392C70.3545 161.425 70.8923 161.279 71.3415 160.977C71.7908 160.674 72.1282 160.23 72.3001 159.716C72.444 159.287 72.9083 159.054 73.3377 159.198C73.7673 159.341 73.9998 159.807 73.8561 160.237C73.5696 161.093 73.0075 161.832 72.2587 162.337C71.51 162.842 70.6148 163.086 69.7135 163.031C68.8123 162.975 67.9549 162.623 67.2737 162.03C66.6774 161.511 66.2458 160.833 66.027 160.078L65.9459 159.751Z" fill="black"/>
</g>
<defs>
<filter id="filter0_d_13103_3659" x="50.8808" y="0" width="148.446" height="147.692" filterUnits="userSpaceOnUse" color-interpolation-filters="sRGB">
<feFlood flood-opacity="0" result="BackgroundImageFix"/>
<feColorMatrix in="SourceAlpha" type="matrix" values="0 0 0 0 0 0 0 0 0 0 0 0 0 0 0 0 0 0 127 0" result="hardAlpha"/>
<feOffset dy="3.12749"/>
<feGaussianBlur stdDeviation="1.56374"/>
<feComposite in2="hardAlpha" operator="out"/>
<feColorMatrix type="matrix" values="0 0 0 0 0 0 0 0 0 0 0 0 0 0 0 0 0 0 0.08 0"/>
<feBlend mode="normal" in2="BackgroundImageFix" result="effect1_dropShadow_13103_3659"/>
<feBlend mode="normal" in="SourceGraphic" in2="effect1_dropShadow_13103_3659" result="shape"/>
</filter>
<filter id="filter1_d_13103_3659" x="-3.55879" y="90.3015" width="130.918" height="130.918" filterUnits="userSpaceOnUse" color-interpolation-filters="sRGB">
<feFlood flood-opacity="0" result="BackgroundImageFix"/>
<feColorMatrix in="SourceAlpha" type="matrix" values="0 0 0 0 0 0 0 0 0 0 0 0 0 0 0 0 0 0 127 0" result="hardAlpha"/>
<feOffset dy="3.55879"/>
<feGaussianBlur stdDeviation="1.77939"/>
<feComposite in2="hardAlpha" operator="out"/>
<feColorMatrix type="matrix" values="0 0 0 0 0 0 0 0 0 0 0 0 0 0 0 0 0 0 0.13 0"/>
<feBlend mode="normal" in2="BackgroundImageFix" result="effect1_dropShadow_13103_3659"/>
<feBlend mode="normal" in="SourceGraphic" in2="effect1_dropShadow_13103_3659" result="shape"/>
</filter>
<linearGradient id="paint0_linear_13103_3659" x1="64.5" y1="0" x2="64.5" y2="129" gradientUnits="userSpaceOnUse">
<stop stop-color="#5489A3"/>
<stop offset="1" stop-color="#577B91"/>
</linearGradient>
<linearGradient id="paint1_linear_13103_3659" x1="52.5" y1="111.204" x2="52.5" y2="216.204" gradientUnits="userSpaceOnUse">
<stop stop-color="#F9DED6" stop-opacity="0"/>
<stop offset="1" stop-color="#F9DED6"/>
</linearGradient>
</defs>
</svg>
