<svg width="259" height="280" viewBox="0 0 259 280" fill="none" xmlns="http://www.w3.org/2000/svg">
<g filter="url(#filter0_d_8077_15818)">
<rect x="137.296" y="-77" width="210.187" height="210.187" rx="105.094" transform="rotate(17.3157 137.296 -77)" fill="#5489A3" shape-rendering="crispEdges"/>
<rect x="137.296" y="-77" width="210.187" height="210.187" rx="105.094" transform="rotate(17.3157 137.296 -77)" fill="url(#paint0_linear_8077_15818)" fill-opacity="0.1" style="mix-blend-mode:color-burn" shape-rendering="crispEdges"/>
<g clip-path="url(#clip0_8077_15818)">
<path d="M222.411 52.7376C222.282 53.1534 221.992 53.5007 221.607 53.703C221.221 53.9053 220.771 53.9462 220.355 53.8166L195.272 45.9966C194.856 45.867 194.509 45.5775 194.307 45.1919C194.104 44.8062 194.064 44.356 194.193 43.9402C194.323 43.5245 194.612 43.1772 194.998 42.9749C195.384 42.7725 195.834 42.7317 196.25 42.8613L221.332 50.6812C221.748 50.8109 222.095 51.1003 222.298 51.486C222.5 51.8716 222.541 52.3219 222.411 52.7376ZM217.422 63.2226L192.34 55.4027C191.924 55.273 191.474 55.3139 191.088 55.5162C190.702 55.7186 190.413 56.0658 190.283 56.4816C190.154 56.8974 190.195 57.3476 190.397 57.7332C190.599 58.1189 190.946 58.4084 191.362 58.538L216.445 66.3579C216.861 66.4875 217.311 66.4467 217.697 66.2444C218.082 66.042 218.372 65.6948 218.501 65.279C218.631 64.8632 218.59 64.413 218.388 64.0273C218.185 63.6417 217.838 63.3522 217.422 63.2226ZM245.539 66.8282C243.413 73.6516 239.543 79.8017 234.311 84.6703C229.079 89.5389 222.666 92.9572 215.708 94.5872C208.749 96.2172 201.486 96.0023 194.636 93.9638C187.786 91.9254 181.587 88.1339 176.652 82.9646L161.21 83.2676C160.295 83.2856 159.394 83.0484 158.606 82.5827C157.818 82.1171 157.176 81.4412 156.751 80.631C156.326 79.8208 156.135 78.9081 156.199 77.9954C156.264 77.0827 156.581 76.206 157.116 75.4635L166.14 62.93C164.872 56.7938 165.026 50.4488 166.589 44.3812C168.152 38.3135 171.084 32.6841 175.159 27.9244C179.233 23.1647 184.344 19.4009 190.098 16.9215C195.853 14.442 202.098 13.3126 208.356 13.6199C214.615 13.9272 220.719 15.6629 226.203 18.6941C231.687 21.7254 236.404 25.9717 239.993 31.1077C243.582 36.2437 245.948 42.1331 246.909 48.3247C247.871 54.5163 247.402 60.8458 245.539 66.8282ZM242.404 65.8507C244.126 60.3193 244.553 54.4656 243.652 48.7427C242.75 43.0198 240.544 37.581 237.204 32.8472C233.864 28.1133 229.48 24.2113 224.39 21.443C219.301 18.6747 213.643 17.1144 207.854 16.8827C202.065 16.651 196.301 17.7542 191.006 20.1069C185.712 22.4596 181.03 25.9988 177.323 30.4506C173.615 34.9024 170.981 40.1475 169.625 45.78C168.269 51.4126 168.227 57.2817 169.502 62.9331C169.553 63.16 169.555 63.3952 169.509 63.6231C169.462 63.851 169.368 64.0664 169.232 64.255L159.781 77.3824C159.603 77.6299 159.497 77.9222 159.476 78.2264C159.454 78.5306 159.518 78.8348 159.66 79.1049C159.801 79.375 160.015 79.6003 160.278 79.7555C160.54 79.9107 160.841 79.9898 161.146 79.9838L177.318 79.6678C177.496 79.6632 177.672 79.6878 177.842 79.7407C178.116 79.8279 178.364 79.985 178.56 80.1967C183.052 85.0766 188.751 88.6873 195.082 90.6654C201.413 92.6435 208.154 92.9194 214.625 91.4652C221.097 90.011 227.072 86.878 231.948 82.3815C236.824 77.885 240.431 72.1835 242.404 65.8507Z" fill="#FFF4EB"/>
</g>
</g>
<g filter="url(#filter1_d_8077_15818)">
<rect y="62.281" width="150.751" height="150.751" rx="75.3754" transform="rotate(-3.40345 0 62.281)" fill="#E79450" shape-rendering="crispEdges"/>
<rect y="62.281" width="150.751" height="150.751" rx="75.3754" transform="rotate(-3.40345 0 62.281)" fill="url(#paint1_linear_8077_15818)" fill-opacity="0.1" style="mix-blend-mode:color-burn" shape-rendering="crispEdges"/>
<path d="M105.336 123.856L99.7238 115.341C98.9721 114.204 97.9075 113.308 96.6583 112.762C95.4092 112.217 94.0287 112.044 92.6835 112.265C91.3382 112.486 90.0856 113.091 89.0766 114.008C88.0676 114.924 87.3454 116.113 86.9969 117.431L80.1599 107.066C79.4027 105.921 78.3281 105.021 77.0675 104.476C75.807 103.931 74.415 103.766 73.0619 104C71.7088 104.234 70.4531 104.857 69.4484 105.792C68.4436 106.728 67.7333 107.937 67.4044 109.27C66.2056 107.956 64.5554 107.143 62.7833 106.992C61.0112 106.841 59.2474 107.365 57.8439 108.457C56.4405 109.549 55.5006 111.131 55.2118 112.886C54.923 114.641 55.3066 116.44 56.286 117.925L58.0074 120.533C56.6585 120.333 55.2808 120.529 54.0403 121.095C52.7999 121.661 51.7497 122.574 51.0164 123.723C50.2831 124.873 49.8981 126.21 49.9078 127.573C49.9174 128.937 50.3213 130.268 51.0708 131.407L64.0391 151.083C65.8196 153.8 68.1219 156.138 70.8124 157.96C73.5029 159.781 76.5282 161.051 79.7129 161.695C81.8436 162.134 84.0227 162.292 86.1945 162.165C90.5242 161.9 94.7081 160.501 98.3263 158.108C101.944 155.715 104.87 152.413 106.808 148.532C108.747 144.652 109.631 140.33 109.372 135.999C109.112 131.669 107.718 127.484 105.33 123.862L105.336 123.856ZM106.611 141.97C105.721 146.305 103.565 150.279 100.417 153.389C97.2689 156.498 93.2694 158.605 88.924 159.442C84.5787 160.279 80.0827 159.809 76.0045 158.091C71.9263 156.374 68.449 153.485 66.0122 149.791L53.0439 130.116C52.3744 129.073 52.1428 127.808 52.3994 126.596C52.656 125.383 53.38 124.321 54.4146 123.639C55.4492 122.956 56.711 122.709 57.9266 122.951C59.1422 123.192 60.2136 123.903 60.9087 124.929L67.1401 134.387C67.3207 134.626 67.5856 134.787 67.8808 134.837C68.1761 134.888 68.4795 134.824 68.7294 134.659C68.9793 134.494 69.1569 134.24 69.2259 133.948C69.295 133.657 69.2504 133.35 69.1012 133.09L58.2529 116.628C57.9032 116.112 57.6595 115.531 57.5359 114.92C57.4122 114.309 57.4112 113.679 57.5327 113.067C57.6543 112.456 57.896 111.875 58.2439 111.357C58.5919 110.84 59.0391 110.396 59.5596 110.053C60.0801 109.71 60.6636 109.473 61.2763 109.357C61.8889 109.241 62.5185 109.248 63.1285 109.377C63.7386 109.506 64.3169 109.755 64.83 110.109C65.3431 110.463 65.7808 110.916 66.1177 111.441L76.2229 126.767C76.3081 126.897 76.4178 127.008 76.5459 127.094C76.674 127.181 76.8179 127.242 76.9695 127.273C77.121 127.304 77.2772 127.305 77.4291 127.276C77.581 127.247 77.7256 127.188 77.8548 127.102C77.9839 127.017 78.095 126.908 78.1818 126.779C78.2685 126.651 78.3292 126.507 78.3603 126.356C78.3914 126.204 78.3924 126.048 78.3631 125.896C78.3339 125.744 78.275 125.6 78.1898 125.471L70.3282 113.55C69.6404 112.507 69.3951 111.233 69.6465 110.009C69.8978 108.785 70.6252 107.71 71.6685 107.023C72.7118 106.335 73.9856 106.09 75.2098 106.341C76.4339 106.592 77.5081 107.32 78.1959 108.363L89.5428 125.571C87.3147 127.792 85.971 130.748 85.7626 133.888C85.5542 137.027 86.4952 140.135 88.41 142.631C88.5033 142.756 88.6206 142.862 88.755 142.941C88.8894 143.021 89.0383 143.073 89.1931 143.094C89.3478 143.116 89.5052 143.106 89.6562 143.066C89.8072 143.026 89.9488 142.957 90.0726 142.861C90.1965 142.766 90.3001 142.647 90.3776 142.512C90.455 142.376 90.5047 142.226 90.5238 142.071C90.5428 141.916 90.5308 141.759 90.4885 141.609C90.4462 141.458 90.3744 141.318 90.2773 141.196C88.6185 139.035 87.8552 136.319 88.1455 133.611C88.4359 130.902 89.7577 128.41 91.8368 126.65C92.0568 126.464 92.201 126.204 92.2422 125.919C92.2834 125.634 92.2187 125.344 92.0604 125.103L89.8922 121.825C89.5425 121.309 89.2987 120.728 89.1751 120.117C89.0515 119.506 89.0504 118.876 89.172 118.265C89.2935 117.653 89.5352 117.072 89.8832 116.554C90.2311 116.037 90.6783 115.594 91.1988 115.25C91.7194 114.907 92.3029 114.671 92.9155 114.554C93.5282 114.438 94.1577 114.445 94.7678 114.574C95.3778 114.703 95.9562 114.952 96.4693 115.306C96.9824 115.661 97.4201 116.113 97.7569 116.638L103.369 125.153C104.993 127.602 106.116 130.349 106.673 133.234C107.229 136.12 107.208 139.087 106.61 141.964L106.611 141.97ZM95.7222 103.999C95.7844 103.694 95.965 103.426 96.2245 103.253C96.484 103.081 96.8013 103.018 97.1069 103.079C99.2356 103.505 101.258 104.35 103.058 105.565C104.857 106.779 106.397 108.339 107.589 110.154L107.696 110.319C107.864 110.578 107.924 110.893 107.863 111.195C107.801 111.498 107.623 111.764 107.367 111.937C107.238 112.023 107.093 112.082 106.941 112.111C106.789 112.141 106.633 112.14 106.481 112.109C106.33 112.078 106.186 112.018 106.057 111.931C105.929 111.844 105.819 111.733 105.734 111.604L105.627 111.442C104.607 109.888 103.289 108.553 101.749 107.513C100.208 106.474 98.4765 105.751 96.6542 105.386C96.5017 105.357 96.3565 105.298 96.227 105.212C96.0975 105.126 95.9863 105.016 95.8996 104.887C95.813 104.758 95.7528 104.613 95.7223 104.461C95.6918 104.308 95.6918 104.152 95.7222 103.999ZM66.8091 165.223C66.7072 165.369 66.5737 165.49 66.4185 165.577C66.2632 165.664 66.0903 165.714 65.9127 165.725C65.6492 165.74 65.3883 165.666 65.1717 165.515C61.6142 163.036 58.5634 159.9 56.1835 156.275C56.0905 156.146 56.0245 156 55.9895 155.845C55.9544 155.69 55.9511 155.53 55.9796 155.373C56.0082 155.217 56.0681 155.068 56.1557 154.936C56.2433 154.803 56.3567 154.69 56.4893 154.602C56.6219 154.515 56.7707 154.455 56.927 154.427C57.0833 154.398 57.2437 154.401 57.3986 154.437C57.5535 154.472 57.6997 154.538 57.8284 154.631C57.9571 154.724 58.0657 154.842 58.1475 154.978C60.3642 158.353 63.2048 161.274 66.5168 163.583C66.6438 163.671 66.752 163.784 66.8354 163.914C66.9188 164.045 66.9757 164.19 67.0028 164.342C67.03 164.495 67.0268 164.651 66.9936 164.802C66.9603 164.953 66.8976 165.096 66.8091 165.223Z" fill="#1C2745"/>
</g>
<g filter="url(#filter2_d_8077_15818)">
<rect x="74.7354" y="118.226" width="162.835" height="162.835" rx="81.4177" transform="rotate(-8.30105 74.7354 118.226)" fill="#FFF4EB" shape-rendering="crispEdges"/>
<rect x="74.7354" y="118.226" width="162.835" height="162.835" rx="81.4177" transform="rotate(-8.30105 74.7354 118.226)" fill="url(#paint2_linear_8077_15818)" fill-opacity="0.1" style="mix-blend-mode:color-burn" shape-rendering="crispEdges"/>
<path d="M187.326 167.365L174.769 169.197C174.075 169.263 157.447 170.638 139.846 159.774C139.228 159.392 138.515 159.195 137.788 159.204C137.062 159.214 136.354 159.43 135.746 159.828C135.139 160.226 134.658 160.789 134.359 161.451C134.061 162.113 133.957 162.847 134.061 163.566L141.408 213.919C141.508 214.639 141.814 215.314 142.289 215.865C142.764 216.415 143.387 216.817 144.085 217.022C144.62 217.181 145.183 217.223 145.735 217.144C146.621 217.013 147.433 216.572 148.025 215.9C159.752 202.741 173.343 198.306 177.527 197.197L179.193 208.618C179.283 209.24 179.525 209.831 179.899 210.337C180.272 210.844 180.765 211.25 181.333 211.52L185.131 213.321C185.682 213.583 186.287 213.708 186.896 213.688C187.506 213.667 188.101 213.501 188.633 213.203C189.165 212.905 189.617 212.485 189.953 211.976C190.289 211.467 190.498 210.885 190.563 210.279L192.331 194.886C195.883 194.121 198.997 192.004 201.016 188.984C203.035 185.964 203.801 182.277 203.151 178.703C202.501 175.128 200.486 171.947 197.533 169.831C194.58 167.715 190.919 166.831 187.326 167.365ZM177.166 194.656C172.97 195.702 158.679 200.124 146.136 214.209C145.975 214.39 145.766 214.522 145.533 214.589C145.3 214.655 145.053 214.654 144.821 214.585C144.589 214.516 144.381 214.382 144.222 214.199C144.064 214.016 143.961 213.791 143.925 213.551L136.579 163.198C136.544 162.959 136.578 162.715 136.677 162.495C136.775 162.275 136.935 162.087 137.136 161.954C137.298 161.85 137.48 161.782 137.67 161.754C137.965 161.716 138.264 161.787 138.512 161.952C154.555 171.854 169.513 172.008 173.833 171.812L177.166 194.656ZM188.042 210.007C188.021 210.21 187.953 210.405 187.841 210.576C187.73 210.747 187.579 210.888 187.401 210.989C187.224 211.089 187.025 211.145 186.821 211.152C186.617 211.159 186.415 211.118 186.23 211.03L182.432 209.228C182.243 209.138 182.079 209.003 181.954 208.835C181.83 208.666 181.749 208.469 181.719 208.262L180.034 196.712L189.727 195.298L188.042 210.007ZM190.999 192.541L179.67 194.194L176.364 171.536L187.693 169.883C190.698 169.444 193.754 170.217 196.188 172.032C198.623 173.847 200.237 176.554 200.676 179.559C201.114 182.564 200.341 185.62 198.526 188.054C196.711 190.489 194.004 192.103 190.999 192.541Z" fill="#1C2745"/>
</g>
<defs>
<filter id="filter0_d_8077_15818" x="70.7363" y="-77" width="271.222" height="271.221" filterUnits="userSpaceOnUse" color-interpolation-filters="sRGB">
<feFlood flood-opacity="0" result="BackgroundImageFix"/>
<feColorMatrix in="SourceAlpha" type="matrix" values="0 0 0 0 0 0 0 0 0 0 0 0 0 0 0 0 0 0 127 0" result="hardAlpha"/>
<feOffset dy="4"/>
<feGaussianBlur stdDeviation="2"/>
<feComposite in2="hardAlpha" operator="out"/>
<feColorMatrix type="matrix" values="0 0 0 0 0 0 0 0 0 0 0 0 0 0 0 0 0 0 0.13 0"/>
<feBlend mode="normal" in2="BackgroundImageFix" result="effect1_dropShadow_8077_15818"/>
<feBlend mode="normal" in="SourceGraphic" in2="effect1_dropShadow_8077_15818" result="shape"/>
</filter>
<filter id="filter1_d_8077_15818" x="-4" y="53.3315" width="167.435" height="167.434" filterUnits="userSpaceOnUse" color-interpolation-filters="sRGB">
<feFlood flood-opacity="0" result="BackgroundImageFix"/>
<feColorMatrix in="SourceAlpha" type="matrix" values="0 0 0 0 0 0 0 0 0 0 0 0 0 0 0 0 0 0 127 0" result="hardAlpha"/>
<feOffset dy="4"/>
<feGaussianBlur stdDeviation="2"/>
<feComposite in2="hardAlpha" operator="out"/>
<feColorMatrix type="matrix" values="0 0 0 0 0 0 0 0 0 0 0 0 0 0 0 0 0 0 0.13 0"/>
<feBlend mode="normal" in2="BackgroundImageFix" result="effect1_dropShadow_8077_15818"/>
<feBlend mode="normal" in="SourceGraphic" in2="effect1_dropShadow_8077_15818" result="shape"/>
</filter>
<filter id="filter2_d_8077_15818" x="70.7354" y="94.7163" width="192.639" height="192.639" filterUnits="userSpaceOnUse" color-interpolation-filters="sRGB">
<feFlood flood-opacity="0" result="BackgroundImageFix"/>
<feColorMatrix in="SourceAlpha" type="matrix" values="0 0 0 0 0 0 0 0 0 0 0 0 0 0 0 0 0 0 127 0" result="hardAlpha"/>
<feOffset dy="4"/>
<feGaussianBlur stdDeviation="2"/>
<feComposite in2="hardAlpha" operator="out"/>
<feColorMatrix type="matrix" values="0 0 0 0 0 0 0 0 0 0 0 0 0 0 0 0 0 0 0.25 0"/>
<feBlend mode="normal" in2="BackgroundImageFix" result="effect1_dropShadow_8077_15818"/>
<feBlend mode="normal" in="SourceGraphic" in2="effect1_dropShadow_8077_15818" result="shape"/>
</filter>
<linearGradient id="paint0_linear_8077_15818" x1="242.39" y1="-77" x2="242.39" y2="133.187" gradientUnits="userSpaceOnUse">
<stop stop-opacity="0"/>
<stop offset="1"/>
</linearGradient>
<linearGradient id="paint1_linear_8077_15818" x1="75.3754" y1="62.281" x2="75.3754" y2="213.032" gradientUnits="userSpaceOnUse">
<stop stop-opacity="0"/>
<stop offset="1"/>
</linearGradient>
<linearGradient id="paint2_linear_8077_15818" x1="156.153" y1="118.226" x2="156.153" y2="281.061" gradientUnits="userSpaceOnUse">
<stop stop-opacity="0"/>
<stop offset="1"/>
</linearGradient>
<clipPath id="clip0_8077_15818">
<rect width="105.094" height="105.094" fill="white" transform="translate(171.821 -11.1948) rotate(17.3157)"/>
</clipPath>
</defs>
</svg>
